<?xml version="1.0" encoding="UTF-8" standalone="no"?><!DOCTYPE svg PUBLIC "-//W3C//DTD SVG 1.1//EN" "http://www.w3.org/Graphics/SVG/1.1/DTD/svg11.dtd"><!-- Generated by graphviz version 2.40.1 (20161225.0304)
 --><!-- Title: %0 Pages: 1 --><svg xmlns="http://www.w3.org/2000/svg" xmlns:xlink="http://www.w3.org/1999/xlink" width="857pt" height="334pt" viewBox="0.00 0.00 856.67 334.40">
<g id="graph0" class="graph" transform="scale(1 1) rotate(0) translate(4 330.4)">
<title>%0</title>
<polygon fill="#d3d3d3" stroke="transparent" points="-4,4 -4,-330.4 852.674,-330.4 852.674,4 -4,4"/>
<!-- n0 -->
<g id="node1" class="node">
<title>n0</title>
<polygon fill="#ffffff" stroke="#000000" stroke-width="2" points="255.337,-326.4 237.337,-326.4 237.337,-308.4 255.337,-308.4 255.337,-326.4"/>
</g>
<!-- n1 -->
<g id="node2" class="node">
<title>n1</title>
<polygon fill="#ffffff" stroke="#000000" stroke-width="2" points="92.1761,-279.6036 12.4979,-279.6036 12.4979,-256.7964 92.1761,-256.7964 92.1761,-279.6036"/>
<text text-anchor="middle" x="52.337" y="-264.6" font-family="Helvetica,sans-Serif" font-weight="bold" font-size="12.00" fill="#0000ff">VAR_DECL</text>
</g>
<!-- n0&#45;&gt;n1 -->
<g id="edge1" class="edge">
<title>n0-&gt;n1</title>
<path fill="none" stroke="#000000" stroke-width="2" d="M237.2402,-315.093C212.6658,-308.8607 143.6758,-291.3643 97.2741,-279.5964"/>
<polygon fill="#000000" stroke="#000000" stroke-width="2" points="97.5718,-277.8666 92.295,-278.3337 96.7114,-281.2592 97.5718,-277.8666"/>
</g>
<!-- n5 -->
<g id="node6" class="node">
<title>n5</title>
<polygon fill="#ffffff" stroke="#000000" stroke-width="2" points="189.1761,-279.6036 109.4979,-279.6036 109.4979,-256.7964 189.1761,-256.7964 189.1761,-279.6036"/>
<text text-anchor="middle" x="149.337" y="-264.6" font-family="Helvetica,sans-Serif" font-weight="bold" font-size="12.00" fill="#0000ff">VAR_DECL</text>
</g>
<!-- n0&#45;&gt;n5 -->
<g id="edge5" class="edge">
<title>n0-&gt;n5</title>
<path fill="none" stroke="#000000" stroke-width="2" d="M237.0362,-312.6825C223.1055,-305.6166 196.2877,-292.0142 175.9582,-281.7027"/>
<polygon fill="#000000" stroke="#000000" stroke-width="2" points="176.7162,-280.125 171.4654,-279.4239 175.1329,-283.2464 176.7162,-280.125"/>
</g>
<!-- n9 -->
<g id="node10" class="node">
<title>n9</title>
<polygon fill="#ffffff" stroke="#000000" stroke-width="2" points="286.1761,-279.6036 206.4979,-279.6036 206.4979,-256.7964 286.1761,-256.7964 286.1761,-279.6036"/>
<text text-anchor="middle" x="246.337" y="-264.6" font-family="Helvetica,sans-Serif" font-weight="bold" font-size="12.00" fill="#0000ff">VAR_DECL</text>
</g>
<!-- n0&#45;&gt;n9 -->
<g id="edge9" class="edge">
<title>n0-&gt;n9</title>
<path fill="none" stroke="#000000" stroke-width="2" d="M246.337,-308.376C246.337,-301.7943 246.337,-292.6857 246.337,-284.8052"/>
<polygon fill="#000000" stroke="#000000" stroke-width="2" points="248.0871,-284.5917 246.337,-279.5918 244.5871,-284.5918 248.0871,-284.5917"/>
</g>
<!-- n16 -->
<g id="node17" class="node">
<title>n16</title>
<polygon fill="#ffffff" stroke="#000000" stroke-width="2" points="430.4963,-279.6036 324.1777,-279.6036 324.1777,-256.7964 430.4963,-256.7964 430.4963,-279.6036"/>
<text text-anchor="middle" x="377.337" y="-264.6" font-family="Helvetica,sans-Serif" font-weight="bold" font-size="12.00" fill="#0000ff">METHOD_DECL</text>
</g>
<!-- n0&#45;&gt;n16 -->
<g id="edge16" class="edge">
<title>n0-&gt;n16</title>
<path fill="none" stroke="#000000" stroke-width="2" d="M255.3412,-314.0183C272.9914,-307.3893 312.977,-292.3719 342.381,-281.3285"/>
<polygon fill="#000000" stroke="#000000" stroke-width="2" points="343.306,-282.8505 347.3715,-279.4542 342.0754,-279.574 343.306,-282.8505"/>
</g>
<!-- n51 -->
<g id="node52" class="node">
<title>n51</title>
<polygon fill="#ffffff" stroke="#000000" stroke-width="2" points="650.4963,-279.6036 544.1777,-279.6036 544.1777,-256.7964 650.4963,-256.7964 650.4963,-279.6036"/>
<text text-anchor="middle" x="597.337" y="-264.6" font-family="Helvetica,sans-Serif" font-weight="bold" font-size="12.00" fill="#0000ff">METHOD_DECL</text>
</g>
<!-- n0&#45;&gt;n51 -->
<g id="edge51" class="edge">
<title>n0-&gt;n51</title>
<path fill="none" stroke="#000000" stroke-width="2" d="M255.3662,-316.1344C294.5562,-310.6411 451.8434,-288.594 538.8021,-276.4049"/>
<polygon fill="#000000" stroke="#000000" stroke-width="2" points="539.2049,-278.1156 543.9136,-275.6884 538.719,-274.6495 539.2049,-278.1156"/>
</g>
<!-- n2 -->
<g id="node3" class="node">
<title>n2</title>
<polygon fill="#ffffff" stroke="#000000" stroke-width="2" points="30.509,-228.2036 8.165,-228.2036 8.165,-205.3964 30.509,-205.3964 30.509,-228.2036"/>
<text text-anchor="middle" x="19.337" y="-213.2" font-family="Helvetica,sans-Serif" font-weight="bold" font-size="12.00" fill="#0000ff">[]</text>
</g>
<!-- n1&#45;&gt;n2 -->
<g id="edge2" class="edge">
<title>n1-&gt;n2</title>
<path fill="none" stroke="#000000" stroke-width="2" d="M45.0132,-256.7927C40.4845,-249.7388 34.6035,-240.5787 29.6127,-232.8051"/>
<polygon fill="#000000" stroke="#000000" stroke-width="2" points="30.8143,-231.4375 26.6403,-228.1754 27.869,-233.3284 30.8143,-231.4375"/>
</g>
<!-- n4 -->
<g id="node5" class="node">
<title>n4</title>
<polygon fill="#ffffff" stroke="#000000" stroke-width="2" points="71.5102,-228.2036 49.1638,-228.2036 49.1638,-205.3964 71.5102,-205.3964 71.5102,-228.2036"/>
<text text-anchor="middle" x="60.337" y="-213.2" font-family="Helvetica,sans-Serif" font-weight="bold" font-size="12.00" fill="#0000ff">a</text>
</g>
<!-- n1&#45;&gt;n4 -->
<g id="edge4" class="edge">
<title>n1-&gt;n4</title>
<path fill="none" stroke="#000000" stroke-width="2" d="M54.1125,-256.7927C55.1896,-249.8719 56.5824,-240.9236 57.7772,-233.2466"/>
<polygon fill="#000000" stroke="#000000" stroke-width="2" points="59.5267,-233.3851 58.5665,-228.1754 56.0683,-232.8468 59.5267,-233.3851"/>
</g>
<!-- n3 -->
<g id="node4" class="node">
<title>n3</title>
<polygon fill="#ffffff" stroke="#000000" stroke-width="2" points="38.5124,-176.8036 .1616,-176.8036 .1616,-153.9964 38.5124,-153.9964 38.5124,-176.8036"/>
<text text-anchor="middle" x="19.337" y="-161.8" font-family="Helvetica,sans-Serif" font-weight="bold" font-size="12.00" fill="#0000ff">float</text>
</g>
<!-- n2&#45;&gt;n3 -->
<g id="edge3" class="edge">
<title>n2-&gt;n3</title>
<path fill="none" stroke="#000000" stroke-width="2" d="M19.337,-205.3927C19.337,-198.4719 19.337,-189.5236 19.337,-181.8466"/>
<polygon fill="#000000" stroke="#000000" stroke-width="2" points="21.0871,-181.7754 19.337,-176.7754 17.5871,-181.7755 21.0871,-181.7754"/>
</g>
<!-- n6 -->
<g id="node7" class="node">
<title>n6</title>
<polygon fill="#ffffff" stroke="#000000" stroke-width="2" points="119.509,-228.2036 97.165,-228.2036 97.165,-205.3964 119.509,-205.3964 119.509,-228.2036"/>
<text text-anchor="middle" x="108.337" y="-213.2" font-family="Helvetica,sans-Serif" font-weight="bold" font-size="12.00" fill="#0000ff">[]</text>
</g>
<!-- n5&#45;&gt;n6 -->
<g id="edge6" class="edge">
<title>n5-&gt;n6</title>
<path fill="none" stroke="#000000" stroke-width="2" d="M140.2378,-256.7927C134.505,-249.6057 127.0281,-240.2323 120.754,-232.3666"/>
<polygon fill="#000000" stroke="#000000" stroke-width="2" points="121.8968,-230.993 117.4108,-228.1754 119.1607,-233.1755 121.8968,-230.993"/>
</g>
<!-- n8 -->
<g id="node9" class="node">
<title>n8</title>
<polygon fill="#ffffff" stroke="#000000" stroke-width="2" points="160.5102,-228.2036 138.1638,-228.2036 138.1638,-205.3964 160.5102,-205.3964 160.5102,-228.2036"/>
<text text-anchor="middle" x="149.337" y="-213.2" font-family="Helvetica,sans-Serif" font-weight="bold" font-size="12.00" fill="#0000ff">d</text>
</g>
<!-- n5&#45;&gt;n8 -->
<g id="edge8" class="edge">
<title>n5-&gt;n8</title>
<path fill="none" stroke="#000000" stroke-width="2" d="M149.337,-256.7927C149.337,-249.8719 149.337,-240.9236 149.337,-233.2466"/>
<polygon fill="#000000" stroke="#000000" stroke-width="2" points="151.0871,-233.1754 149.337,-228.1754 147.5871,-233.1755 151.0871,-233.1754"/>
</g>
<!-- n7 -->
<g id="node8" class="node">
<title>n7</title>
<polygon fill="#ffffff" stroke="#000000" stroke-width="2" points="122.5073,-176.8036 94.1667,-176.8036 94.1667,-153.9964 122.5073,-153.9964 122.5073,-176.8036"/>
<text text-anchor="middle" x="108.337" y="-161.8" font-family="Helvetica,sans-Serif" font-weight="bold" font-size="12.00" fill="#0000ff">int</text>
</g>
<!-- n6&#45;&gt;n7 -->
<g id="edge7" class="edge">
<title>n6-&gt;n7</title>
<path fill="none" stroke="#000000" stroke-width="2" d="M108.337,-205.3927C108.337,-198.4719 108.337,-189.5236 108.337,-181.8466"/>
<polygon fill="#000000" stroke="#000000" stroke-width="2" points="110.0871,-181.7754 108.337,-176.7754 106.5871,-181.7755 110.0871,-181.7754"/>
</g>
<!-- n10 -->
<g id="node11" class="node">
<title>n10</title>
<polygon fill="#ffffff" stroke="#000000" stroke-width="2" points="207.5073,-228.2036 179.1667,-228.2036 179.1667,-205.3964 207.5073,-205.3964 207.5073,-228.2036"/>
<text text-anchor="middle" x="193.337" y="-213.2" font-family="Helvetica,sans-Serif" font-weight="bold" font-size="12.00" fill="#0000ff">int</text>
</g>
<!-- n9&#45;&gt;n10 -->
<g id="edge10" class="edge">
<title>n9-&gt;n10</title>
<path fill="none" stroke="#000000" stroke-width="2" d="M234.5746,-256.7927C227.0267,-249.4726 217.1399,-239.8843 208.9392,-231.9312"/>
<polygon fill="#000000" stroke="#000000" stroke-width="2" points="209.8742,-230.4001 205.0665,-228.1754 207.4375,-232.9127 209.8742,-230.4001"/>
</g>
<!-- n11 -->
<g id="node12" class="node">
<title>n11</title>
<polygon fill="#ffffff" stroke="#000000" stroke-width="2" points="247.337,-228.2036 225.337,-228.2036 225.337,-205.3964 247.337,-205.3964 247.337,-228.2036"/>
<text text-anchor="middle" x="236.337" y="-213.2" font-family="Helvetica,sans-Serif" font-weight="bold" font-size="12.00" fill="#0000ff">c</text>
</g>
<!-- n9&#45;&gt;n11 -->
<g id="edge11" class="edge">
<title>n9-&gt;n11</title>
<path fill="none" stroke="#000000" stroke-width="2" d="M244.1177,-256.7927C242.7712,-249.8719 241.0303,-240.9236 239.5367,-233.2466"/>
<polygon fill="#000000" stroke="#000000" stroke-width="2" points="241.2229,-232.7492 238.5501,-228.1754 237.7873,-233.4176 241.2229,-232.7492"/>
</g>
<!-- n12 -->
<g id="node13" class="node">
<title>n12</title>
<polygon fill="#ffffff" stroke="#000000" stroke-width="2" points="313.5093,-228.2036 265.1647,-228.2036 265.1647,-205.3964 313.5093,-205.3964 313.5093,-228.2036"/>
<text text-anchor="middle" x="289.337" y="-213.2" font-family="Helvetica,sans-Serif" font-weight="bold" font-size="12.00" fill="#0000ff">EXPR</text>
</g>
<!-- n9&#45;&gt;n12 -->
<g id="edge12" class="edge">
<title>n9-&gt;n12</title>
<path fill="none" stroke="#000000" stroke-width="2" d="M255.8801,-256.7927C261.8925,-249.6057 269.7341,-240.2323 276.3143,-232.3666"/>
<polygon fill="#000000" stroke="#000000" stroke-width="2" points="277.9545,-233.1333 279.8206,-228.1754 275.27,-230.8875 277.9545,-233.1333"/>
</g>
<!-- n13 -->
<g id="node14" class="node">
<title>n13</title>
<polygon fill="#ffffff" stroke="#000000" stroke-width="2" points="208.8438,-176.8036 185.8302,-176.8036 185.8302,-153.9964 208.8438,-153.9964 208.8438,-176.8036"/>
<text text-anchor="middle" x="197.337" y="-161.8" font-family="Helvetica,sans-Serif" font-weight="bold" font-size="12.00" fill="#0000ff">+</text>
</g>
<!-- n12&#45;&gt;n13 -->
<g id="edge13" class="edge">
<title>n12-&gt;n13</title>
<path fill="none" stroke="#000000" stroke-width="2" d="M268.9192,-205.3927C252.2241,-196.0652 228.9369,-183.0547 213.513,-174.4374"/>
<polygon fill="#000000" stroke="#000000" stroke-width="2" points="214.2132,-172.8241 208.9947,-171.9131 212.5061,-175.8796 214.2132,-172.8241"/>
</g>
<!-- n14 -->
<g id="node15" class="node">
<title>n14</title>
<polygon fill="#ffffff" stroke="#000000" stroke-width="2" points="168.1403,-125.4036 140.5337,-125.4036 140.5337,-102.5964 168.1403,-102.5964 168.1403,-125.4036"/>
<text text-anchor="middle" x="154.337" y="-110.4" font-family="Helvetica,sans-Serif" font-weight="bold" font-size="12.00" fill="#0000ff">'z'</text>
</g>
<!-- n13&#45;&gt;n14 -->
<g id="edge14" class="edge">
<title>n13-&gt;n14</title>
<path fill="none" stroke="#000000" stroke-width="2" d="M187.7939,-153.9927C181.7815,-146.8057 173.9399,-137.4323 167.3597,-129.5666"/>
<polygon fill="#000000" stroke="#000000" stroke-width="2" points="168.404,-128.0875 163.8534,-125.3754 165.7195,-130.3333 168.404,-128.0875"/>
</g>
<!-- n15 -->
<g id="node16" class="node">
<title>n15</title>
<polygon fill="#ffffff" stroke="#000000" stroke-width="2" points="208.5102,-125.4036 186.1638,-125.4036 186.1638,-102.5964 208.5102,-102.5964 208.5102,-125.4036"/>
<text text-anchor="middle" x="197.337" y="-110.4" font-family="Helvetica,sans-Serif" font-weight="bold" font-size="12.00" fill="#0000ff">1</text>
</g>
<!-- n13&#45;&gt;n15 -->
<g id="edge15" class="edge">
<title>n13-&gt;n15</title>
<path fill="none" stroke="#000000" stroke-width="2" d="M197.337,-153.9927C197.337,-147.0719 197.337,-138.1236 197.337,-130.4466"/>
<polygon fill="#000000" stroke="#000000" stroke-width="2" points="199.0871,-130.3754 197.337,-125.3754 195.5871,-130.3755 199.0871,-130.3754"/>
</g>
<!-- n17 -->
<g id="node18" class="node">
<title>n17</title>
<polygon fill="#ffffff" stroke="#000000" stroke-width="2" points="369.3414,-228.2036 331.3326,-228.2036 331.3326,-205.3964 369.3414,-205.3964 369.3414,-228.2036"/>
<text text-anchor="middle" x="350.337" y="-213.2" font-family="Helvetica,sans-Serif" font-weight="bold" font-size="12.00" fill="#0000ff">void</text>
</g>
<!-- n16&#45;&gt;n17 -->
<g id="edge17" class="edge">
<title>n16-&gt;n17</title>
<path fill="none" stroke="#000000" stroke-width="2" d="M371.3448,-256.7927C367.6395,-249.7388 362.8277,-240.5787 358.7444,-232.8051"/>
<polygon fill="#000000" stroke="#000000" stroke-width="2" points="360.1869,-231.7881 356.3124,-228.1754 357.0884,-233.4157 360.1869,-231.7881"/>
</g>
<!-- n18 -->
<g id="node19" class="node">
<title>n18</title>
<polygon fill="#ffffff" stroke="#000000" stroke-width="2" points="407.1747,-228.2036 387.4993,-228.2036 387.4993,-205.3964 407.1747,-205.3964 407.1747,-228.2036"/>
<text text-anchor="middle" x="397.337" y="-213.2" font-family="Helvetica,sans-Serif" font-weight="bold" font-size="12.00" fill="#0000ff">f</text>
</g>
<!-- n16&#45;&gt;n18 -->
<g id="edge18" class="edge">
<title>n16-&gt;n18</title>
<path fill="none" stroke="#000000" stroke-width="2" d="M381.7756,-256.7927C384.4686,-249.8719 387.9504,-240.9236 390.9375,-233.2466"/>
<polygon fill="#000000" stroke="#000000" stroke-width="2" points="392.7285,-233.4697 392.9108,-228.1754 389.4667,-232.2005 392.7285,-233.4697"/>
</g>
<!-- n19 -->
<g id="node20" class="node">
<title>n19</title>
<polygon fill="#ffffff" stroke="#000000" stroke-width="2" points="481.5119,-228.2036 425.1621,-228.2036 425.1621,-205.3964 481.5119,-205.3964 481.5119,-228.2036"/>
<text text-anchor="middle" x="453.337" y="-213.2" font-family="Helvetica,sans-Serif" font-weight="bold" font-size="12.00" fill="#0000ff">BLOCK</text>
</g>
<!-- n16&#45;&gt;n19 -->
<g id="edge19" class="edge">
<title>n16-&gt;n19</title>
<path fill="none" stroke="#000000" stroke-width="2" d="M394.2039,-256.7927C405.4208,-249.2065 420.24,-239.184 432.237,-231.0703"/>
<polygon fill="#000000" stroke="#000000" stroke-width="2" points="433.356,-232.4262 436.5173,-228.1754 431.3952,-229.527 433.356,-232.4262"/>
</g>
<!-- n20 -->
<g id="node21" class="node">
<title>n20</title>
<polygon fill="#ffffff" stroke="#000000" stroke-width="2" points="329.8438,-176.8036 306.8302,-176.8036 306.8302,-153.9964 329.8438,-153.9964 329.8438,-176.8036"/>
<text text-anchor="middle" x="318.337" y="-161.8" font-family="Helvetica,sans-Serif" font-weight="bold" font-size="12.00" fill="#0000ff">=</text>
</g>
<!-- n19&#45;&gt;n20 -->
<g id="edge20" class="edge">
<title>n19-&gt;n20</title>
<path fill="none" stroke="#000000" stroke-width="2" d="M425.0366,-206.0249C397.7219,-195.6251 357.3016,-180.2354 334.8661,-171.6933"/>
<polygon fill="#000000" stroke="#000000" stroke-width="2" points="335.3932,-170.0215 330.0977,-169.8778 334.1478,-173.2924 335.3932,-170.0215"/>
</g>
<!-- n29 -->
<g id="node30" class="node">
<title>n29</title>
<polygon fill="#ffffff" stroke="#000000" stroke-width="2" points="463.8438,-176.8036 440.8302,-176.8036 440.8302,-153.9964 463.8438,-153.9964 463.8438,-176.8036"/>
<text text-anchor="middle" x="452.337" y="-161.8" font-family="Helvetica,sans-Serif" font-weight="bold" font-size="12.00" fill="#0000ff">=</text>
</g>
<!-- n19&#45;&gt;n29 -->
<g id="edge29" class="edge">
<title>n19-&gt;n29</title>
<path fill="none" stroke="#000000" stroke-width="2" d="M453.1151,-205.3927C452.9804,-198.4719 452.8063,-189.5236 452.657,-181.8466"/>
<polygon fill="#000000" stroke="#000000" stroke-width="2" points="454.4053,-181.7404 452.5583,-176.7754 450.906,-181.8086 454.4053,-181.7404"/>
</g>
<!-- n38 -->
<g id="node39" class="node">
<title>n38</title>
<polygon fill="#ffffff" stroke="#000000" stroke-width="2" points="529.8438,-176.8036 506.8302,-176.8036 506.8302,-153.9964 529.8438,-153.9964 529.8438,-176.8036"/>
<text text-anchor="middle" x="518.337" y="-161.8" font-family="Helvetica,sans-Serif" font-weight="bold" font-size="12.00" fill="#0000ff">=</text>
</g>
<!-- n19&#45;&gt;n38 -->
<g id="edge38" class="edge">
<title>n19-&gt;n38</title>
<path fill="none" stroke="#000000" stroke-width="2" d="M467.7626,-205.3927C478.0644,-197.2464 491.9187,-186.2908 502.5218,-177.9061"/>
<polygon fill="#000000" stroke="#000000" stroke-width="2" points="503.7201,-179.1897 506.5566,-174.7156 501.5491,-176.4443 503.7201,-179.1897"/>
</g>
<!-- n45 -->
<g id="node46" class="node">
<title>n45</title>
<polygon fill="#ffffff" stroke="#000000" stroke-width="2" points="596.5093,-176.8036 548.1647,-176.8036 548.1647,-153.9964 596.5093,-153.9964 596.5093,-176.8036"/>
<text text-anchor="middle" x="572.337" y="-161.8" font-family="Helvetica,sans-Serif" font-weight="bold" font-size="12.00" fill="#0000ff">EXPR</text>
</g>
<!-- n19&#45;&gt;n45 -->
<g id="edge45" class="edge">
<title>n19-&gt;n45</title>
<path fill="none" stroke="#000000" stroke-width="2" d="M479.4521,-205.5201C498.2475,-197.4017 523.6145,-186.4449 543.0898,-178.0328"/>
<polygon fill="#000000" stroke="#000000" stroke-width="2" points="544.0104,-179.5415 547.9066,-175.9523 542.6225,-176.3284 544.0104,-179.5415"/>
</g>
<!-- n21 -->
<g id="node22" class="node">
<title>n21</title>
<polygon fill="#ffffff" stroke="#000000" stroke-width="2" points="275.5093,-125.4036 227.1647,-125.4036 227.1647,-102.5964 275.5093,-102.5964 275.5093,-125.4036"/>
<text text-anchor="middle" x="251.337" y="-110.4" font-family="Helvetica,sans-Serif" font-weight="bold" font-size="12.00" fill="#0000ff">EXPR</text>
</g>
<!-- n20&#45;&gt;n21 -->
<g id="edge21" class="edge">
<title>n20-&gt;n21</title>
<path fill="none" stroke="#000000" stroke-width="2" d="M306.6665,-156.4468C296.6491,-148.7618 282.0191,-137.5382 270.3187,-128.5621"/>
<polygon fill="#000000" stroke="#000000" stroke-width="2" points="271.1868,-127.0224 266.1545,-125.3675 269.0564,-129.7994 271.1868,-127.0224"/>
</g>
<!-- n25 -->
<g id="node26" class="node">
<title>n25</title>
<polygon fill="#ffffff" stroke="#000000" stroke-width="2" points="342.5093,-125.4036 294.1647,-125.4036 294.1647,-102.5964 342.5093,-102.5964 342.5093,-125.4036"/>
<text text-anchor="middle" x="318.337" y="-110.4" font-family="Helvetica,sans-Serif" font-weight="bold" font-size="12.00" fill="#0000ff">EXPR</text>
</g>
<!-- n20&#45;&gt;n25 -->
<g id="edge25" class="edge">
<title>n20-&gt;n25</title>
<path fill="none" stroke="#000000" stroke-width="2" d="M318.337,-153.9927C318.337,-147.0719 318.337,-138.1236 318.337,-130.4466"/>
<polygon fill="#000000" stroke="#000000" stroke-width="2" points="320.0871,-130.3754 318.337,-125.3754 316.5871,-130.3755 320.0871,-130.3754"/>
</g>
<!-- n22 -->
<g id="node23" class="node">
<title>n22</title>
<polygon fill="#ffffff" stroke="#000000" stroke-width="2" points="252.1747,-74.0036 232.4993,-74.0036 232.4993,-51.1964 252.1747,-51.1964 252.1747,-74.0036"/>
<text text-anchor="middle" x="242.337" y="-59" font-family="Helvetica,sans-Serif" font-weight="bold" font-size="12.00" fill="#0000ff">[</text>
</g>
<!-- n21&#45;&gt;n22 -->
<g id="edge22" class="edge">
<title>n21-&gt;n22</title>
<path fill="none" stroke="#000000" stroke-width="2" d="M249.3396,-102.5927C248.1278,-95.6719 246.561,-86.7236 245.2168,-79.0466"/>
<polygon fill="#000000" stroke="#000000" stroke-width="2" points="246.915,-78.5987 244.3288,-73.9754 243.4675,-79.2024 246.915,-78.5987"/>
</g>
<!-- n23 -->
<g id="node24" class="node">
<title>n23</title>
<polygon fill="#ffffff" stroke="#000000" stroke-width="2" points="212.5102,-22.6036 190.1638,-22.6036 190.1638,.2036 212.5102,.2036 212.5102,-22.6036"/>
<text text-anchor="middle" x="201.337" y="-7.6" font-family="Helvetica,sans-Serif" font-weight="bold" font-size="12.00" fill="#0000ff">a</text>
</g>
<!-- n22&#45;&gt;n23 -->
<g id="edge23" class="edge">
<title>n22-&gt;n23</title>
<path fill="none" stroke="#000000" stroke-width="2" d="M233.2378,-51.1927C227.505,-44.0057 220.0281,-34.6323 213.754,-26.7666"/>
<polygon fill="#000000" stroke="#000000" stroke-width="2" points="214.8968,-25.393 210.4108,-22.5754 212.1607,-27.5755 214.8968,-25.393"/>
</g>
<!-- n24 -->
<g id="node25" class="node">
<title>n24</title>
<polygon fill="#ffffff" stroke="#000000" stroke-width="2" points="253.5102,-22.6036 231.1638,-22.6036 231.1638,.2036 253.5102,.2036 253.5102,-22.6036"/>
<text text-anchor="middle" x="242.337" y="-7.6" font-family="Helvetica,sans-Serif" font-weight="bold" font-size="12.00" fill="#0000ff">0</text>
</g>
<!-- n22&#45;&gt;n24 -->
<g id="edge24" class="edge">
<title>n22-&gt;n24</title>
<path fill="none" stroke="#000000" stroke-width="2" d="M242.337,-51.1927C242.337,-44.2719 242.337,-35.3236 242.337,-27.6466"/>
<polygon fill="#000000" stroke="#000000" stroke-width="2" points="244.0871,-27.5754 242.337,-22.5754 240.5871,-27.5755 244.0871,-27.5754"/>
</g>
<!-- n26 -->
<g id="node27" class="node">
<title>n26</title>
<polygon fill="#ffffff" stroke="#000000" stroke-width="2" points="328.5064,-74.0036 308.1676,-74.0036 308.1676,-51.1964 328.5064,-51.1964 328.5064,-74.0036"/>
<text text-anchor="middle" x="318.337" y="-59" font-family="Helvetica,sans-Serif" font-weight="bold" font-size="12.00" fill="#0000ff">*</text>
</g>
<!-- n25&#45;&gt;n26 -->
<g id="edge26" class="edge">
<title>n25-&gt;n26</title>
<path fill="none" stroke="#000000" stroke-width="2" d="M318.337,-102.5927C318.337,-95.6719 318.337,-86.7236 318.337,-79.0466"/>
<polygon fill="#000000" stroke="#000000" stroke-width="2" points="320.0871,-78.9754 318.337,-73.9754 316.5871,-78.9755 320.0871,-78.9754"/>
</g>
<!-- n27 -->
<g id="node28" class="node">
<title>n27</title>
<polygon fill="#ffffff" stroke="#000000" stroke-width="2" points="294.5102,-22.6036 272.1638,-22.6036 272.1638,.2036 294.5102,.2036 294.5102,-22.6036"/>
<text text-anchor="middle" x="283.337" y="-7.6" font-family="Helvetica,sans-Serif" font-weight="bold" font-size="12.00" fill="#0000ff">4</text>
</g>
<!-- n26&#45;&gt;n27 -->
<g id="edge27" class="edge">
<title>n26-&gt;n27</title>
<path fill="none" stroke="#000000" stroke-width="2" d="M310.5694,-51.1927C305.6755,-44.0057 299.2928,-34.6323 293.9369,-26.7666"/>
<polygon fill="#000000" stroke="#000000" stroke-width="2" points="295.3437,-25.7233 291.0829,-22.5754 292.4507,-27.6933 295.3437,-25.7233"/>
</g>
<!-- n28 -->
<g id="node29" class="node">
<title>n28</title>
<polygon fill="#ffffff" stroke="#000000" stroke-width="2" points="336.3014,-22.6036 312.3726,-22.6036 312.3726,.2036 336.3014,.2036 336.3014,-22.6036"/>
<text text-anchor="middle" x="324.337" y="-7.6" font-family="Helvetica,sans-Serif" font-weight="bold" font-size="12.00" fill="#0000ff">'i'</text>
</g>
<!-- n26&#45;&gt;n28 -->
<g id="edge28" class="edge">
<title>n26-&gt;n28</title>
<path fill="none" stroke="#000000" stroke-width="2" d="M319.6686,-51.1927C320.4765,-44.2719 321.521,-35.3236 322.4172,-27.6466"/>
<polygon fill="#000000" stroke="#000000" stroke-width="2" points="324.1675,-27.7447 323.0091,-22.5754 320.6911,-27.3388 324.1675,-27.7447"/>
</g>
<!-- n30 -->
<g id="node31" class="node">
<title>n30</title>
<polygon fill="#ffffff" stroke="#000000" stroke-width="2" points="409.5093,-125.4036 361.1647,-125.4036 361.1647,-102.5964 409.5093,-102.5964 409.5093,-125.4036"/>
<text text-anchor="middle" x="385.337" y="-110.4" font-family="Helvetica,sans-Serif" font-weight="bold" font-size="12.00" fill="#0000ff">EXPR</text>
</g>
<!-- n29&#45;&gt;n30 -->
<g id="edge30" class="edge">
<title>n29-&gt;n30</title>
<path fill="none" stroke="#000000" stroke-width="2" d="M440.6665,-156.4468C430.6491,-148.7618 416.0191,-137.5382 404.3187,-128.5621"/>
<polygon fill="#000000" stroke="#000000" stroke-width="2" points="405.1868,-127.0224 400.1545,-125.3675 403.0564,-129.7994 405.1868,-127.0224"/>
</g>
<!-- n34 -->
<g id="node35" class="node">
<title>n34</title>
<polygon fill="#ffffff" stroke="#000000" stroke-width="2" points="476.5093,-125.4036 428.1647,-125.4036 428.1647,-102.5964 476.5093,-102.5964 476.5093,-125.4036"/>
<text text-anchor="middle" x="452.337" y="-110.4" font-family="Helvetica,sans-Serif" font-weight="bold" font-size="12.00" fill="#0000ff">EXPR</text>
</g>
<!-- n29&#45;&gt;n34 -->
<g id="edge34" class="edge">
<title>n29-&gt;n34</title>
<path fill="none" stroke="#000000" stroke-width="2" d="M452.337,-153.9927C452.337,-147.0719 452.337,-138.1236 452.337,-130.4466"/>
<polygon fill="#000000" stroke="#000000" stroke-width="2" points="454.0871,-130.3754 452.337,-125.3754 450.5871,-130.3755 454.0871,-130.3754"/>
</g>
<!-- n31 -->
<g id="node32" class="node">
<title>n31</title>
<polygon fill="#ffffff" stroke="#000000" stroke-width="2" points="395.1747,-74.0036 375.4993,-74.0036 375.4993,-51.1964 395.1747,-51.1964 395.1747,-74.0036"/>
<text text-anchor="middle" x="385.337" y="-59" font-family="Helvetica,sans-Serif" font-weight="bold" font-size="12.00" fill="#0000ff">[</text>
</g>
<!-- n30&#45;&gt;n31 -->
<g id="edge31" class="edge">
<title>n30-&gt;n31</title>
<path fill="none" stroke="#000000" stroke-width="2" d="M385.337,-102.5927C385.337,-95.6719 385.337,-86.7236 385.337,-79.0466"/>
<polygon fill="#000000" stroke="#000000" stroke-width="2" points="387.0871,-78.9754 385.337,-73.9754 383.5871,-78.9755 387.0871,-78.9754"/>
</g>
<!-- n32 -->
<g id="node33" class="node">
<title>n32</title>
<polygon fill="#ffffff" stroke="#000000" stroke-width="2" points="376.5102,-22.6036 354.1638,-22.6036 354.1638,.2036 376.5102,.2036 376.5102,-22.6036"/>
<text text-anchor="middle" x="365.337" y="-7.6" font-family="Helvetica,sans-Serif" font-weight="bold" font-size="12.00" fill="#0000ff">a</text>
</g>
<!-- n31&#45;&gt;n32 -->
<g id="edge32" class="edge">
<title>n31-&gt;n32</title>
<path fill="none" stroke="#000000" stroke-width="2" d="M380.8984,-51.1927C378.2054,-44.2719 374.7236,-35.3236 371.7365,-27.6466"/>
<polygon fill="#000000" stroke="#000000" stroke-width="2" points="373.2073,-26.6005 369.7632,-22.5754 369.9455,-27.8697 373.2073,-26.6005"/>
</g>
<!-- n33 -->
<g id="node34" class="node">
<title>n33</title>
<polygon fill="#ffffff" stroke="#000000" stroke-width="2" points="417.5102,-22.6036 395.1638,-22.6036 395.1638,.2036 417.5102,.2036 417.5102,-22.6036"/>
<text text-anchor="middle" x="406.337" y="-7.6" font-family="Helvetica,sans-Serif" font-weight="bold" font-size="12.00" fill="#0000ff">1</text>
</g>
<!-- n31&#45;&gt;n33 -->
<g id="edge33" class="edge">
<title>n31-&gt;n33</title>
<path fill="none" stroke="#000000" stroke-width="2" d="M389.9976,-51.1927C392.8795,-44.1388 396.622,-34.9787 399.7979,-27.2051"/>
<polygon fill="#000000" stroke="#000000" stroke-width="2" points="401.4183,-27.8659 401.6894,-22.5754 398.1783,-26.5421 401.4183,-27.8659"/>
</g>
<!-- n35 -->
<g id="node36" class="node">
<title>n35</title>
<polygon fill="#ffffff" stroke="#000000" stroke-width="2" points="462.1747,-74.0036 442.4993,-74.0036 442.4993,-51.1964 462.1747,-51.1964 462.1747,-74.0036"/>
<text text-anchor="middle" x="452.337" y="-59" font-family="Helvetica,sans-Serif" font-weight="bold" font-size="12.00" fill="#0000ff">[</text>
</g>
<!-- n34&#45;&gt;n35 -->
<g id="edge35" class="edge">
<title>n34-&gt;n35</title>
<path fill="none" stroke="#000000" stroke-width="2" d="M452.337,-102.5927C452.337,-95.6719 452.337,-86.7236 452.337,-79.0466"/>
<polygon fill="#000000" stroke="#000000" stroke-width="2" points="454.0871,-78.9754 452.337,-73.9754 450.5871,-78.9755 454.0871,-78.9754"/>
</g>
<!-- n36 -->
<g id="node37" class="node">
<title>n36</title>
<polygon fill="#ffffff" stroke="#000000" stroke-width="2" points="458.5102,-22.6036 436.1638,-22.6036 436.1638,.2036 458.5102,.2036 458.5102,-22.6036"/>
<text text-anchor="middle" x="447.337" y="-7.6" font-family="Helvetica,sans-Serif" font-weight="bold" font-size="12.00" fill="#0000ff">d</text>
</g>
<!-- n35&#45;&gt;n36 -->
<g id="edge36" class="edge">
<title>n35-&gt;n36</title>
<path fill="none" stroke="#000000" stroke-width="2" d="M451.2273,-51.1927C450.5541,-44.2719 449.6837,-35.3236 448.9369,-27.6466"/>
<polygon fill="#000000" stroke="#000000" stroke-width="2" points="450.6695,-27.3825 448.4436,-22.5754 447.186,-27.7214 450.6695,-27.3825"/>
</g>
<!-- n37 -->
<g id="node38" class="node">
<title>n37</title>
<polygon fill="#ffffff" stroke="#000000" stroke-width="2" points="499.5102,-22.6036 477.1638,-22.6036 477.1638,.2036 499.5102,.2036 499.5102,-22.6036"/>
<text text-anchor="middle" x="488.337" y="-7.6" font-family="Helvetica,sans-Serif" font-weight="bold" font-size="12.00" fill="#0000ff">0</text>
</g>
<!-- n35&#45;&gt;n37 -->
<g id="edge37" class="edge">
<title>n35-&gt;n37</title>
<path fill="none" stroke="#000000" stroke-width="2" d="M460.3266,-51.1927C465.3602,-44.0057 471.9253,-34.6323 477.4343,-26.7666"/>
<polygon fill="#000000" stroke="#000000" stroke-width="2" points="478.9347,-27.6748 480.3698,-22.5754 476.0679,-25.6669 478.9347,-27.6748"/>
</g>
<!-- n39 -->
<g id="node40" class="node">
<title>n39</title>
<polygon fill="#ffffff" stroke="#000000" stroke-width="2" points="543.5093,-125.4036 495.1647,-125.4036 495.1647,-102.5964 543.5093,-102.5964 543.5093,-125.4036"/>
<text text-anchor="middle" x="519.337" y="-110.4" font-family="Helvetica,sans-Serif" font-weight="bold" font-size="12.00" fill="#0000ff">EXPR</text>
</g>
<!-- n38&#45;&gt;n39 -->
<g id="edge39" class="edge">
<title>n38-&gt;n39</title>
<path fill="none" stroke="#000000" stroke-width="2" d="M518.5589,-153.9927C518.6936,-147.0719 518.8677,-138.1236 519.017,-130.4466"/>
<polygon fill="#000000" stroke="#000000" stroke-width="2" points="520.768,-130.4086 519.1157,-125.3754 517.2687,-130.3404 520.768,-130.4086"/>
</g>
<!-- n43 -->
<g id="node44" class="node">
<title>n43</title>
<polygon fill="#ffffff" stroke="#000000" stroke-width="2" points="610.5093,-125.4036 562.1647,-125.4036 562.1647,-102.5964 610.5093,-102.5964 610.5093,-125.4036"/>
<text text-anchor="middle" x="586.337" y="-110.4" font-family="Helvetica,sans-Serif" font-weight="bold" font-size="12.00" fill="#0000ff">EXPR</text>
</g>
<!-- n38&#45;&gt;n43 -->
<g id="edge43" class="edge">
<title>n38-&gt;n43</title>
<path fill="none" stroke="#000000" stroke-width="2" d="M529.8723,-156.6807C540.064,-148.9769 555.1304,-137.5885 567.1371,-128.5128"/>
<polygon fill="#000000" stroke="#000000" stroke-width="2" points="568.4741,-129.696 571.4075,-125.2849 566.3636,-126.9039 568.4741,-129.696"/>
</g>
<!-- n40 -->
<g id="node41" class="node">
<title>n40</title>
<polygon fill="#ffffff" stroke="#000000" stroke-width="2" points="539.1747,-74.0036 519.4993,-74.0036 519.4993,-51.1964 539.1747,-51.1964 539.1747,-74.0036"/>
<text text-anchor="middle" x="529.337" y="-59" font-family="Helvetica,sans-Serif" font-weight="bold" font-size="12.00" fill="#0000ff">[</text>
</g>
<!-- n39&#45;&gt;n40 -->
<g id="edge40" class="edge">
<title>n39-&gt;n40</title>
<path fill="none" stroke="#000000" stroke-width="2" d="M521.5563,-102.5927C522.9028,-95.6719 524.6437,-86.7236 526.1373,-79.0466"/>
<polygon fill="#000000" stroke="#000000" stroke-width="2" points="527.8867,-79.2176 527.1239,-73.9754 524.4511,-78.5492 527.8867,-79.2176"/>
</g>
<!-- n41 -->
<g id="node42" class="node">
<title>n41</title>
<polygon fill="#ffffff" stroke="#000000" stroke-width="2" points="540.5102,-22.6036 518.1638,-22.6036 518.1638,.2036 540.5102,.2036 540.5102,-22.6036"/>
<text text-anchor="middle" x="529.337" y="-7.6" font-family="Helvetica,sans-Serif" font-weight="bold" font-size="12.00" fill="#0000ff">a</text>
</g>
<!-- n40&#45;&gt;n41 -->
<g id="edge41" class="edge">
<title>n40-&gt;n41</title>
<path fill="none" stroke="#000000" stroke-width="2" d="M529.337,-51.1927C529.337,-44.2719 529.337,-35.3236 529.337,-27.6466"/>
<polygon fill="#000000" stroke="#000000" stroke-width="2" points="531.0871,-27.5754 529.337,-22.5754 527.5871,-27.5755 531.0871,-27.5754"/>
</g>
<!-- n42 -->
<g id="node43" class="node">
<title>n42</title>
<polygon fill="#ffffff" stroke="#000000" stroke-width="2" points="586.1403,-22.6036 558.5337,-22.6036 558.5337,.2036 586.1403,.2036 586.1403,-22.6036"/>
<text text-anchor="middle" x="572.337" y="-7.6" font-family="Helvetica,sans-Serif" font-weight="bold" font-size="12.00" fill="#0000ff">'x'</text>
</g>
<!-- n40&#45;&gt;n42 -->
<g id="edge42" class="edge">
<title>n40-&gt;n42</title>
<path fill="none" stroke="#000000" stroke-width="2" d="M538.8801,-51.1927C544.8925,-44.0057 552.7341,-34.6323 559.3143,-26.7666"/>
<polygon fill="#000000" stroke="#000000" stroke-width="2" points="560.9545,-27.5333 562.8206,-22.5754 558.27,-25.2875 560.9545,-27.5333"/>
</g>
<!-- n44 -->
<g id="node45" class="node">
<title>n44</title>
<polygon fill="#ffffff" stroke="#000000" stroke-width="2" points="597.5102,-74.0036 575.1638,-74.0036 575.1638,-51.1964 597.5102,-51.1964 597.5102,-74.0036"/>
<text text-anchor="middle" x="586.337" y="-59" font-family="Helvetica,sans-Serif" font-weight="bold" font-size="12.00" fill="#0000ff">1</text>
</g>
<!-- n43&#45;&gt;n44 -->
<g id="edge44" class="edge">
<title>n43-&gt;n44</title>
<path fill="none" stroke="#000000" stroke-width="2" d="M586.337,-102.5927C586.337,-95.6719 586.337,-86.7236 586.337,-79.0466"/>
<polygon fill="#000000" stroke="#000000" stroke-width="2" points="588.0871,-78.9754 586.337,-73.9754 584.5871,-78.9755 588.0871,-78.9754"/>
</g>
<!-- n46 -->
<g id="node47" class="node">
<title>n46</title>
<polygon fill="#ffffff" stroke="#000000" stroke-width="2" points="648.3318,-125.4036 628.3422,-125.4036 628.3422,-102.5964 648.3318,-102.5964 648.3318,-125.4036"/>
<text text-anchor="middle" x="638.337" y="-110.4" font-family="Helvetica,sans-Serif" font-weight="bold" font-size="12.00" fill="#0000ff">(</text>
</g>
<!-- n45&#45;&gt;n46 -->
<g id="edge46" class="edge">
<title>n45-&gt;n46</title>
<path fill="none" stroke="#000000" stroke-width="2" d="M586.9845,-153.9927C597.9812,-145.4286 612.9645,-133.7598 623.9079,-125.2372"/>
<polygon fill="#000000" stroke="#000000" stroke-width="2" points="625.164,-126.4771 628.0336,-122.0242 623.0134,-123.7157 625.164,-126.4771"/>
</g>
<!-- n47 -->
<g id="node48" class="node">
<title>n47</title>
<polygon fill="#ffffff" stroke="#000000" stroke-width="2" points="644.5102,-74.0036 622.1638,-74.0036 622.1638,-51.1964 644.5102,-51.1964 644.5102,-74.0036"/>
<text text-anchor="middle" x="633.337" y="-59" font-family="Helvetica,sans-Serif" font-weight="bold" font-size="12.00" fill="#0000ff">g</text>
</g>
<!-- n46&#45;&gt;n47 -->
<g id="edge47" class="edge">
<title>n46-&gt;n47</title>
<path fill="none" stroke="#000000" stroke-width="2" d="M637.2273,-102.5927C636.5541,-95.6719 635.6837,-86.7236 634.9369,-79.0466"/>
<polygon fill="#000000" stroke="#000000" stroke-width="2" points="636.6695,-78.7825 634.4436,-73.9754 633.186,-79.1214 636.6695,-78.7825"/>
</g>
<!-- n48 -->
<g id="node49" class="node">
<title>n48</title>
<polygon fill="#ffffff" stroke="#000000" stroke-width="2" points="712.1802,-74.0036 662.4938,-74.0036 662.4938,-51.1964 712.1802,-51.1964 712.1802,-74.0036"/>
<text text-anchor="middle" x="687.337" y="-59" font-family="Helvetica,sans-Serif" font-weight="bold" font-size="12.00" fill="#0000ff">ELIST</text>
</g>
<!-- n46&#45;&gt;n48 -->
<g id="edge48" class="edge">
<title>n46-&gt;n48</title>
<path fill="none" stroke="#000000" stroke-width="2" d="M648.7286,-103.0994C655.7782,-95.7046 665.1917,-85.83 672.9586,-77.6826"/>
<polygon fill="#000000" stroke="#000000" stroke-width="2" points="674.4382,-78.6668 676.6216,-73.8402 671.9049,-76.2518 674.4382,-78.6668"/>
</g>
<!-- n49 -->
<g id="node50" class="node">
<title>n49</title>
<polygon fill="#ffffff" stroke="#000000" stroke-width="2" points="677.3094,-22.6036 649.3646,-22.6036 649.3646,.2036 677.3094,.2036 677.3094,-22.6036"/>
<text text-anchor="middle" x="663.337" y="-7.6" font-family="Helvetica,sans-Serif" font-weight="bold" font-size="12.00" fill="#0000ff">'q'</text>
</g>
<!-- n48&#45;&gt;n49 -->
<g id="edge49" class="edge">
<title>n48-&gt;n49</title>
<path fill="none" stroke="#000000" stroke-width="2" d="M682.0106,-51.1927C678.717,-44.1388 674.4399,-34.9787 670.8102,-27.2051"/>
<polygon fill="#000000" stroke="#000000" stroke-width="2" points="672.3496,-26.3655 668.6485,-22.5754 669.1783,-27.8463 672.3496,-26.3655"/>
</g>
<!-- n50 -->
<g id="node51" class="node">
<title>n50</title>
<polygon fill="#ffffff" stroke="#000000" stroke-width="2" points="725.1806,-22.6036 695.4934,-22.6036 695.4934,.2036 725.1806,.2036 725.1806,-22.6036"/>
<text text-anchor="middle" x="710.337" y="-7.6" font-family="Helvetica,sans-Serif" font-weight="bold" font-size="12.00" fill="#0000ff">10</text>
</g>
<!-- n48&#45;&gt;n50 -->
<g id="edge50" class="edge">
<title>n48-&gt;n50</title>
<path fill="none" stroke="#000000" stroke-width="2" d="M692.4414,-51.1927C695.5978,-44.1388 699.6967,-34.9787 703.1752,-27.2051"/>
<polygon fill="#000000" stroke="#000000" stroke-width="2" points="704.8019,-27.8542 705.2468,-22.5754 701.6072,-26.4246 704.8019,-27.8542"/>
</g>
<!-- n52 -->
<g id="node53" class="node">
<title>n52</title>
<polygon fill="#ffffff" stroke="#000000" stroke-width="2" points="532.5073,-228.2036 504.1667,-228.2036 504.1667,-205.3964 532.5073,-205.3964 532.5073,-228.2036"/>
<text text-anchor="middle" x="518.337" y="-213.2" font-family="Helvetica,sans-Serif" font-weight="bold" font-size="12.00" fill="#0000ff">int</text>
</g>
<!-- n51&#45;&gt;n52 -->
<g id="edge52" class="edge">
<title>n51-&gt;n52</title>
<path fill="none" stroke="#000000" stroke-width="2" d="M579.8043,-256.7927C567.0621,-248.5022 549.848,-237.3021 536.878,-228.8634"/>
<polygon fill="#000000" stroke="#000000" stroke-width="2" points="537.8002,-227.3756 532.6547,-226.1156 535.8914,-230.3093 537.8002,-227.3756"/>
</g>
<!-- n53 -->
<g id="node54" class="node">
<title>n53</title>
<polygon fill="#ffffff" stroke="#000000" stroke-width="2" points="573.5102,-228.2036 551.1638,-228.2036 551.1638,-205.3964 573.5102,-205.3964 573.5102,-228.2036"/>
<text text-anchor="middle" x="562.337" y="-213.2" font-family="Helvetica,sans-Serif" font-weight="bold" font-size="12.00" fill="#0000ff">g</text>
</g>
<!-- n51&#45;&gt;n53 -->
<g id="edge53" class="edge">
<title>n51-&gt;n53</title>
<path fill="none" stroke="#000000" stroke-width="2" d="M589.5694,-256.7927C584.6755,-249.6057 578.2928,-240.2323 572.9369,-232.3666"/>
<polygon fill="#000000" stroke="#000000" stroke-width="2" points="574.3437,-231.3233 570.0829,-228.1754 571.4507,-233.2933 574.3437,-231.3233"/>
</g>
<!-- n54 -->
<g id="node55" class="node">
<title>n54</title>
<polygon fill="#ffffff" stroke="#000000" stroke-width="2" points="672.5081,-228.2036 592.1659,-228.2036 592.1659,-205.3964 672.5081,-205.3964 672.5081,-228.2036"/>
<text text-anchor="middle" x="632.337" y="-213.2" font-family="Helvetica,sans-Serif" font-weight="bold" font-size="12.00" fill="#0000ff">ARG_DECL</text>
</g>
<!-- n51&#45;&gt;n54 -->
<g id="edge54" class="edge">
<title>n51-&gt;n54</title>
<path fill="none" stroke="#000000" stroke-width="2" d="M605.1046,-256.7927C609.9985,-249.6057 616.3812,-240.2323 621.7371,-232.3666"/>
<polygon fill="#000000" stroke="#000000" stroke-width="2" points="623.2233,-233.2933 624.5911,-228.1754 620.3303,-231.3233 623.2233,-233.2933"/>
</g>
<!-- n57 -->
<g id="node58" class="node">
<title>n57</title>
<polygon fill="#ffffff" stroke="#000000" stroke-width="2" points="771.5081,-228.2036 691.1659,-228.2036 691.1659,-205.3964 771.5081,-205.3964 771.5081,-228.2036"/>
<text text-anchor="middle" x="731.337" y="-213.2" font-family="Helvetica,sans-Serif" font-weight="bold" font-size="12.00" fill="#0000ff">ARG_DECL</text>
</g>
<!-- n51&#45;&gt;n57 -->
<g id="edge57" class="edge">
<title>n51-&gt;n57</title>
<path fill="none" stroke="#000000" stroke-width="2" d="M626.7439,-256.9201C647.5149,-248.9527 675.413,-238.2514 697.1727,-229.9048"/>
<polygon fill="#000000" stroke="#000000" stroke-width="2" points="697.9571,-231.4783 701.9987,-228.0536 696.7036,-228.2105 697.9571,-231.4783"/>
</g>
<!-- n60 -->
<g id="node61" class="node">
<title>n60</title>
<polygon fill="#ffffff" stroke="#000000" stroke-width="2" points="848.5119,-228.2036 792.1621,-228.2036 792.1621,-205.3964 848.5119,-205.3964 848.5119,-228.2036"/>
<text text-anchor="middle" x="820.337" y="-213.2" font-family="Helvetica,sans-Serif" font-weight="bold" font-size="12.00" fill="#0000ff">BLOCK</text>
</g>
<!-- n51&#45;&gt;n60 -->
<g id="edge60" class="edge">
<title>n51-&gt;n60</title>
<path fill="none" stroke="#000000" stroke-width="2" d="M650.7748,-257.2967C687.3698,-249.6255 736.9421,-238.8323 780.337,-228 782.4623,-227.4695 784.6464,-226.9072 786.8454,-226.3281"/>
<polygon fill="#000000" stroke="#000000" stroke-width="2" points="787.605,-227.9365 791.9828,-224.9536 786.7004,-224.5554 787.605,-227.9365"/>
</g>
<!-- n55 -->
<g id="node56" class="node">
<title>n55</title>
<polygon fill="#ffffff" stroke="#000000" stroke-width="2" points="643.5073,-176.8036 615.1667,-176.8036 615.1667,-153.9964 643.5073,-153.9964 643.5073,-176.8036"/>
<text text-anchor="middle" x="629.337" y="-161.8" font-family="Helvetica,sans-Serif" font-weight="bold" font-size="12.00" fill="#0000ff">int</text>
</g>
<!-- n54&#45;&gt;n55 -->
<g id="edge55" class="edge">
<title>n54-&gt;n55</title>
<path fill="none" stroke="#000000" stroke-width="2" d="M631.6712,-205.3927C631.2673,-198.4719 630.745,-189.5236 630.2969,-181.8466"/>
<polygon fill="#000000" stroke="#000000" stroke-width="2" points="632.0394,-181.6649 630.0009,-176.7754 628.5453,-181.8689 632.0394,-181.6649"/>
</g>
<!-- n56 -->
<g id="node57" class="node">
<title>n56</title>
<polygon fill="#ffffff" stroke="#000000" stroke-width="2" points="683.337,-176.8036 661.337,-176.8036 661.337,-153.9964 683.337,-153.9964 683.337,-176.8036"/>
<text text-anchor="middle" x="672.337" y="-161.8" font-family="Helvetica,sans-Serif" font-weight="bold" font-size="12.00" fill="#0000ff">x</text>
</g>
<!-- n54&#45;&gt;n56 -->
<g id="edge56" class="edge">
<title>n54-&gt;n56</title>
<path fill="none" stroke="#000000" stroke-width="2" d="M641.2143,-205.3927C646.8072,-198.2057 654.1018,-188.8323 660.2229,-180.9666"/>
<polygon fill="#000000" stroke="#000000" stroke-width="2" points="661.7948,-181.7962 663.4845,-176.7754 659.0326,-179.6466 661.7948,-181.7962"/>
</g>
<!-- n58 -->
<g id="node59" class="node">
<title>n58</title>
<polygon fill="#ffffff" stroke="#000000" stroke-width="2" points="739.5124,-176.8036 701.1616,-176.8036 701.1616,-153.9964 739.5124,-153.9964 739.5124,-176.8036"/>
<text text-anchor="middle" x="720.337" y="-161.8" font-family="Helvetica,sans-Serif" font-weight="bold" font-size="12.00" fill="#0000ff">float</text>
</g>
<!-- n57&#45;&gt;n58 -->
<g id="edge58" class="edge">
<title>n57-&gt;n58</title>
<path fill="none" stroke="#000000" stroke-width="2" d="M728.8957,-205.3927C727.4146,-198.4719 725.4996,-189.5236 723.8567,-181.8466"/>
<polygon fill="#000000" stroke="#000000" stroke-width="2" points="725.5291,-181.2985 722.7714,-176.7754 722.1066,-182.031 725.5291,-181.2985"/>
</g>
<!-- n59 -->
<g id="node60" class="node">
<title>n59</title>
<polygon fill="#ffffff" stroke="#000000" stroke-width="2" points="779.337,-176.8036 757.337,-176.8036 757.337,-153.9964 779.337,-153.9964 779.337,-176.8036"/>
<text text-anchor="middle" x="768.337" y="-161.8" font-family="Helvetica,sans-Serif" font-weight="bold" font-size="12.00" fill="#0000ff">y</text>
</g>
<!-- n57&#45;&gt;n59 -->
<g id="edge59" class="edge">
<title>n57-&gt;n59</title>
<path fill="none" stroke="#000000" stroke-width="2" d="M739.5485,-205.3927C744.722,-198.2057 751.4694,-188.8323 757.1314,-180.9666"/>
<polygon fill="#000000" stroke="#000000" stroke-width="2" points="758.6476,-181.8558 760.1485,-176.7754 755.807,-179.811 758.6476,-181.8558"/>
</g>
<!-- n61 -->
<g id="node62" class="node">
<title>n61</title>
<polygon fill="#ffffff" stroke="#000000" stroke-width="2" points="845.175,-176.8036 797.499,-176.8036 797.499,-153.9964 845.175,-153.9964 845.175,-176.8036"/>
<text text-anchor="middle" x="821.337" y="-161.8" font-family="Helvetica,sans-Serif" font-weight="bold" font-size="12.00" fill="#0000ff">return</text>
</g>
<!-- n60&#45;&gt;n61 -->
<g id="edge61" class="edge">
<title>n60-&gt;n61</title>
<path fill="none" stroke="#000000" stroke-width="2" d="M820.5589,-205.3927C820.6936,-198.4719 820.8677,-189.5236 821.017,-181.8466"/>
<polygon fill="#000000" stroke="#000000" stroke-width="2" points="822.768,-181.8086 821.1157,-176.7754 819.2687,-181.7404 822.768,-181.8086"/>
</g>
<!-- n62 -->
<g id="node63" class="node">
<title>n62</title>
<polygon fill="#ffffff" stroke="#000000" stroke-width="2" points="845.5093,-125.4036 797.1647,-125.4036 797.1647,-102.5964 845.5093,-102.5964 845.5093,-125.4036"/>
<text text-anchor="middle" x="821.337" y="-110.4" font-family="Helvetica,sans-Serif" font-weight="bold" font-size="12.00" fill="#0000ff">EXPR</text>
</g>
<!-- n61&#45;&gt;n62 -->
<g id="edge62" class="edge">
<title>n61-&gt;n62</title>
<path fill="none" stroke="#000000" stroke-width="2" d="M821.337,-153.9927C821.337,-147.0719 821.337,-138.1236 821.337,-130.4466"/>
<polygon fill="#000000" stroke="#000000" stroke-width="2" points="823.0871,-130.3754 821.337,-125.3754 819.5871,-130.3755 823.0871,-130.3754"/>
</g>
<!-- n63 -->
<g id="node64" class="node">
<title>n63</title>
<polygon fill="#ffffff" stroke="#000000" stroke-width="2" points="835.1403,-74.0036 807.5337,-74.0036 807.5337,-51.1964 835.1403,-51.1964 835.1403,-74.0036"/>
<text text-anchor="middle" x="821.337" y="-59" font-family="Helvetica,sans-Serif" font-weight="bold" font-size="12.00" fill="#0000ff">'k'</text>
</g>
<!-- n62&#45;&gt;n63 -->
<g id="edge63" class="edge">
<title>n62-&gt;n63</title>
<path fill="none" stroke="#000000" stroke-width="2" d="M821.337,-102.5927C821.337,-95.6719 821.337,-86.7236 821.337,-79.0466"/>
<polygon fill="#000000" stroke="#000000" stroke-width="2" points="823.0871,-78.9754 821.337,-73.9754 819.5871,-78.9755 823.0871,-78.9754"/>
</g>
</g>
</svg>