<?xml version="1.0" encoding="UTF-8" standalone="no"?><!DOCTYPE svg PUBLIC "-//W3C//DTD SVG 1.1//EN" "http://www.w3.org/Graphics/SVG/1.1/DTD/svg11.dtd"><!-- Generated by graphviz version 2.40.1 (20161225.0304)
 --><!-- Title: %0 Pages: 1 --><svg xmlns="http://www.w3.org/2000/svg" xmlns:xlink="http://www.w3.org/1999/xlink" width="366pt" height="339pt" viewBox="0.00 0.00 365.67 338.80">
<g id="graph0" class="graph" transform="scale(1 1) rotate(0) translate(4 334.8)">
<title>%0</title>
<polygon fill="#d3d3d3" stroke="transparent" points="-4,4 -4,-334.8 361.6698,-334.8 361.6698,4 -4,4"/>
<!-- n0 -->
<g id="node1" class="node">
<title>n0</title>
<polygon fill="#ffffff" stroke="#000000" stroke-width="2" points="138.4935,-331.0036 32.1749,-331.0036 32.1749,-308.1964 138.4935,-308.1964 138.4935,-331.0036"/>
<text text-anchor="middle" x="85.3342" y="-316" font-family="Helvetica,sans-Serif" font-weight="bold" font-size="12.00" fill="#0000ff">METHOD_DECL</text>
</g>
<!-- n1 -->
<g id="node2" class="node">
<title>n1</title>
<polygon fill="#ffffff" stroke="#000000" stroke-width="2" points="51.3386,-279.6036 13.3298,-279.6036 13.3298,-256.7964 51.3386,-256.7964 51.3386,-279.6036"/>
<text text-anchor="middle" x="32.3342" y="-264.6" font-family="Helvetica,sans-Serif" font-weight="bold" font-size="12.00" fill="#0000ff">void</text>
</g>
<!-- n0&#45;&gt;n1 -->
<g id="edge1" class="edge">
<title>n0-&gt;n1</title>
<path fill="none" stroke="#000000" stroke-width="2" d="M73.5718,-308.1927C66.0239,-300.8726 56.1371,-291.2843 47.9364,-283.3312"/>
<polygon fill="#000000" stroke="#000000" stroke-width="2" points="48.8714,-281.8001 44.0637,-279.5754 46.4347,-284.3127 48.8714,-281.8001"/>
</g>
<!-- n2 -->
<g id="node3" class="node">
<title>n2</title>
<polygon fill="#ffffff" stroke="#000000" stroke-width="2" points="101.5122,-279.6036 69.1562,-279.6036 69.1562,-256.7964 101.5122,-256.7964 101.5122,-279.6036"/>
<text text-anchor="middle" x="85.3342" y="-264.6" font-family="Helvetica,sans-Serif" font-weight="bold" font-size="12.00" fill="#0000ff">foo</text>
</g>
<!-- n0&#45;&gt;n2 -->
<g id="edge2" class="edge">
<title>n0-&gt;n2</title>
<path fill="none" stroke="#000000" stroke-width="2" d="M85.3342,-308.1927C85.3342,-301.2719 85.3342,-292.3236 85.3342,-284.6466"/>
<polygon fill="#000000" stroke="#000000" stroke-width="2" points="87.0843,-284.5754 85.3342,-279.5754 83.5843,-284.5755 87.0843,-284.5754"/>
</g>
<!-- n3 -->
<g id="node4" class="node">
<title>n3</title>
<polygon fill="#ffffff" stroke="#000000" stroke-width="2" points="176.5091,-279.6036 120.1593,-279.6036 120.1593,-256.7964 176.5091,-256.7964 176.5091,-279.6036"/>
<text text-anchor="middle" x="148.3342" y="-264.6" font-family="Helvetica,sans-Serif" font-weight="bold" font-size="12.00" fill="#0000ff">BLOCK</text>
</g>
<!-- n0&#45;&gt;n3 -->
<g id="edge3" class="edge">
<title>n0-&gt;n3</title>
<path fill="none" stroke="#000000" stroke-width="2" d="M99.3159,-308.1927C108.4511,-300.7395 120.4684,-290.9349 130.3178,-282.8991"/>
<polygon fill="#000000" stroke="#000000" stroke-width="2" points="131.6237,-284.0923 134.3915,-279.5754 129.4111,-281.3803 131.6237,-284.0923"/>
</g>
<!-- n4 -->
<g id="node5" class="node">
<title>n4</title>
<polygon fill="#ffffff" stroke="#000000" stroke-width="2" points="91.1733,-228.2036 11.4951,-228.2036 11.4951,-205.3964 91.1733,-205.3964 91.1733,-228.2036"/>
<text text-anchor="middle" x="51.3342" y="-213.2" font-family="Helvetica,sans-Serif" font-weight="bold" font-size="12.00" fill="#0000ff">VAR_DECL</text>
</g>
<!-- n3&#45;&gt;n4 -->
<g id="edge4" class="edge">
<title>n3-&gt;n4</title>
<path fill="none" stroke="#000000" stroke-width="2" d="M126.8068,-256.7927C112.2392,-249.0734 92.9113,-238.8316 77.462,-230.645"/>
<polygon fill="#000000" stroke="#000000" stroke-width="2" points="78.0389,-228.9703 72.8015,-228.1754 76.4001,-232.0629 78.0389,-228.9703"/>
</g>
<!-- n7 -->
<g id="node8" class="node">
<title>n7</title>
<polygon fill="#ffffff" stroke="#000000" stroke-width="2" points="188.1733,-228.2036 108.4951,-228.2036 108.4951,-205.3964 188.1733,-205.3964 188.1733,-228.2036"/>
<text text-anchor="middle" x="148.3342" y="-213.2" font-family="Helvetica,sans-Serif" font-weight="bold" font-size="12.00" fill="#0000ff">VAR_DECL</text>
</g>
<!-- n3&#45;&gt;n7 -->
<g id="edge7" class="edge">
<title>n3-&gt;n7</title>
<path fill="none" stroke="#000000" stroke-width="2" d="M148.3342,-256.7927C148.3342,-249.8719 148.3342,-240.9236 148.3342,-233.2466"/>
<polygon fill="#000000" stroke="#000000" stroke-width="2" points="150.0843,-233.1754 148.3342,-228.1754 146.5843,-233.1755 150.0843,-233.1754"/>
</g>
<!-- n16 -->
<g id="node17" class="node">
<title>n16</title>
<polygon fill="#ffffff" stroke="#000000" stroke-width="2" points="277.841,-228.2036 254.8274,-228.2036 254.8274,-205.3964 277.841,-205.3964 277.841,-228.2036"/>
<text text-anchor="middle" x="266.3342" y="-213.2" font-family="Helvetica,sans-Serif" font-weight="bold" font-size="12.00" fill="#0000ff">=</text>
</g>
<!-- n3&#45;&gt;n16 -->
<g id="edge16" class="edge">
<title>n3-&gt;n16</title>
<path fill="none" stroke="#000000" stroke-width="2" d="M174.2298,-256.9201C197.3704,-246.8402 230.5563,-232.3846 250.133,-223.8571"/>
<polygon fill="#000000" stroke="#000000" stroke-width="2" points="250.9174,-225.4243 254.8025,-221.8231 249.5196,-222.2156 250.9174,-225.4243"/>
</g>
<!-- n5 -->
<g id="node6" class="node">
<title>n5</title>
<polygon fill="#ffffff" stroke="#000000" stroke-width="2" points="28.5045,-176.8036 .1639,-176.8036 .1639,-153.9964 28.5045,-153.9964 28.5045,-176.8036"/>
<text text-anchor="middle" x="14.3342" y="-161.8" font-family="Helvetica,sans-Serif" font-weight="bold" font-size="12.00" fill="#0000ff">int</text>
</g>
<!-- n4&#45;&gt;n5 -->
<g id="edge5" class="edge">
<title>n4-&gt;n5</title>
<path fill="none" stroke="#000000" stroke-width="2" d="M43.1227,-205.3927C37.9492,-198.2057 31.2018,-188.8323 25.5398,-180.9666"/>
<polygon fill="#000000" stroke="#000000" stroke-width="2" points="26.8642,-179.811 22.5227,-176.7754 24.0236,-181.8558 26.8642,-179.811"/>
</g>
<!-- n6 -->
<g id="node7" class="node">
<title>n6</title>
<polygon fill="#ffffff" stroke="#000000" stroke-width="2" points="65.5,-176.8036 47.1684,-176.8036 47.1684,-153.9964 65.5,-153.9964 65.5,-176.8036"/>
<text text-anchor="middle" x="56.3342" y="-161.8" font-family="Helvetica,sans-Serif" font-weight="bold" font-size="12.00" fill="#0000ff">i</text>
</g>
<!-- n4&#45;&gt;n6 -->
<g id="edge6" class="edge">
<title>n4-&gt;n6</title>
<path fill="none" stroke="#000000" stroke-width="2" d="M52.4439,-205.3927C53.1171,-198.4719 53.9875,-189.5236 54.7343,-181.8466"/>
<polygon fill="#000000" stroke="#000000" stroke-width="2" points="56.4852,-181.9214 55.2276,-176.7754 53.0017,-181.5825 56.4852,-181.9214"/>
</g>
<!-- n8 -->
<g id="node9" class="node">
<title>n8</title>
<polygon fill="#ffffff" stroke="#000000" stroke-width="2" points="113.5036,-176.8036 93.1648,-176.8036 93.1648,-153.9964 113.5036,-153.9964 113.5036,-176.8036"/>
<text text-anchor="middle" x="103.3342" y="-161.8" font-family="Helvetica,sans-Serif" font-weight="bold" font-size="12.00" fill="#0000ff">*</text>
</g>
<!-- n7&#45;&gt;n8 -->
<g id="edge8" class="edge">
<title>n7-&gt;n8</title>
<path fill="none" stroke="#000000" stroke-width="2" d="M138.3472,-205.3927C132.0552,-198.2057 123.8488,-188.8323 116.9626,-180.9666"/>
<polygon fill="#000000" stroke="#000000" stroke-width="2" points="117.9035,-179.3847 113.2932,-176.7754 115.2701,-181.6902 117.9035,-179.3847"/>
</g>
<!-- n10 -->
<g id="node11" class="node">
<title>n10</title>
<polygon fill="#ffffff" stroke="#000000" stroke-width="2" points="157.3398,-176.8036 131.3286,-176.8036 131.3286,-153.9964 157.3398,-153.9964 157.3398,-176.8036"/>
<text text-anchor="middle" x="144.3342" y="-161.8" font-family="Helvetica,sans-Serif" font-weight="bold" font-size="12.00" fill="#0000ff">pI</text>
</g>
<!-- n7&#45;&gt;n10 -->
<g id="edge10" class="edge">
<title>n7-&gt;n10</title>
<path fill="none" stroke="#000000" stroke-width="2" d="M147.4465,-205.3927C146.9079,-198.4719 146.2115,-189.5236 145.6141,-181.8466"/>
<polygon fill="#000000" stroke="#000000" stroke-width="2" points="147.3522,-181.6246 145.2194,-176.7754 143.8627,-181.8962 147.3522,-181.6246"/>
</g>
<!-- n11 -->
<g id="node12" class="node">
<title>n11</title>
<polygon fill="#ffffff" stroke="#000000" stroke-width="2" points="223.5065,-176.8036 175.1619,-176.8036 175.1619,-153.9964 223.5065,-153.9964 223.5065,-176.8036"/>
<text text-anchor="middle" x="199.3342" y="-161.8" font-family="Helvetica,sans-Serif" font-weight="bold" font-size="12.00" fill="#0000ff">EXPR</text>
</g>
<!-- n7&#45;&gt;n11 -->
<g id="edge11" class="edge">
<title>n7-&gt;n11</title>
<path fill="none" stroke="#000000" stroke-width="2" d="M159.6528,-205.3927C166.9158,-198.0726 176.4295,-188.4843 184.3207,-180.5312"/>
<polygon fill="#000000" stroke="#000000" stroke-width="2" points="185.7678,-181.5574 188.0473,-176.7754 183.2833,-179.0922 185.7678,-181.5574"/>
</g>
<!-- n9 -->
<g id="node10" class="node">
<title>n9</title>
<polygon fill="#ffffff" stroke="#000000" stroke-width="2" points="117.5045,-125.4036 89.1639,-125.4036 89.1639,-102.5964 117.5045,-102.5964 117.5045,-125.4036"/>
<text text-anchor="middle" x="103.3342" y="-110.4" font-family="Helvetica,sans-Serif" font-weight="bold" font-size="12.00" fill="#0000ff">int</text>
</g>
<!-- n8&#45;&gt;n9 -->
<g id="edge9" class="edge">
<title>n8-&gt;n9</title>
<path fill="none" stroke="#000000" stroke-width="2" d="M103.3342,-153.9927C103.3342,-147.0719 103.3342,-138.1236 103.3342,-130.4466"/>
<polygon fill="#000000" stroke="#000000" stroke-width="2" points="105.0843,-130.3754 103.3342,-125.3754 101.5843,-130.3755 105.0843,-130.3754"/>
</g>
<!-- n12 -->
<g id="node13" class="node">
<title>n12</title>
<polygon fill="#ffffff" stroke="#000000" stroke-width="2" points="210.841,-125.4036 187.8274,-125.4036 187.8274,-102.5964 210.841,-102.5964 210.841,-125.4036"/>
<text text-anchor="middle" x="199.3342" y="-110.4" font-family="Helvetica,sans-Serif" font-weight="bold" font-size="12.00" fill="#0000ff">+</text>
</g>
<!-- n11&#45;&gt;n12 -->
<g id="edge12" class="edge">
<title>n11-&gt;n12</title>
<path fill="none" stroke="#000000" stroke-width="2" d="M199.3342,-153.9927C199.3342,-147.0719 199.3342,-138.1236 199.3342,-130.4466"/>
<polygon fill="#000000" stroke="#000000" stroke-width="2" points="201.0843,-130.3754 199.3342,-125.3754 197.5843,-130.3755 201.0843,-130.3754"/>
</g>
<!-- n13 -->
<g id="node14" class="node">
<title>n13</title>
<polygon fill="#ffffff" stroke="#000000" stroke-width="2" points="183.337,-74.0036 159.3314,-74.0036 159.3314,-51.1964 183.337,-51.1964 183.337,-74.0036"/>
<text text-anchor="middle" x="171.3342" y="-59" font-family="Helvetica,sans-Serif" font-weight="bold" font-size="12.00" fill="#0000ff">&amp;</text>
</g>
<!-- n12&#45;&gt;n13 -->
<g id="edge13" class="edge">
<title>n12-&gt;n13</title>
<path fill="none" stroke="#000000" stroke-width="2" d="M193.1201,-102.5927C189.2775,-95.5388 184.2876,-86.3787 180.053,-78.6051"/>
<polygon fill="#000000" stroke="#000000" stroke-width="2" points="181.4596,-77.5291 177.5309,-73.9754 178.3861,-79.2034 181.4596,-77.5291"/>
</g>
<!-- n15 -->
<g id="node16" class="node">
<title>n15</title>
<polygon fill="#ffffff" stroke="#000000" stroke-width="2" points="223.5074,-74.0036 201.161,-74.0036 201.161,-51.1964 223.5074,-51.1964 223.5074,-74.0036"/>
<text text-anchor="middle" x="212.3342" y="-59" font-family="Helvetica,sans-Serif" font-weight="bold" font-size="12.00" fill="#0000ff">1</text>
</g>
<!-- n12&#45;&gt;n15 -->
<g id="edge15" class="edge">
<title>n12-&gt;n15</title>
<path fill="none" stroke="#000000" stroke-width="2" d="M202.2193,-102.5927C203.9697,-95.6719 206.2329,-86.7236 208.1746,-79.0466"/>
<polygon fill="#000000" stroke="#000000" stroke-width="2" points="209.9277,-79.2519 209.4571,-73.9754 206.5345,-78.3937 209.9277,-79.2519"/>
</g>
<!-- n14 -->
<g id="node15" class="node">
<title>n14</title>
<polygon fill="#ffffff" stroke="#000000" stroke-width="2" points="180.5,-22.6036 162.1684,-22.6036 162.1684,.2036 180.5,.2036 180.5,-22.6036"/>
<text text-anchor="middle" x="171.3342" y="-7.6" font-family="Helvetica,sans-Serif" font-weight="bold" font-size="12.00" fill="#0000ff">i</text>
</g>
<!-- n13&#45;&gt;n14 -->
<g id="edge14" class="edge">
<title>n13-&gt;n14</title>
<path fill="none" stroke="#000000" stroke-width="2" d="M171.3342,-51.1927C171.3342,-44.2719 171.3342,-35.3236 171.3342,-27.6466"/>
<polygon fill="#000000" stroke="#000000" stroke-width="2" points="173.0843,-27.5754 171.3342,-22.5754 169.5843,-27.5755 173.0843,-27.5754"/>
</g>
<!-- n17 -->
<g id="node18" class="node">
<title>n17</title>
<polygon fill="#ffffff" stroke="#000000" stroke-width="2" points="290.5065,-176.8036 242.1619,-176.8036 242.1619,-153.9964 290.5065,-153.9964 290.5065,-176.8036"/>
<text text-anchor="middle" x="266.3342" y="-161.8" font-family="Helvetica,sans-Serif" font-weight="bold" font-size="12.00" fill="#0000ff">EXPR</text>
</g>
<!-- n16&#45;&gt;n17 -->
<g id="edge17" class="edge">
<title>n16-&gt;n17</title>
<path fill="none" stroke="#000000" stroke-width="2" d="M266.3342,-205.3927C266.3342,-198.4719 266.3342,-189.5236 266.3342,-181.8466"/>
<polygon fill="#000000" stroke="#000000" stroke-width="2" points="268.0843,-181.7754 266.3342,-176.7754 264.5843,-181.7755 268.0843,-181.7754"/>
</g>
<!-- n22 -->
<g id="node23" class="node">
<title>n22</title>
<polygon fill="#ffffff" stroke="#000000" stroke-width="2" points="357.5065,-176.8036 309.1619,-176.8036 309.1619,-153.9964 357.5065,-153.9964 357.5065,-176.8036"/>
<text text-anchor="middle" x="333.3342" y="-161.8" font-family="Helvetica,sans-Serif" font-weight="bold" font-size="12.00" fill="#0000ff">EXPR</text>
</g>
<!-- n16&#45;&gt;n22 -->
<g id="edge22" class="edge">
<title>n16-&gt;n22</title>
<path fill="none" stroke="#000000" stroke-width="2" d="M278.0047,-207.8468C288.0221,-200.1618 302.6521,-188.9382 314.3525,-179.9621"/>
<polygon fill="#000000" stroke="#000000" stroke-width="2" points="315.6148,-181.1994 318.5167,-176.7675 313.4844,-178.4224 315.6148,-181.1994"/>
</g>
<!-- n18 -->
<g id="node19" class="node">
<title>n18</title>
<polygon fill="#ffffff" stroke="#000000" stroke-width="2" points="276.5036,-125.4036 256.1648,-125.4036 256.1648,-102.5964 276.5036,-102.5964 276.5036,-125.4036"/>
<text text-anchor="middle" x="266.3342" y="-110.4" font-family="Helvetica,sans-Serif" font-weight="bold" font-size="12.00" fill="#0000ff">*</text>
</g>
<!-- n17&#45;&gt;n18 -->
<g id="edge18" class="edge">
<title>n17-&gt;n18</title>
<path fill="none" stroke="#000000" stroke-width="2" d="M266.3342,-153.9927C266.3342,-147.0719 266.3342,-138.1236 266.3342,-130.4466"/>
<polygon fill="#000000" stroke="#000000" stroke-width="2" points="268.0843,-130.3754 266.3342,-125.3754 264.5843,-130.3755 268.0843,-130.3754"/>
</g>
<!-- n19 -->
<g id="node20" class="node">
<title>n19</title>
<polygon fill="#ffffff" stroke="#000000" stroke-width="2" points="277.841,-74.0036 254.8274,-74.0036 254.8274,-51.1964 277.841,-51.1964 277.841,-74.0036"/>
<text text-anchor="middle" x="266.3342" y="-59" font-family="Helvetica,sans-Serif" font-weight="bold" font-size="12.00" fill="#0000ff">+</text>
</g>
<!-- n18&#45;&gt;n19 -->
<g id="edge19" class="edge">
<title>n18-&gt;n19</title>
<path fill="none" stroke="#000000" stroke-width="2" d="M266.3342,-102.5927C266.3342,-95.6719 266.3342,-86.7236 266.3342,-79.0466"/>
<polygon fill="#000000" stroke="#000000" stroke-width="2" points="268.0843,-78.9754 266.3342,-73.9754 264.5843,-78.9755 268.0843,-78.9754"/>
</g>
<!-- n20 -->
<g id="node21" class="node">
<title>n20</title>
<polygon fill="#ffffff" stroke="#000000" stroke-width="2" points="258.3398,-22.6036 232.3286,-22.6036 232.3286,.2036 258.3398,.2036 258.3398,-22.6036"/>
<text text-anchor="middle" x="245.3342" y="-7.6" font-family="Helvetica,sans-Serif" font-weight="bold" font-size="12.00" fill="#0000ff">pI</text>
</g>
<!-- n19&#45;&gt;n20 -->
<g id="edge20" class="edge">
<title>n19-&gt;n20</title>
<path fill="none" stroke="#000000" stroke-width="2" d="M261.6736,-51.1927C258.7917,-44.1388 255.0492,-34.9787 251.8733,-27.2051"/>
<polygon fill="#000000" stroke="#000000" stroke-width="2" points="253.4929,-26.5421 249.9818,-22.5754 250.2529,-27.8659 253.4929,-26.5421"/>
</g>
<!-- n21 -->
<g id="node22" class="node">
<title>n21</title>
<polygon fill="#ffffff" stroke="#000000" stroke-width="2" points="298.5074,-22.6036 276.161,-22.6036 276.161,.2036 298.5074,.2036 298.5074,-22.6036"/>
<text text-anchor="middle" x="287.3342" y="-7.6" font-family="Helvetica,sans-Serif" font-weight="bold" font-size="12.00" fill="#0000ff">2</text>
</g>
<!-- n19&#45;&gt;n21 -->
<g id="edge21" class="edge">
<title>n19-&gt;n21</title>
<path fill="none" stroke="#000000" stroke-width="2" d="M270.9948,-51.1927C273.8767,-44.1388 277.6192,-34.9787 280.7951,-27.2051"/>
<polygon fill="#000000" stroke="#000000" stroke-width="2" points="282.4155,-27.8659 282.6866,-22.5754 279.1755,-26.5421 282.4155,-27.8659"/>
</g>
<!-- n23 -->
<g id="node24" class="node">
<title>n23</title>
<polygon fill="#ffffff" stroke="#000000" stroke-width="2" points="344.5074,-125.4036 322.161,-125.4036 322.161,-102.5964 344.5074,-102.5964 344.5074,-125.4036"/>
<text text-anchor="middle" x="333.3342" y="-110.4" font-family="Helvetica,sans-Serif" font-weight="bold" font-size="12.00" fill="#0000ff">4</text>
</g>
<!-- n22&#45;&gt;n23 -->
<g id="edge23" class="edge">
<title>n22-&gt;n23</title>
<path fill="none" stroke="#000000" stroke-width="2" d="M333.3342,-153.9927C333.3342,-147.0719 333.3342,-138.1236 333.3342,-130.4466"/>
<polygon fill="#000000" stroke="#000000" stroke-width="2" points="335.0843,-130.3754 333.3342,-125.3754 331.5843,-130.3755 335.0843,-130.3754"/>
</g>
</g>
</svg>