<?xml version="1.0" encoding="UTF-8" standalone="no"?><!DOCTYPE svg PUBLIC "-//W3C//DTD SVG 1.1//EN" "http://www.w3.org/Graphics/SVG/1.1/DTD/svg11.dtd"><!-- Generated by graphviz version 2.40.1 (20161225.0304)
 --><!-- Title: %0 Pages: 1 --><svg xmlns="http://www.w3.org/2000/svg" xmlns:xlink="http://www.w3.org/1999/xlink" width="677pt" height="386pt" viewBox="0.00 0.00 677.34 385.80">
<g id="graph0" class="graph" transform="scale(1 1) rotate(0) translate(4 381.8)">
<title>%0</title>
<polygon fill="#d3d3d3" stroke="transparent" points="-4,4 -4,-381.8 673.337,-381.8 673.337,4 -4,4"/>
<!-- n0 -->
<g id="node1" class="node">
<title>n0</title>
<polygon fill="#ffffff" stroke="#000000" stroke-width="2" points="137.0014,-377.8 119.0014,-377.8 119.0014,-359.8 137.0014,-359.8 137.0014,-377.8"/>
</g>
<!-- n1 -->
<g id="node2" class="node">
<title>n1</title>
<polygon fill="#ffffff" stroke="#000000" stroke-width="2" points="103.8363,-331.0036 60.1665,-331.0036 60.1665,-308.1964 103.8363,-308.1964 103.8363,-331.0036"/>
<text text-anchor="middle" x="82.0014" y="-316" font-family="Helvetica,sans-Serif" font-weight="bold" font-size="12.00" fill="#0000ff">class</text>
</g>
<!-- n0&#45;&gt;n1 -->
<g id="edge1" class="edge">
<title>n0-&gt;n1</title>
<path fill="none" stroke="#000000" stroke-width="2" d="M119.5643,-359.776C113.0557,-352.8146 103.904,-343.0263 96.2635,-334.8542"/>
<polygon fill="#000000" stroke="#000000" stroke-width="2" points="97.3454,-333.4489 92.6523,-330.9918 94.7887,-335.8393 97.3454,-333.4489"/>
</g>
<!-- n6 -->
<g id="node7" class="node">
<title>n6</title>
<polygon fill="#ffffff" stroke="#000000" stroke-width="2" points="243.1607,-331.0036 136.8421,-331.0036 136.8421,-308.1964 243.1607,-308.1964 243.1607,-331.0036"/>
<text text-anchor="middle" x="190.0014" y="-316" font-family="Helvetica,sans-Serif" font-weight="bold" font-size="12.00" fill="#0000ff">METHOD_DECL</text>
</g>
<!-- n0&#45;&gt;n6 -->
<g id="edge6" class="edge">
<title>n0-&gt;n6</title>
<path fill="none" stroke="#000000" stroke-width="2" d="M137.1497,-361.5404C146.1497,-354.3984 160.1494,-343.289 171.4796,-334.2979"/>
<polygon fill="#000000" stroke="#000000" stroke-width="2" points="172.6901,-335.5714 175.519,-331.0925 170.5145,-332.8298 172.6901,-335.5714"/>
</g>
<!-- n2 -->
<g id="node3" class="node">
<title>n2</title>
<polygon fill="#ffffff" stroke="#000000" stroke-width="2" points="24.0042,-279.6036 -.0014,-279.6036 -.0014,-256.7964 24.0042,-256.7964 24.0042,-279.6036"/>
<text text-anchor="middle" x="12.0014" y="-264.6" font-family="Helvetica,sans-Serif" font-weight="bold" font-size="12.00" fill="#0000ff">A</text>
</g>
<!-- n1&#45;&gt;n2 -->
<g id="edge2" class="edge">
<title>n1-&gt;n2</title>
<path fill="none" stroke="#000000" stroke-width="2" d="M66.4661,-308.1927C55.1303,-299.8689 39.8001,-288.6122 28.2919,-280.1619"/>
<polygon fill="#000000" stroke="#000000" stroke-width="2" points="29.3055,-278.735 24.2395,-277.1863 27.2339,-281.5562 29.3055,-278.735"/>
</g>
<!-- n3 -->
<g id="node4" class="node">
<title>n3</title>
<polygon fill="#ffffff" stroke="#000000" stroke-width="2" points="121.8405,-279.6036 42.1623,-279.6036 42.1623,-256.7964 121.8405,-256.7964 121.8405,-279.6036"/>
<text text-anchor="middle" x="82.0014" y="-264.6" font-family="Helvetica,sans-Serif" font-weight="bold" font-size="12.00" fill="#0000ff">VAR_DECL</text>
</g>
<!-- n1&#45;&gt;n3 -->
<g id="edge3" class="edge">
<title>n1-&gt;n3</title>
<path fill="none" stroke="#000000" stroke-width="2" d="M82.0014,-308.1927C82.0014,-301.2719 82.0014,-292.3236 82.0014,-284.6466"/>
<polygon fill="#000000" stroke="#000000" stroke-width="2" points="83.7515,-284.5754 82.0014,-279.5754 80.2515,-284.5755 83.7515,-284.5754"/>
</g>
<!-- n4 -->
<g id="node5" class="node">
<title>n4</title>
<polygon fill="#ffffff" stroke="#000000" stroke-width="2" points="53.1717,-228.2036 24.8311,-228.2036 24.8311,-205.3964 53.1717,-205.3964 53.1717,-228.2036"/>
<text text-anchor="middle" x="39.0014" y="-213.2" font-family="Helvetica,sans-Serif" font-weight="bold" font-size="12.00" fill="#0000ff">int</text>
</g>
<!-- n3&#45;&gt;n4 -->
<g id="edge4" class="edge">
<title>n3-&gt;n4</title>
<path fill="none" stroke="#000000" stroke-width="2" d="M72.4583,-256.7927C66.4459,-249.6057 58.6043,-240.2323 52.0241,-232.3666"/>
<polygon fill="#000000" stroke="#000000" stroke-width="2" points="53.0684,-230.8875 48.5178,-228.1754 50.3839,-233.1333 53.0684,-230.8875"/>
</g>
<!-- n5 -->
<g id="node6" class="node">
<title>n5</title>
<polygon fill="#ffffff" stroke="#000000" stroke-width="2" points="93.0014,-228.2036 71.0014,-228.2036 71.0014,-205.3964 93.0014,-205.3964 93.0014,-228.2036"/>
<text text-anchor="middle" x="82.0014" y="-213.2" font-family="Helvetica,sans-Serif" font-weight="bold" font-size="12.00" fill="#0000ff">x</text>
</g>
<!-- n3&#45;&gt;n5 -->
<g id="edge5" class="edge">
<title>n3-&gt;n5</title>
<path fill="none" stroke="#000000" stroke-width="2" d="M82.0014,-256.7927C82.0014,-249.8719 82.0014,-240.9236 82.0014,-233.2466"/>
<polygon fill="#000000" stroke="#000000" stroke-width="2" points="83.7515,-233.1754 82.0014,-228.1754 80.2515,-233.1755 83.7515,-233.1754"/>
</g>
<!-- n7 -->
<g id="node8" class="node">
<title>n7</title>
<polygon fill="#ffffff" stroke="#000000" stroke-width="2" points="193.0058,-279.6036 154.997,-279.6036 154.997,-256.7964 193.0058,-256.7964 193.0058,-279.6036"/>
<text text-anchor="middle" x="174.0014" y="-264.6" font-family="Helvetica,sans-Serif" font-weight="bold" font-size="12.00" fill="#0000ff">void</text>
</g>
<!-- n6&#45;&gt;n7 -->
<g id="edge7" class="edge">
<title>n6-&gt;n7</title>
<path fill="none" stroke="#000000" stroke-width="2" d="M186.4505,-308.1927C184.2962,-301.2719 181.5107,-292.3236 179.121,-284.6466"/>
<polygon fill="#000000" stroke="#000000" stroke-width="2" points="180.6995,-283.8293 177.5424,-279.5754 177.3576,-284.8696 180.6995,-283.8293"/>
</g>
<!-- n8 -->
<g id="node9" class="node">
<title>n8</title>
<polygon fill="#ffffff" stroke="#000000" stroke-width="2" points="230.8391,-279.6036 211.1637,-279.6036 211.1637,-256.7964 230.8391,-256.7964 230.8391,-279.6036"/>
<text text-anchor="middle" x="221.0014" y="-264.6" font-family="Helvetica,sans-Serif" font-weight="bold" font-size="12.00" fill="#0000ff">f</text>
</g>
<!-- n6&#45;&gt;n8 -->
<g id="edge8" class="edge">
<title>n6-&gt;n8</title>
<path fill="none" stroke="#000000" stroke-width="2" d="M196.8813,-308.1927C201.1356,-301.1388 206.6602,-291.9787 211.3485,-284.2051"/>
<polygon fill="#000000" stroke="#000000" stroke-width="2" points="213.057,-284.7608 214.1407,-279.5754 210.0599,-282.9532 213.057,-284.7608"/>
</g>
<!-- n9 -->
<g id="node10" class="node">
<title>n9</title>
<polygon fill="#ffffff" stroke="#000000" stroke-width="2" points="350.1763,-279.6036 293.8265,-279.6036 293.8265,-256.7964 350.1763,-256.7964 350.1763,-279.6036"/>
<text text-anchor="middle" x="322.0014" y="-264.6" font-family="Helvetica,sans-Serif" font-weight="bold" font-size="12.00" fill="#0000ff">BLOCK</text>
</g>
<!-- n6&#45;&gt;n9 -->
<g id="edge9" class="edge">
<title>n6-&gt;n9</title>
<path fill="none" stroke="#000000" stroke-width="2" d="M218.9694,-308.3201C239.5715,-300.2977 267.2915,-289.5037 288.7897,-281.1325"/>
<polygon fill="#000000" stroke="#000000" stroke-width="2" points="289.5306,-282.722 293.5549,-279.2769 288.2606,-279.4605 289.5306,-282.722"/>
</g>
<!-- n10 -->
<g id="node11" class="node">
<title>n10</title>
<polygon fill="#ffffff" stroke="#000000" stroke-width="2" points="190.8405,-228.2036 111.1623,-228.2036 111.1623,-205.3964 190.8405,-205.3964 190.8405,-228.2036"/>
<text text-anchor="middle" x="151.0014" y="-213.2" font-family="Helvetica,sans-Serif" font-weight="bold" font-size="12.00" fill="#0000ff">VAR_DECL</text>
</g>
<!-- n9&#45;&gt;n10 -->
<g id="edge10" class="edge">
<title>n9-&gt;n10</title>
<path fill="none" stroke="#000000" stroke-width="2" d="M293.7642,-259.7123C266.3909,-251.4843 224.5251,-238.9001 193.1976,-229.4835"/>
<polygon fill="#000000" stroke="#000000" stroke-width="2" points="193.5562,-227.764 188.264,-228.0006 192.5486,-231.1159 193.5562,-227.764"/>
</g>
<!-- n14 -->
<g id="node15" class="node">
<title>n14</title>
<polygon fill="#ffffff" stroke="#000000" stroke-width="2" points="289.8405,-228.2036 210.1623,-228.2036 210.1623,-205.3964 289.8405,-205.3964 289.8405,-228.2036"/>
<text text-anchor="middle" x="250.0014" y="-213.2" font-family="Helvetica,sans-Serif" font-weight="bold" font-size="12.00" fill="#0000ff">VAR_DECL</text>
</g>
<!-- n9&#45;&gt;n14 -->
<g id="edge14" class="edge">
<title>n9-&gt;n14</title>
<path fill="none" stroke="#000000" stroke-width="2" d="M306.0223,-256.7927C295.4889,-249.273 281.6025,-239.3597 270.2906,-231.2843"/>
<polygon fill="#000000" stroke="#000000" stroke-width="2" points="271.0221,-229.6563 265.9359,-228.1754 268.9885,-232.5049 271.0221,-229.6563"/>
</g>
<!-- n22 -->
<g id="node23" class="node">
<title>n22</title>
<polygon fill="#ffffff" stroke="#000000" stroke-width="2" points="389.8405,-228.2036 310.1623,-228.2036 310.1623,-205.3964 389.8405,-205.3964 389.8405,-228.2036"/>
<text text-anchor="middle" x="350.0014" y="-213.2" font-family="Helvetica,sans-Serif" font-weight="bold" font-size="12.00" fill="#0000ff">VAR_DECL</text>
</g>
<!-- n9&#45;&gt;n22 -->
<g id="edge22" class="edge">
<title>n9-&gt;n22</title>
<path fill="none" stroke="#000000" stroke-width="2" d="M328.2155,-256.7927C332.0581,-249.7388 337.048,-240.5787 341.2826,-232.8051"/>
<polygon fill="#000000" stroke="#000000" stroke-width="2" points="342.9495,-233.4034 343.8047,-228.1754 339.876,-231.7291 342.9495,-233.4034"/>
</g>
<!-- n26 -->
<g id="node27" class="node">
<title>n26</title>
<polygon fill="#ffffff" stroke="#000000" stroke-width="2" points="455.5082,-228.2036 432.4946,-228.2036 432.4946,-205.3964 455.5082,-205.3964 455.5082,-228.2036"/>
<text text-anchor="middle" x="444.0014" y="-213.2" font-family="Helvetica,sans-Serif" font-weight="bold" font-size="12.00" fill="#0000ff">=</text>
</g>
<!-- n9&#45;&gt;n26 -->
<g id="edge26" class="edge">
<title>n9-&gt;n26</title>
<path fill="none" stroke="#000000" stroke-width="2" d="M348.7748,-256.9201C372.8291,-246.7857 407.382,-232.2282 427.578,-223.7194"/>
<polygon fill="#000000" stroke="#000000" stroke-width="2" points="428.4598,-225.2469 432.3881,-221.6928 427.1009,-222.0215 428.4598,-225.2469"/>
</g>
<!-- n34 -->
<g id="node35" class="node">
<title>n34</title>
<polygon fill="#ffffff" stroke="#000000" stroke-width="2" points="589.5082,-228.2036 566.4946,-228.2036 566.4946,-205.3964 589.5082,-205.3964 589.5082,-228.2036"/>
<text text-anchor="middle" x="578.0014" y="-213.2" font-family="Helvetica,sans-Serif" font-weight="bold" font-size="12.00" fill="#0000ff">=</text>
</g>
<!-- n9&#45;&gt;n34 -->
<g id="edge34" class="edge">
<title>n9-&gt;n34</title>
<path fill="none" stroke="#000000" stroke-width="2" d="M350.376,-262.5029C403.9331,-251.7497 518.3879,-228.7693 561.2957,-220.1542"/>
<polygon fill="#000000" stroke="#000000" stroke-width="2" points="561.8405,-221.8298 566.3982,-219.1297 561.1515,-218.3983 561.8405,-221.8298"/>
</g>
<!-- n11 -->
<g id="node12" class="node">
<title>n11</title>
<polygon fill="#ffffff" stroke="#000000" stroke-width="2" points="119.845,-176.8036 90.1578,-176.8036 90.1578,-153.9964 119.845,-153.9964 119.845,-176.8036"/>
<text text-anchor="middle" x="105.0014" y="-161.8" font-family="Helvetica,sans-Serif" font-weight="bold" font-size="12.00" fill="#0000ff">35</text>
</g>
<!-- n10&#45;&gt;n11 -->
<g id="edge11" class="edge">
<title>n10-&gt;n11</title>
<path fill="none" stroke="#000000" stroke-width="2" d="M140.7925,-205.3927C134.2415,-198.0726 125.6605,-188.4843 118.543,-180.5312"/>
<polygon fill="#000000" stroke="#000000" stroke-width="2" points="119.8202,-179.3342 115.1818,-176.7754 117.2121,-181.6683 119.8202,-179.3342"/>
</g>
<!-- n13 -->
<g id="node14" class="node">
<title>n13</title>
<polygon fill="#ffffff" stroke="#000000" stroke-width="2" points="160.1746,-176.8036 137.8282,-176.8036 137.8282,-153.9964 160.1746,-153.9964 160.1746,-176.8036"/>
<text text-anchor="middle" x="149.0014" y="-161.8" font-family="Helvetica,sans-Serif" font-weight="bold" font-size="12.00" fill="#0000ff">a</text>
</g>
<!-- n10&#45;&gt;n13 -->
<g id="edge13" class="edge">
<title>n10-&gt;n13</title>
<path fill="none" stroke="#000000" stroke-width="2" d="M150.5575,-205.3927C150.2882,-198.4719 149.9401,-189.5236 149.6413,-181.8466"/>
<polygon fill="#000000" stroke="#000000" stroke-width="2" points="151.3872,-181.7036 149.444,-176.7754 147.8898,-181.8397 151.3872,-181.7036"/>
</g>
<!-- n12 -->
<g id="node13" class="node">
<title>n12</title>
<polygon fill="#ffffff" stroke="#000000" stroke-width="2" points="124.1768,-125.4036 85.826,-125.4036 85.826,-102.5964 124.1768,-102.5964 124.1768,-125.4036"/>
<text text-anchor="middle" x="105.0014" y="-110.4" font-family="Helvetica,sans-Serif" font-weight="bold" font-size="12.00" fill="#0000ff">float</text>
</g>
<!-- n11&#45;&gt;n12 -->
<g id="edge12" class="edge">
<title>n11-&gt;n12</title>
<path fill="none" stroke="#000000" stroke-width="2" d="M105.0014,-153.9927C105.0014,-147.0719 105.0014,-138.1236 105.0014,-130.4466"/>
<polygon fill="#000000" stroke="#000000" stroke-width="2" points="106.7515,-130.3754 105.0014,-125.3754 103.2515,-130.3755 106.7515,-130.3754"/>
</g>
<!-- n15 -->
<g id="node16" class="node">
<title>n15</title>
<polygon fill="#ffffff" stroke="#000000" stroke-width="2" points="217.1768,-176.8036 178.826,-176.8036 178.826,-153.9964 217.1768,-153.9964 217.1768,-176.8036"/>
<text text-anchor="middle" x="198.0014" y="-161.8" font-family="Helvetica,sans-Serif" font-weight="bold" font-size="12.00" fill="#0000ff">float</text>
</g>
<!-- n14&#45;&gt;n15 -->
<g id="edge15" class="edge">
<title>n14-&gt;n15</title>
<path fill="none" stroke="#000000" stroke-width="2" d="M238.4609,-205.3927C231.0554,-198.0726 221.3552,-188.4843 213.3093,-180.5312"/>
<polygon fill="#000000" stroke="#000000" stroke-width="2" points="214.2959,-179.0458 209.5096,-176.7754 211.8354,-181.535 214.2959,-179.0458"/>
</g>
<!-- n16 -->
<g id="node17" class="node">
<title>n16</title>
<polygon fill="#ffffff" stroke="#000000" stroke-width="2" points="254.8391,-176.8036 235.1637,-176.8036 235.1637,-153.9964 254.8391,-153.9964 254.8391,-176.8036"/>
<text text-anchor="middle" x="245.0014" y="-161.8" font-family="Helvetica,sans-Serif" font-weight="bold" font-size="12.00" fill="#0000ff">f</text>
</g>
<!-- n14&#45;&gt;n16 -->
<g id="edge16" class="edge">
<title>n14-&gt;n16</title>
<path fill="none" stroke="#000000" stroke-width="2" d="M248.8917,-205.3927C248.2185,-198.4719 247.3481,-189.5236 246.6013,-181.8466"/>
<polygon fill="#000000" stroke="#000000" stroke-width="2" points="248.3339,-181.5825 246.108,-176.7754 244.8504,-181.9214 248.3339,-181.5825"/>
</g>
<!-- n17 -->
<g id="node18" class="node">
<title>n17</title>
<polygon fill="#ffffff" stroke="#000000" stroke-width="2" points="321.1737,-176.8036 272.8291,-176.8036 272.8291,-153.9964 321.1737,-153.9964 321.1737,-176.8036"/>
<text text-anchor="middle" x="297.0014" y="-161.8" font-family="Helvetica,sans-Serif" font-weight="bold" font-size="12.00" fill="#0000ff">EXPR</text>
</g>
<!-- n14&#45;&gt;n17 -->
<g id="edge17" class="edge">
<title>n14-&gt;n17</title>
<path fill="none" stroke="#000000" stroke-width="2" d="M260.4322,-205.3927C267.1256,-198.0726 275.8931,-188.4843 283.1654,-180.5312"/>
<polygon fill="#000000" stroke="#000000" stroke-width="2" points="284.5171,-181.6463 286.5997,-176.7754 281.9341,-179.2845 284.5171,-181.6463"/>
</g>
<!-- n18 -->
<g id="node19" class="node">
<title>n18</title>
<polygon fill="#ffffff" stroke="#000000" stroke-width="2" points="307.1708,-125.4036 286.832,-125.4036 286.832,-102.5964 307.1708,-102.5964 307.1708,-125.4036"/>
<text text-anchor="middle" x="297.0014" y="-110.4" font-family="Helvetica,sans-Serif" font-weight="bold" font-size="12.00" fill="#0000ff">*</text>
</g>
<!-- n17&#45;&gt;n18 -->
<g id="edge18" class="edge">
<title>n17-&gt;n18</title>
<path fill="none" stroke="#000000" stroke-width="2" d="M297.0014,-153.9927C297.0014,-147.0719 297.0014,-138.1236 297.0014,-130.4466"/>
<polygon fill="#000000" stroke="#000000" stroke-width="2" points="298.7515,-130.3754 297.0014,-125.3754 295.2515,-130.3755 298.7515,-130.3754"/>
</g>
<!-- n19 -->
<g id="node20" class="node">
<title>n19</title>
<polygon fill="#ffffff" stroke="#000000" stroke-width="2" points="308.5082,-74.0036 285.4946,-74.0036 285.4946,-51.1964 308.5082,-51.1964 308.5082,-74.0036"/>
<text text-anchor="middle" x="297.0014" y="-59" font-family="Helvetica,sans-Serif" font-weight="bold" font-size="12.00" fill="#0000ff">+</text>
</g>
<!-- n18&#45;&gt;n19 -->
<g id="edge19" class="edge">
<title>n18-&gt;n19</title>
<path fill="none" stroke="#000000" stroke-width="2" d="M297.0014,-102.5927C297.0014,-95.6719 297.0014,-86.7236 297.0014,-79.0466"/>
<polygon fill="#000000" stroke="#000000" stroke-width="2" points="298.7515,-78.9754 297.0014,-73.9754 295.2515,-78.9755 298.7515,-78.9754"/>
</g>
<!-- n20 -->
<g id="node21" class="node">
<title>n20</title>
<polygon fill="#ffffff" stroke="#000000" stroke-width="2" points="287.1746,-22.6036 264.8282,-22.6036 264.8282,.2036 287.1746,.2036 287.1746,-22.6036"/>
<text text-anchor="middle" x="276.0014" y="-7.6" font-family="Helvetica,sans-Serif" font-weight="bold" font-size="12.00" fill="#0000ff">a</text>
</g>
<!-- n19&#45;&gt;n20 -->
<g id="edge20" class="edge">
<title>n19-&gt;n20</title>
<path fill="none" stroke="#000000" stroke-width="2" d="M292.3408,-51.1927C289.4589,-44.1388 285.7164,-34.9787 282.5405,-27.2051"/>
<polygon fill="#000000" stroke="#000000" stroke-width="2" points="284.1601,-26.5421 280.649,-22.5754 280.9201,-27.8659 284.1601,-26.5421"/>
</g>
<!-- n21 -->
<g id="node22" class="node">
<title>n21</title>
<polygon fill="#ffffff" stroke="#000000" stroke-width="2" points="332.8047,-22.6036 305.1981,-22.6036 305.1981,.2036 332.8047,.2036 332.8047,-22.6036"/>
<text text-anchor="middle" x="319.0014" y="-7.6" font-family="Helvetica,sans-Serif" font-weight="bold" font-size="12.00" fill="#0000ff">'x'</text>
</g>
<!-- n19&#45;&gt;n21 -->
<g id="edge21" class="edge">
<title>n19-&gt;n21</title>
<path fill="none" stroke="#000000" stroke-width="2" d="M301.8839,-51.1927C304.9031,-44.1388 308.8238,-34.9787 312.1509,-27.2051"/>
<polygon fill="#000000" stroke="#000000" stroke-width="2" points="313.7739,-27.8607 314.1325,-22.5754 310.5562,-26.4835 313.7739,-27.8607"/>
</g>
<!-- n23 -->
<g id="node24" class="node">
<title>n23</title>
<polygon fill="#ffffff" stroke="#000000" stroke-width="2" points="360.1708,-176.8036 339.832,-176.8036 339.832,-153.9964 360.1708,-153.9964 360.1708,-176.8036"/>
<text text-anchor="middle" x="350.0014" y="-161.8" font-family="Helvetica,sans-Serif" font-weight="bold" font-size="12.00" fill="#0000ff">*</text>
</g>
<!-- n22&#45;&gt;n23 -->
<g id="edge23" class="edge">
<title>n22-&gt;n23</title>
<path fill="none" stroke="#000000" stroke-width="2" d="M350.0014,-205.3927C350.0014,-198.4719 350.0014,-189.5236 350.0014,-181.8466"/>
<polygon fill="#000000" stroke="#000000" stroke-width="2" points="351.7515,-181.7754 350.0014,-176.7754 348.2515,-181.7755 351.7515,-181.7754"/>
</g>
<!-- n25 -->
<g id="node26" class="node">
<title>n25</title>
<polygon fill="#ffffff" stroke="#000000" stroke-width="2" points="401.1746,-176.8036 378.8282,-176.8036 378.8282,-153.9964 401.1746,-153.9964 401.1746,-176.8036"/>
<text text-anchor="middle" x="390.0014" y="-161.8" font-family="Helvetica,sans-Serif" font-weight="bold" font-size="12.00" fill="#0000ff">p</text>
</g>
<!-- n22&#45;&gt;n25 -->
<g id="edge25" class="edge">
<title>n22-&gt;n25</title>
<path fill="none" stroke="#000000" stroke-width="2" d="M358.8787,-205.3927C364.4716,-198.2057 371.7662,-188.8323 377.8873,-180.9666"/>
<polygon fill="#000000" stroke="#000000" stroke-width="2" points="379.4592,-181.7962 381.1489,-176.7754 376.697,-179.6466 379.4592,-181.7962"/>
</g>
<!-- n24 -->
<g id="node25" class="node">
<title>n24</title>
<polygon fill="#ffffff" stroke="#000000" stroke-width="2" points="362.0042,-125.4036 337.9986,-125.4036 337.9986,-102.5964 362.0042,-102.5964 362.0042,-125.4036"/>
<text text-anchor="middle" x="350.0014" y="-110.4" font-family="Helvetica,sans-Serif" font-weight="bold" font-size="12.00" fill="#0000ff">A</text>
</g>
<!-- n23&#45;&gt;n24 -->
<g id="edge24" class="edge">
<title>n23-&gt;n24</title>
<path fill="none" stroke="#000000" stroke-width="2" d="M350.0014,-153.9927C350.0014,-147.0719 350.0014,-138.1236 350.0014,-130.4466"/>
<polygon fill="#000000" stroke="#000000" stroke-width="2" points="351.7515,-130.3754 350.0014,-125.3754 348.2515,-130.3755 351.7515,-130.3754"/>
</g>
<!-- n27 -->
<g id="node28" class="node">
<title>n27</title>
<polygon fill="#ffffff" stroke="#000000" stroke-width="2" points="468.1737,-176.8036 419.8291,-176.8036 419.8291,-153.9964 468.1737,-153.9964 468.1737,-176.8036"/>
<text text-anchor="middle" x="444.0014" y="-161.8" font-family="Helvetica,sans-Serif" font-weight="bold" font-size="12.00" fill="#0000ff">EXPR</text>
</g>
<!-- n26&#45;&gt;n27 -->
<g id="edge27" class="edge">
<title>n26-&gt;n27</title>
<path fill="none" stroke="#000000" stroke-width="2" d="M444.0014,-205.3927C444.0014,-198.4719 444.0014,-189.5236 444.0014,-181.8466"/>
<polygon fill="#000000" stroke="#000000" stroke-width="2" points="445.7515,-181.7754 444.0014,-176.7754 442.2515,-181.7755 445.7515,-181.7754"/>
</g>
<!-- n32 -->
<g id="node33" class="node">
<title>n32</title>
<polygon fill="#ffffff" stroke="#000000" stroke-width="2" points="535.1737,-176.8036 486.8291,-176.8036 486.8291,-153.9964 535.1737,-153.9964 535.1737,-176.8036"/>
<text text-anchor="middle" x="511.0014" y="-161.8" font-family="Helvetica,sans-Serif" font-weight="bold" font-size="12.00" fill="#0000ff">EXPR</text>
</g>
<!-- n26&#45;&gt;n32 -->
<g id="edge32" class="edge">
<title>n26-&gt;n32</title>
<path fill="none" stroke="#000000" stroke-width="2" d="M455.6719,-207.8468C465.6893,-200.1618 480.3193,-188.9382 492.0197,-179.9621"/>
<polygon fill="#000000" stroke="#000000" stroke-width="2" points="493.282,-181.1994 496.1839,-176.7675 491.1516,-178.4224 493.282,-181.1994"/>
</g>
<!-- n28 -->
<g id="node29" class="node">
<title>n28</title>
<polygon fill="#ffffff" stroke="#000000" stroke-width="2" points="457.503,-125.4036 430.4998,-125.4036 430.4998,-102.5964 457.503,-102.5964 457.503,-125.4036"/>
<text text-anchor="middle" x="444.0014" y="-110.4" font-family="Helvetica,sans-Serif" font-weight="bold" font-size="12.00" fill="#0000ff">-&gt;</text>
</g>
<!-- n27&#45;&gt;n28 -->
<g id="edge28" class="edge">
<title>n27-&gt;n28</title>
<path fill="none" stroke="#000000" stroke-width="2" d="M444.0014,-153.9927C444.0014,-147.0719 444.0014,-138.1236 444.0014,-130.4466"/>
<polygon fill="#000000" stroke="#000000" stroke-width="2" points="445.7515,-130.3754 444.0014,-125.3754 442.2515,-130.3755 445.7515,-130.3754"/>
</g>
<!-- n29 -->
<g id="node30" class="node">
<title>n29</title>
<polygon fill="#ffffff" stroke="#000000" stroke-width="2" points="443.1644,-74.0036 386.8384,-74.0036 386.8384,-51.1964 443.1644,-51.1964 443.1644,-74.0036"/>
<text text-anchor="middle" x="415.0014" y="-59" font-family="Helvetica,sans-Serif" font-weight="bold" font-size="12.00" fill="#0000ff">DEREF</text>
</g>
<!-- n28&#45;&gt;n29 -->
<g id="edge29" class="edge">
<title>n28-&gt;n29</title>
<path fill="none" stroke="#000000" stroke-width="2" d="M437.5654,-102.5927C433.5856,-95.5388 428.4174,-86.3787 424.0315,-78.6051"/>
<polygon fill="#000000" stroke="#000000" stroke-width="2" points="425.4006,-77.4702 421.4194,-73.9754 422.3523,-79.1901 425.4006,-77.4702"/>
</g>
<!-- n31 -->
<g id="node32" class="node">
<title>n31</title>
<polygon fill="#ffffff" stroke="#000000" stroke-width="2" points="483.0014,-74.0036 461.0014,-74.0036 461.0014,-51.1964 483.0014,-51.1964 483.0014,-74.0036"/>
<text text-anchor="middle" x="472.0014" y="-59" font-family="Helvetica,sans-Serif" font-weight="bold" font-size="12.00" fill="#0000ff">x</text>
</g>
<!-- n28&#45;&gt;n31 -->
<g id="edge31" class="edge">
<title>n28-&gt;n31</title>
<path fill="none" stroke="#000000" stroke-width="2" d="M450.2155,-102.5927C454.0581,-95.5388 459.048,-86.3787 463.2826,-78.6051"/>
<polygon fill="#000000" stroke="#000000" stroke-width="2" points="464.9495,-79.2034 465.8047,-73.9754 461.876,-77.5291 464.9495,-79.2034"/>
</g>
<!-- n30 -->
<g id="node31" class="node">
<title>n30</title>
<polygon fill="#ffffff" stroke="#000000" stroke-width="2" points="426.1746,-22.6036 403.8282,-22.6036 403.8282,.2036 426.1746,.2036 426.1746,-22.6036"/>
<text text-anchor="middle" x="415.0014" y="-7.6" font-family="Helvetica,sans-Serif" font-weight="bold" font-size="12.00" fill="#0000ff">p</text>
</g>
<!-- n29&#45;&gt;n30 -->
<g id="edge30" class="edge">
<title>n29-&gt;n30</title>
<path fill="none" stroke="#000000" stroke-width="2" d="M415.0014,-51.1927C415.0014,-44.2719 415.0014,-35.3236 415.0014,-27.6466"/>
<polygon fill="#000000" stroke="#000000" stroke-width="2" points="416.7515,-27.5754 415.0014,-22.5754 413.2515,-27.5755 416.7515,-27.5754"/>
</g>
<!-- n33 -->
<g id="node34" class="node">
<title>n33</title>
<polygon fill="#ffffff" stroke="#000000" stroke-width="2" points="522.1746,-125.4036 499.8282,-125.4036 499.8282,-102.5964 522.1746,-102.5964 522.1746,-125.4036"/>
<text text-anchor="middle" x="511.0014" y="-110.4" font-family="Helvetica,sans-Serif" font-weight="bold" font-size="12.00" fill="#0000ff">3</text>
</g>
<!-- n32&#45;&gt;n33 -->
<g id="edge33" class="edge">
<title>n32-&gt;n33</title>
<path fill="none" stroke="#000000" stroke-width="2" d="M511.0014,-153.9927C511.0014,-147.0719 511.0014,-138.1236 511.0014,-130.4466"/>
<polygon fill="#000000" stroke="#000000" stroke-width="2" points="512.7515,-130.3754 511.0014,-125.3754 509.2515,-130.3755 512.7515,-130.3754"/>
</g>
<!-- n35 -->
<g id="node36" class="node">
<title>n35</title>
<polygon fill="#ffffff" stroke="#000000" stroke-width="2" points="602.1737,-176.8036 553.8291,-176.8036 553.8291,-153.9964 602.1737,-153.9964 602.1737,-176.8036"/>
<text text-anchor="middle" x="578.0014" y="-161.8" font-family="Helvetica,sans-Serif" font-weight="bold" font-size="12.00" fill="#0000ff">EXPR</text>
</g>
<!-- n34&#45;&gt;n35 -->
<g id="edge35" class="edge">
<title>n34-&gt;n35</title>
<path fill="none" stroke="#000000" stroke-width="2" d="M578.0014,-205.3927C578.0014,-198.4719 578.0014,-189.5236 578.0014,-181.8466"/>
<polygon fill="#000000" stroke="#000000" stroke-width="2" points="579.7515,-181.7754 578.0014,-176.7754 576.2515,-181.7755 579.7515,-181.7754"/>
</g>
<!-- n40 -->
<g id="node41" class="node">
<title>n40</title>
<polygon fill="#ffffff" stroke="#000000" stroke-width="2" points="669.1737,-176.8036 620.8291,-176.8036 620.8291,-153.9964 669.1737,-153.9964 669.1737,-176.8036"/>
<text text-anchor="middle" x="645.0014" y="-161.8" font-family="Helvetica,sans-Serif" font-weight="bold" font-size="12.00" fill="#0000ff">EXPR</text>
</g>
<!-- n34&#45;&gt;n40 -->
<g id="edge40" class="edge">
<title>n34-&gt;n40</title>
<path fill="none" stroke="#000000" stroke-width="2" d="M589.6719,-207.8468C599.6893,-200.1618 614.3193,-188.9382 626.0197,-179.9621"/>
<polygon fill="#000000" stroke="#000000" stroke-width="2" points="627.282,-181.1994 630.1839,-176.7675 625.1516,-178.4224 627.282,-181.1994"/>
</g>
<!-- n36 -->
<g id="node37" class="node">
<title>n36</title>
<polygon fill="#ffffff" stroke="#000000" stroke-width="2" points="588.1708,-125.4036 567.832,-125.4036 567.832,-102.5964 588.1708,-102.5964 588.1708,-125.4036"/>
<text text-anchor="middle" x="578.0014" y="-110.4" font-family="Helvetica,sans-Serif" font-weight="bold" font-size="12.00" fill="#0000ff">*</text>
</g>
<!-- n35&#45;&gt;n36 -->
<g id="edge36" class="edge">
<title>n35-&gt;n36</title>
<path fill="none" stroke="#000000" stroke-width="2" d="M578.0014,-153.9927C578.0014,-147.0719 578.0014,-138.1236 578.0014,-130.4466"/>
<polygon fill="#000000" stroke="#000000" stroke-width="2" points="579.7515,-130.3754 578.0014,-125.3754 576.2515,-130.3755 579.7515,-130.3754"/>
</g>
<!-- n37 -->
<g id="node38" class="node">
<title>n37</title>
<polygon fill="#ffffff" stroke="#000000" stroke-width="2" points="589.5082,-74.0036 566.4946,-74.0036 566.4946,-51.1964 589.5082,-51.1964 589.5082,-74.0036"/>
<text text-anchor="middle" x="578.0014" y="-59" font-family="Helvetica,sans-Serif" font-weight="bold" font-size="12.00" fill="#0000ff">+</text>
</g>
<!-- n36&#45;&gt;n37 -->
<g id="edge37" class="edge">
<title>n36-&gt;n37</title>
<path fill="none" stroke="#000000" stroke-width="2" d="M578.0014,-102.5927C578.0014,-95.6719 578.0014,-86.7236 578.0014,-79.0466"/>
<polygon fill="#000000" stroke="#000000" stroke-width="2" points="579.7515,-78.9754 578.0014,-73.9754 576.2515,-78.9755 579.7515,-78.9754"/>
</g>
<!-- n38 -->
<g id="node39" class="node">
<title>n38</title>
<polygon fill="#ffffff" stroke="#000000" stroke-width="2" points="565.1746,-22.6036 542.8282,-22.6036 542.8282,.2036 565.1746,.2036 565.1746,-22.6036"/>
<text text-anchor="middle" x="554.0014" y="-7.6" font-family="Helvetica,sans-Serif" font-weight="bold" font-size="12.00" fill="#0000ff">a</text>
</g>
<!-- n37&#45;&gt;n38 -->
<g id="edge38" class="edge">
<title>n37-&gt;n38</title>
<path fill="none" stroke="#000000" stroke-width="2" d="M572.675,-51.1927C569.3814,-44.1388 565.1043,-34.9787 561.4746,-27.2051"/>
<polygon fill="#000000" stroke="#000000" stroke-width="2" points="563.014,-26.3655 559.3129,-22.5754 559.8427,-27.8463 563.014,-26.3655"/>
</g>
<!-- n39 -->
<g id="node40" class="node">
<title>n39</title>
<polygon fill="#ffffff" stroke="#000000" stroke-width="2" points="620.1741,-22.6036 583.8287,-22.6036 583.8287,.2036 620.1741,.2036 620.1741,-22.6036"/>
<text text-anchor="middle" x="602.0014" y="-7.6" font-family="Helvetica,sans-Serif" font-weight="bold" font-size="12.00" fill="#0000ff">true</text>
</g>
<!-- n37&#45;&gt;n39 -->
<g id="edge39" class="edge">
<title>n37-&gt;n39</title>
<path fill="none" stroke="#000000" stroke-width="2" d="M583.3278,-51.1927C586.6214,-44.1388 590.8985,-34.9787 594.5282,-27.2051"/>
<polygon fill="#000000" stroke="#000000" stroke-width="2" points="596.1601,-27.8463 596.6899,-22.5754 592.9888,-26.3655 596.1601,-27.8463"/>
</g>
<!-- n41 -->
<g id="node42" class="node">
<title>n41</title>
<polygon fill="#ffffff" stroke="#000000" stroke-width="2" points="661.1794,-125.4036 628.8234,-125.4036 628.8234,-102.5964 661.1794,-102.5964 661.1794,-125.4036"/>
<text text-anchor="middle" x="645.0014" y="-110.4" font-family="Helvetica,sans-Serif" font-weight="bold" font-size="12.00" fill="#0000ff">3.4</text>
</g>
<!-- n40&#45;&gt;n41 -->
<g id="edge41" class="edge">
<title>n40-&gt;n41</title>
<path fill="none" stroke="#000000" stroke-width="2" d="M645.0014,-153.9927C645.0014,-147.0719 645.0014,-138.1236 645.0014,-130.4466"/>
<polygon fill="#000000" stroke="#000000" stroke-width="2" points="646.7515,-130.3754 645.0014,-125.3754 643.2515,-130.3755 646.7515,-130.3754"/>
</g>
</g>
</svg>