<?xml version="1.0" encoding="UTF-8" standalone="no"?><!DOCTYPE svg PUBLIC "-//W3C//DTD SVG 1.1//EN" "http://www.w3.org/Graphics/SVG/1.1/DTD/svg11.dtd"><!-- Generated by graphviz version 2.40.1 (20161225.0304)
 --><!-- Title: %0 Pages: 1 --><svg xmlns="http://www.w3.org/2000/svg" xmlns:xlink="http://www.w3.org/1999/xlink" width="442pt" height="390pt" viewBox="0.00 0.00 441.67 390.20">
<g id="graph0" class="graph" transform="scale(1 1) rotate(0) translate(4 386.2)">
<title>%0</title>
<polygon fill="#d3d3d3" stroke="transparent" points="-4,4 -4,-386.2 437.6684,-386.2 437.6684,4 -4,4"/>
<!-- n0 -->
<g id="node1" class="node">
<title>n0</title>
<polygon fill="#ffffff" stroke="#000000" stroke-width="2" points="98.5063,-382.4036 42.1565,-382.4036 42.1565,-359.5964 98.5063,-359.5964 98.5063,-382.4036"/>
<text text-anchor="middle" x="70.3314" y="-367.4" font-family="Helvetica,sans-Serif" font-weight="bold" font-size="12.00" fill="#0000ff">BLOCK</text>
</g>
<!-- n1 -->
<g id="node2" class="node">
<title>n1</title>
<polygon fill="#ffffff" stroke="#000000" stroke-width="2" points="56.8382,-331.0036 33.8246,-331.0036 33.8246,-308.1964 56.8382,-308.1964 56.8382,-331.0036"/>
<text text-anchor="middle" x="45.3314" y="-316" font-family="Helvetica,sans-Serif" font-weight="bold" font-size="12.00" fill="#0000ff">=</text>
</g>
<!-- n0&#45;&gt;n1 -->
<g id="edge1" class="edge">
<title>n0-&gt;n1</title>
<path fill="none" stroke="#000000" stroke-width="2" d="M64.7831,-359.5927C61.3522,-352.5388 56.8969,-343.3787 53.116,-335.6051"/>
<polygon fill="#000000" stroke="#000000" stroke-width="2" points="54.6249,-334.7064 50.8642,-330.9754 51.4775,-336.2373 54.6249,-334.7064"/>
</g>
<!-- n4 -->
<g id="node5" class="node">
<title>n4</title>
<polygon fill="#ffffff" stroke="#000000" stroke-width="2" points="118.1627,-331.0036 74.5001,-331.0036 74.5001,-308.1964 118.1627,-308.1964 118.1627,-331.0036"/>
<text text-anchor="middle" x="96.3314" y="-316" font-family="Helvetica,sans-Serif" font-weight="bold" font-size="12.00" fill="#0000ff">while</text>
</g>
<!-- n0&#45;&gt;n4 -->
<g id="edge4" class="edge">
<title>n0-&gt;n4</title>
<path fill="none" stroke="#000000" stroke-width="2" d="M76.1016,-359.5927C79.6697,-352.5388 84.3033,-343.3787 88.2354,-335.6051"/>
<polygon fill="#000000" stroke="#000000" stroke-width="2" points="89.8819,-336.227 90.5773,-330.9754 86.7588,-334.6472 89.8819,-336.227"/>
</g>
<!-- n2 -->
<g id="node3" class="node">
<title>n2</title>
<polygon fill="#ffffff" stroke="#000000" stroke-width="2" points="18.4972,-279.6036 .1656,-279.6036 .1656,-256.7964 18.4972,-256.7964 18.4972,-279.6036"/>
<text text-anchor="middle" x="9.3314" y="-264.6" font-family="Helvetica,sans-Serif" font-weight="bold" font-size="12.00" fill="#0000ff">i</text>
</g>
<!-- n1&#45;&gt;n2 -->
<g id="edge2" class="edge">
<title>n1-&gt;n2</title>
<path fill="none" stroke="#000000" stroke-width="2" d="M37.3418,-308.1927C32.3082,-301.0057 25.7431,-291.6323 20.2341,-283.7666"/>
<polygon fill="#000000" stroke="#000000" stroke-width="2" points="21.6005,-282.6669 17.2986,-279.5754 18.7337,-284.6748 21.6005,-282.6669"/>
</g>
<!-- n3 -->
<g id="node4" class="node">
<title>n3</title>
<polygon fill="#ffffff" stroke="#000000" stroke-width="2" points="59.5046,-279.6036 37.1582,-279.6036 37.1582,-256.7964 59.5046,-256.7964 59.5046,-279.6036"/>
<text text-anchor="middle" x="48.3314" y="-264.6" font-family="Helvetica,sans-Serif" font-weight="bold" font-size="12.00" fill="#0000ff">0</text>
</g>
<!-- n1&#45;&gt;n3 -->
<g id="edge3" class="edge">
<title>n1-&gt;n3</title>
<path fill="none" stroke="#000000" stroke-width="2" d="M45.9972,-308.1927C46.4011,-301.2719 46.9234,-292.3236 47.3715,-284.6466"/>
<polygon fill="#000000" stroke="#000000" stroke-width="2" points="49.1231,-284.6689 47.6675,-279.5754 45.629,-284.4649 49.1231,-284.6689"/>
</g>
<!-- n5 -->
<g id="node6" class="node">
<title>n5</title>
<polygon fill="#ffffff" stroke="#000000" stroke-width="2" points="105.8382,-279.6036 82.8246,-279.6036 82.8246,-256.7964 105.8382,-256.7964 105.8382,-279.6036"/>
<text text-anchor="middle" x="94.3314" y="-264.6" font-family="Helvetica,sans-Serif" font-weight="bold" font-size="12.00" fill="#0000ff">&lt;</text>
</g>
<!-- n4&#45;&gt;n5 -->
<g id="edge5" class="edge">
<title>n4-&gt;n5</title>
<path fill="none" stroke="#000000" stroke-width="2" d="M95.8875,-308.1927C95.6182,-301.2719 95.2701,-292.3236 94.9713,-284.6466"/>
<polygon fill="#000000" stroke="#000000" stroke-width="2" points="96.7172,-284.5036 94.774,-279.5754 93.2198,-284.6397 96.7172,-284.5036"/>
</g>
<!-- n8 -->
<g id="node9" class="node">
<title>n8</title>
<polygon fill="#ffffff" stroke="#000000" stroke-width="2" points="201.5063,-279.6036 145.1565,-279.6036 145.1565,-256.7964 201.5063,-256.7964 201.5063,-279.6036"/>
<text text-anchor="middle" x="173.3314" y="-264.6" font-family="Helvetica,sans-Serif" font-weight="bold" font-size="12.00" fill="#0000ff">BLOCK</text>
</g>
<!-- n4&#45;&gt;n8 -->
<g id="edge8" class="edge">
<title>n4-&gt;n8</title>
<path fill="none" stroke="#000000" stroke-width="2" d="M113.4202,-308.1927C124.7848,-300.6065 139.7989,-290.584 151.9537,-282.4703"/>
<polygon fill="#000000" stroke="#000000" stroke-width="2" points="153.1034,-283.807 156.2904,-279.5754 151.1602,-280.896 153.1034,-283.807"/>
</g>
<!-- n6 -->
<g id="node7" class="node">
<title>n6</title>
<polygon fill="#ffffff" stroke="#000000" stroke-width="2" points="61.4972,-228.2036 43.1656,-228.2036 43.1656,-205.3964 61.4972,-205.3964 61.4972,-228.2036"/>
<text text-anchor="middle" x="52.3314" y="-213.2" font-family="Helvetica,sans-Serif" font-weight="bold" font-size="12.00" fill="#0000ff">i</text>
</g>
<!-- n5&#45;&gt;n6 -->
<g id="edge6" class="edge">
<title>n5-&gt;n6</title>
<path fill="none" stroke="#000000" stroke-width="2" d="M85.0102,-256.7927C79.1376,-249.6057 71.4784,-240.2323 65.0512,-232.3666"/>
<polygon fill="#000000" stroke="#000000" stroke-width="2" points="66.1454,-230.9399 61.6265,-228.1754 63.4351,-233.1546 66.1454,-230.9399"/>
</g>
<!-- n7 -->
<g id="node8" class="node">
<title>n7</title>
<polygon fill="#ffffff" stroke="#000000" stroke-width="2" points="109.175,-228.2036 79.4878,-228.2036 79.4878,-205.3964 109.175,-205.3964 109.175,-228.2036"/>
<text text-anchor="middle" x="94.3314" y="-213.2" font-family="Helvetica,sans-Serif" font-weight="bold" font-size="12.00" fill="#0000ff">10</text>
</g>
<!-- n5&#45;&gt;n7 -->
<g id="edge7" class="edge">
<title>n5-&gt;n7</title>
<path fill="none" stroke="#000000" stroke-width="2" d="M94.3314,-256.7927C94.3314,-249.8719 94.3314,-240.9236 94.3314,-233.2466"/>
<polygon fill="#000000" stroke="#000000" stroke-width="2" points="96.0815,-233.1754 94.3314,-228.1754 92.5815,-233.1755 96.0815,-233.1754"/>
</g>
<!-- n9 -->
<g id="node10" class="node">
<title>n9</title>
<polygon fill="#ffffff" stroke="#000000" stroke-width="2" points="166.1668,-228.2036 126.496,-228.2036 126.496,-205.3964 166.1668,-205.3964 166.1668,-228.2036"/>
<text text-anchor="middle" x="146.3314" y="-213.2" font-family="Helvetica,sans-Serif" font-weight="bold" font-size="12.00" fill="#0000ff">print</text>
</g>
<!-- n8&#45;&gt;n9 -->
<g id="edge9" class="edge">
<title>n8-&gt;n9</title>
<path fill="none" stroke="#000000" stroke-width="2" d="M167.3392,-256.7927C163.6339,-249.7388 158.8221,-240.5787 154.7388,-232.8051"/>
<polygon fill="#000000" stroke="#000000" stroke-width="2" points="156.1813,-231.7881 152.3068,-228.1754 153.0828,-233.4157 156.1813,-231.7881"/>
</g>
<!-- n13 -->
<g id="node14" class="node">
<title>n13</title>
<polygon fill="#ffffff" stroke="#000000" stroke-width="2" points="206.8382,-228.2036 183.8246,-228.2036 183.8246,-205.3964 206.8382,-205.3964 206.8382,-228.2036"/>
<text text-anchor="middle" x="195.3314" y="-213.2" font-family="Helvetica,sans-Serif" font-weight="bold" font-size="12.00" fill="#0000ff">=</text>
</g>
<!-- n8&#45;&gt;n13 -->
<g id="edge13" class="edge">
<title>n8-&gt;n13</title>
<path fill="none" stroke="#000000" stroke-width="2" d="M178.2139,-256.7927C181.2331,-249.7388 185.1538,-240.5787 188.4809,-232.8051"/>
<polygon fill="#000000" stroke="#000000" stroke-width="2" points="190.1039,-233.4607 190.4625,-228.1754 186.8862,-232.0835 190.1039,-233.4607"/>
</g>
<!-- n18 -->
<g id="node19" class="node">
<title>n18</title>
<polygon fill="#ffffff" stroke="#000000" stroke-width="2" points="312.329,-228.2036 290.3338,-228.2036 290.3338,-205.3964 312.329,-205.3964 312.329,-228.2036"/>
<text text-anchor="middle" x="301.3314" y="-213.2" font-family="Helvetica,sans-Serif" font-weight="bold" font-size="12.00" fill="#0000ff">if</text>
</g>
<!-- n8&#45;&gt;n18 -->
<g id="edge18" class="edge">
<title>n8-&gt;n18</title>
<path fill="none" stroke="#000000" stroke-width="2" d="M201.4215,-256.9201C227.1746,-246.5786 264.3972,-231.6314 285.3802,-223.2054"/>
<polygon fill="#000000" stroke="#000000" stroke-width="2" points="286.1116,-224.7976 290.0993,-221.3104 284.8073,-221.5497 286.1116,-224.7976"/>
</g>
<!-- n10 -->
<g id="node11" class="node">
<title>n10</title>
<polygon fill="#ffffff" stroke="#000000" stroke-width="2" points="139.5008,-176.8036 119.162,-176.8036 119.162,-153.9964 139.5008,-153.9964 139.5008,-176.8036"/>
<text text-anchor="middle" x="129.3314" y="-161.8" font-family="Helvetica,sans-Serif" font-weight="bold" font-size="12.00" fill="#0000ff">*</text>
</g>
<!-- n9&#45;&gt;n10 -->
<g id="edge10" class="edge">
<title>n9-&gt;n10</title>
<path fill="none" stroke="#000000" stroke-width="2" d="M142.5585,-205.3927C140.2696,-198.4719 137.31,-189.5236 134.7709,-181.8466"/>
<polygon fill="#000000" stroke="#000000" stroke-width="2" points="136.3253,-180.973 133.0937,-176.7754 133.0023,-182.0721 136.3253,-180.973"/>
</g>
<!-- n11 -->
<g id="node12" class="node">
<title>n11</title>
<polygon fill="#ffffff" stroke="#000000" stroke-width="2" points="94.4972,-125.4036 76.1656,-125.4036 76.1656,-102.5964 94.4972,-102.5964 94.4972,-125.4036"/>
<text text-anchor="middle" x="85.3314" y="-110.4" font-family="Helvetica,sans-Serif" font-weight="bold" font-size="12.00" fill="#0000ff">i</text>
</g>
<!-- n10&#45;&gt;n11 -->
<g id="edge11" class="edge">
<title>n10-&gt;n11</title>
<path fill="none" stroke="#000000" stroke-width="2" d="M119.5664,-153.9927C113.3287,-146.7059 105.1669,-137.1715 98.3771,-129.2398"/>
<polygon fill="#000000" stroke="#000000" stroke-width="2" points="99.3481,-127.683 94.7671,-125.0226 96.6892,-129.9591 99.3481,-127.683"/>
</g>
<!-- n12 -->
<g id="node13" class="node">
<title>n12</title>
<polygon fill="#ffffff" stroke="#000000" stroke-width="2" points="145.5094,-125.4036 113.1534,-125.4036 113.1534,-102.5964 145.5094,-102.5964 145.5094,-125.4036"/>
<text text-anchor="middle" x="129.3314" y="-110.4" font-family="Helvetica,sans-Serif" font-weight="bold" font-size="12.00" fill="#0000ff">3.2</text>
</g>
<!-- n10&#45;&gt;n12 -->
<g id="edge12" class="edge">
<title>n10-&gt;n12</title>
<path fill="none" stroke="#000000" stroke-width="2" d="M129.3314,-153.9927C129.3314,-147.0719 129.3314,-138.1236 129.3314,-130.4466"/>
<polygon fill="#000000" stroke="#000000" stroke-width="2" points="131.0815,-130.3754 129.3314,-125.3754 127.5815,-130.3755 131.0815,-130.3754"/>
</g>
<!-- n14 -->
<g id="node15" class="node">
<title>n14</title>
<polygon fill="#ffffff" stroke="#000000" stroke-width="2" points="179.4972,-176.8036 161.1656,-176.8036 161.1656,-153.9964 179.4972,-153.9964 179.4972,-176.8036"/>
<text text-anchor="middle" x="170.3314" y="-161.8" font-family="Helvetica,sans-Serif" font-weight="bold" font-size="12.00" fill="#0000ff">i</text>
</g>
<!-- n13&#45;&gt;n14 -->
<g id="edge14" class="edge">
<title>n13-&gt;n14</title>
<path fill="none" stroke="#000000" stroke-width="2" d="M189.7831,-205.3927C186.3522,-198.3388 181.8969,-189.1787 178.116,-181.4051"/>
<polygon fill="#000000" stroke="#000000" stroke-width="2" points="179.6249,-180.5064 175.8642,-176.7754 176.4775,-182.0373 179.6249,-180.5064"/>
</g>
<!-- n15 -->
<g id="node16" class="node">
<title>n15</title>
<polygon fill="#ffffff" stroke="#000000" stroke-width="2" points="220.8382,-176.8036 197.8246,-176.8036 197.8246,-153.9964 220.8382,-153.9964 220.8382,-176.8036"/>
<text text-anchor="middle" x="209.3314" y="-161.8" font-family="Helvetica,sans-Serif" font-weight="bold" font-size="12.00" fill="#0000ff">+</text>
</g>
<!-- n13&#45;&gt;n15 -->
<g id="edge15" class="edge">
<title>n13-&gt;n15</title>
<path fill="none" stroke="#000000" stroke-width="2" d="M198.4385,-205.3927C200.3235,-198.4719 202.7608,-189.5236 204.8518,-181.8466"/>
<polygon fill="#000000" stroke="#000000" stroke-width="2" points="206.6075,-182.0596 206.233,-176.7754 203.2305,-181.1398 206.6075,-182.0596"/>
</g>
<!-- n16 -->
<g id="node17" class="node">
<title>n16</title>
<polygon fill="#ffffff" stroke="#000000" stroke-width="2" points="182.4972,-125.4036 164.1656,-125.4036 164.1656,-102.5964 182.4972,-102.5964 182.4972,-125.4036"/>
<text text-anchor="middle" x="173.3314" y="-110.4" font-family="Helvetica,sans-Serif" font-weight="bold" font-size="12.00" fill="#0000ff">i</text>
</g>
<!-- n15&#45;&gt;n16 -->
<g id="edge16" class="edge">
<title>n15-&gt;n16</title>
<path fill="none" stroke="#000000" stroke-width="2" d="M201.3418,-153.9927C196.3082,-146.8057 189.7431,-137.4323 184.2341,-129.5666"/>
<polygon fill="#000000" stroke="#000000" stroke-width="2" points="185.6005,-128.4669 181.2986,-125.3754 182.7337,-130.4748 185.6005,-128.4669"/>
</g>
<!-- n17 -->
<g id="node18" class="node">
<title>n17</title>
<polygon fill="#ffffff" stroke="#000000" stroke-width="2" points="223.5046,-125.4036 201.1582,-125.4036 201.1582,-102.5964 223.5046,-102.5964 223.5046,-125.4036"/>
<text text-anchor="middle" x="212.3314" y="-110.4" font-family="Helvetica,sans-Serif" font-weight="bold" font-size="12.00" fill="#0000ff">1</text>
</g>
<!-- n15&#45;&gt;n17 -->
<g id="edge17" class="edge">
<title>n15-&gt;n17</title>
<path fill="none" stroke="#000000" stroke-width="2" d="M209.9972,-153.9927C210.4011,-147.0719 210.9234,-138.1236 211.3715,-130.4466"/>
<polygon fill="#000000" stroke="#000000" stroke-width="2" points="213.1231,-130.4689 211.6675,-125.3754 209.629,-130.2649 213.1231,-130.4689"/>
</g>
<!-- n19 -->
<g id="node20" class="node">
<title>n19</title>
<polygon fill="#ffffff" stroke="#000000" stroke-width="2" points="283.8382,-176.8036 260.8246,-176.8036 260.8246,-153.9964 283.8382,-153.9964 283.8382,-176.8036"/>
<text text-anchor="middle" x="272.3314" y="-161.8" font-family="Helvetica,sans-Serif" font-weight="bold" font-size="12.00" fill="#0000ff">&lt;</text>
</g>
<!-- n18&#45;&gt;n19 -->
<g id="edge19" class="edge">
<title>n18-&gt;n19</title>
<path fill="none" stroke="#000000" stroke-width="2" d="M294.8954,-205.3927C290.9156,-198.3388 285.7474,-189.1787 281.3615,-181.4051"/>
<polygon fill="#000000" stroke="#000000" stroke-width="2" points="282.7306,-180.2702 278.7494,-176.7754 279.6823,-181.9901 282.7306,-180.2702"/>
</g>
<!-- n22 -->
<g id="node23" class="node">
<title>n22</title>
<polygon fill="#ffffff" stroke="#000000" stroke-width="2" points="358.5063,-176.8036 302.1565,-176.8036 302.1565,-153.9964 358.5063,-153.9964 358.5063,-176.8036"/>
<text text-anchor="middle" x="330.3314" y="-161.8" font-family="Helvetica,sans-Serif" font-weight="bold" font-size="12.00" fill="#0000ff">BLOCK</text>
</g>
<!-- n18&#45;&gt;n22 -->
<g id="edge22" class="edge">
<title>n18-&gt;n22</title>
<path fill="none" stroke="#000000" stroke-width="2" d="M307.7674,-205.3927C311.7472,-198.3388 316.9154,-189.1787 321.3013,-181.4051"/>
<polygon fill="#000000" stroke="#000000" stroke-width="2" points="322.9805,-181.9901 323.9134,-176.7754 319.9322,-180.2702 322.9805,-181.9901"/>
</g>
<!-- n27 -->
<g id="node28" class="node">
<title>n27</title>
<polygon fill="#ffffff" stroke="#000000" stroke-width="2" points="433.5063,-176.8036 377.1565,-176.8036 377.1565,-153.9964 433.5063,-153.9964 433.5063,-176.8036"/>
<text text-anchor="middle" x="405.3314" y="-161.8" font-family="Helvetica,sans-Serif" font-weight="bold" font-size="12.00" fill="#0000ff">BLOCK</text>
</g>
<!-- n18&#45;&gt;n27 -->
<g id="edge27" class="edge">
<title>n18-&gt;n27</title>
<path fill="none" stroke="#000000" stroke-width="2" d="M312.4612,-211.2993C327.953,-203.6428 356.5187,-189.5247 377.8947,-178.9601"/>
<polygon fill="#000000" stroke="#000000" stroke-width="2" points="378.9055,-180.4126 382.6126,-176.6283 377.3548,-177.2749 378.9055,-180.4126"/>
</g>
<!-- n20 -->
<g id="node21" class="node">
<title>n20</title>
<polygon fill="#ffffff" stroke="#000000" stroke-width="2" points="260.4972,-125.4036 242.1656,-125.4036 242.1656,-102.5964 260.4972,-102.5964 260.4972,-125.4036"/>
<text text-anchor="middle" x="251.3314" y="-110.4" font-family="Helvetica,sans-Serif" font-weight="bold" font-size="12.00" fill="#0000ff">i</text>
</g>
<!-- n19&#45;&gt;n20 -->
<g id="edge20" class="edge">
<title>n19-&gt;n20</title>
<path fill="none" stroke="#000000" stroke-width="2" d="M267.6708,-153.9927C264.7889,-146.9388 261.0464,-137.7787 257.8705,-130.0051"/>
<polygon fill="#000000" stroke="#000000" stroke-width="2" points="259.4901,-129.3421 255.979,-125.3754 256.2501,-130.6659 259.4901,-129.3421"/>
</g>
<!-- n21 -->
<g id="node22" class="node">
<title>n21</title>
<polygon fill="#ffffff" stroke="#000000" stroke-width="2" points="301.5046,-125.4036 279.1582,-125.4036 279.1582,-102.5964 301.5046,-102.5964 301.5046,-125.4036"/>
<text text-anchor="middle" x="290.3314" y="-110.4" font-family="Helvetica,sans-Serif" font-weight="bold" font-size="12.00" fill="#0000ff">5</text>
</g>
<!-- n19&#45;&gt;n21 -->
<g id="edge21" class="edge">
<title>n19-&gt;n21</title>
<path fill="none" stroke="#000000" stroke-width="2" d="M276.3262,-153.9927C278.7498,-147.0719 281.8835,-138.1236 284.5719,-130.4466"/>
<polygon fill="#000000" stroke="#000000" stroke-width="2" points="286.3468,-130.6729 286.3478,-125.3754 283.0435,-129.516 286.3468,-130.6729"/>
</g>
<!-- n23 -->
<g id="node24" class="node">
<title>n23</title>
<polygon fill="#ffffff" stroke="#000000" stroke-width="2" points="359.1668,-125.4036 319.496,-125.4036 319.496,-102.5964 359.1668,-102.5964 359.1668,-125.4036"/>
<text text-anchor="middle" x="339.3314" y="-110.4" font-family="Helvetica,sans-Serif" font-weight="bold" font-size="12.00" fill="#0000ff">print</text>
</g>
<!-- n22&#45;&gt;n23 -->
<g id="edge23" class="edge">
<title>n22-&gt;n23</title>
<path fill="none" stroke="#000000" stroke-width="2" d="M332.3288,-153.9927C333.5406,-147.0719 335.1074,-138.1236 336.4516,-130.4466"/>
<polygon fill="#000000" stroke="#000000" stroke-width="2" points="338.2009,-130.6024 337.3396,-125.3754 334.7534,-129.9987 338.2009,-130.6024"/>
</g>
<!-- n24 -->
<g id="node25" class="node">
<title>n24</title>
<polygon fill="#ffffff" stroke="#000000" stroke-width="2" points="350.8382,-74.0036 327.8246,-74.0036 327.8246,-51.1964 350.8382,-51.1964 350.8382,-74.0036"/>
<text text-anchor="middle" x="339.3314" y="-59" font-family="Helvetica,sans-Serif" font-weight="bold" font-size="12.00" fill="#0000ff">+</text>
</g>
<!-- n23&#45;&gt;n24 -->
<g id="edge24" class="edge">
<title>n23-&gt;n24</title>
<path fill="none" stroke="#000000" stroke-width="2" d="M339.3314,-102.5927C339.3314,-95.6719 339.3314,-86.7236 339.3314,-79.0466"/>
<polygon fill="#000000" stroke="#000000" stroke-width="2" points="341.0815,-78.9754 339.3314,-73.9754 337.5815,-78.9755 341.0815,-78.9754"/>
</g>
<!-- n25 -->
<g id="node26" class="node">
<title>n25</title>
<polygon fill="#ffffff" stroke="#000000" stroke-width="2" points="310.4972,-22.6036 292.1656,-22.6036 292.1656,.2036 310.4972,.2036 310.4972,-22.6036"/>
<text text-anchor="middle" x="301.3314" y="-7.6" font-family="Helvetica,sans-Serif" font-weight="bold" font-size="12.00" fill="#0000ff">i</text>
</g>
<!-- n24&#45;&gt;n25 -->
<g id="edge25" class="edge">
<title>n24-&gt;n25</title>
<path fill="none" stroke="#000000" stroke-width="2" d="M330.898,-51.1927C325.5847,-44.0057 318.6549,-34.6323 312.8398,-26.7666"/>
<polygon fill="#000000" stroke="#000000" stroke-width="2" points="314.1209,-25.5557 309.7413,-22.5754 311.3065,-27.6364 314.1209,-25.5557"/>
</g>
<!-- n26 -->
<g id="node27" class="node">
<title>n26</title>
<polygon fill="#ffffff" stroke="#000000" stroke-width="2" points="426.2027,-22.6036 328.4601,-22.6036 328.4601,.2036 426.2027,.2036 426.2027,-22.6036"/>
<text text-anchor="middle" x="377.3314" y="-7.6" font-family="Helvetica,sans-Serif" font-weight="bold" font-size="12.00" fill="#0000ff">" is less than 5"</text>
</g>
<!-- n24&#45;&gt;n26 -->
<g id="edge26" class="edge">
<title>n24-&gt;n26</title>
<path fill="none" stroke="#000000" stroke-width="2" d="M347.7648,-51.1927C353.0781,-44.0057 360.0079,-34.6323 365.823,-26.7666"/>
<polygon fill="#000000" stroke="#000000" stroke-width="2" points="367.3563,-27.6364 368.9215,-22.5754 364.5419,-25.5557 367.3563,-27.6364"/>
</g>
<!-- n28 -->
<g id="node29" class="node">
<title>n28</title>
<polygon fill="#ffffff" stroke="#000000" stroke-width="2" points="425.1668,-125.4036 385.496,-125.4036 385.496,-102.5964 425.1668,-102.5964 425.1668,-125.4036"/>
<text text-anchor="middle" x="405.3314" y="-110.4" font-family="Helvetica,sans-Serif" font-weight="bold" font-size="12.00" fill="#0000ff">print</text>
</g>
<!-- n27&#45;&gt;n28 -->
<g id="edge28" class="edge">
<title>n27-&gt;n28</title>
<path fill="none" stroke="#000000" stroke-width="2" d="M405.3314,-153.9927C405.3314,-147.0719 405.3314,-138.1236 405.3314,-130.4466"/>
<polygon fill="#000000" stroke="#000000" stroke-width="2" points="407.0815,-130.3754 405.3314,-125.3754 403.5815,-130.3755 407.0815,-130.3754"/>
</g>
<!-- n29 -->
<g id="node30" class="node">
<title>n29</title>
<polygon fill="#ffffff" stroke="#000000" stroke-width="2" points="426.0259,-74.0036 384.6369,-74.0036 384.6369,-51.1964 426.0259,-51.1964 426.0259,-74.0036"/>
<text text-anchor="middle" x="405.3314" y="-59" font-family="Helvetica,sans-Serif" font-weight="bold" font-size="12.00" fill="#0000ff">"foo"</text>
</g>
<!-- n28&#45;&gt;n29 -->
<g id="edge29" class="edge">
<title>n28-&gt;n29</title>
<path fill="none" stroke="#000000" stroke-width="2" d="M405.3314,-102.5927C405.3314,-95.6719 405.3314,-86.7236 405.3314,-79.0466"/>
<polygon fill="#000000" stroke="#000000" stroke-width="2" points="407.0815,-78.9754 405.3314,-73.9754 403.5815,-78.9755 407.0815,-78.9754"/>
</g>
</g>
</svg>