<?xml version="1.0" encoding="UTF-8" standalone="no"?><!DOCTYPE svg PUBLIC "-//W3C//DTD SVG 1.1//EN" "http://www.w3.org/Graphics/SVG/1.1/DTD/svg11.dtd"><!-- Generated by graphviz version 2.40.1 (20161225.0304)
 --><!-- Title: %0 Pages: 1 --><svg xmlns="http://www.w3.org/2000/svg" xmlns:xlink="http://www.w3.org/1999/xlink" width="68pt" height="185pt" viewBox="0.00 0.00 68.00 184.60">
<g id="graph0" class="graph" transform="scale(1 1) rotate(0) translate(4 180.6)">
<title>%0</title>
<polygon fill="#d3d3d3" stroke="transparent" points="-4,4 -4,-180.6 64.0028,-180.6 64.0028,4 -4,4"/>
<!-- n0 -->
<g id="node1" class="node">
<title>n0</title>
<polygon fill="#ffffff" stroke="#000000" stroke-width="2" points="56.8423,-176.8036 .4925,-176.8036 .4925,-153.9964 56.8423,-153.9964 56.8423,-176.8036"/>
<text text-anchor="middle" x="28.6674" y="-161.8" font-family="Helvetica,sans-Serif" font-weight="bold" font-size="12.00" fill="#0000ff">BLOCK</text>
</g>
<!-- n1 -->
<g id="node2" class="node">
<title>n1</title>
<polygon fill="#ffffff" stroke="#000000" stroke-width="2" points="48.5028,-125.4036 8.832,-125.4036 8.832,-102.5964 48.5028,-102.5964 48.5028,-125.4036"/>
<text text-anchor="middle" x="28.6674" y="-110.4" font-family="Helvetica,sans-Serif" font-weight="bold" font-size="12.00" fill="#0000ff">print</text>
</g>
<!-- n0&#45;&gt;n1 -->
<g id="edge1" class="edge">
<title>n0-&gt;n1</title>
<path fill="none" stroke="#000000" stroke-width="2" d="M28.6674,-153.9927C28.6674,-147.0719 28.6674,-138.1236 28.6674,-130.4466"/>
<polygon fill="#000000" stroke="#000000" stroke-width="2" points="30.4175,-130.3754 28.6674,-125.3754 26.9175,-130.3755 30.4175,-130.3754"/>
</g>
<!-- n2 -->
<g id="node3" class="node">
<title>n2</title>
<polygon fill="#ffffff" stroke="#000000" stroke-width="2" points="51.6746,-74.0036 5.6602,-74.0036 5.6602,-51.1964 51.6746,-51.1964 51.6746,-74.0036"/>
<text text-anchor="middle" x="28.6674" y="-59" font-family="Helvetica,sans-Serif" font-weight="bold" font-size="12.00" fill="#0000ff">CALL</text>
</g>
<!-- n1&#45;&gt;n2 -->
<g id="edge2" class="edge">
<title>n1-&gt;n2</title>
<path fill="none" stroke="#000000" stroke-width="2" d="M28.6674,-102.5927C28.6674,-95.6719 28.6674,-86.7236 28.6674,-79.0466"/>
<polygon fill="#000000" stroke="#000000" stroke-width="2" points="30.4175,-78.9754 28.6674,-73.9754 26.9175,-78.9755 30.4175,-78.9754"/>
</g>
<!-- n3 -->
<g id="node4" class="node">
<title>n3</title>
<polygon fill="#ffffff" stroke="#000000" stroke-width="2" points="19.5051,-22.6036 -.1703,-22.6036 -.1703,.2036 19.5051,.2036 19.5051,-22.6036"/>
<text text-anchor="middle" x="9.6674" y="-7.6" font-family="Helvetica,sans-Serif" font-weight="bold" font-size="12.00" fill="#0000ff">f</text>
</g>
<!-- n2&#45;&gt;n3 -->
<g id="edge3" class="edge">
<title>n2-&gt;n3</title>
<path fill="none" stroke="#000000" stroke-width="2" d="M24.4507,-51.1927C21.8924,-44.2719 18.5847,-35.3236 15.7469,-27.6466"/>
<polygon fill="#000000" stroke="#000000" stroke-width="2" points="17.2474,-26.6585 13.8723,-22.5754 13.9645,-27.8721 17.2474,-26.6585"/>
</g>
<!-- n4 -->
<g id="node5" class="node">
<title>n4</title>
<polygon fill="#ffffff" stroke="#000000" stroke-width="2" points="59.8406,-22.6036 37.4942,-22.6036 37.4942,.2036 59.8406,.2036 59.8406,-22.6036"/>
<text text-anchor="middle" x="48.6674" y="-7.6" font-family="Helvetica,sans-Serif" font-weight="bold" font-size="12.00" fill="#0000ff">4</text>
</g>
<!-- n2&#45;&gt;n4 -->
<g id="edge4" class="edge">
<title>n2-&gt;n4</title>
<path fill="none" stroke="#000000" stroke-width="2" d="M33.106,-51.1927C35.799,-44.2719 39.2808,-35.3236 42.2679,-27.6466"/>
<polygon fill="#000000" stroke="#000000" stroke-width="2" points="44.0589,-27.8697 44.2412,-22.5754 40.7971,-26.6005 44.0589,-27.8697"/>
</g>
</g>
</svg>