<?xml version="1.0" encoding="UTF-8" standalone="no"?><!DOCTYPE svg PUBLIC "-//W3C//DTD SVG 1.1//EN" "http://www.w3.org/Graphics/SVG/1.1/DTD/svg11.dtd"><!-- Generated by graphviz version 2.40.1 (20161225.0304)
 --><!-- Title: %0 Pages: 1 --><svg xmlns="http://www.w3.org/2000/svg" xmlns:xlink="http://www.w3.org/1999/xlink" width="261pt" height="133pt" viewBox="0.00 0.00 260.67 133.20">
<g id="graph0" class="graph" transform="scale(1 1) rotate(0) translate(4 129.2)">
<title>%0</title>
<polygon fill="#d3d3d3" stroke="transparent" points="-4,4 -4,-129.2 256.667,-129.2 256.667,4 -4,4"/>
<!-- n0 -->
<g id="node1" class="node">
<title>n0</title>
<polygon fill="#ffffff" stroke="#000000" stroke-width="2" points="168.1749,-125.4036 111.8251,-125.4036 111.8251,-102.5964 168.1749,-102.5964 168.1749,-125.4036"/>
<text text-anchor="middle" x="140" y="-110.4" font-family="Helvetica,sans-Serif" font-weight="bold" font-size="12.00" fill="#0000ff">BLOCK</text>
</g>
<!-- n1 -->
<g id="node2" class="node">
<title>n1</title>
<polygon fill="#ffffff" stroke="#000000" stroke-width="2" points="62.5068,-74.0036 39.4932,-74.0036 39.4932,-51.1964 62.5068,-51.1964 62.5068,-74.0036"/>
<text text-anchor="middle" x="51" y="-59" font-family="Helvetica,sans-Serif" font-weight="bold" font-size="12.00" fill="#0000ff">=</text>
</g>
<!-- n0&#45;&gt;n1 -->
<g id="edge1" class="edge">
<title>n0-&gt;n1</title>
<path fill="none" stroke="#000000" stroke-width="2" d="M120.248,-102.5927C104.1901,-93.3188 81.8282,-80.4041 66.9065,-71.7865"/>
<polygon fill="#000000" stroke="#000000" stroke-width="2" points="67.7347,-70.2439 62.5297,-69.2587 65.9843,-73.2748 67.7347,-70.2439"/>
</g>
<!-- n4 -->
<g id="node5" class="node">
<title>n4</title>
<polygon fill="#ffffff" stroke="#000000" stroke-width="2" points="131.0072,-74.0036 84.9928,-74.0036 84.9928,-51.1964 131.0072,-51.1964 131.0072,-74.0036"/>
<text text-anchor="middle" x="108" y="-59" font-family="Helvetica,sans-Serif" font-weight="bold" font-size="12.00" fill="#0000ff">CALL</text>
</g>
<!-- n0&#45;&gt;n4 -->
<g id="edge4" class="edge">
<title>n0-&gt;n4</title>
<path fill="none" stroke="#000000" stroke-width="2" d="M132.8982,-102.5927C128.5067,-95.5388 122.8038,-86.3787 117.9643,-78.6051"/>
<polygon fill="#000000" stroke="#000000" stroke-width="2" points="119.2102,-77.2952 115.082,-73.9754 116.239,-79.145 119.2102,-77.2952"/>
</g>
<!-- n7 -->
<g id="node8" class="node">
<title>n7</title>
<polygon fill="#ffffff" stroke="#000000" stroke-width="2" points="195.0072,-74.0036 148.9928,-74.0036 148.9928,-51.1964 195.0072,-51.1964 195.0072,-74.0036"/>
<text text-anchor="middle" x="172" y="-59" font-family="Helvetica,sans-Serif" font-weight="bold" font-size="12.00" fill="#0000ff">CALL</text>
</g>
<!-- n0&#45;&gt;n7 -->
<g id="edge7" class="edge">
<title>n0-&gt;n7</title>
<path fill="none" stroke="#000000" stroke-width="2" d="M147.1018,-102.5927C151.4933,-95.5388 157.1962,-86.3787 162.0357,-78.6051"/>
<polygon fill="#000000" stroke="#000000" stroke-width="2" points="163.761,-79.145 164.918,-73.9754 160.7898,-77.2952 163.761,-79.145"/>
</g>
<!-- n9 -->
<g id="node10" class="node">
<title>n9</title>
<polygon fill="#ffffff" stroke="#000000" stroke-width="2" points="252.8354,-74.0036 213.1646,-74.0036 213.1646,-51.1964 252.8354,-51.1964 252.8354,-74.0036"/>
<text text-anchor="middle" x="233" y="-59" font-family="Helvetica,sans-Serif" font-weight="bold" font-size="12.00" fill="#0000ff">print</text>
</g>
<!-- n0&#45;&gt;n9 -->
<g id="edge9" class="edge">
<title>n0-&gt;n9</title>
<path fill="none" stroke="#000000" stroke-width="2" d="M160.6397,-102.5927C174.8005,-94.7662 193.653,-84.3466 208.5646,-76.1051"/>
<polygon fill="#000000" stroke="#000000" stroke-width="2" points="209.5267,-77.573 213.0563,-73.6226 207.8337,-74.5097 209.5267,-77.573"/>
</g>
<!-- n2 -->
<g id="node3" class="node">
<title>n2</title>
<polygon fill="#ffffff" stroke="#000000" stroke-width="2" points="22,-22.6036 0,-22.6036 0,.2036 22,.2036 22,-22.6036"/>
<text text-anchor="middle" x="11" y="-7.6" font-family="Helvetica,sans-Serif" font-weight="bold" font-size="12.00" fill="#0000ff">x</text>
</g>
<!-- n1&#45;&gt;n2 -->
<g id="edge2" class="edge">
<title>n1-&gt;n2</title>
<path fill="none" stroke="#000000" stroke-width="2" d="M42.1227,-51.1927C36.5298,-44.0057 29.2352,-34.6323 23.1141,-26.7666"/>
<polygon fill="#000000" stroke="#000000" stroke-width="2" points="24.3044,-25.4466 19.8525,-22.5754 21.5422,-27.5962 24.3044,-25.4466"/>
</g>
<!-- n3 -->
<g id="node4" class="node">
<title>n3</title>
<polygon fill="#ffffff" stroke="#000000" stroke-width="2" points="62.1732,-22.6036 39.8268,-22.6036 39.8268,.2036 62.1732,.2036 62.1732,-22.6036"/>
<text text-anchor="middle" x="51" y="-7.6" font-family="Helvetica,sans-Serif" font-weight="bold" font-size="12.00" fill="#0000ff">1</text>
</g>
<!-- n1&#45;&gt;n3 -->
<g id="edge3" class="edge">
<title>n1-&gt;n3</title>
<path fill="none" stroke="#000000" stroke-width="2" d="M51,-51.1927C51,-44.2719 51,-35.3236 51,-27.6466"/>
<polygon fill="#000000" stroke="#000000" stroke-width="2" points="52.7501,-27.5754 51,-22.5754 49.2501,-27.5755 52.7501,-27.5754"/>
</g>
<!-- n5 -->
<g id="node6" class="node">
<title>n5</title>
<polygon fill="#ffffff" stroke="#000000" stroke-width="2" points="99.8377,-22.6036 80.1623,-22.6036 80.1623,.2036 99.8377,.2036 99.8377,-22.6036"/>
<text text-anchor="middle" x="90" y="-7.6" font-family="Helvetica,sans-Serif" font-weight="bold" font-size="12.00" fill="#0000ff">f</text>
</g>
<!-- n4&#45;&gt;n5 -->
<g id="edge5" class="edge">
<title>n4-&gt;n5</title>
<path fill="none" stroke="#000000" stroke-width="2" d="M104.0052,-51.1927C101.5816,-44.2719 98.4479,-35.3236 95.7595,-27.6466"/>
<polygon fill="#000000" stroke="#000000" stroke-width="2" points="97.2879,-26.716 93.9836,-22.5754 93.9846,-27.8729 97.2879,-26.716"/>
</g>
<!-- n6 -->
<g id="node7" class="node">
<title>n6</title>
<polygon fill="#ffffff" stroke="#000000" stroke-width="2" points="146.8436,-22.6036 117.1564,-22.6036 117.1564,.2036 146.8436,.2036 146.8436,-22.6036"/>
<text text-anchor="middle" x="132" y="-7.6" font-family="Helvetica,sans-Serif" font-weight="bold" font-size="12.00" fill="#0000ff">10</text>
</g>
<!-- n4&#45;&gt;n6 -->
<g id="edge6" class="edge">
<title>n4-&gt;n6</title>
<path fill="none" stroke="#000000" stroke-width="2" d="M113.3264,-51.1927C116.62,-44.1388 120.8971,-34.9787 124.5268,-27.2051"/>
<polygon fill="#000000" stroke="#000000" stroke-width="2" points="126.1587,-27.8463 126.6885,-22.5754 122.9874,-26.3655 126.1587,-27.8463"/>
</g>
<!-- n8 -->
<g id="node9" class="node">
<title>n8</title>
<polygon fill="#ffffff" stroke="#000000" stroke-width="2" points="187.1732,-22.6036 164.8268,-22.6036 164.8268,.2036 187.1732,.2036 187.1732,-22.6036"/>
<text text-anchor="middle" x="176" y="-7.6" font-family="Helvetica,sans-Serif" font-weight="bold" font-size="12.00" fill="#0000ff">g</text>
</g>
<!-- n7&#45;&gt;n8 -->
<g id="edge8" class="edge">
<title>n7-&gt;n8</title>
<path fill="none" stroke="#000000" stroke-width="2" d="M172.8877,-51.1927C173.4263,-44.2719 174.1227,-35.3236 174.7201,-27.6466"/>
<polygon fill="#000000" stroke="#000000" stroke-width="2" points="176.4715,-27.6962 175.1148,-22.5754 172.982,-27.4246 176.4715,-27.6962"/>
</g>
<!-- n10 -->
<g id="node11" class="node">
<title>n10</title>
<polygon fill="#ffffff" stroke="#000000" stroke-width="2" points="244,-22.6036 222,-22.6036 222,.2036 244,.2036 244,-22.6036"/>
<text text-anchor="middle" x="233" y="-7.6" font-family="Helvetica,sans-Serif" font-weight="bold" font-size="12.00" fill="#0000ff">x</text>
</g>
<!-- n9&#45;&gt;n10 -->
<g id="edge10" class="edge">
<title>n9-&gt;n10</title>
<path fill="none" stroke="#000000" stroke-width="2" d="M233,-51.1927C233,-44.2719 233,-35.3236 233,-27.6466"/>
<polygon fill="#000000" stroke="#000000" stroke-width="2" points="234.7501,-27.5754 233,-22.5754 231.2501,-27.5755 234.7501,-27.5754"/>
</g>
</g>
</svg>