<?xml version="1.0" encoding="UTF-8" standalone="no"?><!DOCTYPE svg PUBLIC "-//W3C//DTD SVG 1.1//EN" "http://www.w3.org/Graphics/SVG/1.1/DTD/svg11.dtd"><!-- Generated by graphviz version 2.40.1 (20161225.0304)
 --><!-- Title: %0 Pages: 1 --><svg xmlns="http://www.w3.org/2000/svg" xmlns:xlink="http://www.w3.org/1999/xlink" width="437pt" height="287pt" viewBox="0.00 0.00 437.26 287.40">
<g id="graph0" class="graph" transform="scale(1 1) rotate(0) translate(4 283.4)">
<title>%0</title>
<polygon fill="#d3d3d3" stroke="transparent" points="-4,4 -4,-283.4 433.2606,-283.4 433.2606,4 -4,4"/>
<!-- n0 -->
<g id="node1" class="node">
<title>n0</title>
<polygon fill="#ffffff" stroke="#000000" stroke-width="2" points="230.5103,-279.6036 174.1605,-279.6036 174.1605,-256.7964 230.5103,-256.7964 230.5103,-279.6036"/>
<text text-anchor="middle" x="202.3354" y="-264.6" font-family="Helvetica,sans-Serif" font-weight="bold" font-size="12.00" fill="#0000ff">BLOCK</text>
</g>
<!-- n1 -->
<g id="node2" class="node">
<title>n1</title>
<polygon fill="#ffffff" stroke="#000000" stroke-width="2" points="89.8422,-228.2036 66.8286,-228.2036 66.8286,-205.3964 89.8422,-205.3964 89.8422,-228.2036"/>
<text text-anchor="middle" x="78.3354" y="-213.2" font-family="Helvetica,sans-Serif" font-weight="bold" font-size="12.00" fill="#0000ff">=</text>
</g>
<!-- n0&#45;&gt;n1 -->
<g id="edge1" class="edge">
<title>n0-&gt;n1</title>
<path fill="none" stroke="#000000" stroke-width="2" d="M175.1231,-256.9201C150.5708,-246.7427 115.2573,-232.1047 94.7679,-223.6115"/>
<polygon fill="#000000" stroke="#000000" stroke-width="2" points="95.4281,-221.9909 90.1391,-221.6928 94.0879,-225.2241 95.4281,-221.9909"/>
</g>
<!-- n4 -->
<g id="node5" class="node">
<title>n4</title>
<polygon fill="#ffffff" stroke="#000000" stroke-width="2" points="188.8422,-228.2036 165.8286,-228.2036 165.8286,-205.3964 188.8422,-205.3964 188.8422,-228.2036"/>
<text text-anchor="middle" x="177.3354" y="-213.2" font-family="Helvetica,sans-Serif" font-weight="bold" font-size="12.00" fill="#0000ff">=</text>
</g>
<!-- n0&#45;&gt;n4 -->
<g id="edge4" class="edge">
<title>n0-&gt;n4</title>
<path fill="none" stroke="#000000" stroke-width="2" d="M196.7871,-256.7927C193.3562,-249.7388 188.9009,-240.5787 185.12,-232.8051"/>
<polygon fill="#000000" stroke="#000000" stroke-width="2" points="186.6289,-231.9064 182.8682,-228.1754 183.4815,-233.4373 186.6289,-231.9064"/>
</g>
<!-- n7 -->
<g id="node8" class="node">
<title>n7</title>
<polygon fill="#ffffff" stroke="#000000" stroke-width="2" points="250.1667,-228.2036 206.5041,-228.2036 206.5041,-205.3964 250.1667,-205.3964 250.1667,-228.2036"/>
<text text-anchor="middle" x="228.3354" y="-213.2" font-family="Helvetica,sans-Serif" font-weight="bold" font-size="12.00" fill="#0000ff">while</text>
</g>
<!-- n0&#45;&gt;n7 -->
<g id="edge7" class="edge">
<title>n0-&gt;n7</title>
<path fill="none" stroke="#000000" stroke-width="2" d="M208.1056,-256.7927C211.6737,-249.7388 216.3073,-240.5787 220.2394,-232.8051"/>
<polygon fill="#000000" stroke="#000000" stroke-width="2" points="221.8859,-233.427 222.5813,-228.1754 218.7628,-231.8472 221.8859,-233.427"/>
</g>
<!-- n17 -->
<g id="node18" class="node">
<title>n17</title>
<polygon fill="#ffffff" stroke="#000000" stroke-width="2" points="336.1708,-228.2036 296.5,-228.2036 296.5,-205.3964 336.1708,-205.3964 336.1708,-228.2036"/>
<text text-anchor="middle" x="316.3354" y="-213.2" font-family="Helvetica,sans-Serif" font-weight="bold" font-size="12.00" fill="#0000ff">print</text>
</g>
<!-- n0&#45;&gt;n17 -->
<g id="edge17" class="edge">
<title>n0-&gt;n17</title>
<path fill="none" stroke="#000000" stroke-width="2" d="M227.3532,-256.9201C246.5674,-248.2568 272.9503,-236.3614 291.9936,-227.7752"/>
<polygon fill="#000000" stroke="#000000" stroke-width="2" points="292.8294,-229.3181 296.6681,-225.6675 291.3907,-226.1274 292.8294,-229.3181"/>
</g>
<!-- n2 -->
<g id="node3" class="node">
<title>n2</title>
<polygon fill="#ffffff" stroke="#000000" stroke-width="2" points="22.5086,-176.8036 .1622,-176.8036 .1622,-153.9964 22.5086,-153.9964 22.5086,-176.8036"/>
<text text-anchor="middle" x="11.3354" y="-161.8" font-family="Helvetica,sans-Serif" font-weight="bold" font-size="12.00" fill="#0000ff">n</text>
</g>
<!-- n1&#45;&gt;n2 -->
<g id="edge2" class="edge">
<title>n1-&gt;n2</title>
<path fill="none" stroke="#000000" stroke-width="2" d="M66.6649,-207.8468C55.7125,-199.4445 39.2464,-186.8123 27.1237,-177.5122"/>
<polygon fill="#000000" stroke="#000000" stroke-width="2" points="27.9045,-175.9056 22.8722,-174.2506 25.7741,-178.6825 27.9045,-175.9056"/>
</g>
<!-- n3 -->
<g id="node4" class="node">
<title>n3</title>
<polygon fill="#ffffff" stroke="#000000" stroke-width="2" points="116.3726,-176.8036 40.2982,-176.8036 40.2982,-153.9964 116.3726,-153.9964 116.3726,-176.8036"/>
<text text-anchor="middle" x="78.3354" y="-161.8" font-family="Helvetica,sans-Serif" font-weight="bold" font-size="12.00" fill="#0000ff">100000000</text>
</g>
<!-- n1&#45;&gt;n3 -->
<g id="edge3" class="edge">
<title>n1-&gt;n3</title>
<path fill="none" stroke="#000000" stroke-width="2" d="M78.3354,-205.3927C78.3354,-198.4719 78.3354,-189.5236 78.3354,-181.8466"/>
<polygon fill="#000000" stroke="#000000" stroke-width="2" points="80.0855,-181.7754 78.3354,-176.7754 76.5855,-181.7755 80.0855,-181.7754"/>
</g>
<!-- n5 -->
<g id="node6" class="node">
<title>n5</title>
<polygon fill="#ffffff" stroke="#000000" stroke-width="2" points="152.5012,-176.8036 134.1696,-176.8036 134.1696,-153.9964 152.5012,-153.9964 152.5012,-176.8036"/>
<text text-anchor="middle" x="143.3354" y="-161.8" font-family="Helvetica,sans-Serif" font-weight="bold" font-size="12.00" fill="#0000ff">i</text>
</g>
<!-- n4&#45;&gt;n5 -->
<g id="edge5" class="edge">
<title>n4-&gt;n5</title>
<path fill="none" stroke="#000000" stroke-width="2" d="M169.7897,-205.3927C165.0357,-198.2057 158.8353,-188.8323 153.6324,-180.9666"/>
<polygon fill="#000000" stroke="#000000" stroke-width="2" points="155.0781,-179.9802 150.86,-176.7754 152.159,-181.9112 155.0781,-179.9802"/>
</g>
<!-- n6 -->
<g id="node7" class="node">
<title>n6</title>
<polygon fill="#ffffff" stroke="#000000" stroke-width="2" points="193.5086,-176.8036 171.1622,-176.8036 171.1622,-153.9964 193.5086,-153.9964 193.5086,-176.8036"/>
<text text-anchor="middle" x="182.3354" y="-161.8" font-family="Helvetica,sans-Serif" font-weight="bold" font-size="12.00" fill="#0000ff">0</text>
</g>
<!-- n4&#45;&gt;n6 -->
<g id="edge6" class="edge">
<title>n4-&gt;n6</title>
<path fill="none" stroke="#000000" stroke-width="2" d="M178.4451,-205.3927C179.1183,-198.4719 179.9887,-189.5236 180.7355,-181.8466"/>
<polygon fill="#000000" stroke="#000000" stroke-width="2" points="182.4864,-181.9214 181.2288,-176.7754 179.0029,-181.5825 182.4864,-181.9214"/>
</g>
<!-- n8 -->
<g id="node9" class="node">
<title>n8</title>
<polygon fill="#ffffff" stroke="#000000" stroke-width="2" points="234.8422,-176.8036 211.8286,-176.8036 211.8286,-153.9964 234.8422,-153.9964 234.8422,-176.8036"/>
<text text-anchor="middle" x="223.3354" y="-161.8" font-family="Helvetica,sans-Serif" font-weight="bold" font-size="12.00" fill="#0000ff">&lt;</text>
</g>
<!-- n7&#45;&gt;n8 -->
<g id="edge8" class="edge">
<title>n7-&gt;n8</title>
<path fill="none" stroke="#000000" stroke-width="2" d="M227.2257,-205.3927C226.5525,-198.4719 225.6821,-189.5236 224.9353,-181.8466"/>
<polygon fill="#000000" stroke="#000000" stroke-width="2" points="226.6679,-181.5825 224.442,-176.7754 223.1844,-181.9214 226.6679,-181.5825"/>
</g>
<!-- n11 -->
<g id="node12" class="node">
<title>n11</title>
<polygon fill="#ffffff" stroke="#000000" stroke-width="2" points="309.5103,-176.8036 253.1605,-176.8036 253.1605,-153.9964 309.5103,-153.9964 309.5103,-176.8036"/>
<text text-anchor="middle" x="281.3354" y="-161.8" font-family="Helvetica,sans-Serif" font-weight="bold" font-size="12.00" fill="#0000ff">BLOCK</text>
</g>
<!-- n7&#45;&gt;n11 -->
<g id="edge11" class="edge">
<title>n7-&gt;n11</title>
<path fill="none" stroke="#000000" stroke-width="2" d="M240.0978,-205.3927C247.6457,-198.0726 257.5325,-188.4843 265.7332,-180.5312"/>
<polygon fill="#000000" stroke="#000000" stroke-width="2" points="267.2349,-181.5127 269.6059,-176.7754 264.7982,-179.0001 267.2349,-181.5127"/>
</g>
<!-- n9 -->
<g id="node10" class="node">
<title>n9</title>
<polygon fill="#ffffff" stroke="#000000" stroke-width="2" points="200.5012,-125.4036 182.1696,-125.4036 182.1696,-102.5964 200.5012,-102.5964 200.5012,-125.4036"/>
<text text-anchor="middle" x="191.3354" y="-110.4" font-family="Helvetica,sans-Serif" font-weight="bold" font-size="12.00" fill="#0000ff">i</text>
</g>
<!-- n8&#45;&gt;n9 -->
<g id="edge9" class="edge">
<title>n8-&gt;n9</title>
<path fill="none" stroke="#000000" stroke-width="2" d="M216.2336,-153.9927C211.8421,-146.9388 206.1392,-137.7787 201.2997,-130.0051"/>
<polygon fill="#000000" stroke="#000000" stroke-width="2" points="202.5456,-128.6952 198.4174,-125.3754 199.5744,-130.545 202.5456,-128.6952"/>
</g>
<!-- n10 -->
<g id="node11" class="node">
<title>n10</title>
<polygon fill="#ffffff" stroke="#000000" stroke-width="2" points="241.5086,-125.4036 219.1622,-125.4036 219.1622,-102.5964 241.5086,-102.5964 241.5086,-125.4036"/>
<text text-anchor="middle" x="230.3354" y="-110.4" font-family="Helvetica,sans-Serif" font-weight="bold" font-size="12.00" fill="#0000ff">n</text>
</g>
<!-- n8&#45;&gt;n10 -->
<g id="edge10" class="edge">
<title>n8-&gt;n10</title>
<path fill="none" stroke="#000000" stroke-width="2" d="M224.8889,-153.9927C225.8314,-147.0719 227.0501,-138.1236 228.0956,-130.4466"/>
<polygon fill="#000000" stroke="#000000" stroke-width="2" points="229.8454,-130.5659 228.7862,-125.3754 226.3774,-130.0935 229.8454,-130.5659"/>
</g>
<!-- n12 -->
<g id="node13" class="node">
<title>n12</title>
<polygon fill="#ffffff" stroke="#000000" stroke-width="2" points="290.8422,-125.4036 267.8286,-125.4036 267.8286,-102.5964 290.8422,-102.5964 290.8422,-125.4036"/>
<text text-anchor="middle" x="279.3354" y="-110.4" font-family="Helvetica,sans-Serif" font-weight="bold" font-size="12.00" fill="#0000ff">=</text>
</g>
<!-- n11&#45;&gt;n12 -->
<g id="edge12" class="edge">
<title>n11-&gt;n12</title>
<path fill="none" stroke="#000000" stroke-width="2" d="M280.8915,-153.9927C280.6222,-147.0719 280.2741,-138.1236 279.9753,-130.4466"/>
<polygon fill="#000000" stroke="#000000" stroke-width="2" points="281.7212,-130.3036 279.778,-125.3754 278.2238,-130.4397 281.7212,-130.3036"/>
</g>
<!-- n13 -->
<g id="node14" class="node">
<title>n13</title>
<polygon fill="#ffffff" stroke="#000000" stroke-width="2" points="249.5012,-74.0036 231.1696,-74.0036 231.1696,-51.1964 249.5012,-51.1964 249.5012,-74.0036"/>
<text text-anchor="middle" x="240.3354" y="-59" font-family="Helvetica,sans-Serif" font-weight="bold" font-size="12.00" fill="#0000ff">i</text>
</g>
<!-- n12&#45;&gt;n13 -->
<g id="edge13" class="edge">
<title>n12-&gt;n13</title>
<path fill="none" stroke="#000000" stroke-width="2" d="M270.68,-102.5927C265.2269,-95.4057 258.1147,-86.0323 252.1467,-78.1666"/>
<polygon fill="#000000" stroke="#000000" stroke-width="2" points="253.383,-76.9008 248.9666,-73.9754 250.5948,-79.0165 253.383,-76.9008"/>
</g>
<!-- n14 -->
<g id="node15" class="node">
<title>n14</title>
<polygon fill="#ffffff" stroke="#000000" stroke-width="2" points="290.8422,-74.0036 267.8286,-74.0036 267.8286,-51.1964 290.8422,-51.1964 290.8422,-74.0036"/>
<text text-anchor="middle" x="279.3354" y="-59" font-family="Helvetica,sans-Serif" font-weight="bold" font-size="12.00" fill="#0000ff">+</text>
</g>
<!-- n12&#45;&gt;n14 -->
<g id="edge14" class="edge">
<title>n12-&gt;n14</title>
<path fill="none" stroke="#000000" stroke-width="2" d="M279.3354,-102.5927C279.3354,-95.6719 279.3354,-86.7236 279.3354,-79.0466"/>
<polygon fill="#000000" stroke="#000000" stroke-width="2" points="281.0855,-78.9754 279.3354,-73.9754 277.5855,-78.9755 281.0855,-78.9754"/>
</g>
<!-- n15 -->
<g id="node16" class="node">
<title>n15</title>
<polygon fill="#ffffff" stroke="#000000" stroke-width="2" points="269.5012,-22.6036 251.1696,-22.6036 251.1696,.2036 269.5012,.2036 269.5012,-22.6036"/>
<text text-anchor="middle" x="260.3354" y="-7.6" font-family="Helvetica,sans-Serif" font-weight="bold" font-size="12.00" fill="#0000ff">i</text>
</g>
<!-- n14&#45;&gt;n15 -->
<g id="edge15" class="edge">
<title>n14-&gt;n15</title>
<path fill="none" stroke="#000000" stroke-width="2" d="M275.1187,-51.1927C272.5604,-44.2719 269.2527,-35.3236 266.4149,-27.6466"/>
<polygon fill="#000000" stroke="#000000" stroke-width="2" points="267.9154,-26.6585 264.5403,-22.5754 264.6325,-27.8721 267.9154,-26.6585"/>
</g>
<!-- n16 -->
<g id="node17" class="node">
<title>n16</title>
<polygon fill="#ffffff" stroke="#000000" stroke-width="2" points="310.5086,-22.6036 288.1622,-22.6036 288.1622,.2036 310.5086,.2036 310.5086,-22.6036"/>
<text text-anchor="middle" x="299.3354" y="-7.6" font-family="Helvetica,sans-Serif" font-weight="bold" font-size="12.00" fill="#0000ff">1</text>
</g>
<!-- n14&#45;&gt;n16 -->
<g id="edge16" class="edge">
<title>n14-&gt;n16</title>
<path fill="none" stroke="#000000" stroke-width="2" d="M283.774,-51.1927C286.467,-44.2719 289.9488,-35.3236 292.9359,-27.6466"/>
<polygon fill="#000000" stroke="#000000" stroke-width="2" points="294.7269,-27.8697 294.9092,-22.5754 291.4651,-26.6005 294.7269,-27.8697"/>
</g>
<!-- n18 -->
<g id="node19" class="node">
<title>n18</title>
<polygon fill="#ffffff" stroke="#000000" stroke-width="2" points="351.8422,-176.8036 328.8286,-176.8036 328.8286,-153.9964 351.8422,-153.9964 351.8422,-176.8036"/>
<text text-anchor="middle" x="340.3354" y="-161.8" font-family="Helvetica,sans-Serif" font-weight="bold" font-size="12.00" fill="#0000ff">+</text>
</g>
<!-- n17&#45;&gt;n18 -->
<g id="edge18" class="edge">
<title>n17-&gt;n18</title>
<path fill="none" stroke="#000000" stroke-width="2" d="M321.6618,-205.3927C324.9554,-198.3388 329.2325,-189.1787 332.8622,-181.4051"/>
<polygon fill="#000000" stroke="#000000" stroke-width="2" points="334.4941,-182.0463 335.0239,-176.7754 331.3228,-180.5655 334.4941,-182.0463"/>
</g>
<!-- n19 -->
<g id="node20" class="node">
<title>n19</title>
<polygon fill="#ffffff" stroke="#000000" stroke-width="2" points="351.8422,-125.4036 328.8286,-125.4036 328.8286,-102.5964 351.8422,-102.5964 351.8422,-125.4036"/>
<text text-anchor="middle" x="340.3354" y="-110.4" font-family="Helvetica,sans-Serif" font-weight="bold" font-size="12.00" fill="#0000ff">+</text>
</g>
<!-- n18&#45;&gt;n19 -->
<g id="edge19" class="edge">
<title>n18-&gt;n19</title>
<path fill="none" stroke="#000000" stroke-width="2" d="M340.3354,-153.9927C340.3354,-147.0719 340.3354,-138.1236 340.3354,-130.4466"/>
<polygon fill="#000000" stroke="#000000" stroke-width="2" points="342.0855,-130.3754 340.3354,-125.3754 338.5855,-130.3755 342.0855,-130.3754"/>
</g>
<!-- n22 -->
<g id="node23" class="node">
<title>n22</title>
<polygon fill="#ffffff" stroke="#000000" stroke-width="2" points="429.186,-125.4036 369.4848,-125.4036 369.4848,-102.5964 429.186,-102.5964 429.186,-125.4036"/>
<text text-anchor="middle" x="399.3354" y="-110.4" font-family="Helvetica,sans-Serif" font-weight="bold" font-size="12.00" fill="#0000ff">" times."</text>
</g>
<!-- n18&#45;&gt;n22 -->
<g id="edge22" class="edge">
<title>n18-&gt;n22</title>
<path fill="none" stroke="#000000" stroke-width="2" d="M351.9919,-155.245C360.6899,-147.6675 372.7028,-137.2019 382.4512,-128.7093"/>
<polygon fill="#000000" stroke="#000000" stroke-width="2" points="383.8537,-129.8084 386.4742,-125.2045 381.5546,-127.1694 383.8537,-129.8084"/>
</g>
<!-- n20 -->
<g id="node21" class="node">
<title>n20</title>
<polygon fill="#ffffff" stroke="#000000" stroke-width="2" points="372.2047,-74.0036 308.4661,-74.0036 308.4661,-51.1964 372.2047,-51.1964 372.2047,-74.0036"/>
<text text-anchor="middle" x="340.3354" y="-59" font-family="Helvetica,sans-Serif" font-weight="bold" font-size="12.00" fill="#0000ff">"looped "</text>
</g>
<!-- n19&#45;&gt;n20 -->
<g id="edge20" class="edge">
<title>n19-&gt;n20</title>
<path fill="none" stroke="#000000" stroke-width="2" d="M340.3354,-102.5927C340.3354,-95.6719 340.3354,-86.7236 340.3354,-79.0466"/>
<polygon fill="#000000" stroke="#000000" stroke-width="2" points="342.0855,-78.9754 340.3354,-73.9754 338.5855,-78.9755 342.0855,-78.9754"/>
</g>
<!-- n21 -->
<g id="node22" class="node">
<title>n21</title>
<polygon fill="#ffffff" stroke="#000000" stroke-width="2" points="412.5086,-74.0036 390.1622,-74.0036 390.1622,-51.1964 412.5086,-51.1964 412.5086,-74.0036"/>
<text text-anchor="middle" x="401.3354" y="-59" font-family="Helvetica,sans-Serif" font-weight="bold" font-size="12.00" fill="#0000ff">n</text>
</g>
<!-- n19&#45;&gt;n21 -->
<g id="edge21" class="edge">
<title>n19-&gt;n21</title>
<path fill="none" stroke="#000000" stroke-width="2" d="M352.0968,-104.0896C361.755,-95.9514 375.506,-84.3644 386.0226,-75.5029"/>
<polygon fill="#000000" stroke="#000000" stroke-width="2" points="387.3266,-76.6926 390.0226,-72.1325 385.0713,-74.0161 387.3266,-76.6926"/>
</g>
</g>
</svg>