<?xml version="1.0" encoding="UTF-8" standalone="no"?><!DOCTYPE svg PUBLIC "-//W3C//DTD SVG 1.1//EN" "http://www.w3.org/Graphics/SVG/1.1/DTD/svg11.dtd"><!-- Generated by graphviz version 2.40.1 (20161225.0304)
 --><!-- Title: %0 Pages: 1 --><svg xmlns="http://www.w3.org/2000/svg" xmlns:xlink="http://www.w3.org/1999/xlink" width="334pt" height="236pt" viewBox="0.00 0.00 334.34 236.00">
<g id="graph0" class="graph" transform="scale(1 1) rotate(0) translate(4 232)">
<title>%0</title>
<polygon fill="#d3d3d3" stroke="transparent" points="-4,4 -4,-232 330.339,-232 330.339,4 -4,4"/>
<!-- n0 -->
<g id="node1" class="node">
<title>n0</title>
<polygon fill="#ffffff" stroke="#000000" stroke-width="2" points="209.5103,-228.2036 153.1605,-228.2036 153.1605,-205.3964 209.5103,-205.3964 209.5103,-228.2036"/>
<text text-anchor="middle" x="181.3354" y="-213.2" font-family="Helvetica,sans-Serif" font-weight="bold" font-size="12.00" fill="#0000ff">BLOCK</text>
</g>
<!-- n1 -->
<g id="node2" class="node">
<title>n1</title>
<polygon fill="#ffffff" stroke="#000000" stroke-width="2" points="70.8422,-176.8036 47.8286,-176.8036 47.8286,-153.9964 70.8422,-153.9964 70.8422,-176.8036"/>
<text text-anchor="middle" x="59.3354" y="-161.8" font-family="Helvetica,sans-Serif" font-weight="bold" font-size="12.00" fill="#0000ff">=</text>
</g>
<!-- n0&#45;&gt;n1 -->
<g id="edge1" class="edge">
<title>n0-&gt;n1</title>
<path fill="none" stroke="#000000" stroke-width="2" d="M154.562,-205.5201C130.5077,-195.3857 95.9548,-180.8282 75.7588,-172.3194"/>
<polygon fill="#000000" stroke="#000000" stroke-width="2" points="76.2359,-170.6215 70.9487,-170.2928 74.877,-173.8469 76.2359,-170.6215"/>
</g>
<!-- n5 -->
<g id="node6" class="node">
<title>n5</title>
<polygon fill="#ffffff" stroke="#000000" stroke-width="2" points="168.8422,-176.8036 145.8286,-176.8036 145.8286,-153.9964 168.8422,-153.9964 168.8422,-176.8036"/>
<text text-anchor="middle" x="157.3354" y="-161.8" font-family="Helvetica,sans-Serif" font-weight="bold" font-size="12.00" fill="#0000ff">=</text>
</g>
<!-- n0&#45;&gt;n5 -->
<g id="edge5" class="edge">
<title>n0-&gt;n5</title>
<path fill="none" stroke="#000000" stroke-width="2" d="M176.009,-205.3927C172.7154,-198.3388 168.4383,-189.1787 164.8086,-181.4051"/>
<polygon fill="#000000" stroke="#000000" stroke-width="2" points="166.348,-180.5655 162.6469,-176.7754 163.1767,-182.0463 166.348,-180.5655"/>
</g>
<!-- n10 -->
<g id="node11" class="node">
<title>n10</title>
<polygon fill="#ffffff" stroke="#000000" stroke-width="2" points="226.1708,-176.8036 186.5,-176.8036 186.5,-153.9964 226.1708,-153.9964 226.1708,-176.8036"/>
<text text-anchor="middle" x="206.3354" y="-161.8" font-family="Helvetica,sans-Serif" font-weight="bold" font-size="12.00" fill="#0000ff">print</text>
</g>
<!-- n0&#45;&gt;n10 -->
<g id="edge10" class="edge">
<title>n0-&gt;n10</title>
<path fill="none" stroke="#000000" stroke-width="2" d="M186.8837,-205.3927C190.3146,-198.3388 194.7699,-189.1787 198.5508,-181.4051"/>
<polygon fill="#000000" stroke="#000000" stroke-width="2" points="200.1893,-182.0373 200.8026,-176.7754 197.0419,-180.5064 200.1893,-182.0373"/>
</g>
<!-- n16 -->
<g id="node17" class="node">
<title>n16</title>
<polygon fill="#ffffff" stroke="#000000" stroke-width="2" points="283.1708,-176.8036 243.5,-176.8036 243.5,-153.9964 283.1708,-153.9964 283.1708,-176.8036"/>
<text text-anchor="middle" x="263.3354" y="-161.8" font-family="Helvetica,sans-Serif" font-weight="bold" font-size="12.00" fill="#0000ff">print</text>
</g>
<!-- n0&#45;&gt;n16 -->
<g id="edge16" class="edge">
<title>n0-&gt;n16</title>
<path fill="none" stroke="#000000" stroke-width="2" d="M199.5339,-205.3927C211.7425,-197.7399 227.9063,-187.608 240.9095,-179.4572"/>
<polygon fill="#000000" stroke="#000000" stroke-width="2" points="241.8808,-180.9138 245.1878,-176.7754 240.0218,-177.9483 241.8808,-180.9138"/>
</g>
<!-- n2 -->
<g id="node3" class="node">
<title>n2</title>
<polygon fill="#ffffff" stroke="#000000" stroke-width="2" points="22.5086,-125.4036 .1622,-125.4036 .1622,-102.5964 22.5086,-102.5964 22.5086,-125.4036"/>
<text text-anchor="middle" x="11.3354" y="-110.4" font-family="Helvetica,sans-Serif" font-weight="bold" font-size="12.00" fill="#0000ff">u</text>
</g>
<!-- n1&#45;&gt;n2 -->
<g id="edge2" class="edge">
<title>n1-&gt;n2</title>
<path fill="none" stroke="#000000" stroke-width="2" d="M48.6826,-153.9927C41.8468,-146.6726 32.8928,-137.0843 25.4657,-129.1312"/>
<polygon fill="#000000" stroke="#000000" stroke-width="2" points="26.65,-127.8354 21.9584,-125.3754 24.092,-130.2242 26.65,-127.8354"/>
</g>
<!-- n3 -->
<g id="node4" class="node">
<title>n3</title>
<polygon fill="#ffffff" stroke="#000000" stroke-width="2" points="78.3398,-125.4036 40.331,-125.4036 40.331,-102.5964 78.3398,-102.5964 78.3398,-125.4036"/>
<text text-anchor="middle" x="59.3354" y="-110.4" font-family="Helvetica,sans-Serif" font-weight="bold" font-size="12.00" fill="#0000ff">new</text>
</g>
<!-- n1&#45;&gt;n3 -->
<g id="edge3" class="edge">
<title>n1-&gt;n3</title>
<path fill="none" stroke="#000000" stroke-width="2" d="M59.3354,-153.9927C59.3354,-147.0719 59.3354,-138.1236 59.3354,-130.4466"/>
<polygon fill="#000000" stroke="#000000" stroke-width="2" points="61.0855,-130.3754 59.3354,-125.3754 57.5855,-130.3755 61.0855,-130.3754"/>
</g>
<!-- n4 -->
<g id="node5" class="node">
<title>n4</title>
<polygon fill="#ffffff" stroke="#000000" stroke-width="2" points="67.1651,-74.0036 25.5057,-74.0036 25.5057,-51.1964 67.1651,-51.1964 67.1651,-74.0036"/>
<text text-anchor="middle" x="46.3354" y="-59" font-family="Helvetica,sans-Serif" font-weight="bold" font-size="12.00" fill="#0000ff">User</text>
</g>
<!-- n3&#45;&gt;n4 -->
<g id="edge4" class="edge">
<title>n3-&gt;n4</title>
<path fill="none" stroke="#000000" stroke-width="2" d="M56.4503,-102.5927C54.6999,-95.6719 52.4367,-86.7236 50.495,-79.0466"/>
<polygon fill="#000000" stroke="#000000" stroke-width="2" points="52.1351,-78.3937 49.2125,-73.9754 48.7419,-79.2519 52.1351,-78.3937"/>
</g>
<!-- n6 -->
<g id="node7" class="node">
<title>n6</title>
<polygon fill="#ffffff" stroke="#000000" stroke-width="2" points="120.1731,-125.4036 100.4977,-125.4036 100.4977,-102.5964 120.1731,-102.5964 120.1731,-125.4036"/>
<text text-anchor="middle" x="110.3354" y="-110.4" font-family="Helvetica,sans-Serif" font-weight="bold" font-size="12.00" fill="#0000ff">.</text>
</g>
<!-- n5&#45;&gt;n6 -->
<g id="edge6" class="edge">
<title>n5-&gt;n6</title>
<path fill="none" stroke="#000000" stroke-width="2" d="M146.9046,-153.9927C140.0252,-146.4693 130.955,-136.5499 123.5689,-128.4723"/>
<polygon fill="#000000" stroke="#000000" stroke-width="2" points="124.7608,-127.1825 120.0952,-124.6735 122.1778,-129.5444 124.7608,-127.1825"/>
</g>
<!-- n9 -->
<g id="node10" class="node">
<title>n9</title>
<polygon fill="#ffffff" stroke="#000000" stroke-width="2" points="187.0193,-125.4036 137.6515,-125.4036 137.6515,-102.5964 187.0193,-102.5964 187.0193,-125.4036"/>
<text text-anchor="middle" x="162.3354" y="-110.4" font-family="Helvetica,sans-Serif" font-weight="bold" font-size="12.00" fill="#0000ff">"parrt"</text>
</g>
<!-- n5&#45;&gt;n9 -->
<g id="edge9" class="edge">
<title>n5-&gt;n9</title>
<path fill="none" stroke="#000000" stroke-width="2" d="M158.4451,-153.9927C159.1183,-147.0719 159.9887,-138.1236 160.7355,-130.4466"/>
<polygon fill="#000000" stroke="#000000" stroke-width="2" points="162.4864,-130.5214 161.2288,-125.3754 159.0029,-130.1825 162.4864,-130.5214"/>
</g>
<!-- n7 -->
<g id="node8" class="node">
<title>n7</title>
<polygon fill="#ffffff" stroke="#000000" stroke-width="2" points="107.5086,-74.0036 85.1622,-74.0036 85.1622,-51.1964 107.5086,-51.1964 107.5086,-74.0036"/>
<text text-anchor="middle" x="96.3354" y="-59" font-family="Helvetica,sans-Serif" font-weight="bold" font-size="12.00" fill="#0000ff">u</text>
</g>
<!-- n6&#45;&gt;n7 -->
<g id="edge7" class="edge">
<title>n6-&gt;n7</title>
<path fill="none" stroke="#000000" stroke-width="2" d="M107.2283,-102.5927C105.3433,-95.6719 102.906,-86.7236 100.815,-79.0466"/>
<polygon fill="#000000" stroke="#000000" stroke-width="2" points="102.4363,-78.3398 99.4338,-73.9754 99.0593,-79.2596 102.4363,-78.3398"/>
</g>
<!-- n8 -->
<g id="node9" class="node">
<title>n8</title>
<polygon fill="#ffffff" stroke="#000000" stroke-width="2" points="171.3426,-74.0036 125.3282,-74.0036 125.3282,-51.1964 171.3426,-51.1964 171.3426,-74.0036"/>
<text text-anchor="middle" x="148.3354" y="-59" font-family="Helvetica,sans-Serif" font-weight="bold" font-size="12.00" fill="#0000ff">name</text>
</g>
<!-- n6&#45;&gt;n8 -->
<g id="edge8" class="edge">
<title>n6-&gt;n8</title>
<path fill="none" stroke="#000000" stroke-width="2" d="M118.7688,-102.5927C124.0821,-95.4057 131.0119,-86.0323 136.827,-78.1666"/>
<polygon fill="#000000" stroke="#000000" stroke-width="2" points="138.3603,-79.0364 139.9255,-73.9754 135.5459,-76.9557 138.3603,-79.0364"/>
</g>
<!-- n11 -->
<g id="node12" class="node">
<title>n11</title>
<polygon fill="#ffffff" stroke="#000000" stroke-width="2" points="230.8422,-125.4036 207.8286,-125.4036 207.8286,-102.5964 230.8422,-102.5964 230.8422,-125.4036"/>
<text text-anchor="middle" x="219.3354" y="-110.4" font-family="Helvetica,sans-Serif" font-weight="bold" font-size="12.00" fill="#0000ff">+</text>
</g>
<!-- n10&#45;&gt;n11 -->
<g id="edge11" class="edge">
<title>n10-&gt;n11</title>
<path fill="none" stroke="#000000" stroke-width="2" d="M209.2205,-153.9927C210.9709,-147.0719 213.2341,-138.1236 215.1758,-130.4466"/>
<polygon fill="#000000" stroke="#000000" stroke-width="2" points="216.9289,-130.6519 216.4583,-125.3754 213.5357,-129.7937 216.9289,-130.6519"/>
</g>
<!-- n12 -->
<g id="node13" class="node">
<title>n12</title>
<polygon fill="#ffffff" stroke="#000000" stroke-width="2" points="249.3704,-74.0036 189.3004,-74.0036 189.3004,-51.1964 249.3704,-51.1964 249.3704,-74.0036"/>
<text text-anchor="middle" x="219.3354" y="-59" font-family="Helvetica,sans-Serif" font-weight="bold" font-size="12.00" fill="#0000ff">"Login: "</text>
</g>
<!-- n11&#45;&gt;n12 -->
<g id="edge12" class="edge">
<title>n11-&gt;n12</title>
<path fill="none" stroke="#000000" stroke-width="2" d="M219.3354,-102.5927C219.3354,-95.6719 219.3354,-86.7236 219.3354,-79.0466"/>
<polygon fill="#000000" stroke="#000000" stroke-width="2" points="221.0855,-78.9754 219.3354,-73.9754 217.5855,-78.9755 221.0855,-78.9754"/>
</g>
<!-- n13 -->
<g id="node14" class="node">
<title>n13</title>
<polygon fill="#ffffff" stroke="#000000" stroke-width="2" points="287.1731,-74.0036 267.4977,-74.0036 267.4977,-51.1964 287.1731,-51.1964 287.1731,-74.0036"/>
<text text-anchor="middle" x="277.3354" y="-59" font-family="Helvetica,sans-Serif" font-weight="bold" font-size="12.00" fill="#0000ff">.</text>
</g>
<!-- n11&#45;&gt;n13 -->
<g id="edge13" class="edge">
<title>n11-&gt;n13</title>
<path fill="none" stroke="#000000" stroke-width="2" d="M231.0726,-103.5984C240.5405,-95.2079 253.8682,-83.3968 263.7883,-74.6056"/>
<polygon fill="#000000" stroke="#000000" stroke-width="2" points="264.9602,-75.9053 267.5416,-71.2793 262.6389,-73.2859 264.9602,-75.9053"/>
</g>
<!-- n14 -->
<g id="node15" class="node">
<title>n14</title>
<polygon fill="#ffffff" stroke="#000000" stroke-width="2" points="262.5086,-22.6036 240.1622,-22.6036 240.1622,.2036 262.5086,.2036 262.5086,-22.6036"/>
<text text-anchor="middle" x="251.3354" y="-7.6" font-family="Helvetica,sans-Serif" font-weight="bold" font-size="12.00" fill="#0000ff">u</text>
</g>
<!-- n13&#45;&gt;n14 -->
<g id="edge14" class="edge">
<title>n13-&gt;n14</title>
<path fill="none" stroke="#000000" stroke-width="2" d="M271.5652,-51.1927C267.9971,-44.1388 263.3635,-34.9787 259.4314,-27.2051"/>
<polygon fill="#000000" stroke="#000000" stroke-width="2" points="260.908,-26.2472 257.0895,-22.5754 257.7849,-27.827 260.908,-26.2472"/>
</g>
<!-- n15 -->
<g id="node16" class="node">
<title>n15</title>
<polygon fill="#ffffff" stroke="#000000" stroke-width="2" points="326.3426,-22.6036 280.3282,-22.6036 280.3282,.2036 326.3426,.2036 326.3426,-22.6036"/>
<text text-anchor="middle" x="303.3354" y="-7.6" font-family="Helvetica,sans-Serif" font-weight="bold" font-size="12.00" fill="#0000ff">name</text>
</g>
<!-- n13&#45;&gt;n15 -->
<g id="edge15" class="edge">
<title>n13-&gt;n15</title>
<path fill="none" stroke="#000000" stroke-width="2" d="M283.1056,-51.1927C286.6737,-44.1388 291.3073,-34.9787 295.2394,-27.2051"/>
<polygon fill="#000000" stroke="#000000" stroke-width="2" points="296.8859,-27.827 297.5813,-22.5754 293.7628,-26.2472 296.8859,-27.827"/>
</g>
<!-- n17 -->
<g id="node18" class="node">
<title>n17</title>
<polygon fill="#ffffff" stroke="#000000" stroke-width="2" points="274.5086,-125.4036 252.1622,-125.4036 252.1622,-102.5964 274.5086,-102.5964 274.5086,-125.4036"/>
<text text-anchor="middle" x="263.3354" y="-110.4" font-family="Helvetica,sans-Serif" font-weight="bold" font-size="12.00" fill="#0000ff">u</text>
</g>
<!-- n16&#45;&gt;n17 -->
<g id="edge17" class="edge">
<title>n16-&gt;n17</title>
<path fill="none" stroke="#000000" stroke-width="2" d="M263.3354,-153.9927C263.3354,-147.0719 263.3354,-138.1236 263.3354,-130.4466"/>
<polygon fill="#000000" stroke="#000000" stroke-width="2" points="265.0855,-130.3754 263.3354,-125.3754 261.5855,-130.3755 265.0855,-130.3754"/>
</g>
</g>
</svg>