<?xml version="1.0" encoding="UTF-8" standalone="no"?><!DOCTYPE svg PUBLIC "-//W3C//DTD SVG 1.1//EN" "http://www.w3.org/Graphics/SVG/1.1/DTD/svg11.dtd"><!-- Generated by graphviz version 2.40.1 (20161225.0304)
 --><!-- Title: %0 Pages: 1 --><svg xmlns="http://www.w3.org/2000/svg" xmlns:xlink="http://www.w3.org/1999/xlink" width="628pt" height="437pt" viewBox="0.00 0.00 628.33 437.20">
<g id="graph0" class="graph" transform="scale(1 1) rotate(0) translate(4 433.2)">
<title>%0</title>
<polygon fill="#d3d3d3" stroke="transparent" points="-4,4 -4,-433.2 624.3342,-433.2 624.3342,4 -4,4"/>
<!-- n0 -->
<g id="node1" class="node">
<title>n0</title>
<polygon fill="#ffffff" stroke="#000000" stroke-width="2" points="250.3342,-429.2 232.3342,-429.2 232.3342,-411.2 250.3342,-411.2 250.3342,-429.2"/>
</g>
<!-- n1 -->
<g id="node2" class="node">
<title>n1</title>
<polygon fill="#ffffff" stroke="#000000" stroke-width="2" points="162.1691,-382.4036 118.4993,-382.4036 118.4993,-359.5964 162.1691,-359.5964 162.1691,-382.4036"/>
<text text-anchor="middle" x="140.3342" y="-367.4" font-family="Helvetica,sans-Serif" font-weight="bold" font-size="12.00" fill="#0000ff">class</text>
</g>
<!-- n0&#45;&gt;n1 -->
<g id="edge1" class="edge">
<title>n0-&gt;n1</title>
<path fill="none" stroke="#000000" stroke-width="2" d="M232.0134,-415.6596C217.3942,-408.5382 188.5291,-394.4771 167.0744,-384.0259"/>
<polygon fill="#000000" stroke="#000000" stroke-width="2" points="167.6046,-382.3376 162.3431,-381.7212 166.0718,-385.4842 167.6046,-382.3376"/>
</g>
<!-- n11 -->
<g id="node12" class="node">
<title>n11</title>
<polygon fill="#ffffff" stroke="#000000" stroke-width="2" points="263.1691,-382.4036 219.4993,-382.4036 219.4993,-359.5964 263.1691,-359.5964 263.1691,-382.4036"/>
<text text-anchor="middle" x="241.3342" y="-367.4" font-family="Helvetica,sans-Serif" font-weight="bold" font-size="12.00" fill="#0000ff">class</text>
</g>
<!-- n0&#45;&gt;n11 -->
<g id="edge11" class="edge">
<title>n0-&gt;n11</title>
<path fill="none" stroke="#000000" stroke-width="2" d="M241.3342,-411.176C241.3342,-404.5943 241.3342,-395.4857 241.3342,-387.6052"/>
<polygon fill="#000000" stroke="#000000" stroke-width="2" points="243.0843,-387.3917 241.3342,-382.3918 239.5843,-387.3918 243.0843,-387.3917"/>
</g>
<!-- n30 -->
<g id="node31" class="node">
<title>n30</title>
<polygon fill="#ffffff" stroke="#000000" stroke-width="2" points="335.5171,-382.4036 281.1513,-382.4036 281.1513,-359.5964 335.5171,-359.5964 335.5171,-382.4036"/>
<text text-anchor="middle" x="308.3342" y="-367.4" font-family="Helvetica,sans-Serif" font-weight="bold" font-size="12.00" fill="#0000ff">&lt;EOF&gt;</text>
</g>
<!-- n0&#45;&gt;n30 -->
<g id="edge30" class="edge">
<title>n0-&gt;n30</title>
<path fill="none" stroke="#000000" stroke-width="2" d="M250.3701,-413.5647C260.1901,-406.3536 276.1766,-394.6143 288.876,-385.2887"/>
<polygon fill="#000000" stroke="#000000" stroke-width="2" points="290.0488,-386.5987 293.0431,-382.2287 287.9772,-383.7776 290.0488,-386.5987"/>
</g>
<!-- n2 -->
<g id="node3" class="node">
<title>n2</title>
<polygon fill="#ffffff" stroke="#000000" stroke-width="2" points="84.337,-331.0036 60.3314,-331.0036 60.3314,-308.1964 84.337,-308.1964 84.337,-331.0036"/>
<text text-anchor="middle" x="72.3342" y="-316" font-family="Helvetica,sans-Serif" font-weight="bold" font-size="12.00" fill="#0000ff">A</text>
</g>
<!-- n1&#45;&gt;n2 -->
<g id="edge2" class="edge">
<title>n1-&gt;n2</title>
<path fill="none" stroke="#000000" stroke-width="2" d="M125.2428,-359.5927C114.4656,-351.4464 99.9718,-340.4908 88.8793,-332.1061"/>
<polygon fill="#000000" stroke="#000000" stroke-width="2" points="89.7023,-330.5346 84.6583,-328.9156 87.5918,-333.3267 89.7023,-330.5346"/>
</g>
<!-- n3 -->
<g id="node4" class="node">
<title>n3</title>
<polygon fill="#ffffff" stroke="#000000" stroke-width="2" points="178.4985,-331.0036 102.1699,-331.0036 102.1699,-308.1964 178.4985,-308.1964 178.4985,-331.0036"/>
<text text-anchor="middle" x="140.3342" y="-316" font-family="Helvetica,sans-Serif" font-weight="bold" font-size="12.00" fill="#0000ff">MEMBERS</text>
</g>
<!-- n1&#45;&gt;n3 -->
<g id="edge3" class="edge">
<title>n1-&gt;n3</title>
<path fill="none" stroke="#000000" stroke-width="2" d="M140.3342,-359.5927C140.3342,-352.6719 140.3342,-343.7236 140.3342,-336.0466"/>
<polygon fill="#000000" stroke="#000000" stroke-width="2" points="142.0843,-335.9754 140.3342,-330.9754 138.5843,-335.9755 142.0843,-335.9754"/>
</g>
<!-- n4 -->
<g id="node5" class="node">
<title>n4</title>
<polygon fill="#ffffff" stroke="#000000" stroke-width="2" points="93.5068,-279.6036 5.1616,-279.6036 5.1616,-256.7964 93.5068,-256.7964 93.5068,-279.6036"/>
<text text-anchor="middle" x="49.3342" y="-264.6" font-family="Helvetica,sans-Serif" font-weight="bold" font-size="12.00" fill="#0000ff">FIELD_DECL</text>
</g>
<!-- n3&#45;&gt;n4 -->
<g id="edge4" class="edge">
<title>n3-&gt;n4</title>
<path fill="none" stroke="#000000" stroke-width="2" d="M120.1384,-308.1927C106.4719,-300.4734 88.3396,-290.2316 73.8459,-282.045"/>
<polygon fill="#000000" stroke="#000000" stroke-width="2" points="74.6878,-280.5108 69.4736,-279.5754 72.9665,-283.5583 74.6878,-280.5108"/>
</g>
<!-- n7 -->
<g id="node8" class="node">
<title>n7</title>
<polygon fill="#ffffff" stroke="#000000" stroke-width="2" points="218.4935,-279.6036 112.1749,-279.6036 112.1749,-256.7964 218.4935,-256.7964 218.4935,-279.6036"/>
<text text-anchor="middle" x="165.3342" y="-264.6" font-family="Helvetica,sans-Serif" font-weight="bold" font-size="12.00" fill="#0000ff">METHOD_DECL</text>
</g>
<!-- n3&#45;&gt;n7 -->
<g id="edge7" class="edge">
<title>n3-&gt;n7</title>
<path fill="none" stroke="#000000" stroke-width="2" d="M145.8825,-308.1927C149.3134,-301.1388 153.7687,-291.9787 157.5496,-284.2051"/>
<polygon fill="#000000" stroke="#000000" stroke-width="2" points="159.1881,-284.8373 159.8014,-279.5754 156.0407,-283.3064 159.1881,-284.8373"/>
</g>
<!-- n5 -->
<g id="node6" class="node">
<title>n5</title>
<polygon fill="#ffffff" stroke="#000000" stroke-width="2" points="28.5045,-228.2036 .1639,-228.2036 .1639,-205.3964 28.5045,-205.3964 28.5045,-228.2036"/>
<text text-anchor="middle" x="14.3342" y="-213.2" font-family="Helvetica,sans-Serif" font-weight="bold" font-size="12.00" fill="#0000ff">int</text>
</g>
<!-- n4&#45;&gt;n5 -->
<g id="edge5" class="edge">
<title>n4-&gt;n5</title>
<path fill="none" stroke="#000000" stroke-width="2" d="M41.5666,-256.7927C36.6727,-249.6057 30.29,-240.2323 24.9341,-232.3666"/>
<polygon fill="#000000" stroke="#000000" stroke-width="2" points="26.3409,-231.3233 22.0801,-228.1754 23.4479,-233.2933 26.3409,-231.3233"/>
</g>
<!-- n6 -->
<g id="node7" class="node">
<title>n6</title>
<polygon fill="#ffffff" stroke="#000000" stroke-width="2" points="68.3342,-228.2036 46.3342,-228.2036 46.3342,-205.3964 68.3342,-205.3964 68.3342,-228.2036"/>
<text text-anchor="middle" x="57.3342" y="-213.2" font-family="Helvetica,sans-Serif" font-weight="bold" font-size="12.00" fill="#0000ff">x</text>
</g>
<!-- n4&#45;&gt;n6 -->
<g id="edge6" class="edge">
<title>n4-&gt;n6</title>
<path fill="none" stroke="#000000" stroke-width="2" d="M51.1097,-256.7927C52.1868,-249.8719 53.5796,-240.9236 54.7744,-233.2466"/>
<polygon fill="#000000" stroke="#000000" stroke-width="2" points="56.5239,-233.3851 55.5637,-228.1754 53.0655,-232.8468 56.5239,-233.3851"/>
</g>
<!-- n8 -->
<g id="node9" class="node">
<title>n8</title>
<polygon fill="#ffffff" stroke="#000000" stroke-width="2" points="131.3386,-228.2036 93.3298,-228.2036 93.3298,-205.3964 131.3386,-205.3964 131.3386,-228.2036"/>
<text text-anchor="middle" x="112.3342" y="-213.2" font-family="Helvetica,sans-Serif" font-weight="bold" font-size="12.00" fill="#0000ff">void</text>
</g>
<!-- n7&#45;&gt;n8 -->
<g id="edge8" class="edge">
<title>n7-&gt;n8</title>
<path fill="none" stroke="#000000" stroke-width="2" d="M153.5718,-256.7927C146.0239,-249.4726 136.1371,-239.8843 127.9364,-231.9312"/>
<polygon fill="#000000" stroke="#000000" stroke-width="2" points="128.8714,-230.4001 124.0637,-228.1754 126.4347,-232.9127 128.8714,-230.4001"/>
</g>
<!-- n9 -->
<g id="node10" class="node">
<title>n9</title>
<polygon fill="#ffffff" stroke="#000000" stroke-width="2" points="181.5122,-228.2036 149.1562,-228.2036 149.1562,-205.3964 181.5122,-205.3964 181.5122,-228.2036"/>
<text text-anchor="middle" x="165.3342" y="-213.2" font-family="Helvetica,sans-Serif" font-weight="bold" font-size="12.00" fill="#0000ff">foo</text>
</g>
<!-- n7&#45;&gt;n9 -->
<g id="edge9" class="edge">
<title>n7-&gt;n9</title>
<path fill="none" stroke="#000000" stroke-width="2" d="M165.3342,-256.7927C165.3342,-249.8719 165.3342,-240.9236 165.3342,-233.2466"/>
<polygon fill="#000000" stroke="#000000" stroke-width="2" points="167.0843,-233.1754 165.3342,-228.1754 163.5843,-233.1755 167.0843,-233.1754"/>
</g>
<!-- n10 -->
<g id="node11" class="node">
<title>n10</title>
<polygon fill="#ffffff" stroke="#000000" stroke-width="2" points="256.5091,-228.2036 200.1593,-228.2036 200.1593,-205.3964 256.5091,-205.3964 256.5091,-228.2036"/>
<text text-anchor="middle" x="228.3342" y="-213.2" font-family="Helvetica,sans-Serif" font-weight="bold" font-size="12.00" fill="#0000ff">BLOCK</text>
</g>
<!-- n7&#45;&gt;n10 -->
<g id="edge10" class="edge">
<title>n7-&gt;n10</title>
<path fill="none" stroke="#000000" stroke-width="2" d="M179.3159,-256.7927C188.4511,-249.3395 200.4684,-239.5349 210.3178,-231.4991"/>
<polygon fill="#000000" stroke="#000000" stroke-width="2" points="211.6237,-232.6923 214.3915,-228.1754 209.4111,-229.9803 211.6237,-232.6923"/>
</g>
<!-- n12 -->
<g id="node13" class="node">
<title>n12</title>
<polygon fill="#ffffff" stroke="#000000" stroke-width="2" points="220.337,-331.0036 196.3314,-331.0036 196.3314,-308.1964 220.337,-308.1964 220.337,-331.0036"/>
<text text-anchor="middle" x="208.3342" y="-316" font-family="Helvetica,sans-Serif" font-weight="bold" font-size="12.00" fill="#0000ff">B</text>
</g>
<!-- n11&#45;&gt;n12 -->
<g id="edge12" class="edge">
<title>n11-&gt;n12</title>
<path fill="none" stroke="#000000" stroke-width="2" d="M234.0104,-359.5927C229.4817,-352.5388 223.6007,-343.3787 218.6099,-335.6051"/>
<polygon fill="#000000" stroke="#000000" stroke-width="2" points="219.8115,-334.2375 215.6375,-330.9754 216.8662,-336.1284 219.8115,-334.2375"/>
</g>
<!-- n13 -->
<g id="node14" class="node">
<title>n13</title>
<polygon fill="#ffffff" stroke="#000000" stroke-width="2" points="310.5026,-331.0036 238.1658,-331.0036 238.1658,-308.1964 310.5026,-308.1964 310.5026,-331.0036"/>
<text text-anchor="middle" x="274.3342" y="-316" font-family="Helvetica,sans-Serif" font-weight="bold" font-size="12.00" fill="#0000ff">EXTENDS</text>
</g>
<!-- n11&#45;&gt;n13 -->
<g id="edge13" class="edge">
<title>n11-&gt;n13</title>
<path fill="none" stroke="#000000" stroke-width="2" d="M248.658,-359.5927C253.1867,-352.5388 259.0677,-343.3787 264.0585,-335.6051"/>
<polygon fill="#000000" stroke="#000000" stroke-width="2" points="265.8022,-336.1284 267.0309,-330.9754 262.8569,-334.2375 265.8022,-336.1284"/>
</g>
<!-- n15 -->
<g id="node16" class="node">
<title>n15</title>
<polygon fill="#ffffff" stroke="#000000" stroke-width="2" points="405.4985,-331.0036 329.1699,-331.0036 329.1699,-308.1964 405.4985,-308.1964 405.4985,-331.0036"/>
<text text-anchor="middle" x="367.3342" y="-316" font-family="Helvetica,sans-Serif" font-weight="bold" font-size="12.00" fill="#0000ff">MEMBERS</text>
</g>
<!-- n11&#45;&gt;n15 -->
<g id="edge15" class="edge">
<title>n11-&gt;n15</title>
<path fill="none" stroke="#000000" stroke-width="2" d="M263.2817,-362.0468C283.0293,-353.991 312.3085,-342.047 334.782,-332.8792"/>
<polygon fill="#000000" stroke="#000000" stroke-width="2" points="335.4998,-334.4765 339.4684,-330.9675 334.1778,-331.2358 335.4998,-334.4765"/>
</g>
<!-- n14 -->
<g id="node15" class="node">
<title>n14</title>
<polygon fill="#ffffff" stroke="#000000" stroke-width="2" points="286.337,-279.6036 262.3314,-279.6036 262.3314,-256.7964 286.337,-256.7964 286.337,-279.6036"/>
<text text-anchor="middle" x="274.3342" y="-264.6" font-family="Helvetica,sans-Serif" font-weight="bold" font-size="12.00" fill="#0000ff">A</text>
</g>
<!-- n13&#45;&gt;n14 -->
<g id="edge14" class="edge">
<title>n13-&gt;n14</title>
<path fill="none" stroke="#000000" stroke-width="2" d="M274.3342,-308.1927C274.3342,-301.2719 274.3342,-292.3236 274.3342,-284.6466"/>
<polygon fill="#000000" stroke="#000000" stroke-width="2" points="276.0843,-284.5754 274.3342,-279.5754 272.5843,-284.5755 276.0843,-284.5754"/>
</g>
<!-- n16 -->
<g id="node17" class="node">
<title>n16</title>
<polygon fill="#ffffff" stroke="#000000" stroke-width="2" points="401.5068,-279.6036 313.1616,-279.6036 313.1616,-256.7964 401.5068,-256.7964 401.5068,-279.6036"/>
<text text-anchor="middle" x="357.3342" y="-264.6" font-family="Helvetica,sans-Serif" font-weight="bold" font-size="12.00" fill="#0000ff">FIELD_DECL</text>
</g>
<!-- n15&#45;&gt;n16 -->
<g id="edge16" class="edge">
<title>n15-&gt;n16</title>
<path fill="none" stroke="#000000" stroke-width="2" d="M365.1149,-308.1927C363.7684,-301.2719 362.0275,-292.3236 360.5339,-284.6466"/>
<polygon fill="#000000" stroke="#000000" stroke-width="2" points="362.2201,-284.1492 359.5473,-279.5754 358.7845,-284.8176 362.2201,-284.1492"/>
</g>
<!-- n19 -->
<g id="node20" class="node">
<title>n19</title>
<polygon fill="#ffffff" stroke="#000000" stroke-width="2" points="526.4935,-279.6036 420.1749,-279.6036 420.1749,-256.7964 526.4935,-256.7964 526.4935,-279.6036"/>
<text text-anchor="middle" x="473.3342" y="-264.6" font-family="Helvetica,sans-Serif" font-weight="bold" font-size="12.00" fill="#0000ff">METHOD_DECL</text>
</g>
<!-- n15&#45;&gt;n19 -->
<g id="edge19" class="edge">
<title>n15-&gt;n19</title>
<path fill="none" stroke="#000000" stroke-width="2" d="M390.5963,-308.3201C406.751,-300.4866 428.3556,-290.0104 445.4368,-281.7276"/>
<polygon fill="#000000" stroke="#000000" stroke-width="2" points="446.3909,-283.2099 450.1263,-279.4536 444.8638,-280.0606 446.3909,-283.2099"/>
</g>
<!-- n17 -->
<g id="node18" class="node">
<title>n17</title>
<polygon fill="#ffffff" stroke="#000000" stroke-width="2" points="336.5045,-228.2036 308.1639,-228.2036 308.1639,-205.3964 336.5045,-205.3964 336.5045,-228.2036"/>
<text text-anchor="middle" x="322.3342" y="-213.2" font-family="Helvetica,sans-Serif" font-weight="bold" font-size="12.00" fill="#0000ff">int</text>
</g>
<!-- n16&#45;&gt;n17 -->
<g id="edge17" class="edge">
<title>n16-&gt;n17</title>
<path fill="none" stroke="#000000" stroke-width="2" d="M349.5666,-256.7927C344.6727,-249.6057 338.29,-240.2323 332.9341,-232.3666"/>
<polygon fill="#000000" stroke="#000000" stroke-width="2" points="334.3409,-231.3233 330.0801,-228.1754 331.4479,-233.2933 334.3409,-231.3233"/>
</g>
<!-- n18 -->
<g id="node19" class="node">
<title>n18</title>
<polygon fill="#ffffff" stroke="#000000" stroke-width="2" points="376.3342,-228.2036 354.3342,-228.2036 354.3342,-205.3964 376.3342,-205.3964 376.3342,-228.2036"/>
<text text-anchor="middle" x="365.3342" y="-213.2" font-family="Helvetica,sans-Serif" font-weight="bold" font-size="12.00" fill="#0000ff">y</text>
</g>
<!-- n16&#45;&gt;n18 -->
<g id="edge18" class="edge">
<title>n16-&gt;n18</title>
<path fill="none" stroke="#000000" stroke-width="2" d="M359.1097,-256.7927C360.1868,-249.8719 361.5796,-240.9236 362.7744,-233.2466"/>
<polygon fill="#000000" stroke="#000000" stroke-width="2" points="364.5239,-233.3851 363.5637,-228.1754 361.0655,-232.8468 364.5239,-233.3851"/>
</g>
<!-- n20 -->
<g id="node21" class="node">
<title>n20</title>
<polygon fill="#ffffff" stroke="#000000" stroke-width="2" points="439.3386,-228.2036 401.3298,-228.2036 401.3298,-205.3964 439.3386,-205.3964 439.3386,-228.2036"/>
<text text-anchor="middle" x="420.3342" y="-213.2" font-family="Helvetica,sans-Serif" font-weight="bold" font-size="12.00" fill="#0000ff">void</text>
</g>
<!-- n19&#45;&gt;n20 -->
<g id="edge20" class="edge">
<title>n19-&gt;n20</title>
<path fill="none" stroke="#000000" stroke-width="2" d="M461.5718,-256.7927C454.0239,-249.4726 444.1371,-239.8843 435.9364,-231.9312"/>
<polygon fill="#000000" stroke="#000000" stroke-width="2" points="436.8714,-230.4001 432.0637,-228.1754 434.4347,-232.9127 436.8714,-230.4001"/>
</g>
<!-- n21 -->
<g id="node22" class="node">
<title>n21</title>
<polygon fill="#ffffff" stroke="#000000" stroke-width="2" points="489.5122,-228.2036 457.1562,-228.2036 457.1562,-205.3964 489.5122,-205.3964 489.5122,-228.2036"/>
<text text-anchor="middle" x="473.3342" y="-213.2" font-family="Helvetica,sans-Serif" font-weight="bold" font-size="12.00" fill="#0000ff">foo</text>
</g>
<!-- n19&#45;&gt;n21 -->
<g id="edge21" class="edge">
<title>n19-&gt;n21</title>
<path fill="none" stroke="#000000" stroke-width="2" d="M473.3342,-256.7927C473.3342,-249.8719 473.3342,-240.9236 473.3342,-233.2466"/>
<polygon fill="#000000" stroke="#000000" stroke-width="2" points="475.0843,-233.1754 473.3342,-228.1754 471.5843,-233.1755 475.0843,-233.1754"/>
</g>
<!-- n22 -->
<g id="node23" class="node">
<title>n22</title>
<polygon fill="#ffffff" stroke="#000000" stroke-width="2" points="564.5091,-228.2036 508.1593,-228.2036 508.1593,-205.3964 564.5091,-205.3964 564.5091,-228.2036"/>
<text text-anchor="middle" x="536.3342" y="-213.2" font-family="Helvetica,sans-Serif" font-weight="bold" font-size="12.00" fill="#0000ff">BLOCK</text>
</g>
<!-- n19&#45;&gt;n22 -->
<g id="edge22" class="edge">
<title>n19-&gt;n22</title>
<path fill="none" stroke="#000000" stroke-width="2" d="M487.3159,-256.7927C496.4511,-249.3395 508.4684,-239.5349 518.3178,-231.4991"/>
<polygon fill="#000000" stroke="#000000" stroke-width="2" points="519.6237,-232.6923 522.3915,-228.1754 517.4111,-229.9803 519.6237,-232.6923"/>
</g>
<!-- n23 -->
<g id="node24" class="node">
<title>n23</title>
<polygon fill="#ffffff" stroke="#000000" stroke-width="2" points="576.1733,-176.8036 496.4951,-176.8036 496.4951,-153.9964 576.1733,-153.9964 576.1733,-176.8036"/>
<text text-anchor="middle" x="536.3342" y="-161.8" font-family="Helvetica,sans-Serif" font-weight="bold" font-size="12.00" fill="#0000ff">VAR_DECL</text>
</g>
<!-- n22&#45;&gt;n23 -->
<g id="edge23" class="edge">
<title>n22-&gt;n23</title>
<path fill="none" stroke="#000000" stroke-width="2" d="M536.3342,-205.3927C536.3342,-198.4719 536.3342,-189.5236 536.3342,-181.8466"/>
<polygon fill="#000000" stroke="#000000" stroke-width="2" points="538.0843,-181.7754 536.3342,-176.7754 534.5843,-181.7755 538.0843,-181.7754"/>
</g>
<!-- n24 -->
<g id="node25" class="node">
<title>n24</title>
<polygon fill="#ffffff" stroke="#000000" stroke-width="2" points="507.5045,-125.4036 479.1639,-125.4036 479.1639,-102.5964 507.5045,-102.5964 507.5045,-125.4036"/>
<text text-anchor="middle" x="493.3342" y="-110.4" font-family="Helvetica,sans-Serif" font-weight="bold" font-size="12.00" fill="#0000ff">int</text>
</g>
<!-- n23&#45;&gt;n24 -->
<g id="edge24" class="edge">
<title>n23-&gt;n24</title>
<path fill="none" stroke="#000000" stroke-width="2" d="M526.7911,-153.9927C520.7787,-146.8057 512.9371,-137.4323 506.3569,-129.5666"/>
<polygon fill="#000000" stroke="#000000" stroke-width="2" points="507.4012,-128.0875 502.8506,-125.3754 504.7167,-130.3333 507.4012,-128.0875"/>
</g>
<!-- n25 -->
<g id="node26" class="node">
<title>n25</title>
<polygon fill="#ffffff" stroke="#000000" stroke-width="2" points="547.3342,-125.4036 525.3342,-125.4036 525.3342,-102.5964 547.3342,-102.5964 547.3342,-125.4036"/>
<text text-anchor="middle" x="536.3342" y="-110.4" font-family="Helvetica,sans-Serif" font-weight="bold" font-size="12.00" fill="#0000ff">z</text>
</g>
<!-- n23&#45;&gt;n25 -->
<g id="edge25" class="edge">
<title>n23-&gt;n25</title>
<path fill="none" stroke="#000000" stroke-width="2" d="M536.3342,-153.9927C536.3342,-147.0719 536.3342,-138.1236 536.3342,-130.4466"/>
<polygon fill="#000000" stroke="#000000" stroke-width="2" points="538.0843,-130.3754 536.3342,-125.3754 534.5843,-130.3755 538.0843,-130.3754"/>
</g>
<!-- n26 -->
<g id="node27" class="node">
<title>n26</title>
<polygon fill="#ffffff" stroke="#000000" stroke-width="2" points="613.5065,-125.4036 565.1619,-125.4036 565.1619,-102.5964 613.5065,-102.5964 613.5065,-125.4036"/>
<text text-anchor="middle" x="589.3342" y="-110.4" font-family="Helvetica,sans-Serif" font-weight="bold" font-size="12.00" fill="#0000ff">EXPR</text>
</g>
<!-- n23&#45;&gt;n26 -->
<g id="edge26" class="edge">
<title>n23-&gt;n26</title>
<path fill="none" stroke="#000000" stroke-width="2" d="M548.0966,-153.9927C555.6445,-146.6726 565.5313,-137.0843 573.732,-129.1312"/>
<polygon fill="#000000" stroke="#000000" stroke-width="2" points="575.2337,-130.1127 577.6047,-125.3754 572.797,-127.6001 575.2337,-130.1127"/>
</g>
<!-- n27 -->
<g id="node28" class="node">
<title>n27</title>
<polygon fill="#ffffff" stroke="#000000" stroke-width="2" points="600.841,-74.0036 577.8274,-74.0036 577.8274,-51.1964 600.841,-51.1964 600.841,-74.0036"/>
<text text-anchor="middle" x="589.3342" y="-59" font-family="Helvetica,sans-Serif" font-weight="bold" font-size="12.00" fill="#0000ff">+</text>
</g>
<!-- n26&#45;&gt;n27 -->
<g id="edge27" class="edge">
<title>n26-&gt;n27</title>
<path fill="none" stroke="#000000" stroke-width="2" d="M589.3342,-102.5927C589.3342,-95.6719 589.3342,-86.7236 589.3342,-79.0466"/>
<polygon fill="#000000" stroke="#000000" stroke-width="2" points="591.0843,-78.9754 589.3342,-73.9754 587.5843,-78.9755 591.0843,-78.9754"/>
</g>
<!-- n28 -->
<g id="node29" class="node">
<title>n28</title>
<polygon fill="#ffffff" stroke="#000000" stroke-width="2" points="580.3342,-22.6036 558.3342,-22.6036 558.3342,.2036 580.3342,.2036 580.3342,-22.6036"/>
<text text-anchor="middle" x="569.3342" y="-7.6" font-family="Helvetica,sans-Serif" font-weight="bold" font-size="12.00" fill="#0000ff">x</text>
</g>
<!-- n27&#45;&gt;n28 -->
<g id="edge28" class="edge">
<title>n27-&gt;n28</title>
<path fill="none" stroke="#000000" stroke-width="2" d="M584.8956,-51.1927C582.2026,-44.2719 578.7208,-35.3236 575.7337,-27.6466"/>
<polygon fill="#000000" stroke="#000000" stroke-width="2" points="577.2045,-26.6005 573.7604,-22.5754 573.9427,-27.8697 577.2045,-26.6005"/>
</g>
<!-- n29 -->
<g id="node30" class="node">
<title>n29</title>
<polygon fill="#ffffff" stroke="#000000" stroke-width="2" points="620.3342,-22.6036 598.3342,-22.6036 598.3342,.2036 620.3342,.2036 620.3342,-22.6036"/>
<text text-anchor="middle" x="609.3342" y="-7.6" font-family="Helvetica,sans-Serif" font-weight="bold" font-size="12.00" fill="#0000ff">y</text>
</g>
<!-- n27&#45;&gt;n29 -->
<g id="edge29" class="edge">
<title>n27-&gt;n29</title>
<path fill="none" stroke="#000000" stroke-width="2" d="M593.7728,-51.1927C596.4658,-44.2719 599.9476,-35.3236 602.9347,-27.6466"/>
<polygon fill="#000000" stroke="#000000" stroke-width="2" points="604.7257,-27.8697 604.908,-22.5754 601.4639,-26.6005 604.7257,-27.8697"/>
</g>
</g>
</svg>