<?xml version="1.0" encoding="UTF-8" standalone="no"?><!DOCTYPE svg PUBLIC "-//W3C//DTD SVG 1.1//EN" "http://www.w3.org/Graphics/SVG/1.1/DTD/svg11.dtd"><!-- Generated by graphviz version 2.40.1 (20161225.0304)
 --><!-- Title: %0 Pages: 1 --><svg xmlns="http://www.w3.org/2000/svg" xmlns:xlink="http://www.w3.org/1999/xlink" width="454pt" height="386pt" viewBox="0.00 0.00 454.34 385.80">
<g id="graph0" class="graph" transform="scale(1 1) rotate(0) translate(4 381.8)">
<title>%0</title>
<polygon fill="#d3d3d3" stroke="transparent" points="-4,4 -4,-381.8 450.3382,-381.8 450.3382,4 -4,4"/>
<!-- n0 -->
<g id="node1" class="node">
<title>n0</title>
<polygon fill="#ffffff" stroke="#000000" stroke-width="2" points="303.0022,-377.8 285.0022,-377.8 285.0022,-359.8 303.0022,-359.8 303.0022,-377.8"/>
</g>
<!-- n1 -->
<g id="node2" class="node">
<title>n1</title>
<polygon fill="#ffffff" stroke="#000000" stroke-width="2" points="282.8371,-331.0036 239.1673,-331.0036 239.1673,-308.1964 282.8371,-308.1964 282.8371,-331.0036"/>
<text text-anchor="middle" x="261.0022" y="-316" font-family="Helvetica,sans-Serif" font-weight="bold" font-size="12.00" fill="#0000ff">class</text>
</g>
<!-- n0&#45;&gt;n1 -->
<g id="edge1" class="edge">
<title>n0-&gt;n1</title>
<path fill="none" stroke="#000000" stroke-width="2" d="M287.9495,-359.776C283.3652,-352.9412 276.953,-343.3813 271.5337,-335.3015"/>
<polygon fill="#000000" stroke="#000000" stroke-width="2" points="272.8816,-334.1694 268.643,-330.9918 269.9749,-336.1191 272.8816,-334.1694"/>
</g>
<!-- n28 -->
<g id="node29" class="node">
<title>n28</title>
<polygon fill="#ffffff" stroke="#000000" stroke-width="2" points="355.1851,-331.0036 300.8193,-331.0036 300.8193,-308.1964 355.1851,-308.1964 355.1851,-331.0036"/>
<text text-anchor="middle" x="328.0022" y="-316" font-family="Helvetica,sans-Serif" font-weight="bold" font-size="12.00" fill="#0000ff">&lt;EOF&gt;</text>
</g>
<!-- n0&#45;&gt;n28 -->
<g id="edge28" class="edge">
<title>n0-&gt;n28</title>
<path fill="none" stroke="#000000" stroke-width="2" d="M300.2383,-359.776C304.9616,-352.9412 311.568,-343.3813 317.1515,-335.3015"/>
<polygon fill="#000000" stroke="#000000" stroke-width="2" points="318.7269,-336.1001 320.1298,-330.9918 315.8475,-334.1103 318.7269,-336.1001"/>
</g>
<!-- n2 -->
<g id="node3" class="node">
<title>n2</title>
<polygon fill="#ffffff" stroke="#000000" stroke-width="2" points="239.005,-279.6036 214.9994,-279.6036 214.9994,-256.7964 239.005,-256.7964 239.005,-279.6036"/>
<text text-anchor="middle" x="227.0022" y="-264.6" font-family="Helvetica,sans-Serif" font-weight="bold" font-size="12.00" fill="#0000ff">A</text>
</g>
<!-- n1&#45;&gt;n2 -->
<g id="edge2" class="edge">
<title>n1-&gt;n2</title>
<path fill="none" stroke="#000000" stroke-width="2" d="M253.4565,-308.1927C248.7025,-301.0057 242.5021,-291.6323 237.2992,-283.7666"/>
<polygon fill="#000000" stroke="#000000" stroke-width="2" points="238.7449,-282.7802 234.5268,-279.5754 235.8258,-284.7112 238.7449,-282.7802"/>
</g>
<!-- n3 -->
<g id="node4" class="node">
<title>n3</title>
<polygon fill="#ffffff" stroke="#000000" stroke-width="2" points="333.1665,-279.6036 256.8379,-279.6036 256.8379,-256.7964 333.1665,-256.7964 333.1665,-279.6036"/>
<text text-anchor="middle" x="295.0022" y="-264.6" font-family="Helvetica,sans-Serif" font-weight="bold" font-size="12.00" fill="#0000ff">MEMBERS</text>
</g>
<!-- n1&#45;&gt;n3 -->
<g id="edge3" class="edge">
<title>n1-&gt;n3</title>
<path fill="none" stroke="#000000" stroke-width="2" d="M268.5479,-308.1927C273.3019,-301.0057 279.5023,-291.6323 284.7052,-283.7666"/>
<polygon fill="#000000" stroke="#000000" stroke-width="2" points="286.1786,-284.7112 287.4776,-279.5754 283.2595,-282.7802 286.1786,-284.7112"/>
</g>
<!-- n4 -->
<g id="node5" class="node">
<title>n4</title>
<polygon fill="#ffffff" stroke="#000000" stroke-width="2" points="200.1615,-228.2036 93.8429,-228.2036 93.8429,-205.3964 200.1615,-205.3964 200.1615,-228.2036"/>
<text text-anchor="middle" x="147.0022" y="-213.2" font-family="Helvetica,sans-Serif" font-weight="bold" font-size="12.00" fill="#0000ff">METHOD_DECL</text>
</g>
<!-- n3&#45;&gt;n4 -->
<g id="edge4" class="edge">
<title>n3-&gt;n4</title>
<path fill="none" stroke="#000000" stroke-width="2" d="M262.523,-256.9201C239.389,-248.8857 208.2506,-238.0714 184.1314,-229.6949"/>
<polygon fill="#000000" stroke="#000000" stroke-width="2" points="184.7031,-228.0409 179.4057,-228.0536 183.5548,-231.3472 184.7031,-228.0409"/>
</g>
<!-- n22 -->
<g id="node23" class="node">
<title>n22</title>
<polygon fill="#ffffff" stroke="#000000" stroke-width="2" points="339.1748,-228.2036 250.8296,-228.2036 250.8296,-205.3964 339.1748,-205.3964 339.1748,-228.2036"/>
<text text-anchor="middle" x="295.0022" y="-213.2" font-family="Helvetica,sans-Serif" font-weight="bold" font-size="12.00" fill="#0000ff">FIELD_DECL</text>
</g>
<!-- n3&#45;&gt;n22 -->
<g id="edge22" class="edge">
<title>n3-&gt;n22</title>
<path fill="none" stroke="#000000" stroke-width="2" d="M295.0022,-256.7927C295.0022,-249.8719 295.0022,-240.9236 295.0022,-233.2466"/>
<polygon fill="#000000" stroke="#000000" stroke-width="2" points="296.7523,-233.1754 295.0022,-228.1754 293.2523,-233.1755 296.7523,-233.1754"/>
</g>
<!-- n25 -->
<g id="node26" class="node">
<title>n25</title>
<polygon fill="#ffffff" stroke="#000000" stroke-width="2" points="446.1748,-228.2036 357.8296,-228.2036 357.8296,-205.3964 446.1748,-205.3964 446.1748,-228.2036"/>
<text text-anchor="middle" x="402.0022" y="-213.2" font-family="Helvetica,sans-Serif" font-weight="bold" font-size="12.00" fill="#0000ff">FIELD_DECL</text>
</g>
<!-- n3&#45;&gt;n25 -->
<g id="edge25" class="edge">
<title>n3-&gt;n25</title>
<path fill="none" stroke="#000000" stroke-width="2" d="M318.4838,-256.9201C334.7909,-249.0866 356.5993,-238.6104 373.8416,-230.3276"/>
<polygon fill="#000000" stroke="#000000" stroke-width="2" points="374.8262,-231.7962 378.5754,-228.0536 373.3106,-228.6413 374.8262,-231.7962"/>
</g>
<!-- n5 -->
<g id="node6" class="node">
<title>n5</title>
<polygon fill="#ffffff" stroke="#000000" stroke-width="2" points="38.0066,-176.8036 -.0022,-176.8036 -.0022,-153.9964 38.0066,-153.9964 38.0066,-176.8036"/>
<text text-anchor="middle" x="19.0022" y="-161.8" font-family="Helvetica,sans-Serif" font-weight="bold" font-size="12.00" fill="#0000ff">void</text>
</g>
<!-- n4&#45;&gt;n5 -->
<g id="edge5" class="edge">
<title>n4-&gt;n5</title>
<path fill="none" stroke="#000000" stroke-width="2" d="M118.9121,-205.5201C96.1975,-196.3988 64.5603,-183.6944 43.0133,-175.042"/>
<polygon fill="#000000" stroke="#000000" stroke-width="2" points="43.5979,-173.3909 38.3059,-173.1516 42.2936,-176.6388 43.5979,-173.3909"/>
</g>
<!-- n6 -->
<g id="node7" class="node">
<title>n6</title>
<polygon fill="#ffffff" stroke="#000000" stroke-width="2" points="88.1802,-176.8036 55.8242,-176.8036 55.8242,-153.9964 88.1802,-153.9964 88.1802,-176.8036"/>
<text text-anchor="middle" x="72.0022" y="-161.8" font-family="Helvetica,sans-Serif" font-weight="bold" font-size="12.00" fill="#0000ff">foo</text>
</g>
<!-- n4&#45;&gt;n6 -->
<g id="edge6" class="edge">
<title>n4-&gt;n6</title>
<path fill="none" stroke="#000000" stroke-width="2" d="M130.3573,-205.3927C119.211,-197.7538 104.4604,-187.6447 92.5784,-179.5015"/>
<polygon fill="#000000" stroke="#000000" stroke-width="2" points="93.4563,-177.9817 88.3426,-176.5986 91.4776,-180.8687 93.4563,-177.9817"/>
</g>
<!-- n7 -->
<g id="node8" class="node">
<title>n7</title>
<polygon fill="#ffffff" stroke="#000000" stroke-width="2" points="187.1733,-176.8036 106.8311,-176.8036 106.8311,-153.9964 187.1733,-153.9964 187.1733,-176.8036"/>
<text text-anchor="middle" x="147.0022" y="-161.8" font-family="Helvetica,sans-Serif" font-weight="bold" font-size="12.00" fill="#0000ff">ARG_DECL</text>
</g>
<!-- n4&#45;&gt;n7 -->
<g id="edge7" class="edge">
<title>n4-&gt;n7</title>
<path fill="none" stroke="#000000" stroke-width="2" d="M147.0022,-205.3927C147.0022,-198.4719 147.0022,-189.5236 147.0022,-181.8466"/>
<polygon fill="#000000" stroke="#000000" stroke-width="2" points="148.7523,-181.7754 147.0022,-176.7754 145.2523,-181.7755 148.7523,-181.7754"/>
</g>
<!-- n10 -->
<g id="node11" class="node">
<title>n10</title>
<polygon fill="#ffffff" stroke="#000000" stroke-width="2" points="262.1771,-176.8036 205.8273,-176.8036 205.8273,-153.9964 262.1771,-153.9964 262.1771,-176.8036"/>
<text text-anchor="middle" x="234.0022" y="-161.8" font-family="Helvetica,sans-Serif" font-weight="bold" font-size="12.00" fill="#0000ff">BLOCK</text>
</g>
<!-- n4&#45;&gt;n10 -->
<g id="edge10" class="edge">
<title>n4-&gt;n10</title>
<path fill="none" stroke="#000000" stroke-width="2" d="M166.3103,-205.3927C179.2634,-197.7399 196.4128,-187.608 210.2089,-179.4572"/>
<polygon fill="#000000" stroke="#000000" stroke-width="2" points="211.3334,-180.8255 214.7481,-176.7754 209.553,-177.8121 211.3334,-180.8255"/>
</g>
<!-- n8 -->
<g id="node9" class="node">
<title>n8</title>
<polygon fill="#ffffff" stroke="#000000" stroke-width="2" points="118.1725,-125.4036 89.8319,-125.4036 89.8319,-102.5964 118.1725,-102.5964 118.1725,-125.4036"/>
<text text-anchor="middle" x="104.0022" y="-110.4" font-family="Helvetica,sans-Serif" font-weight="bold" font-size="12.00" fill="#0000ff">int</text>
</g>
<!-- n7&#45;&gt;n8 -->
<g id="edge8" class="edge">
<title>n7-&gt;n8</title>
<path fill="none" stroke="#000000" stroke-width="2" d="M137.4591,-153.9927C131.4467,-146.8057 123.6051,-137.4323 117.0249,-129.5666"/>
<polygon fill="#000000" stroke="#000000" stroke-width="2" points="118.0692,-128.0875 113.5186,-125.3754 115.3847,-130.3333 118.0692,-128.0875"/>
</g>
<!-- n9 -->
<g id="node10" class="node">
<title>n9</title>
<polygon fill="#ffffff" stroke="#000000" stroke-width="2" points="158.0022,-125.4036 136.0022,-125.4036 136.0022,-102.5964 158.0022,-102.5964 158.0022,-125.4036"/>
<text text-anchor="middle" x="147.0022" y="-110.4" font-family="Helvetica,sans-Serif" font-weight="bold" font-size="12.00" fill="#0000ff">z</text>
</g>
<!-- n7&#45;&gt;n9 -->
<g id="edge9" class="edge">
<title>n7-&gt;n9</title>
<path fill="none" stroke="#000000" stroke-width="2" d="M147.0022,-153.9927C147.0022,-147.0719 147.0022,-138.1236 147.0022,-130.4466"/>
<polygon fill="#000000" stroke="#000000" stroke-width="2" points="148.7523,-130.3754 147.0022,-125.3754 145.2523,-130.3755 148.7523,-130.3754"/>
</g>
<!-- n11 -->
<g id="node12" class="node">
<title>n11</title>
<polygon fill="#ffffff" stroke="#000000" stroke-width="2" points="255.8413,-125.4036 176.1631,-125.4036 176.1631,-102.5964 255.8413,-102.5964 255.8413,-125.4036"/>
<text text-anchor="middle" x="216.0022" y="-110.4" font-family="Helvetica,sans-Serif" font-weight="bold" font-size="12.00" fill="#0000ff">VAR_DECL</text>
</g>
<!-- n10&#45;&gt;n11 -->
<g id="edge11" class="edge">
<title>n10-&gt;n11</title>
<path fill="none" stroke="#000000" stroke-width="2" d="M230.0074,-153.9927C227.5838,-147.0719 224.4501,-138.1236 221.7617,-130.4466"/>
<polygon fill="#000000" stroke="#000000" stroke-width="2" points="223.2901,-129.516 219.9858,-125.3754 219.9868,-130.6729 223.2901,-129.516"/>
</g>
<!-- n14 -->
<g id="node15" class="node">
<title>n14</title>
<polygon fill="#ffffff" stroke="#000000" stroke-width="2" points="296.509,-125.4036 273.4954,-125.4036 273.4954,-102.5964 296.509,-102.5964 296.509,-125.4036"/>
<text text-anchor="middle" x="285.0022" y="-110.4" font-family="Helvetica,sans-Serif" font-weight="bold" font-size="12.00" fill="#0000ff">=</text>
</g>
<!-- n10&#45;&gt;n14 -->
<g id="edge14" class="edge">
<title>n10-&gt;n14</title>
<path fill="none" stroke="#000000" stroke-width="2" d="M245.3208,-153.9927C252.5838,-146.6726 262.0975,-137.0843 269.9887,-129.1312"/>
<polygon fill="#000000" stroke="#000000" stroke-width="2" points="271.4358,-130.1574 273.7153,-125.3754 268.9513,-127.6922 271.4358,-130.1574"/>
</g>
<!-- n18 -->
<g id="node19" class="node">
<title>n18</title>
<polygon fill="#ffffff" stroke="#000000" stroke-width="2" points="373.509,-125.4036 350.4954,-125.4036 350.4954,-102.5964 373.509,-102.5964 373.509,-125.4036"/>
<text text-anchor="middle" x="362.0022" y="-110.4" font-family="Helvetica,sans-Serif" font-weight="bold" font-size="12.00" fill="#0000ff">=</text>
</g>
<!-- n10&#45;&gt;n18 -->
<g id="edge18" class="edge">
<title>n10-&gt;n18</title>
<path fill="none" stroke="#000000" stroke-width="2" d="M262.0923,-154.1201C287.7091,-143.8333 324.6744,-128.9894 345.7165,-120.5397"/>
<polygon fill="#000000" stroke="#000000" stroke-width="2" points="346.4685,-122.1237 350.4562,-118.6364 345.1642,-118.8757 346.4685,-122.1237"/>
</g>
<!-- n12 -->
<g id="node13" class="node">
<title>n12</title>
<polygon fill="#ffffff" stroke="#000000" stroke-width="2" points="186.1725,-74.0036 157.8319,-74.0036 157.8319,-51.1964 186.1725,-51.1964 186.1725,-74.0036"/>
<text text-anchor="middle" x="172.0022" y="-59" font-family="Helvetica,sans-Serif" font-weight="bold" font-size="12.00" fill="#0000ff">int</text>
</g>
<!-- n11&#45;&gt;n12 -->
<g id="edge12" class="edge">
<title>n11-&gt;n12</title>
<path fill="none" stroke="#000000" stroke-width="2" d="M206.2372,-102.5927C200.0849,-95.4057 192.0609,-86.0323 185.3277,-78.1666"/>
<polygon fill="#000000" stroke="#000000" stroke-width="2" points="186.3209,-76.6358 181.7399,-73.9754 183.662,-78.9119 186.3209,-76.6358"/>
</g>
<!-- n13 -->
<g id="node14" class="node">
<title>n13</title>
<polygon fill="#ffffff" stroke="#000000" stroke-width="2" points="227.1754,-74.0036 204.829,-74.0036 204.829,-51.1964 227.1754,-51.1964 227.1754,-74.0036"/>
<text text-anchor="middle" x="216.0022" y="-59" font-family="Helvetica,sans-Serif" font-weight="bold" font-size="12.00" fill="#0000ff">a</text>
</g>
<!-- n11&#45;&gt;n13 -->
<g id="edge13" class="edge">
<title>n11-&gt;n13</title>
<path fill="none" stroke="#000000" stroke-width="2" d="M216.0022,-102.5927C216.0022,-95.6719 216.0022,-86.7236 216.0022,-79.0466"/>
<polygon fill="#000000" stroke="#000000" stroke-width="2" points="217.7523,-78.9754 216.0022,-73.9754 214.2523,-78.9755 217.7523,-78.9754"/>
</g>
<!-- n15 -->
<g id="node16" class="node">
<title>n15</title>
<polygon fill="#ffffff" stroke="#000000" stroke-width="2" points="267.0022,-74.0036 245.0022,-74.0036 245.0022,-51.1964 267.0022,-51.1964 267.0022,-74.0036"/>
<text text-anchor="middle" x="256.0022" y="-59" font-family="Helvetica,sans-Serif" font-weight="bold" font-size="12.00" fill="#0000ff">x</text>
</g>
<!-- n14&#45;&gt;n15 -->
<g id="edge15" class="edge">
<title>n14-&gt;n15</title>
<path fill="none" stroke="#000000" stroke-width="2" d="M278.5662,-102.5927C274.5864,-95.5388 269.4182,-86.3787 265.0323,-78.6051"/>
<polygon fill="#000000" stroke="#000000" stroke-width="2" points="266.4014,-77.4702 262.4202,-73.9754 263.3531,-79.1901 266.4014,-77.4702"/>
</g>
<!-- n16 -->
<g id="node17" class="node">
<title>n16</title>
<polygon fill="#ffffff" stroke="#000000" stroke-width="2" points="333.1745,-74.0036 284.8299,-74.0036 284.8299,-51.1964 333.1745,-51.1964 333.1745,-74.0036"/>
<text text-anchor="middle" x="309.0022" y="-59" font-family="Helvetica,sans-Serif" font-weight="bold" font-size="12.00" fill="#0000ff">EXPR</text>
</g>
<!-- n14&#45;&gt;n16 -->
<g id="edge16" class="edge">
<title>n14-&gt;n16</title>
<path fill="none" stroke="#000000" stroke-width="2" d="M290.3286,-102.5927C293.6222,-95.5388 297.8993,-86.3787 301.529,-78.6051"/>
<polygon fill="#000000" stroke="#000000" stroke-width="2" points="303.1609,-79.2463 303.6907,-73.9754 299.9896,-77.7655 303.1609,-79.2463"/>
</g>
<!-- n17 -->
<g id="node18" class="node">
<title>n17</title>
<polygon fill="#ffffff" stroke="#000000" stroke-width="2" points="320.1754,-22.6036 297.829,-22.6036 297.829,.2036 320.1754,.2036 320.1754,-22.6036"/>
<text text-anchor="middle" x="309.0022" y="-7.6" font-family="Helvetica,sans-Serif" font-weight="bold" font-size="12.00" fill="#0000ff">3</text>
</g>
<!-- n16&#45;&gt;n17 -->
<g id="edge17" class="edge">
<title>n16-&gt;n17</title>
<path fill="none" stroke="#000000" stroke-width="2" d="M309.0022,-51.1927C309.0022,-44.2719 309.0022,-35.3236 309.0022,-27.6466"/>
<polygon fill="#000000" stroke="#000000" stroke-width="2" points="310.7523,-27.5754 309.0022,-22.5754 307.2523,-27.5755 310.7523,-27.5754"/>
</g>
<!-- n19 -->
<g id="node20" class="node">
<title>n19</title>
<polygon fill="#ffffff" stroke="#000000" stroke-width="2" points="373.0022,-74.0036 351.0022,-74.0036 351.0022,-51.1964 373.0022,-51.1964 373.0022,-74.0036"/>
<text text-anchor="middle" x="362.0022" y="-59" font-family="Helvetica,sans-Serif" font-weight="bold" font-size="12.00" fill="#0000ff">y</text>
</g>
<!-- n18&#45;&gt;n19 -->
<g id="edge19" class="edge">
<title>n18-&gt;n19</title>
<path fill="none" stroke="#000000" stroke-width="2" d="M362.0022,-102.5927C362.0022,-95.6719 362.0022,-86.7236 362.0022,-79.0466"/>
<polygon fill="#000000" stroke="#000000" stroke-width="2" points="363.7523,-78.9754 362.0022,-73.9754 360.2523,-78.9755 363.7523,-78.9754"/>
</g>
<!-- n20 -->
<g id="node21" class="node">
<title>n20</title>
<polygon fill="#ffffff" stroke="#000000" stroke-width="2" points="439.1745,-74.0036 390.8299,-74.0036 390.8299,-51.1964 439.1745,-51.1964 439.1745,-74.0036"/>
<text text-anchor="middle" x="415.0022" y="-59" font-family="Helvetica,sans-Serif" font-weight="bold" font-size="12.00" fill="#0000ff">EXPR</text>
</g>
<!-- n18&#45;&gt;n20 -->
<g id="edge20" class="edge">
<title>n18-&gt;n20</title>
<path fill="none" stroke="#000000" stroke-width="2" d="M373.7646,-102.5927C381.3125,-95.2726 391.1993,-85.6843 399.4,-77.7312"/>
<polygon fill="#000000" stroke="#000000" stroke-width="2" points="400.9017,-78.7127 403.2727,-73.9754 398.465,-76.2001 400.9017,-78.7127"/>
</g>
<!-- n21 -->
<g id="node22" class="node">
<title>n21</title>
<polygon fill="#ffffff" stroke="#000000" stroke-width="2" points="426.0022,-22.6036 404.0022,-22.6036 404.0022,.2036 426.0022,.2036 426.0022,-22.6036"/>
<text text-anchor="middle" x="415.0022" y="-7.6" font-family="Helvetica,sans-Serif" font-weight="bold" font-size="12.00" fill="#0000ff">z</text>
</g>
<!-- n20&#45;&gt;n21 -->
<g id="edge21" class="edge">
<title>n20-&gt;n21</title>
<path fill="none" stroke="#000000" stroke-width="2" d="M415.0022,-51.1927C415.0022,-44.2719 415.0022,-35.3236 415.0022,-27.6466"/>
<polygon fill="#000000" stroke="#000000" stroke-width="2" points="416.7523,-27.5754 415.0022,-22.5754 413.2523,-27.5755 416.7523,-27.5754"/>
</g>
<!-- n23 -->
<g id="node24" class="node">
<title>n23</title>
<polygon fill="#ffffff" stroke="#000000" stroke-width="2" points="309.1725,-176.8036 280.8319,-176.8036 280.8319,-153.9964 309.1725,-153.9964 309.1725,-176.8036"/>
<text text-anchor="middle" x="295.0022" y="-161.8" font-family="Helvetica,sans-Serif" font-weight="bold" font-size="12.00" fill="#0000ff">int</text>
</g>
<!-- n22&#45;&gt;n23 -->
<g id="edge23" class="edge">
<title>n22-&gt;n23</title>
<path fill="none" stroke="#000000" stroke-width="2" d="M295.0022,-205.3927C295.0022,-198.4719 295.0022,-189.5236 295.0022,-181.8466"/>
<polygon fill="#000000" stroke="#000000" stroke-width="2" points="296.7523,-181.7754 295.0022,-176.7754 293.2523,-181.7755 296.7523,-181.7754"/>
</g>
<!-- n24 -->
<g id="node25" class="node">
<title>n24</title>
<polygon fill="#ffffff" stroke="#000000" stroke-width="2" points="349.0022,-176.8036 327.0022,-176.8036 327.0022,-153.9964 349.0022,-153.9964 349.0022,-176.8036"/>
<text text-anchor="middle" x="338.0022" y="-161.8" font-family="Helvetica,sans-Serif" font-weight="bold" font-size="12.00" fill="#0000ff">x</text>
</g>
<!-- n22&#45;&gt;n24 -->
<g id="edge24" class="edge">
<title>n22-&gt;n24</title>
<path fill="none" stroke="#000000" stroke-width="2" d="M304.5453,-205.3927C310.5577,-198.2057 318.3993,-188.8323 324.9795,-180.9666"/>
<polygon fill="#000000" stroke="#000000" stroke-width="2" points="326.6197,-181.7333 328.4858,-176.7754 323.9352,-179.4875 326.6197,-181.7333"/>
</g>
<!-- n26 -->
<g id="node27" class="node">
<title>n26</title>
<polygon fill="#ffffff" stroke="#000000" stroke-width="2" points="406.1725,-176.8036 377.8319,-176.8036 377.8319,-153.9964 406.1725,-153.9964 406.1725,-176.8036"/>
<text text-anchor="middle" x="392.0022" y="-161.8" font-family="Helvetica,sans-Serif" font-weight="bold" font-size="12.00" fill="#0000ff">int</text>
</g>
<!-- n25&#45;&gt;n26 -->
<g id="edge26" class="edge">
<title>n25-&gt;n26</title>
<path fill="none" stroke="#000000" stroke-width="2" d="M399.7829,-205.3927C398.4364,-198.4719 396.6955,-189.5236 395.2019,-181.8466"/>
<polygon fill="#000000" stroke="#000000" stroke-width="2" points="396.8881,-181.3492 394.2153,-176.7754 393.4525,-182.0176 396.8881,-181.3492"/>
</g>
<!-- n27 -->
<g id="node28" class="node">
<title>n27</title>
<polygon fill="#ffffff" stroke="#000000" stroke-width="2" points="446.0022,-176.8036 424.0022,-176.8036 424.0022,-153.9964 446.0022,-153.9964 446.0022,-176.8036"/>
<text text-anchor="middle" x="435.0022" y="-161.8" font-family="Helvetica,sans-Serif" font-weight="bold" font-size="12.00" fill="#0000ff">y</text>
</g>
<!-- n25&#45;&gt;n27 -->
<g id="edge27" class="edge">
<title>n25-&gt;n27</title>
<path fill="none" stroke="#000000" stroke-width="2" d="M409.326,-205.3927C413.8547,-198.3388 419.7357,-189.1787 424.7265,-181.4051"/>
<polygon fill="#000000" stroke="#000000" stroke-width="2" points="426.4702,-181.9284 427.6989,-176.7754 423.5249,-180.0375 426.4702,-181.9284"/>
</g>
</g>
</svg>