<?xml version="1.0" encoding="UTF-8" standalone="no"?><!DOCTYPE svg PUBLIC "-//W3C//DTD SVG 1.1//EN" "http://www.w3.org/Graphics/SVG/1.1/DTD/svg11.dtd"><!-- Generated by graphviz version 2.40.1 (20161225.0304)
 --><!-- Title: %0 Pages: 1 --><svg xmlns="http://www.w3.org/2000/svg" xmlns:xlink="http://www.w3.org/1999/xlink" width="258pt" height="386pt" viewBox="0.00 0.00 258.00 385.80">
<g id="graph0" class="graph" transform="scale(1 1) rotate(0) translate(4 381.8)">
<title>%0</title>
<polygon fill="#d3d3d3" stroke="transparent" points="-4,4 -4,-381.8 254.0022,-381.8 254.0022,4 -4,4"/>
<!-- n0 -->
<g id="node1" class="node">
<title>n0</title>
<polygon fill="#ffffff" stroke="#000000" stroke-width="2" points="144.0022,-377.8 126.0022,-377.8 126.0022,-359.8 144.0022,-359.8 144.0022,-377.8"/>
</g>
<!-- n1 -->
<g id="node2" class="node">
<title>n1</title>
<polygon fill="#ffffff" stroke="#000000" stroke-width="2" points="123.8371,-331.0036 80.1673,-331.0036 80.1673,-308.1964 123.8371,-308.1964 123.8371,-331.0036"/>
<text text-anchor="middle" x="102.0022" y="-316" font-family="Helvetica,sans-Serif" font-weight="bold" font-size="12.00" fill="#0000ff">class</text>
</g>
<!-- n0&#45;&gt;n1 -->
<g id="edge1" class="edge">
<title>n0-&gt;n1</title>
<path fill="none" stroke="#000000" stroke-width="2" d="M128.9495,-359.776C124.3652,-352.9412 117.953,-343.3813 112.5337,-335.3015"/>
<polygon fill="#000000" stroke="#000000" stroke-width="2" points="113.8816,-334.1694 109.643,-330.9918 110.9749,-336.1191 113.8816,-334.1694"/>
</g>
<!-- n15 -->
<g id="node16" class="node">
<title>n15</title>
<polygon fill="#ffffff" stroke="#000000" stroke-width="2" points="196.1851,-331.0036 141.8193,-331.0036 141.8193,-308.1964 196.1851,-308.1964 196.1851,-331.0036"/>
<text text-anchor="middle" x="169.0022" y="-316" font-family="Helvetica,sans-Serif" font-weight="bold" font-size="12.00" fill="#0000ff">&lt;EOF&gt;</text>
</g>
<!-- n0&#45;&gt;n15 -->
<g id="edge15" class="edge">
<title>n0-&gt;n15</title>
<path fill="none" stroke="#000000" stroke-width="2" d="M141.2383,-359.776C145.9616,-352.9412 152.568,-343.3813 158.1515,-335.3015"/>
<polygon fill="#000000" stroke="#000000" stroke-width="2" points="159.7269,-336.1001 161.1298,-330.9918 156.8475,-334.1103 159.7269,-336.1001"/>
</g>
<!-- n2 -->
<g id="node3" class="node">
<title>n2</title>
<polygon fill="#ffffff" stroke="#000000" stroke-width="2" points="80.005,-279.6036 55.9994,-279.6036 55.9994,-256.7964 80.005,-256.7964 80.005,-279.6036"/>
<text text-anchor="middle" x="68.0022" y="-264.6" font-family="Helvetica,sans-Serif" font-weight="bold" font-size="12.00" fill="#0000ff">A</text>
</g>
<!-- n1&#45;&gt;n2 -->
<g id="edge2" class="edge">
<title>n1-&gt;n2</title>
<path fill="none" stroke="#000000" stroke-width="2" d="M94.4565,-308.1927C89.7025,-301.0057 83.5021,-291.6323 78.2992,-283.7666"/>
<polygon fill="#000000" stroke="#000000" stroke-width="2" points="79.7449,-282.7802 75.5268,-279.5754 76.8258,-284.7112 79.7449,-282.7802"/>
</g>
<!-- n3 -->
<g id="node4" class="node">
<title>n3</title>
<polygon fill="#ffffff" stroke="#000000" stroke-width="2" points="174.1665,-279.6036 97.8379,-279.6036 97.8379,-256.7964 174.1665,-256.7964 174.1665,-279.6036"/>
<text text-anchor="middle" x="136.0022" y="-264.6" font-family="Helvetica,sans-Serif" font-weight="bold" font-size="12.00" fill="#0000ff">MEMBERS</text>
</g>
<!-- n1&#45;&gt;n3 -->
<g id="edge3" class="edge">
<title>n1-&gt;n3</title>
<path fill="none" stroke="#000000" stroke-width="2" d="M109.5479,-308.1927C114.3019,-301.0057 120.5023,-291.6323 125.7052,-283.7666"/>
<polygon fill="#000000" stroke="#000000" stroke-width="2" points="127.1786,-284.7112 128.4776,-279.5754 124.2595,-282.7802 127.1786,-284.7112"/>
</g>
<!-- n4 -->
<g id="node5" class="node">
<title>n4</title>
<polygon fill="#ffffff" stroke="#000000" stroke-width="2" points="129.1615,-228.2036 22.8429,-228.2036 22.8429,-205.3964 129.1615,-205.3964 129.1615,-228.2036"/>
<text text-anchor="middle" x="76.0022" y="-213.2" font-family="Helvetica,sans-Serif" font-weight="bold" font-size="12.00" fill="#0000ff">METHOD_DECL</text>
</g>
<!-- n3&#45;&gt;n4 -->
<g id="edge4" class="edge">
<title>n3-&gt;n4</title>
<path fill="none" stroke="#000000" stroke-width="2" d="M122.6863,-256.7927C113.9861,-249.3395 102.541,-239.5349 93.1606,-231.4991"/>
<polygon fill="#000000" stroke="#000000" stroke-width="2" points="94.2167,-230.0994 89.2809,-228.1754 91.9396,-232.7574 94.2167,-230.0994"/>
</g>
<!-- n12 -->
<g id="node13" class="node">
<title>n12</title>
<polygon fill="#ffffff" stroke="#000000" stroke-width="2" points="240.1748,-228.2036 151.8296,-228.2036 151.8296,-205.3964 240.1748,-205.3964 240.1748,-228.2036"/>
<text text-anchor="middle" x="196.0022" y="-213.2" font-family="Helvetica,sans-Serif" font-weight="bold" font-size="12.00" fill="#0000ff">FIELD_DECL</text>
</g>
<!-- n3&#45;&gt;n12 -->
<g id="edge12" class="edge">
<title>n3-&gt;n12</title>
<path fill="none" stroke="#000000" stroke-width="2" d="M149.3181,-256.7927C158.0183,-249.3395 169.4634,-239.5349 178.8438,-231.4991"/>
<polygon fill="#000000" stroke="#000000" stroke-width="2" points="180.0648,-232.7574 182.7235,-228.1754 177.7877,-230.0994 180.0648,-232.7574"/>
</g>
<!-- n5 -->
<g id="node6" class="node">
<title>n5</title>
<polygon fill="#ffffff" stroke="#000000" stroke-width="2" points="38.0066,-176.8036 -.0022,-176.8036 -.0022,-153.9964 38.0066,-153.9964 38.0066,-176.8036"/>
<text text-anchor="middle" x="19.0022" y="-161.8" font-family="Helvetica,sans-Serif" font-weight="bold" font-size="12.00" fill="#0000ff">void</text>
</g>
<!-- n4&#45;&gt;n5 -->
<g id="edge5" class="edge">
<title>n4-&gt;n5</title>
<path fill="none" stroke="#000000" stroke-width="2" d="M63.3521,-205.3927C55.2345,-198.0726 44.6016,-188.4843 35.782,-180.5312"/>
<polygon fill="#000000" stroke="#000000" stroke-width="2" points="36.5022,-178.8243 31.617,-176.7754 34.1583,-181.4235 36.5022,-178.8243"/>
</g>
<!-- n6 -->
<g id="node7" class="node">
<title>n6</title>
<polygon fill="#ffffff" stroke="#000000" stroke-width="2" points="88.1802,-176.8036 55.8242,-176.8036 55.8242,-153.9964 88.1802,-153.9964 88.1802,-176.8036"/>
<text text-anchor="middle" x="72.0022" y="-161.8" font-family="Helvetica,sans-Serif" font-weight="bold" font-size="12.00" fill="#0000ff">foo</text>
</g>
<!-- n4&#45;&gt;n6 -->
<g id="edge6" class="edge">
<title>n4-&gt;n6</title>
<path fill="none" stroke="#000000" stroke-width="2" d="M75.1145,-205.3927C74.5759,-198.4719 73.8795,-189.5236 73.2821,-181.8466"/>
<polygon fill="#000000" stroke="#000000" stroke-width="2" points="75.0202,-181.6246 72.8874,-176.7754 71.5307,-181.8962 75.0202,-181.6246"/>
</g>
<!-- n7 -->
<g id="node8" class="node">
<title>n7</title>
<polygon fill="#ffffff" stroke="#000000" stroke-width="2" points="163.1771,-176.8036 106.8273,-176.8036 106.8273,-153.9964 163.1771,-153.9964 163.1771,-176.8036"/>
<text text-anchor="middle" x="135.0022" y="-161.8" font-family="Helvetica,sans-Serif" font-weight="bold" font-size="12.00" fill="#0000ff">BLOCK</text>
</g>
<!-- n4&#45;&gt;n7 -->
<g id="edge7" class="edge">
<title>n4-&gt;n7</title>
<path fill="none" stroke="#000000" stroke-width="2" d="M89.0962,-205.3927C97.6514,-197.9395 108.9057,-188.1349 118.1297,-180.0991"/>
<polygon fill="#000000" stroke="#000000" stroke-width="2" points="119.3243,-181.3794 121.9448,-176.7754 117.0252,-178.7403 119.3243,-181.3794"/>
</g>
<!-- n8 -->
<g id="node9" class="node">
<title>n8</title>
<polygon fill="#ffffff" stroke="#000000" stroke-width="2" points="146.509,-125.4036 123.4954,-125.4036 123.4954,-102.5964 146.509,-102.5964 146.509,-125.4036"/>
<text text-anchor="middle" x="135.0022" y="-110.4" font-family="Helvetica,sans-Serif" font-weight="bold" font-size="12.00" fill="#0000ff">=</text>
</g>
<!-- n7&#45;&gt;n8 -->
<g id="edge8" class="edge">
<title>n7-&gt;n8</title>
<path fill="none" stroke="#000000" stroke-width="2" d="M135.0022,-153.9927C135.0022,-147.0719 135.0022,-138.1236 135.0022,-130.4466"/>
<polygon fill="#000000" stroke="#000000" stroke-width="2" points="136.7523,-130.3754 135.0022,-125.3754 133.2523,-130.3755 136.7523,-130.3754"/>
</g>
<!-- n9 -->
<g id="node10" class="node">
<title>n9</title>
<polygon fill="#ffffff" stroke="#000000" stroke-width="2" points="120.0022,-74.0036 98.0022,-74.0036 98.0022,-51.1964 120.0022,-51.1964 120.0022,-74.0036"/>
<text text-anchor="middle" x="109.0022" y="-59" font-family="Helvetica,sans-Serif" font-weight="bold" font-size="12.00" fill="#0000ff">x</text>
</g>
<!-- n8&#45;&gt;n9 -->
<g id="edge9" class="edge">
<title>n8-&gt;n9</title>
<path fill="none" stroke="#000000" stroke-width="2" d="M129.232,-102.5927C125.6639,-95.5388 121.0303,-86.3787 117.0982,-78.6051"/>
<polygon fill="#000000" stroke="#000000" stroke-width="2" points="118.5748,-77.6472 114.7563,-73.9754 115.4517,-79.227 118.5748,-77.6472"/>
</g>
<!-- n10 -->
<g id="node11" class="node">
<title>n10</title>
<polygon fill="#ffffff" stroke="#000000" stroke-width="2" points="186.1745,-74.0036 137.8299,-74.0036 137.8299,-51.1964 186.1745,-51.1964 186.1745,-74.0036"/>
<text text-anchor="middle" x="162.0022" y="-59" font-family="Helvetica,sans-Serif" font-weight="bold" font-size="12.00" fill="#0000ff">EXPR</text>
</g>
<!-- n8&#45;&gt;n10 -->
<g id="edge10" class="edge">
<title>n8-&gt;n10</title>
<path fill="none" stroke="#000000" stroke-width="2" d="M140.9944,-102.5927C144.6997,-95.5388 149.5115,-86.3787 153.5948,-78.6051"/>
<polygon fill="#000000" stroke="#000000" stroke-width="2" points="155.2508,-79.2157 156.0268,-73.9754 152.1523,-77.5881 155.2508,-79.2157"/>
</g>
<!-- n11 -->
<g id="node12" class="node">
<title>n11</title>
<polygon fill="#ffffff" stroke="#000000" stroke-width="2" points="173.1754,-22.6036 150.829,-22.6036 150.829,.2036 173.1754,.2036 173.1754,-22.6036"/>
<text text-anchor="middle" x="162.0022" y="-7.6" font-family="Helvetica,sans-Serif" font-weight="bold" font-size="12.00" fill="#0000ff">3</text>
</g>
<!-- n10&#45;&gt;n11 -->
<g id="edge11" class="edge">
<title>n10-&gt;n11</title>
<path fill="none" stroke="#000000" stroke-width="2" d="M162.0022,-51.1927C162.0022,-44.2719 162.0022,-35.3236 162.0022,-27.6466"/>
<polygon fill="#000000" stroke="#000000" stroke-width="2" points="163.7523,-27.5754 162.0022,-22.5754 160.2523,-27.5755 163.7523,-27.5754"/>
</g>
<!-- n13 -->
<g id="node14" class="node">
<title>n13</title>
<polygon fill="#ffffff" stroke="#000000" stroke-width="2" points="210.1725,-176.8036 181.8319,-176.8036 181.8319,-153.9964 210.1725,-153.9964 210.1725,-176.8036"/>
<text text-anchor="middle" x="196.0022" y="-161.8" font-family="Helvetica,sans-Serif" font-weight="bold" font-size="12.00" fill="#0000ff">int</text>
</g>
<!-- n12&#45;&gt;n13 -->
<g id="edge13" class="edge">
<title>n12-&gt;n13</title>
<path fill="none" stroke="#000000" stroke-width="2" d="M196.0022,-205.3927C196.0022,-198.4719 196.0022,-189.5236 196.0022,-181.8466"/>
<polygon fill="#000000" stroke="#000000" stroke-width="2" points="197.7523,-181.7754 196.0022,-176.7754 194.2523,-181.7755 197.7523,-181.7754"/>
</g>
<!-- n14 -->
<g id="node15" class="node">
<title>n14</title>
<polygon fill="#ffffff" stroke="#000000" stroke-width="2" points="250.0022,-176.8036 228.0022,-176.8036 228.0022,-153.9964 250.0022,-153.9964 250.0022,-176.8036"/>
<text text-anchor="middle" x="239.0022" y="-161.8" font-family="Helvetica,sans-Serif" font-weight="bold" font-size="12.00" fill="#0000ff">x</text>
</g>
<!-- n12&#45;&gt;n14 -->
<g id="edge14" class="edge">
<title>n12-&gt;n14</title>
<path fill="none" stroke="#000000" stroke-width="2" d="M205.5453,-205.3927C211.5577,-198.2057 219.3993,-188.8323 225.9795,-180.9666"/>
<polygon fill="#000000" stroke="#000000" stroke-width="2" points="227.6197,-181.7333 229.4858,-176.7754 224.9352,-179.4875 227.6197,-181.7333"/>
</g>
</g>
</svg>