<?xml version="1.0" encoding="UTF-8" standalone="no"?><!DOCTYPE svg PUBLIC "-//W3C//DTD SVG 1.1//EN" "http://www.w3.org/Graphics/SVG/1.1/DTD/svg11.dtd"><!-- Generated by graphviz version 2.40.1 (20161225.0304)
 --><!-- Title: %0 Pages: 1 --><svg xmlns="http://www.w3.org/2000/svg" xmlns:xlink="http://www.w3.org/1999/xlink" width="316pt" height="283pt" viewBox="0.00 0.00 315.68 283.00">
<g id="graph0" class="graph" transform="scale(1 1) rotate(0) translate(4 279)">
<title>%0</title>
<polygon fill="#d3d3d3" stroke="transparent" points="-4,4 -4,-279 311.6752,-279 311.6752,4 -4,4"/>
<!-- n0 -->
<g id="node1" class="node">
<title>n0</title>
<polygon fill="#ffffff" stroke="#000000" stroke-width="2" points="204.3342,-275 186.3342,-275 186.3342,-257 204.3342,-257 204.3342,-275"/>
</g>
<!-- n1 -->
<g id="node2" class="node">
<title>n1</title>
<polygon fill="#ffffff" stroke="#000000" stroke-width="2" points="129.4935,-228.2036 23.1749,-228.2036 23.1749,-205.3964 129.4935,-205.3964 129.4935,-228.2036"/>
<text text-anchor="middle" x="76.3342" y="-213.2" font-family="Helvetica,sans-Serif" font-weight="bold" font-size="12.00" fill="#0000ff">METHOD_DECL</text>
</g>
<!-- n0&#45;&gt;n1 -->
<g id="edge1" class="edge">
<title>n0-&gt;n1</title>
<path fill="none" stroke="#000000" stroke-width="2" d="M185.9965,-262.1394C169.4906,-255.3151 134.4442,-240.8253 108.3891,-230.053"/>
<polygon fill="#000000" stroke="#000000" stroke-width="2" points="108.9245,-228.3807 103.6352,-228.0875 107.5872,-231.6152 108.9245,-228.3807"/>
</g>
<!-- n12 -->
<g id="node13" class="node">
<title>n12</title>
<polygon fill="#ffffff" stroke="#000000" stroke-width="2" points="235.1733,-228.2036 155.4951,-228.2036 155.4951,-205.3964 235.1733,-205.3964 235.1733,-228.2036"/>
<text text-anchor="middle" x="195.3342" y="-213.2" font-family="Helvetica,sans-Serif" font-weight="bold" font-size="12.00" fill="#0000ff">VAR_DECL</text>
</g>
<!-- n0&#45;&gt;n12 -->
<g id="edge12" class="edge">
<title>n0-&gt;n12</title>
<path fill="none" stroke="#000000" stroke-width="2" d="M195.3342,-256.976C195.3342,-250.3943 195.3342,-241.2857 195.3342,-233.4052"/>
<polygon fill="#000000" stroke="#000000" stroke-width="2" points="197.0843,-233.1917 195.3342,-228.1918 193.5843,-233.1918 197.0843,-233.1917"/>
</g>
<!-- n15 -->
<g id="node16" class="node">
<title>n15</title>
<polygon fill="#ffffff" stroke="#000000" stroke-width="2" points="307.5171,-228.2036 253.1513,-228.2036 253.1513,-205.3964 307.5171,-205.3964 307.5171,-228.2036"/>
<text text-anchor="middle" x="280.3342" y="-213.2" font-family="Helvetica,sans-Serif" font-weight="bold" font-size="12.00" fill="#0000ff">&lt;EOF&gt;</text>
</g>
<!-- n0&#45;&gt;n15 -->
<g id="edge15" class="edge">
<title>n0-&gt;n15</title>
<path fill="none" stroke="#000000" stroke-width="2" d="M204.4307,-260.7347C216.6446,-253.6651 238.8016,-240.8401 256.0355,-230.8647"/>
<polygon fill="#000000" stroke="#000000" stroke-width="2" points="257.3028,-232.1532 260.7535,-228.1338 255.5494,-229.124 257.3028,-232.1532"/>
</g>
<!-- n2 -->
<g id="node3" class="node">
<title>n2</title>
<polygon fill="#ffffff" stroke="#000000" stroke-width="2" points="28.5045,-176.8036 .1639,-176.8036 .1639,-153.9964 28.5045,-153.9964 28.5045,-176.8036"/>
<text text-anchor="middle" x="14.3342" y="-161.8" font-family="Helvetica,sans-Serif" font-weight="bold" font-size="12.00" fill="#0000ff">int</text>
</g>
<!-- n1&#45;&gt;n2 -->
<g id="edge2" class="edge">
<title>n1-&gt;n2</title>
<path fill="none" stroke="#000000" stroke-width="2" d="M62.5744,-205.3927C53.5842,-197.9395 41.7577,-188.1349 32.0646,-180.0991"/>
<polygon fill="#000000" stroke="#000000" stroke-width="2" points="33.0217,-178.6194 28.0555,-176.7754 30.7879,-181.3139 33.0217,-178.6194"/>
</g>
<!-- n3 -->
<g id="node4" class="node">
<title>n3</title>
<polygon fill="#ffffff" stroke="#000000" stroke-width="2" points="88.3334,-176.8036 46.335,-176.8036 46.335,-153.9964 88.3334,-153.9964 88.3334,-176.8036"/>
<text text-anchor="middle" x="67.3342" y="-161.8" font-family="Helvetica,sans-Serif" font-weight="bold" font-size="12.00" fill="#0000ff">main</text>
</g>
<!-- n1&#45;&gt;n3 -->
<g id="edge3" class="edge">
<title>n1-&gt;n3</title>
<path fill="none" stroke="#000000" stroke-width="2" d="M74.3368,-205.3927C73.125,-198.4719 71.5582,-189.5236 70.214,-181.8466"/>
<polygon fill="#000000" stroke="#000000" stroke-width="2" points="71.9122,-181.3987 69.326,-176.7754 68.4647,-182.0024 71.9122,-181.3987"/>
</g>
<!-- n4 -->
<g id="node5" class="node">
<title>n4</title>
<polygon fill="#ffffff" stroke="#000000" stroke-width="2" points="162.5091,-176.8036 106.1593,-176.8036 106.1593,-153.9964 162.5091,-153.9964 162.5091,-176.8036"/>
<text text-anchor="middle" x="134.3342" y="-161.8" font-family="Helvetica,sans-Serif" font-weight="bold" font-size="12.00" fill="#0000ff">BLOCK</text>
</g>
<!-- n1&#45;&gt;n4 -->
<g id="edge4" class="edge">
<title>n1-&gt;n4</title>
<path fill="none" stroke="#000000" stroke-width="2" d="M89.2063,-205.3927C97.6164,-197.9395 108.68,-188.1349 117.7477,-180.0991"/>
<polygon fill="#000000" stroke="#000000" stroke-width="2" points="118.9167,-181.4014 121.4981,-176.7754 116.5954,-178.782 118.9167,-181.4014"/>
</g>
<!-- n5 -->
<g id="node6" class="node">
<title>n5</title>
<polygon fill="#ffffff" stroke="#000000" stroke-width="2" points="111.841,-125.4036 88.8274,-125.4036 88.8274,-102.5964 111.841,-102.5964 111.841,-125.4036"/>
<text text-anchor="middle" x="100.3342" y="-110.4" font-family="Helvetica,sans-Serif" font-weight="bold" font-size="12.00" fill="#0000ff">=</text>
</g>
<!-- n4&#45;&gt;n5 -->
<g id="edge5" class="edge">
<title>n4-&gt;n5</title>
<path fill="none" stroke="#000000" stroke-width="2" d="M126.7885,-153.9927C122.0345,-146.8057 115.8341,-137.4323 110.6312,-129.5666"/>
<polygon fill="#000000" stroke="#000000" stroke-width="2" points="112.0769,-128.5802 107.8588,-125.3754 109.1578,-130.5112 112.0769,-128.5802"/>
</g>
<!-- n9 -->
<g id="node10" class="node">
<title>n9</title>
<polygon fill="#ffffff" stroke="#000000" stroke-width="2" points="209.1733,-125.4036 129.4951,-125.4036 129.4951,-102.5964 209.1733,-102.5964 209.1733,-125.4036"/>
<text text-anchor="middle" x="169.3342" y="-110.4" font-family="Helvetica,sans-Serif" font-weight="bold" font-size="12.00" fill="#0000ff">VAR_DECL</text>
</g>
<!-- n4&#45;&gt;n9 -->
<g id="edge9" class="edge">
<title>n4-&gt;n9</title>
<path fill="none" stroke="#000000" stroke-width="2" d="M142.1018,-153.9927C146.9957,-146.8057 153.3784,-137.4323 158.7343,-129.5666"/>
<polygon fill="#000000" stroke="#000000" stroke-width="2" points="160.2205,-130.4933 161.5883,-125.3754 157.3275,-128.5233 160.2205,-130.4933"/>
</g>
<!-- n6 -->
<g id="node7" class="node">
<title>n6</title>
<polygon fill="#ffffff" stroke="#000000" stroke-width="2" points="61.3342,-74.0036 39.3342,-74.0036 39.3342,-51.1964 61.3342,-51.1964 61.3342,-74.0036"/>
<text text-anchor="middle" x="50.3342" y="-59" font-family="Helvetica,sans-Serif" font-weight="bold" font-size="12.00" fill="#0000ff">x</text>
</g>
<!-- n5&#45;&gt;n6 -->
<g id="edge6" class="edge">
<title>n5-&gt;n6</title>
<path fill="none" stroke="#000000" stroke-width="2" d="M89.2376,-102.5927C82.1169,-95.2726 72.7898,-85.6843 65.0533,-77.7312"/>
<polygon fill="#000000" stroke="#000000" stroke-width="2" points="66.1406,-76.3392 61.3998,-73.9754 63.6318,-78.7797 66.1406,-76.3392"/>
</g>
<!-- n7 -->
<g id="node8" class="node">
<title>n7</title>
<polygon fill="#ffffff" stroke="#000000" stroke-width="2" points="127.5065,-74.0036 79.1619,-74.0036 79.1619,-51.1964 127.5065,-51.1964 127.5065,-74.0036"/>
<text text-anchor="middle" x="103.3342" y="-59" font-family="Helvetica,sans-Serif" font-weight="bold" font-size="12.00" fill="#0000ff">EXPR</text>
</g>
<!-- n5&#45;&gt;n7 -->
<g id="edge7" class="edge">
<title>n5-&gt;n7</title>
<path fill="none" stroke="#000000" stroke-width="2" d="M101,-102.5927C101.4039,-95.6719 101.9262,-86.7236 102.3743,-79.0466"/>
<polygon fill="#000000" stroke="#000000" stroke-width="2" points="104.1259,-79.0689 102.6703,-73.9754 100.6318,-78.8649 104.1259,-79.0689"/>
</g>
<!-- n8 -->
<g id="node9" class="node">
<title>n8</title>
<polygon fill="#ffffff" stroke="#000000" stroke-width="2" points="114.3342,-22.6036 92.3342,-22.6036 92.3342,.2036 114.3342,.2036 114.3342,-22.6036"/>
<text text-anchor="middle" x="103.3342" y="-7.6" font-family="Helvetica,sans-Serif" font-weight="bold" font-size="12.00" fill="#0000ff">y</text>
</g>
<!-- n7&#45;&gt;n8 -->
<g id="edge8" class="edge">
<title>n7-&gt;n8</title>
<path fill="none" stroke="#000000" stroke-width="2" d="M103.3342,-51.1927C103.3342,-44.2719 103.3342,-35.3236 103.3342,-27.6466"/>
<polygon fill="#000000" stroke="#000000" stroke-width="2" points="105.0843,-27.5754 103.3342,-22.5754 101.5843,-27.5755 105.0843,-27.5754"/>
</g>
<!-- n10 -->
<g id="node11" class="node">
<title>n10</title>
<polygon fill="#ffffff" stroke="#000000" stroke-width="2" points="180.5045,-74.0036 152.1639,-74.0036 152.1639,-51.1964 180.5045,-51.1964 180.5045,-74.0036"/>
<text text-anchor="middle" x="166.3342" y="-59" font-family="Helvetica,sans-Serif" font-weight="bold" font-size="12.00" fill="#0000ff">int</text>
</g>
<!-- n9&#45;&gt;n10 -->
<g id="edge10" class="edge">
<title>n9-&gt;n10</title>
<path fill="none" stroke="#000000" stroke-width="2" d="M168.6684,-102.5927C168.2645,-95.6719 167.7422,-86.7236 167.2941,-79.0466"/>
<polygon fill="#000000" stroke="#000000" stroke-width="2" points="169.0366,-78.8649 166.9981,-73.9754 165.5425,-79.0689 169.0366,-78.8649"/>
</g>
<!-- n11 -->
<g id="node12" class="node">
<title>n11</title>
<polygon fill="#ffffff" stroke="#000000" stroke-width="2" points="220.3342,-74.0036 198.3342,-74.0036 198.3342,-51.1964 220.3342,-51.1964 220.3342,-74.0036"/>
<text text-anchor="middle" x="209.3342" y="-59" font-family="Helvetica,sans-Serif" font-weight="bold" font-size="12.00" fill="#0000ff">y</text>
</g>
<!-- n9&#45;&gt;n11 -->
<g id="edge11" class="edge">
<title>n9-&gt;n11</title>
<path fill="none" stroke="#000000" stroke-width="2" d="M178.2115,-102.5927C183.8044,-95.4057 191.099,-86.0323 197.2201,-78.1666"/>
<polygon fill="#000000" stroke="#000000" stroke-width="2" points="198.792,-78.9962 200.4817,-73.9754 196.0298,-76.8466 198.792,-78.9962"/>
</g>
<!-- n13 -->
<g id="node14" class="node">
<title>n13</title>
<polygon fill="#ffffff" stroke="#000000" stroke-width="2" points="209.5045,-176.8036 181.1639,-176.8036 181.1639,-153.9964 209.5045,-153.9964 209.5045,-176.8036"/>
<text text-anchor="middle" x="195.3342" y="-161.8" font-family="Helvetica,sans-Serif" font-weight="bold" font-size="12.00" fill="#0000ff">int</text>
</g>
<!-- n12&#45;&gt;n13 -->
<g id="edge13" class="edge">
<title>n12-&gt;n13</title>
<path fill="none" stroke="#000000" stroke-width="2" d="M195.3342,-205.3927C195.3342,-198.4719 195.3342,-189.5236 195.3342,-181.8466"/>
<polygon fill="#000000" stroke="#000000" stroke-width="2" points="197.0843,-181.7754 195.3342,-176.7754 193.5843,-181.7755 197.0843,-181.7754"/>
</g>
<!-- n14 -->
<g id="node15" class="node">
<title>n14</title>
<polygon fill="#ffffff" stroke="#000000" stroke-width="2" points="249.3342,-176.8036 227.3342,-176.8036 227.3342,-153.9964 249.3342,-153.9964 249.3342,-176.8036"/>
<text text-anchor="middle" x="238.3342" y="-161.8" font-family="Helvetica,sans-Serif" font-weight="bold" font-size="12.00" fill="#0000ff">x</text>
</g>
<!-- n12&#45;&gt;n14 -->
<g id="edge14" class="edge">
<title>n12-&gt;n14</title>
<path fill="none" stroke="#000000" stroke-width="2" d="M204.8773,-205.3927C210.8897,-198.2057 218.7313,-188.8323 225.3115,-180.9666"/>
<polygon fill="#000000" stroke="#000000" stroke-width="2" points="226.9517,-181.7333 228.8178,-176.7754 224.2672,-179.4875 226.9517,-181.7333"/>
</g>
</g>
</svg>