<?xml version="1.0" encoding="UTF-8" standalone="no"?><!DOCTYPE svg PUBLIC "-//W3C//DTD SVG 1.1//EN" "http://www.w3.org/Graphics/SVG/1.1/DTD/svg11.dtd"><!-- Generated by graphviz version 2.40.1 (20161225.0304)
 --><!-- Title: %0 Pages: 1 --><svg xmlns="http://www.w3.org/2000/svg" xmlns:xlink="http://www.w3.org/1999/xlink" width="738pt" height="437pt" viewBox="0.00 0.00 738.34 437.20">
<g id="graph0" class="graph" transform="scale(1 1) rotate(0) translate(4 433.2)">
<title>%0</title>
<polygon fill="#d3d3d3" stroke="transparent" points="-4,4 -4,-433.2 734.3378,-433.2 734.3378,4 -4,4"/>
<!-- n0 -->
<g id="node1" class="node">
<title>n0</title>
<polygon fill="#ffffff" stroke="#000000" stroke-width="2" points="372.3342,-429.2 354.3342,-429.2 354.3342,-411.2 372.3342,-411.2 372.3342,-429.2"/>
</g>
<!-- n1 -->
<g id="node2" class="node">
<title>n1</title>
<polygon fill="#ffffff" stroke="#000000" stroke-width="2" points="241.1691,-382.4036 197.4993,-382.4036 197.4993,-359.5964 241.1691,-359.5964 241.1691,-382.4036"/>
<text text-anchor="middle" x="219.3342" y="-367.4" font-family="Helvetica,sans-Serif" font-weight="bold" font-size="12.00" fill="#0000ff">class</text>
</g>
<!-- n0&#45;&gt;n1 -->
<g id="edge1" class="edge">
<title>n0-&gt;n1</title>
<path fill="none" stroke="#000000" stroke-width="2" d="M354.3264,-417.1223C333.0521,-409.8536 279.0153,-391.391 246.123,-380.1528"/>
<polygon fill="#000000" stroke="#000000" stroke-width="2" points="246.331,-378.3746 241.0337,-378.414 245.1994,-381.6867 246.331,-378.3746"/>
</g>
<!-- n15 -->
<g id="node16" class="node">
<title>n15</title>
<polygon fill="#ffffff" stroke="#000000" stroke-width="2" points="385.1691,-382.4036 341.4993,-382.4036 341.4993,-359.5964 385.1691,-359.5964 385.1691,-382.4036"/>
<text text-anchor="middle" x="363.3342" y="-367.4" font-family="Helvetica,sans-Serif" font-weight="bold" font-size="12.00" fill="#0000ff">class</text>
</g>
<!-- n0&#45;&gt;n15 -->
<g id="edge15" class="edge">
<title>n0-&gt;n15</title>
<path fill="none" stroke="#000000" stroke-width="2" d="M363.3342,-411.176C363.3342,-404.5943 363.3342,-395.4857 363.3342,-387.6052"/>
<polygon fill="#000000" stroke="#000000" stroke-width="2" points="365.0843,-387.3917 363.3342,-382.3918 361.5843,-387.3918 365.0843,-387.3917"/>
</g>
<!-- n38 -->
<g id="node39" class="node">
<title>n38</title>
<polygon fill="#ffffff" stroke="#000000" stroke-width="2" points="457.5171,-382.4036 403.1513,-382.4036 403.1513,-359.5964 457.5171,-359.5964 457.5171,-382.4036"/>
<text text-anchor="middle" x="430.3342" y="-367.4" font-family="Helvetica,sans-Serif" font-weight="bold" font-size="12.00" fill="#0000ff">&lt;EOF&gt;</text>
</g>
<!-- n0&#45;&gt;n38 -->
<g id="edge38" class="edge">
<title>n0-&gt;n38</title>
<path fill="none" stroke="#000000" stroke-width="2" d="M372.3701,-413.5647C382.1901,-406.3536 398.1766,-394.6143 410.876,-385.2887"/>
<polygon fill="#000000" stroke="#000000" stroke-width="2" points="412.0488,-386.5987 415.0431,-382.2287 409.9772,-383.7776 412.0488,-386.5987"/>
</g>
<!-- n2 -->
<g id="node3" class="node">
<title>n2</title>
<polygon fill="#ffffff" stroke="#000000" stroke-width="2" points="163.337,-331.0036 139.3314,-331.0036 139.3314,-308.1964 163.337,-308.1964 163.337,-331.0036"/>
<text text-anchor="middle" x="151.3342" y="-316" font-family="Helvetica,sans-Serif" font-weight="bold" font-size="12.00" fill="#0000ff">A</text>
</g>
<!-- n1&#45;&gt;n2 -->
<g id="edge2" class="edge">
<title>n1-&gt;n2</title>
<path fill="none" stroke="#000000" stroke-width="2" d="M204.2428,-359.5927C193.4656,-351.4464 178.9718,-340.4908 167.8793,-332.1061"/>
<polygon fill="#000000" stroke="#000000" stroke-width="2" points="168.7023,-330.5346 163.6583,-328.9156 166.5918,-333.3267 168.7023,-330.5346"/>
</g>
<!-- n3 -->
<g id="node4" class="node">
<title>n3</title>
<polygon fill="#ffffff" stroke="#000000" stroke-width="2" points="257.4985,-331.0036 181.1699,-331.0036 181.1699,-308.1964 257.4985,-308.1964 257.4985,-331.0036"/>
<text text-anchor="middle" x="219.3342" y="-316" font-family="Helvetica,sans-Serif" font-weight="bold" font-size="12.00" fill="#0000ff">MEMBERS</text>
</g>
<!-- n1&#45;&gt;n3 -->
<g id="edge3" class="edge">
<title>n1-&gt;n3</title>
<path fill="none" stroke="#000000" stroke-width="2" d="M219.3342,-359.5927C219.3342,-352.6719 219.3342,-343.7236 219.3342,-336.0466"/>
<polygon fill="#000000" stroke="#000000" stroke-width="2" points="221.0843,-335.9754 219.3342,-330.9754 217.5843,-335.9755 221.0843,-335.9754"/>
</g>
<!-- n4 -->
<g id="node5" class="node">
<title>n4</title>
<polygon fill="#ffffff" stroke="#000000" stroke-width="2" points="101.5068,-279.6036 13.1616,-279.6036 13.1616,-256.7964 101.5068,-256.7964 101.5068,-279.6036"/>
<text text-anchor="middle" x="57.3342" y="-264.6" font-family="Helvetica,sans-Serif" font-weight="bold" font-size="12.00" fill="#0000ff">FIELD_DECL</text>
</g>
<!-- n3&#45;&gt;n4 -->
<g id="edge4" class="edge">
<title>n3-&gt;n4</title>
<path fill="none" stroke="#000000" stroke-width="2" d="M183.7826,-308.3201C158.3548,-300.2522 124.0921,-289.3812 97.6461,-280.9903"/>
<polygon fill="#000000" stroke="#000000" stroke-width="2" points="98.098,-279.2978 92.8029,-279.4536 97.0395,-282.6339 98.098,-279.2978"/>
</g>
<!-- n7 -->
<g id="node8" class="node">
<title>n7</title>
<polygon fill="#ffffff" stroke="#000000" stroke-width="2" points="228.4935,-279.6036 122.1749,-279.6036 122.1749,-256.7964 228.4935,-256.7964 228.4935,-279.6036"/>
<text text-anchor="middle" x="175.3342" y="-264.6" font-family="Helvetica,sans-Serif" font-weight="bold" font-size="12.00" fill="#0000ff">METHOD_DECL</text>
</g>
<!-- n3&#45;&gt;n7 -->
<g id="edge7" class="edge">
<title>n3-&gt;n7</title>
<path fill="none" stroke="#000000" stroke-width="2" d="M209.5692,-308.1927C203.4169,-301.0057 195.3929,-291.6323 188.6597,-283.7666"/>
<polygon fill="#000000" stroke="#000000" stroke-width="2" points="189.6529,-282.2358 185.0719,-279.5754 186.994,-284.5119 189.6529,-282.2358"/>
</g>
<!-- n11 -->
<g id="node12" class="node">
<title>n11</title>
<polygon fill="#ffffff" stroke="#000000" stroke-width="2" points="362.4935,-279.6036 256.1749,-279.6036 256.1749,-256.7964 362.4935,-256.7964 362.4935,-279.6036"/>
<text text-anchor="middle" x="309.3342" y="-264.6" font-family="Helvetica,sans-Serif" font-weight="bold" font-size="12.00" fill="#0000ff">METHOD_DECL</text>
</g>
<!-- n3&#45;&gt;n11 -->
<g id="edge11" class="edge">
<title>n3-&gt;n11</title>
<path fill="none" stroke="#000000" stroke-width="2" d="M239.3081,-308.1927C252.7079,-300.5399 270.4486,-290.408 284.7204,-282.2572"/>
<polygon fill="#000000" stroke="#000000" stroke-width="2" points="285.9422,-283.5748 289.4161,-279.5754 284.2064,-280.5355 285.9422,-283.5748"/>
</g>
<!-- n5 -->
<g id="node6" class="node">
<title>n5</title>
<polygon fill="#ffffff" stroke="#000000" stroke-width="2" points="28.5045,-228.2036 .1639,-228.2036 .1639,-205.3964 28.5045,-205.3964 28.5045,-228.2036"/>
<text text-anchor="middle" x="14.3342" y="-213.2" font-family="Helvetica,sans-Serif" font-weight="bold" font-size="12.00" fill="#0000ff">int</text>
</g>
<!-- n4&#45;&gt;n5 -->
<g id="edge5" class="edge">
<title>n4-&gt;n5</title>
<path fill="none" stroke="#000000" stroke-width="2" d="M47.7911,-256.7927C41.7787,-249.6057 33.9371,-240.2323 27.3569,-232.3666"/>
<polygon fill="#000000" stroke="#000000" stroke-width="2" points="28.4012,-230.8875 23.8506,-228.1754 25.7167,-233.1333 28.4012,-230.8875"/>
</g>
<!-- n6 -->
<g id="node7" class="node">
<title>n6</title>
<polygon fill="#ffffff" stroke="#000000" stroke-width="2" points="68.3342,-228.2036 46.3342,-228.2036 46.3342,-205.3964 68.3342,-205.3964 68.3342,-228.2036"/>
<text text-anchor="middle" x="57.3342" y="-213.2" font-family="Helvetica,sans-Serif" font-weight="bold" font-size="12.00" fill="#0000ff">x</text>
</g>
<!-- n4&#45;&gt;n6 -->
<g id="edge6" class="edge">
<title>n4-&gt;n6</title>
<path fill="none" stroke="#000000" stroke-width="2" d="M57.3342,-256.7927C57.3342,-249.8719 57.3342,-240.9236 57.3342,-233.2466"/>
<polygon fill="#000000" stroke="#000000" stroke-width="2" points="59.0843,-233.1754 57.3342,-228.1754 55.5843,-233.1755 59.0843,-233.1754"/>
</g>
<!-- n8 -->
<g id="node9" class="node">
<title>n8</title>
<polygon fill="#ffffff" stroke="#000000" stroke-width="2" points="124.3386,-228.2036 86.3298,-228.2036 86.3298,-205.3964 124.3386,-205.3964 124.3386,-228.2036"/>
<text text-anchor="middle" x="105.3342" y="-213.2" font-family="Helvetica,sans-Serif" font-weight="bold" font-size="12.00" fill="#0000ff">void</text>
</g>
<!-- n7&#45;&gt;n8 -->
<g id="edge8" class="edge">
<title>n7-&gt;n8</title>
<path fill="none" stroke="#000000" stroke-width="2" d="M159.7989,-256.7927C149.5581,-249.273 136.0575,-239.3597 125.0598,-231.2843"/>
<polygon fill="#000000" stroke="#000000" stroke-width="2" points="125.892,-229.7242 120.826,-228.1754 123.8205,-232.5454 125.892,-229.7242"/>
</g>
<!-- n9 -->
<g id="node10" class="node">
<title>n9</title>
<polygon fill="#ffffff" stroke="#000000" stroke-width="2" points="174.5122,-228.2036 142.1562,-228.2036 142.1562,-205.3964 174.5122,-205.3964 174.5122,-228.2036"/>
<text text-anchor="middle" x="158.3342" y="-213.2" font-family="Helvetica,sans-Serif" font-weight="bold" font-size="12.00" fill="#0000ff">foo</text>
</g>
<!-- n7&#45;&gt;n9 -->
<g id="edge9" class="edge">
<title>n7-&gt;n9</title>
<path fill="none" stroke="#000000" stroke-width="2" d="M171.5613,-256.7927C169.2724,-249.8719 166.3128,-240.9236 163.7737,-233.2466"/>
<polygon fill="#000000" stroke="#000000" stroke-width="2" points="165.3281,-232.373 162.0965,-228.1754 162.0051,-233.4721 165.3281,-232.373"/>
</g>
<!-- n10 -->
<g id="node11" class="node">
<title>n10</title>
<polygon fill="#ffffff" stroke="#000000" stroke-width="2" points="249.5091,-228.2036 193.1593,-228.2036 193.1593,-205.3964 249.5091,-205.3964 249.5091,-228.2036"/>
<text text-anchor="middle" x="221.3342" y="-213.2" font-family="Helvetica,sans-Serif" font-weight="bold" font-size="12.00" fill="#0000ff">BLOCK</text>
</g>
<!-- n7&#45;&gt;n10 -->
<g id="edge10" class="edge">
<title>n7-&gt;n10</title>
<path fill="none" stroke="#000000" stroke-width="2" d="M185.5431,-256.7927C192.0941,-249.4726 200.6751,-239.8843 207.7926,-231.9312"/>
<polygon fill="#000000" stroke="#000000" stroke-width="2" points="209.1235,-233.0683 211.1538,-228.1754 206.5154,-230.7342 209.1235,-233.0683"/>
</g>
<!-- n12 -->
<g id="node13" class="node">
<title>n12</title>
<polygon fill="#ffffff" stroke="#000000" stroke-width="2" points="305.3386,-228.2036 267.3298,-228.2036 267.3298,-205.3964 305.3386,-205.3964 305.3386,-228.2036"/>
<text text-anchor="middle" x="286.3342" y="-213.2" font-family="Helvetica,sans-Serif" font-weight="bold" font-size="12.00" fill="#0000ff">void</text>
</g>
<!-- n11&#45;&gt;n12 -->
<g id="edge12" class="edge">
<title>n11-&gt;n12</title>
<path fill="none" stroke="#000000" stroke-width="2" d="M304.2298,-256.7927C301.0734,-249.7388 296.9745,-240.5787 293.496,-232.8051"/>
<polygon fill="#000000" stroke="#000000" stroke-width="2" points="295.064,-232.0246 291.4244,-228.1754 291.8693,-233.4542 295.064,-232.0246"/>
</g>
<!-- n13 -->
<g id="node14" class="node">
<title>n13</title>
<polygon fill="#ffffff" stroke="#000000" stroke-width="2" points="357.1723,-228.2036 323.4961,-228.2036 323.4961,-205.3964 357.1723,-205.3964 357.1723,-228.2036"/>
<text text-anchor="middle" x="340.3342" y="-213.2" font-family="Helvetica,sans-Serif" font-weight="bold" font-size="12.00" fill="#0000ff">bar</text>
</g>
<!-- n11&#45;&gt;n13 -->
<g id="edge13" class="edge">
<title>n11-&gt;n13</title>
<path fill="none" stroke="#000000" stroke-width="2" d="M316.2141,-256.7927C320.4684,-249.7388 325.993,-240.5787 330.6813,-232.8051"/>
<polygon fill="#000000" stroke="#000000" stroke-width="2" points="332.3898,-233.3608 333.4735,-228.1754 329.3927,-231.5532 332.3898,-233.3608"/>
</g>
<!-- n14 -->
<g id="node15" class="node">
<title>n14</title>
<polygon fill="#ffffff" stroke="#000000" stroke-width="2" points="431.5091,-228.2036 375.1593,-228.2036 375.1593,-205.3964 431.5091,-205.3964 431.5091,-228.2036"/>
<text text-anchor="middle" x="403.3342" y="-213.2" font-family="Helvetica,sans-Serif" font-weight="bold" font-size="12.00" fill="#0000ff">BLOCK</text>
</g>
<!-- n11&#45;&gt;n14 -->
<g id="edge14" class="edge">
<title>n11-&gt;n14</title>
<path fill="none" stroke="#000000" stroke-width="2" d="M330.1958,-256.7927C344.3129,-249.0734 363.043,-238.8316 378.0145,-230.645"/>
<polygon fill="#000000" stroke="#000000" stroke-width="2" points="378.9835,-232.1098 382.5309,-228.1754 377.3043,-229.0389 378.9835,-232.1098"/>
</g>
<!-- n16 -->
<g id="node17" class="node">
<title>n16</title>
<polygon fill="#ffffff" stroke="#000000" stroke-width="2" points="342.337,-331.0036 318.3314,-331.0036 318.3314,-308.1964 342.337,-308.1964 342.337,-331.0036"/>
<text text-anchor="middle" x="330.3342" y="-316" font-family="Helvetica,sans-Serif" font-weight="bold" font-size="12.00" fill="#0000ff">B</text>
</g>
<!-- n15&#45;&gt;n16 -->
<g id="edge16" class="edge">
<title>n15-&gt;n16</title>
<path fill="none" stroke="#000000" stroke-width="2" d="M356.0104,-359.5927C351.4817,-352.5388 345.6007,-343.3787 340.6099,-335.6051"/>
<polygon fill="#000000" stroke="#000000" stroke-width="2" points="341.8115,-334.2375 337.6375,-330.9754 338.8662,-336.1284 341.8115,-334.2375"/>
</g>
<!-- n17 -->
<g id="node18" class="node">
<title>n17</title>
<polygon fill="#ffffff" stroke="#000000" stroke-width="2" points="432.5026,-331.0036 360.1658,-331.0036 360.1658,-308.1964 432.5026,-308.1964 432.5026,-331.0036"/>
<text text-anchor="middle" x="396.3342" y="-316" font-family="Helvetica,sans-Serif" font-weight="bold" font-size="12.00" fill="#0000ff">EXTENDS</text>
</g>
<!-- n15&#45;&gt;n17 -->
<g id="edge17" class="edge">
<title>n15-&gt;n17</title>
<path fill="none" stroke="#000000" stroke-width="2" d="M370.658,-359.5927C375.1867,-352.5388 381.0677,-343.3787 386.0585,-335.6051"/>
<polygon fill="#000000" stroke="#000000" stroke-width="2" points="387.8022,-336.1284 389.0309,-330.9754 384.8569,-334.2375 387.8022,-336.1284"/>
</g>
<!-- n19 -->
<g id="node20" class="node">
<title>n19</title>
<polygon fill="#ffffff" stroke="#000000" stroke-width="2" points="528.4985,-331.0036 452.1699,-331.0036 452.1699,-308.1964 528.4985,-308.1964 528.4985,-331.0036"/>
<text text-anchor="middle" x="490.3342" y="-316" font-family="Helvetica,sans-Serif" font-weight="bold" font-size="12.00" fill="#0000ff">MEMBERS</text>
</g>
<!-- n15&#45;&gt;n19 -->
<g id="edge19" class="edge">
<title>n15-&gt;n19</title>
<path fill="none" stroke="#000000" stroke-width="2" d="M385.1663,-362.164C405.1619,-354.0713 435.0267,-341.9843 457.8278,-332.7561"/>
<polygon fill="#000000" stroke="#000000" stroke-width="2" points="458.6018,-334.3309 462.58,-330.8328 457.2887,-331.0865 458.6018,-334.3309"/>
</g>
<!-- n18 -->
<g id="node19" class="node">
<title>n18</title>
<polygon fill="#ffffff" stroke="#000000" stroke-width="2" points="408.337,-279.6036 384.3314,-279.6036 384.3314,-256.7964 408.337,-256.7964 408.337,-279.6036"/>
<text text-anchor="middle" x="396.3342" y="-264.6" font-family="Helvetica,sans-Serif" font-weight="bold" font-size="12.00" fill="#0000ff">A</text>
</g>
<!-- n17&#45;&gt;n18 -->
<g id="edge18" class="edge">
<title>n17-&gt;n18</title>
<path fill="none" stroke="#000000" stroke-width="2" d="M396.3342,-308.1927C396.3342,-301.2719 396.3342,-292.3236 396.3342,-284.6466"/>
<polygon fill="#000000" stroke="#000000" stroke-width="2" points="398.0843,-284.5754 396.3342,-279.5754 394.5843,-284.5755 398.0843,-284.5754"/>
</g>
<!-- n20 -->
<g id="node21" class="node">
<title>n20</title>
<polygon fill="#ffffff" stroke="#000000" stroke-width="2" points="534.5068,-279.6036 446.1616,-279.6036 446.1616,-256.7964 534.5068,-256.7964 534.5068,-279.6036"/>
<text text-anchor="middle" x="490.3342" y="-264.6" font-family="Helvetica,sans-Serif" font-weight="bold" font-size="12.00" fill="#0000ff">FIELD_DECL</text>
</g>
<!-- n19&#45;&gt;n20 -->
<g id="edge20" class="edge">
<title>n19-&gt;n20</title>
<path fill="none" stroke="#000000" stroke-width="2" d="M490.3342,-308.1927C490.3342,-301.2719 490.3342,-292.3236 490.3342,-284.6466"/>
<polygon fill="#000000" stroke="#000000" stroke-width="2" points="492.0843,-284.5754 490.3342,-279.5754 488.5843,-284.5755 492.0843,-284.5754"/>
</g>
<!-- n23 -->
<g id="node24" class="node">
<title>n23</title>
<polygon fill="#ffffff" stroke="#000000" stroke-width="2" points="660.4935,-279.6036 554.1749,-279.6036 554.1749,-256.7964 660.4935,-256.7964 660.4935,-279.6036"/>
<text text-anchor="middle" x="607.3342" y="-264.6" font-family="Helvetica,sans-Serif" font-weight="bold" font-size="12.00" fill="#0000ff">METHOD_DECL</text>
</g>
<!-- n19&#45;&gt;n23 -->
<g id="edge23" class="edge">
<title>n19-&gt;n23</title>
<path fill="none" stroke="#000000" stroke-width="2" d="M516.0103,-308.3201C533.9938,-300.4196 558.0961,-289.8311 577.0241,-281.5157"/>
<polygon fill="#000000" stroke="#000000" stroke-width="2" points="577.8441,-283.067 581.7179,-279.4536 576.4363,-279.8626 577.8441,-283.067"/>
</g>
<!-- n21 -->
<g id="node22" class="node">
<title>n21</title>
<polygon fill="#ffffff" stroke="#000000" stroke-width="2" points="478.5045,-228.2036 450.1639,-228.2036 450.1639,-205.3964 478.5045,-205.3964 478.5045,-228.2036"/>
<text text-anchor="middle" x="464.3342" y="-213.2" font-family="Helvetica,sans-Serif" font-weight="bold" font-size="12.00" fill="#0000ff">int</text>
</g>
<!-- n20&#45;&gt;n21 -->
<g id="edge21" class="edge">
<title>n20-&gt;n21</title>
<path fill="none" stroke="#000000" stroke-width="2" d="M484.564,-256.7927C480.9959,-249.7388 476.3623,-240.5787 472.4302,-232.8051"/>
<polygon fill="#000000" stroke="#000000" stroke-width="2" points="473.9068,-231.8472 470.0883,-228.1754 470.7837,-233.427 473.9068,-231.8472"/>
</g>
<!-- n22 -->
<g id="node23" class="node">
<title>n22</title>
<polygon fill="#ffffff" stroke="#000000" stroke-width="2" points="518.3342,-228.2036 496.3342,-228.2036 496.3342,-205.3964 518.3342,-205.3964 518.3342,-228.2036"/>
<text text-anchor="middle" x="507.3342" y="-213.2" font-family="Helvetica,sans-Serif" font-weight="bold" font-size="12.00" fill="#0000ff">y</text>
</g>
<!-- n20&#45;&gt;n22 -->
<g id="edge22" class="edge">
<title>n20-&gt;n22</title>
<path fill="none" stroke="#000000" stroke-width="2" d="M494.1071,-256.7927C496.396,-249.8719 499.3556,-240.9236 501.8947,-233.2466"/>
<polygon fill="#000000" stroke="#000000" stroke-width="2" points="503.6633,-233.4721 503.5719,-228.1754 500.3403,-232.373 503.6633,-233.4721"/>
</g>
<!-- n24 -->
<g id="node25" class="node">
<title>n24</title>
<polygon fill="#ffffff" stroke="#000000" stroke-width="2" points="574.3386,-228.2036 536.3298,-228.2036 536.3298,-205.3964 574.3386,-205.3964 574.3386,-228.2036"/>
<text text-anchor="middle" x="555.3342" y="-213.2" font-family="Helvetica,sans-Serif" font-weight="bold" font-size="12.00" fill="#0000ff">void</text>
</g>
<!-- n23&#45;&gt;n24 -->
<g id="edge24" class="edge">
<title>n23-&gt;n24</title>
<path fill="none" stroke="#000000" stroke-width="2" d="M595.7937,-256.7927C588.3882,-249.4726 578.688,-239.8843 570.6421,-231.9312"/>
<polygon fill="#000000" stroke="#000000" stroke-width="2" points="571.6287,-230.4458 566.8424,-228.1754 569.1682,-232.935 571.6287,-230.4458"/>
</g>
<!-- n25 -->
<g id="node26" class="node">
<title>n25</title>
<polygon fill="#ffffff" stroke="#000000" stroke-width="2" points="624.5122,-228.2036 592.1562,-228.2036 592.1562,-205.3964 624.5122,-205.3964 624.5122,-228.2036"/>
<text text-anchor="middle" x="608.3342" y="-213.2" font-family="Helvetica,sans-Serif" font-weight="bold" font-size="12.00" fill="#0000ff">foo</text>
</g>
<!-- n23&#45;&gt;n25 -->
<g id="edge25" class="edge">
<title>n23-&gt;n25</title>
<path fill="none" stroke="#000000" stroke-width="2" d="M607.5561,-256.7927C607.6908,-249.8719 607.8649,-240.9236 608.0142,-233.2466"/>
<polygon fill="#000000" stroke="#000000" stroke-width="2" points="609.7652,-233.2086 608.1129,-228.1754 606.2659,-233.1404 609.7652,-233.2086"/>
</g>
<!-- n26 -->
<g id="node27" class="node">
<title>n26</title>
<polygon fill="#ffffff" stroke="#000000" stroke-width="2" points="699.5091,-228.2036 643.1593,-228.2036 643.1593,-205.3964 699.5091,-205.3964 699.5091,-228.2036"/>
<text text-anchor="middle" x="671.3342" y="-213.2" font-family="Helvetica,sans-Serif" font-weight="bold" font-size="12.00" fill="#0000ff">BLOCK</text>
</g>
<!-- n23&#45;&gt;n26 -->
<g id="edge26" class="edge">
<title>n23-&gt;n26</title>
<path fill="none" stroke="#000000" stroke-width="2" d="M621.5379,-256.7927C630.818,-249.3395 643.0261,-239.5349 653.0319,-231.4991"/>
<polygon fill="#000000" stroke="#000000" stroke-width="2" points="654.3676,-232.6708 657.1702,-228.1754 652.176,-229.9419 654.3676,-232.6708"/>
</g>
<!-- n27 -->
<g id="node28" class="node">
<title>n27</title>
<polygon fill="#ffffff" stroke="#000000" stroke-width="2" points="653.841,-176.8036 630.8274,-176.8036 630.8274,-153.9964 653.841,-153.9964 653.841,-176.8036"/>
<text text-anchor="middle" x="642.3342" y="-161.8" font-family="Helvetica,sans-Serif" font-weight="bold" font-size="12.00" fill="#0000ff">=</text>
</g>
<!-- n26&#45;&gt;n27 -->
<g id="edge27" class="edge">
<title>n26-&gt;n27</title>
<path fill="none" stroke="#000000" stroke-width="2" d="M664.8982,-205.3927C660.9184,-198.3388 655.7502,-189.1787 651.3643,-181.4051"/>
<polygon fill="#000000" stroke="#000000" stroke-width="2" points="652.7334,-180.2702 648.7522,-176.7754 649.6851,-181.9901 652.7334,-180.2702"/>
</g>
<!-- n35 -->
<g id="node36" class="node">
<title>n35</title>
<polygon fill="#ffffff" stroke="#000000" stroke-width="2" points="725.5065,-176.8036 677.1619,-176.8036 677.1619,-153.9964 725.5065,-153.9964 725.5065,-176.8036"/>
<text text-anchor="middle" x="701.3342" y="-161.8" font-family="Helvetica,sans-Serif" font-weight="bold" font-size="12.00" fill="#0000ff">EXPR</text>
</g>
<!-- n26&#45;&gt;n35 -->
<g id="edge35" class="edge">
<title>n26-&gt;n35</title>
<path fill="none" stroke="#000000" stroke-width="2" d="M677.9922,-205.3927C682.1092,-198.3388 687.4556,-189.1787 691.9927,-181.4051"/>
<polygon fill="#000000" stroke="#000000" stroke-width="2" points="693.6858,-181.9759 694.6948,-176.7754 690.663,-180.2116 693.6858,-181.9759"/>
</g>
<!-- n28 -->
<g id="node29" class="node">
<title>n28</title>
<polygon fill="#ffffff" stroke="#000000" stroke-width="2" points="600.1719,-125.4036 580.4965,-125.4036 580.4965,-102.5964 600.1719,-102.5964 600.1719,-125.4036"/>
<text text-anchor="middle" x="590.3342" y="-110.4" font-family="Helvetica,sans-Serif" font-weight="bold" font-size="12.00" fill="#0000ff">.</text>
</g>
<!-- n27&#45;&gt;n28 -->
<g id="edge28" class="edge">
<title>n27-&gt;n28</title>
<path fill="none" stroke="#000000" stroke-width="2" d="M630.7937,-153.9927C622.874,-146.1643 612.3297,-135.7417 603.9911,-127.4993"/>
<polygon fill="#000000" stroke="#000000" stroke-width="2" points="604.8822,-125.9195 600.0959,-123.6491 602.4217,-128.4087 604.8822,-125.9195"/>
</g>
<!-- n31 -->
<g id="node32" class="node">
<title>n31</title>
<polygon fill="#ffffff" stroke="#000000" stroke-width="2" points="666.5065,-125.4036 618.1619,-125.4036 618.1619,-102.5964 666.5065,-102.5964 666.5065,-125.4036"/>
<text text-anchor="middle" x="642.3342" y="-110.4" font-family="Helvetica,sans-Serif" font-weight="bold" font-size="12.00" fill="#0000ff">EXPR</text>
</g>
<!-- n27&#45;&gt;n31 -->
<g id="edge31" class="edge">
<title>n27-&gt;n31</title>
<path fill="none" stroke="#000000" stroke-width="2" d="M642.3342,-153.9927C642.3342,-147.0719 642.3342,-138.1236 642.3342,-130.4466"/>
<polygon fill="#000000" stroke="#000000" stroke-width="2" points="644.0843,-130.3754 642.3342,-125.3754 640.5843,-130.3755 644.0843,-130.3754"/>
</g>
<!-- n29 -->
<g id="node30" class="node">
<title>n29</title>
<polygon fill="#ffffff" stroke="#000000" stroke-width="2" points="568.5042,-74.0036 534.1642,-74.0036 534.1642,-51.1964 568.5042,-51.1964 568.5042,-74.0036"/>
<text text-anchor="middle" x="551.3342" y="-59" font-family="Helvetica,sans-Serif" font-weight="bold" font-size="12.00" fill="#0000ff">this</text>
</g>
<!-- n28&#45;&gt;n29 -->
<g id="edge29" class="edge">
<title>n28-&gt;n29</title>
<path fill="none" stroke="#000000" stroke-width="2" d="M581.6788,-102.5927C576.2257,-95.4057 569.1135,-86.0323 563.1455,-78.1666"/>
<polygon fill="#000000" stroke="#000000" stroke-width="2" points="564.3818,-76.9008 559.9654,-73.9754 561.5936,-79.0165 564.3818,-76.9008"/>
</g>
<!-- n30 -->
<g id="node31" class="node">
<title>n30</title>
<polygon fill="#ffffff" stroke="#000000" stroke-width="2" points="608.3342,-74.0036 586.3342,-74.0036 586.3342,-51.1964 608.3342,-51.1964 608.3342,-74.0036"/>
<text text-anchor="middle" x="597.3342" y="-59" font-family="Helvetica,sans-Serif" font-weight="bold" font-size="12.00" fill="#0000ff">x</text>
</g>
<!-- n28&#45;&gt;n30 -->
<g id="edge30" class="edge">
<title>n28-&gt;n30</title>
<path fill="none" stroke="#000000" stroke-width="2" d="M591.8877,-102.5927C592.8302,-95.6719 594.0489,-86.7236 595.0944,-79.0466"/>
<polygon fill="#000000" stroke="#000000" stroke-width="2" points="596.8442,-79.1659 595.785,-73.9754 593.3762,-78.6935 596.8442,-79.1659"/>
</g>
<!-- n32 -->
<g id="node33" class="node">
<title>n32</title>
<polygon fill="#ffffff" stroke="#000000" stroke-width="2" points="652.1719,-74.0036 632.4965,-74.0036 632.4965,-51.1964 652.1719,-51.1964 652.1719,-74.0036"/>
<text text-anchor="middle" x="642.3342" y="-59" font-family="Helvetica,sans-Serif" font-weight="bold" font-size="12.00" fill="#0000ff">.</text>
</g>
<!-- n31&#45;&gt;n32 -->
<g id="edge32" class="edge">
<title>n31-&gt;n32</title>
<path fill="none" stroke="#000000" stroke-width="2" d="M642.3342,-102.5927C642.3342,-95.6719 642.3342,-86.7236 642.3342,-79.0466"/>
<polygon fill="#000000" stroke="#000000" stroke-width="2" points="644.0843,-78.9754 642.3342,-73.9754 640.5843,-78.9755 644.0843,-78.9754"/>
</g>
<!-- n33 -->
<g id="node34" class="node">
<title>n33</title>
<polygon fill="#ffffff" stroke="#000000" stroke-width="2" points="636.5042,-22.6036 602.1642,-22.6036 602.1642,.2036 636.5042,.2036 636.5042,-22.6036"/>
<text text-anchor="middle" x="619.3342" y="-7.6" font-family="Helvetica,sans-Serif" font-weight="bold" font-size="12.00" fill="#0000ff">this</text>
</g>
<!-- n32&#45;&gt;n33 -->
<g id="edge33" class="edge">
<title>n32-&gt;n33</title>
<path fill="none" stroke="#000000" stroke-width="2" d="M637.2298,-51.1927C634.0734,-44.1388 629.9745,-34.9787 626.496,-27.2051"/>
<polygon fill="#000000" stroke="#000000" stroke-width="2" points="628.064,-26.4246 624.4244,-22.5754 624.8693,-27.8542 628.064,-26.4246"/>
</g>
<!-- n34 -->
<g id="node35" class="node">
<title>n34</title>
<polygon fill="#ffffff" stroke="#000000" stroke-width="2" points="676.3342,-22.6036 654.3342,-22.6036 654.3342,.2036 676.3342,.2036 676.3342,-22.6036"/>
<text text-anchor="middle" x="665.3342" y="-7.6" font-family="Helvetica,sans-Serif" font-weight="bold" font-size="12.00" fill="#0000ff">y</text>
</g>
<!-- n32&#45;&gt;n34 -->
<g id="edge34" class="edge">
<title>n32-&gt;n34</title>
<path fill="none" stroke="#000000" stroke-width="2" d="M647.4386,-51.1927C650.595,-44.1388 654.6939,-34.9787 658.1724,-27.2051"/>
<polygon fill="#000000" stroke="#000000" stroke-width="2" points="659.7991,-27.8542 660.244,-22.5754 656.6044,-26.4246 659.7991,-27.8542"/>
</g>
<!-- n36 -->
<g id="node37" class="node">
<title>n36</title>
<polygon fill="#ffffff" stroke="#000000" stroke-width="2" points="730.3414,-125.4036 684.327,-125.4036 684.327,-102.5964 730.3414,-102.5964 730.3414,-125.4036"/>
<text text-anchor="middle" x="707.3342" y="-110.4" font-family="Helvetica,sans-Serif" font-weight="bold" font-size="12.00" fill="#0000ff">CALL</text>
</g>
<!-- n35&#45;&gt;n36 -->
<g id="edge36" class="edge">
<title>n35-&gt;n36</title>
<path fill="none" stroke="#000000" stroke-width="2" d="M702.6658,-153.9927C703.4737,-147.0719 704.5182,-138.1236 705.4144,-130.4466"/>
<polygon fill="#000000" stroke="#000000" stroke-width="2" points="707.1647,-130.5447 706.0063,-125.3754 703.6883,-130.1388 707.1647,-130.5447"/>
</g>
<!-- n37 -->
<g id="node38" class="node">
<title>n37</title>
<polygon fill="#ffffff" stroke="#000000" stroke-width="2" points="724.1723,-74.0036 690.4961,-74.0036 690.4961,-51.1964 724.1723,-51.1964 724.1723,-74.0036"/>
<text text-anchor="middle" x="707.3342" y="-59" font-family="Helvetica,sans-Serif" font-weight="bold" font-size="12.00" fill="#0000ff">bar</text>
</g>
<!-- n36&#45;&gt;n37 -->
<g id="edge37" class="edge">
<title>n36-&gt;n37</title>
<path fill="none" stroke="#000000" stroke-width="2" d="M707.3342,-102.5927C707.3342,-95.6719 707.3342,-86.7236 707.3342,-79.0466"/>
<polygon fill="#000000" stroke="#000000" stroke-width="2" points="709.0843,-78.9754 707.3342,-73.9754 705.5843,-78.9755 709.0843,-78.9754"/>
</g>
</g>
</svg>