<?xml version="1.0" encoding="UTF-8" standalone="no"?><!DOCTYPE svg PUBLIC "-//W3C//DTD SVG 1.1//EN" "http://www.w3.org/Graphics/SVG/1.1/DTD/svg11.dtd"><!-- Generated by graphviz version 2.40.1 (20161225.0304)
 --><!-- Title: %0 Pages: 1 --><svg xmlns="http://www.w3.org/2000/svg" xmlns:xlink="http://www.w3.org/1999/xlink" width="228pt" height="283pt" viewBox="0.00 0.00 228.33 283.00">
<g id="graph0" class="graph" transform="scale(1 1) rotate(0) translate(4 279)">
<title>%0</title>
<polygon fill="#d3d3d3" stroke="transparent" points="-4,4 -4,-279 224.3342,-279 224.3342,4 -4,4"/>
<!-- n0 -->
<g id="node1" class="node">
<title>n0</title>
<polygon fill="#ffffff" stroke="#000000" stroke-width="2" points="125.3342,-275 107.3342,-275 107.3342,-257 125.3342,-257 125.3342,-275"/>
</g>
<!-- n1 -->
<g id="node2" class="node">
<title>n1</title>
<polygon fill="#ffffff" stroke="#000000" stroke-width="2" points="120.4935,-228.2036 14.1749,-228.2036 14.1749,-205.3964 120.4935,-205.3964 120.4935,-228.2036"/>
<text text-anchor="middle" x="67.3342" y="-213.2" font-family="Helvetica,sans-Serif" font-weight="bold" font-size="12.00" fill="#0000ff">METHOD_DECL</text>
</g>
<!-- n0&#45;&gt;n1 -->
<g id="edge1" class="edge">
<title>n0-&gt;n1</title>
<path fill="none" stroke="#000000" stroke-width="2" d="M107.3468,-256.976C100.4138,-250.0146 90.6652,-240.2263 82.5264,-232.0542"/>
<polygon fill="#000000" stroke="#000000" stroke-width="2" points="83.448,-230.4996 78.6797,-228.1918 80.9681,-232.9695 83.448,-230.4996"/>
</g>
<!-- n12 -->
<g id="node13" class="node">
<title>n12</title>
<polygon fill="#ffffff" stroke="#000000" stroke-width="2" points="193.5171,-228.2036 139.1513,-228.2036 139.1513,-205.3964 193.5171,-205.3964 193.5171,-228.2036"/>
<text text-anchor="middle" x="166.3342" y="-213.2" font-family="Helvetica,sans-Serif" font-weight="bold" font-size="12.00" fill="#0000ff">&lt;EOF&gt;</text>
</g>
<!-- n0&#45;&gt;n12 -->
<g id="edge12" class="edge">
<title>n0-&gt;n12</title>
<path fill="none" stroke="#000000" stroke-width="2" d="M125.505,-256.976C132.5795,-250.0146 142.527,-240.2263 150.832,-232.0542"/>
<polygon fill="#000000" stroke="#000000" stroke-width="2" points="152.4207,-232.9461 154.7572,-228.1918 149.9658,-230.4513 152.4207,-232.9461"/>
</g>
<!-- n2 -->
<g id="node3" class="node">
<title>n2</title>
<polygon fill="#ffffff" stroke="#000000" stroke-width="2" points="28.5045,-176.8036 .1639,-176.8036 .1639,-153.9964 28.5045,-153.9964 28.5045,-176.8036"/>
<text text-anchor="middle" x="14.3342" y="-161.8" font-family="Helvetica,sans-Serif" font-weight="bold" font-size="12.00" fill="#0000ff">int</text>
</g>
<!-- n1&#45;&gt;n2 -->
<g id="edge2" class="edge">
<title>n1-&gt;n2</title>
<path fill="none" stroke="#000000" stroke-width="2" d="M55.5718,-205.3927C48.0239,-198.0726 38.1371,-188.4843 29.9364,-180.5312"/>
<polygon fill="#000000" stroke="#000000" stroke-width="2" points="30.8714,-179.0001 26.0637,-176.7754 28.4347,-181.5127 30.8714,-179.0001"/>
</g>
<!-- n3 -->
<g id="node4" class="node">
<title>n3</title>
<polygon fill="#ffffff" stroke="#000000" stroke-width="2" points="88.3334,-176.8036 46.335,-176.8036 46.335,-153.9964 88.3334,-153.9964 88.3334,-176.8036"/>
<text text-anchor="middle" x="67.3342" y="-161.8" font-family="Helvetica,sans-Serif" font-weight="bold" font-size="12.00" fill="#0000ff">main</text>
</g>
<!-- n1&#45;&gt;n3 -->
<g id="edge3" class="edge">
<title>n1-&gt;n3</title>
<path fill="none" stroke="#000000" stroke-width="2" d="M67.3342,-205.3927C67.3342,-198.4719 67.3342,-189.5236 67.3342,-181.8466"/>
<polygon fill="#000000" stroke="#000000" stroke-width="2" points="69.0843,-181.7754 67.3342,-176.7754 65.5843,-181.7755 69.0843,-181.7754"/>
</g>
<!-- n4 -->
<g id="node5" class="node">
<title>n4</title>
<polygon fill="#ffffff" stroke="#000000" stroke-width="2" points="162.5091,-176.8036 106.1593,-176.8036 106.1593,-153.9964 162.5091,-153.9964 162.5091,-176.8036"/>
<text text-anchor="middle" x="134.3342" y="-161.8" font-family="Helvetica,sans-Serif" font-weight="bold" font-size="12.00" fill="#0000ff">BLOCK</text>
</g>
<!-- n1&#45;&gt;n4 -->
<g id="edge4" class="edge">
<title>n1-&gt;n4</title>
<path fill="none" stroke="#000000" stroke-width="2" d="M82.2037,-205.3927C92.0056,-197.873 104.9276,-187.9597 115.4539,-179.8843"/>
<polygon fill="#000000" stroke="#000000" stroke-width="2" points="116.6044,-181.2074 119.5063,-176.7754 114.474,-178.4304 116.6044,-181.2074"/>
</g>
<!-- n5 -->
<g id="node6" class="node">
<title>n5</title>
<polygon fill="#ffffff" stroke="#000000" stroke-width="2" points="111.841,-125.4036 88.8274,-125.4036 88.8274,-102.5964 111.841,-102.5964 111.841,-125.4036"/>
<text text-anchor="middle" x="100.3342" y="-110.4" font-family="Helvetica,sans-Serif" font-weight="bold" font-size="12.00" fill="#0000ff">=</text>
</g>
<!-- n4&#45;&gt;n5 -->
<g id="edge5" class="edge">
<title>n4-&gt;n5</title>
<path fill="none" stroke="#000000" stroke-width="2" d="M126.7885,-153.9927C122.0345,-146.8057 115.8341,-137.4323 110.6312,-129.5666"/>
<polygon fill="#000000" stroke="#000000" stroke-width="2" points="112.0769,-128.5802 107.8588,-125.3754 109.1578,-130.5112 112.0769,-128.5802"/>
</g>
<!-- n9 -->
<g id="node10" class="node">
<title>n9</title>
<polygon fill="#ffffff" stroke="#000000" stroke-width="2" points="209.1733,-125.4036 129.4951,-125.4036 129.4951,-102.5964 209.1733,-102.5964 209.1733,-125.4036"/>
<text text-anchor="middle" x="169.3342" y="-110.4" font-family="Helvetica,sans-Serif" font-weight="bold" font-size="12.00" fill="#0000ff">VAR_DECL</text>
</g>
<!-- n4&#45;&gt;n9 -->
<g id="edge9" class="edge">
<title>n4-&gt;n9</title>
<path fill="none" stroke="#000000" stroke-width="2" d="M142.1018,-153.9927C146.9957,-146.8057 153.3784,-137.4323 158.7343,-129.5666"/>
<polygon fill="#000000" stroke="#000000" stroke-width="2" points="160.2205,-130.4933 161.5883,-125.3754 157.3275,-128.5233 160.2205,-130.4933"/>
</g>
<!-- n6 -->
<g id="node7" class="node">
<title>n6</title>
<polygon fill="#ffffff" stroke="#000000" stroke-width="2" points="61.3342,-74.0036 39.3342,-74.0036 39.3342,-51.1964 61.3342,-51.1964 61.3342,-74.0036"/>
<text text-anchor="middle" x="50.3342" y="-59" font-family="Helvetica,sans-Serif" font-weight="bold" font-size="12.00" fill="#0000ff">x</text>
</g>
<!-- n5&#45;&gt;n6 -->
<g id="edge6" class="edge">
<title>n5-&gt;n6</title>
<path fill="none" stroke="#000000" stroke-width="2" d="M89.2376,-102.5927C82.1169,-95.2726 72.7898,-85.6843 65.0533,-77.7312"/>
<polygon fill="#000000" stroke="#000000" stroke-width="2" points="66.1406,-76.3392 61.3998,-73.9754 63.6318,-78.7797 66.1406,-76.3392"/>
</g>
<!-- n7 -->
<g id="node8" class="node">
<title>n7</title>
<polygon fill="#ffffff" stroke="#000000" stroke-width="2" points="127.5065,-74.0036 79.1619,-74.0036 79.1619,-51.1964 127.5065,-51.1964 127.5065,-74.0036"/>
<text text-anchor="middle" x="103.3342" y="-59" font-family="Helvetica,sans-Serif" font-weight="bold" font-size="12.00" fill="#0000ff">EXPR</text>
</g>
<!-- n5&#45;&gt;n7 -->
<g id="edge7" class="edge">
<title>n5-&gt;n7</title>
<path fill="none" stroke="#000000" stroke-width="2" d="M101,-102.5927C101.4039,-95.6719 101.9262,-86.7236 102.3743,-79.0466"/>
<polygon fill="#000000" stroke="#000000" stroke-width="2" points="104.1259,-79.0689 102.6703,-73.9754 100.6318,-78.8649 104.1259,-79.0689"/>
</g>
<!-- n8 -->
<g id="node9" class="node">
<title>n8</title>
<polygon fill="#ffffff" stroke="#000000" stroke-width="2" points="114.5074,-22.6036 92.161,-22.6036 92.161,.2036 114.5074,.2036 114.5074,-22.6036"/>
<text text-anchor="middle" x="103.3342" y="-7.6" font-family="Helvetica,sans-Serif" font-weight="bold" font-size="12.00" fill="#0000ff">3</text>
</g>
<!-- n7&#45;&gt;n8 -->
<g id="edge8" class="edge">
<title>n7-&gt;n8</title>
<path fill="none" stroke="#000000" stroke-width="2" d="M103.3342,-51.1927C103.3342,-44.2719 103.3342,-35.3236 103.3342,-27.6466"/>
<polygon fill="#000000" stroke="#000000" stroke-width="2" points="105.0843,-27.5754 103.3342,-22.5754 101.5843,-27.5755 105.0843,-27.5754"/>
</g>
<!-- n10 -->
<g id="node11" class="node">
<title>n10</title>
<polygon fill="#ffffff" stroke="#000000" stroke-width="2" points="180.5045,-74.0036 152.1639,-74.0036 152.1639,-51.1964 180.5045,-51.1964 180.5045,-74.0036"/>
<text text-anchor="middle" x="166.3342" y="-59" font-family="Helvetica,sans-Serif" font-weight="bold" font-size="12.00" fill="#0000ff">int</text>
</g>
<!-- n9&#45;&gt;n10 -->
<g id="edge10" class="edge">
<title>n9-&gt;n10</title>
<path fill="none" stroke="#000000" stroke-width="2" d="M168.6684,-102.5927C168.2645,-95.6719 167.7422,-86.7236 167.2941,-79.0466"/>
<polygon fill="#000000" stroke="#000000" stroke-width="2" points="169.0366,-78.8649 166.9981,-73.9754 165.5425,-79.0689 169.0366,-78.8649"/>
</g>
<!-- n11 -->
<g id="node12" class="node">
<title>n11</title>
<polygon fill="#ffffff" stroke="#000000" stroke-width="2" points="220.3342,-74.0036 198.3342,-74.0036 198.3342,-51.1964 220.3342,-51.1964 220.3342,-74.0036"/>
<text text-anchor="middle" x="209.3342" y="-59" font-family="Helvetica,sans-Serif" font-weight="bold" font-size="12.00" fill="#0000ff">x</text>
</g>
<!-- n9&#45;&gt;n11 -->
<g id="edge11" class="edge">
<title>n9-&gt;n11</title>
<path fill="none" stroke="#000000" stroke-width="2" d="M178.2115,-102.5927C183.8044,-95.4057 191.099,-86.0323 197.2201,-78.1666"/>
<polygon fill="#000000" stroke="#000000" stroke-width="2" points="198.792,-78.9962 200.4817,-73.9754 196.0298,-76.8466 198.792,-78.9962"/>
</g>
</g>
</svg>