<?xml version="1.0" encoding="UTF-8" standalone="no"?><!DOCTYPE svg PUBLIC "-//W3C//DTD SVG 1.1//EN" "http://www.w3.org/Graphics/SVG/1.1/DTD/svg11.dtd"><!-- Generated by graphviz version 2.40.1 (20161225.0304)
 --><!-- Title: %0 Pages: 1 --><svg xmlns="http://www.w3.org/2000/svg" xmlns:xlink="http://www.w3.org/1999/xlink" width="900pt" height="386pt" viewBox="0.00 0.00 900.00 385.80">
<g id="graph0" class="graph" transform="scale(1 1) rotate(0) translate(4 381.8)">
<title>%0</title>
<polygon fill="#d3d3d3" stroke="transparent" points="-4,4 -4,-381.8 896.0014,-381.8 896.0014,4 -4,4"/>
<!-- n0 -->
<g id="node1" class="node">
<title>n0</title>
<polygon fill="#ffffff" stroke="#000000" stroke-width="2" points="561.0014,-377.8 543.0014,-377.8 543.0014,-359.8 561.0014,-359.8 561.0014,-377.8"/>
</g>
<!-- n1 -->
<g id="node2" class="node">
<title>n1</title>
<polygon fill="#ffffff" stroke="#000000" stroke-width="2" points="293.8378,-331.0036 248.165,-331.0036 248.165,-308.1964 293.8378,-308.1964 293.8378,-331.0036"/>
<text text-anchor="middle" x="271.0014" y="-316" font-family="Helvetica,sans-Serif" font-weight="bold" font-size="12.00" fill="#0000ff">struct</text>
</g>
<!-- n0&#45;&gt;n1 -->
<g id="edge1" class="edge">
<title>n0-&gt;n1</title>
<path fill="none" stroke="#000000" stroke-width="2" d="M542.9703,-367.2188C505.4166,-360.6435 360.7067,-335.3064 299.066,-324.5138"/>
<polygon fill="#000000" stroke="#000000" stroke-width="2" points="299.2955,-322.7774 294.0686,-323.6388 298.6918,-326.225 299.2955,-322.7774"/>
</g>
<!-- n22 -->
<g id="node23" class="node">
<title>n22</title>
<polygon fill="#ffffff" stroke="#000000" stroke-width="2" points="591.8405,-331.0036 512.1623,-331.0036 512.1623,-308.1964 591.8405,-308.1964 591.8405,-331.0036"/>
<text text-anchor="middle" x="552.0014" y="-316" font-family="Helvetica,sans-Serif" font-weight="bold" font-size="12.00" fill="#0000ff">VAR_DECL</text>
</g>
<!-- n0&#45;&gt;n22 -->
<g id="edge22" class="edge">
<title>n0-&gt;n22</title>
<path fill="none" stroke="#000000" stroke-width="2" d="M552.0014,-359.776C552.0014,-353.1943 552.0014,-344.0857 552.0014,-336.2052"/>
<polygon fill="#000000" stroke="#000000" stroke-width="2" points="553.7515,-335.9917 552.0014,-330.9918 550.2515,-335.9918 553.7515,-335.9917"/>
</g>
<!-- n25 -->
<g id="node26" class="node">
<title>n25</title>
<polygon fill="#ffffff" stroke="#000000" stroke-width="2" points="728.1607,-331.0036 621.8421,-331.0036 621.8421,-308.1964 728.1607,-308.1964 728.1607,-331.0036"/>
<text text-anchor="middle" x="675.0014" y="-316" font-family="Helvetica,sans-Serif" font-weight="bold" font-size="12.00" fill="#0000ff">METHOD_DECL</text>
</g>
<!-- n0&#45;&gt;n25 -->
<g id="edge25" class="edge">
<title>n0-&gt;n25</title>
<path fill="none" stroke="#000000" stroke-width="2" d="M561.2464,-365.102C578.1296,-358.3487 614.7106,-343.7163 641.8561,-332.8581"/>
<polygon fill="#000000" stroke="#000000" stroke-width="2" points="642.8156,-334.3592 646.808,-330.8773 641.5157,-331.1095 642.8156,-334.3592"/>
</g>
<!-- n2 -->
<g id="node3" class="node">
<title>n2</title>
<polygon fill="#ffffff" stroke="#000000" stroke-width="2" points="24.0042,-279.6036 -.0014,-279.6036 -.0014,-256.7964 24.0042,-256.7964 24.0042,-279.6036"/>
<text text-anchor="middle" x="12.0014" y="-264.6" font-family="Helvetica,sans-Serif" font-weight="bold" font-size="12.00" fill="#0000ff">A</text>
</g>
<!-- n1&#45;&gt;n2 -->
<g id="edge2" class="edge">
<title>n1-&gt;n2</title>
<path fill="none" stroke="#000000" stroke-width="2" d="M248.0922,-318.1878C204.9519,-314.9966 109.1525,-305.3682 33.0014,-279.4 31.6082,-278.9249 30.196,-278.3651 28.7972,-277.7535"/>
<polygon fill="#000000" stroke="#000000" stroke-width="2" points="29.4049,-276.1041 24.1396,-275.5215 27.8923,-279.2605 29.4049,-276.1041"/>
</g>
<!-- n3 -->
<g id="node4" class="node">
<title>n3</title>
<polygon fill="#ffffff" stroke="#000000" stroke-width="2" points="130.174,-279.6036 41.8288,-279.6036 41.8288,-256.7964 130.174,-256.7964 130.174,-279.6036"/>
<text text-anchor="middle" x="86.0014" y="-264.6" font-family="Helvetica,sans-Serif" font-weight="bold" font-size="12.00" fill="#0000ff">FIELD_DECL</text>
</g>
<!-- n1&#45;&gt;n3 -->
<g id="edge3" class="edge">
<title>n1-&gt;n3</title>
<path fill="none" stroke="#000000" stroke-width="2" d="M248.3168,-313.2974C219.3223,-305.2416 168.4478,-291.1067 131.3656,-280.8039"/>
<polygon fill="#000000" stroke="#000000" stroke-width="2" points="131.7435,-279.0927 126.4575,-279.4402 130.8065,-282.4649 131.7435,-279.0927"/>
</g>
<!-- n6 -->
<g id="node7" class="node">
<title>n6</title>
<polygon fill="#ffffff" stroke="#000000" stroke-width="2" points="208.8378,-279.6036 163.165,-279.6036 163.165,-256.7964 208.8378,-256.7964 208.8378,-279.6036"/>
<text text-anchor="middle" x="186.0014" y="-264.6" font-family="Helvetica,sans-Serif" font-weight="bold" font-size="12.00" fill="#0000ff">struct</text>
</g>
<!-- n1&#45;&gt;n6 -->
<g id="edge6" class="edge">
<title>n1-&gt;n6</title>
<path fill="none" stroke="#000000" stroke-width="2" d="M252.1371,-308.1927C239.4818,-300.5399 222.7267,-290.408 209.2478,-282.2572"/>
<polygon fill="#000000" stroke="#000000" stroke-width="2" points="209.9971,-280.6653 204.8129,-279.5754 208.1859,-283.6603 209.9971,-280.6653"/>
</g>
<!-- n11 -->
<g id="node12" class="node">
<title>n11</title>
<polygon fill="#ffffff" stroke="#000000" stroke-width="2" points="315.174,-279.6036 226.8288,-279.6036 226.8288,-256.7964 315.174,-256.7964 315.174,-279.6036"/>
<text text-anchor="middle" x="271.0014" y="-264.6" font-family="Helvetica,sans-Serif" font-weight="bold" font-size="12.00" fill="#0000ff">FIELD_DECL</text>
</g>
<!-- n1&#45;&gt;n11 -->
<g id="edge11" class="edge">
<title>n1-&gt;n11</title>
<path fill="none" stroke="#000000" stroke-width="2" d="M271.0014,-308.1927C271.0014,-301.2719 271.0014,-292.3236 271.0014,-284.6466"/>
<polygon fill="#000000" stroke="#000000" stroke-width="2" points="272.7515,-284.5754 271.0014,-279.5754 269.2515,-284.5755 272.7515,-284.5754"/>
</g>
<!-- n14 -->
<g id="node15" class="node">
<title>n14</title>
<polygon fill="#ffffff" stroke="#000000" stroke-width="2" points="378.8378,-279.6036 333.165,-279.6036 333.165,-256.7964 378.8378,-256.7964 378.8378,-279.6036"/>
<text text-anchor="middle" x="356.0014" y="-264.6" font-family="Helvetica,sans-Serif" font-weight="bold" font-size="12.00" fill="#0000ff">struct</text>
</g>
<!-- n1&#45;&gt;n14 -->
<g id="edge14" class="edge">
<title>n1-&gt;n14</title>
<path fill="none" stroke="#000000" stroke-width="2" d="M289.8657,-308.1927C302.521,-300.5399 319.2761,-290.408 332.755,-282.2572"/>
<polygon fill="#000000" stroke="#000000" stroke-width="2" points="333.8169,-283.6603 337.1899,-279.5754 332.0057,-280.6653 333.8169,-283.6603"/>
</g>
<!-- n19 -->
<g id="node20" class="node">
<title>n19</title>
<polygon fill="#ffffff" stroke="#000000" stroke-width="2" points="516.174,-279.6036 427.8288,-279.6036 427.8288,-256.7964 516.174,-256.7964 516.174,-279.6036"/>
<text text-anchor="middle" x="472.0014" y="-264.6" font-family="Helvetica,sans-Serif" font-weight="bold" font-size="12.00" fill="#0000ff">FIELD_DECL</text>
</g>
<!-- n1&#45;&gt;n19 -->
<g id="edge19" class="edge">
<title>n1-&gt;n19</title>
<path fill="none" stroke="#000000" stroke-width="2" d="M294.0587,-313.7038C325.371,-305.6965 382.1319,-291.1815 423.1416,-280.6945"/>
<polygon fill="#000000" stroke="#000000" stroke-width="2" points="423.6514,-282.3705 428.0619,-279.4363 422.7842,-278.9796 423.6514,-282.3705"/>
</g>
<!-- n4 -->
<g id="node5" class="node">
<title>n4</title>
<polygon fill="#ffffff" stroke="#000000" stroke-width="2" points="48.1717,-228.2036 19.8311,-228.2036 19.8311,-205.3964 48.1717,-205.3964 48.1717,-228.2036"/>
<text text-anchor="middle" x="34.0014" y="-213.2" font-family="Helvetica,sans-Serif" font-weight="bold" font-size="12.00" fill="#0000ff">int</text>
</g>
<!-- n3&#45;&gt;n4 -->
<g id="edge4" class="edge">
<title>n3-&gt;n4</title>
<path fill="none" stroke="#000000" stroke-width="2" d="M74.4609,-256.7927C67.0554,-249.4726 57.3552,-239.8843 49.3093,-231.9312"/>
<polygon fill="#000000" stroke="#000000" stroke-width="2" points="50.2959,-230.4458 45.5096,-228.1754 47.8354,-232.935 50.2959,-230.4458"/>
</g>
<!-- n5 -->
<g id="node6" class="node">
<title>n5</title>
<polygon fill="#ffffff" stroke="#000000" stroke-width="2" points="88.0014,-228.2036 66.0014,-228.2036 66.0014,-205.3964 88.0014,-205.3964 88.0014,-228.2036"/>
<text text-anchor="middle" x="77.0014" y="-213.2" font-family="Helvetica,sans-Serif" font-weight="bold" font-size="12.00" fill="#0000ff">x</text>
</g>
<!-- n3&#45;&gt;n5 -->
<g id="edge5" class="edge">
<title>n3-&gt;n5</title>
<path fill="none" stroke="#000000" stroke-width="2" d="M84.004,-256.7927C82.7922,-249.8719 81.2254,-240.9236 79.8812,-233.2466"/>
<polygon fill="#000000" stroke="#000000" stroke-width="2" points="81.5794,-232.7987 78.9932,-228.1754 78.1319,-233.4024 81.5794,-232.7987"/>
</g>
<!-- n7 -->
<g id="node8" class="node">
<title>n7</title>
<polygon fill="#ffffff" stroke="#000000" stroke-width="2" points="130.0042,-228.2036 105.9986,-228.2036 105.9986,-205.3964 130.0042,-205.3964 130.0042,-228.2036"/>
<text text-anchor="middle" x="118.0014" y="-213.2" font-family="Helvetica,sans-Serif" font-weight="bold" font-size="12.00" fill="#0000ff">B</text>
</g>
<!-- n6&#45;&gt;n7 -->
<g id="edge7" class="edge">
<title>n6-&gt;n7</title>
<path fill="none" stroke="#000000" stroke-width="2" d="M170.91,-256.7927C160.1328,-248.6464 145.639,-237.6908 134.5465,-229.3061"/>
<polygon fill="#000000" stroke="#000000" stroke-width="2" points="135.3695,-227.7346 130.3255,-226.1156 133.259,-230.5267 135.3695,-227.7346"/>
</g>
<!-- n8 -->
<g id="node9" class="node">
<title>n8</title>
<polygon fill="#ffffff" stroke="#000000" stroke-width="2" points="236.174,-228.2036 147.8288,-228.2036 147.8288,-205.3964 236.174,-205.3964 236.174,-228.2036"/>
<text text-anchor="middle" x="192.0014" y="-213.2" font-family="Helvetica,sans-Serif" font-weight="bold" font-size="12.00" fill="#0000ff">FIELD_DECL</text>
</g>
<!-- n6&#45;&gt;n8 -->
<g id="edge8" class="edge">
<title>n6-&gt;n8</title>
<path fill="none" stroke="#000000" stroke-width="2" d="M187.333,-256.7927C188.1409,-249.8719 189.1854,-240.9236 190.0816,-233.2466"/>
<polygon fill="#000000" stroke="#000000" stroke-width="2" points="191.8319,-233.3447 190.6735,-228.1754 188.3555,-232.9388 191.8319,-233.3447"/>
</g>
<!-- n9 -->
<g id="node10" class="node">
<title>n9</title>
<polygon fill="#ffffff" stroke="#000000" stroke-width="2" points="184.1717,-176.8036 155.8311,-176.8036 155.8311,-153.9964 184.1717,-153.9964 184.1717,-176.8036"/>
<text text-anchor="middle" x="170.0014" y="-161.8" font-family="Helvetica,sans-Serif" font-weight="bold" font-size="12.00" fill="#0000ff">int</text>
</g>
<!-- n8&#45;&gt;n9 -->
<g id="edge9" class="edge">
<title>n8-&gt;n9</title>
<path fill="none" stroke="#000000" stroke-width="2" d="M187.1189,-205.3927C184.0997,-198.3388 180.179,-189.1787 176.8519,-181.4051"/>
<polygon fill="#000000" stroke="#000000" stroke-width="2" points="178.4466,-180.6835 174.8703,-176.7754 175.2289,-182.0607 178.4466,-180.6835"/>
</g>
<!-- n10 -->
<g id="node11" class="node">
<title>n10</title>
<polygon fill="#ffffff" stroke="#000000" stroke-width="2" points="224.0014,-176.8036 202.0014,-176.8036 202.0014,-153.9964 224.0014,-153.9964 224.0014,-176.8036"/>
<text text-anchor="middle" x="213.0014" y="-161.8" font-family="Helvetica,sans-Serif" font-weight="bold" font-size="12.00" fill="#0000ff">y</text>
</g>
<!-- n8&#45;&gt;n10 -->
<g id="edge10" class="edge">
<title>n8-&gt;n10</title>
<path fill="none" stroke="#000000" stroke-width="2" d="M196.662,-205.3927C199.5439,-198.3388 203.2864,-189.1787 206.4623,-181.4051"/>
<polygon fill="#000000" stroke="#000000" stroke-width="2" points="208.0827,-182.0659 208.3538,-176.7754 204.8427,-180.7421 208.0827,-182.0659"/>
</g>
<!-- n12 -->
<g id="node13" class="node">
<title>n12</title>
<polygon fill="#ffffff" stroke="#000000" stroke-width="2" points="278.0042,-228.2036 253.9986,-228.2036 253.9986,-205.3964 278.0042,-205.3964 278.0042,-228.2036"/>
<text text-anchor="middle" x="266.0014" y="-213.2" font-family="Helvetica,sans-Serif" font-weight="bold" font-size="12.00" fill="#0000ff">B</text>
</g>
<!-- n11&#45;&gt;n12 -->
<g id="edge12" class="edge">
<title>n11-&gt;n12</title>
<path fill="none" stroke="#000000" stroke-width="2" d="M269.8917,-256.7927C269.2185,-249.8719 268.3481,-240.9236 267.6013,-233.2466"/>
<polygon fill="#000000" stroke="#000000" stroke-width="2" points="269.3339,-232.9825 267.108,-228.1754 265.8504,-233.3214 269.3339,-232.9825"/>
</g>
<!-- n13 -->
<g id="node14" class="node">
<title>n13</title>
<polygon fill="#ffffff" stroke="#000000" stroke-width="2" points="318.1746,-228.2036 295.8282,-228.2036 295.8282,-205.3964 318.1746,-205.3964 318.1746,-228.2036"/>
<text text-anchor="middle" x="307.0014" y="-213.2" font-family="Helvetica,sans-Serif" font-weight="bold" font-size="12.00" fill="#0000ff">b</text>
</g>
<!-- n11&#45;&gt;n13 -->
<g id="edge13" class="edge">
<title>n11-&gt;n13</title>
<path fill="none" stroke="#000000" stroke-width="2" d="M278.991,-256.7927C284.0246,-249.6057 290.5897,-240.2323 296.0987,-232.3666"/>
<polygon fill="#000000" stroke="#000000" stroke-width="2" points="297.5991,-233.2748 299.0342,-228.1754 294.7323,-231.2669 297.5991,-233.2748"/>
</g>
<!-- n15 -->
<g id="node16" class="node">
<title>n15</title>
<polygon fill="#ffffff" stroke="#000000" stroke-width="2" points="361.1665,-228.2036 336.8363,-228.2036 336.8363,-205.3964 361.1665,-205.3964 361.1665,-228.2036"/>
<text text-anchor="middle" x="349.0014" y="-213.2" font-family="Helvetica,sans-Serif" font-weight="bold" font-size="12.00" fill="#0000ff">C</text>
</g>
<!-- n14&#45;&gt;n15 -->
<g id="edge15" class="edge">
<title>n14-&gt;n15</title>
<path fill="none" stroke="#000000" stroke-width="2" d="M354.4479,-256.7927C353.5054,-249.8719 352.2867,-240.9236 351.2412,-233.2466"/>
<polygon fill="#000000" stroke="#000000" stroke-width="2" points="352.9594,-232.8935 350.5506,-228.1754 349.4914,-233.3659 352.9594,-232.8935"/>
</g>
<!-- n16 -->
<g id="node17" class="node">
<title>n16</title>
<polygon fill="#ffffff" stroke="#000000" stroke-width="2" points="468.174,-228.2036 379.8288,-228.2036 379.8288,-205.3964 468.174,-205.3964 468.174,-228.2036"/>
<text text-anchor="middle" x="424.0014" y="-213.2" font-family="Helvetica,sans-Serif" font-weight="bold" font-size="12.00" fill="#0000ff">FIELD_DECL</text>
</g>
<!-- n14&#45;&gt;n16 -->
<g id="edge16" class="edge">
<title>n14-&gt;n16</title>
<path fill="none" stroke="#000000" stroke-width="2" d="M371.0928,-256.7927C381.041,-249.273 394.1559,-239.3597 404.8394,-231.2843"/>
<polygon fill="#000000" stroke="#000000" stroke-width="2" points="406.0187,-232.5865 408.9522,-228.1754 403.9082,-229.7944 406.0187,-232.5865"/>
</g>
<!-- n17 -->
<g id="node18" class="node">
<title>n17</title>
<polygon fill="#ffffff" stroke="#000000" stroke-width="2" points="416.1717,-176.8036 387.8311,-176.8036 387.8311,-153.9964 416.1717,-153.9964 416.1717,-176.8036"/>
<text text-anchor="middle" x="402.0014" y="-161.8" font-family="Helvetica,sans-Serif" font-weight="bold" font-size="12.00" fill="#0000ff">int</text>
</g>
<!-- n16&#45;&gt;n17 -->
<g id="edge17" class="edge">
<title>n16-&gt;n17</title>
<path fill="none" stroke="#000000" stroke-width="2" d="M419.1189,-205.3927C416.0997,-198.3388 412.179,-189.1787 408.8519,-181.4051"/>
<polygon fill="#000000" stroke="#000000" stroke-width="2" points="410.4466,-180.6835 406.8703,-176.7754 407.2289,-182.0607 410.4466,-180.6835"/>
</g>
<!-- n18 -->
<g id="node19" class="node">
<title>n18</title>
<polygon fill="#ffffff" stroke="#000000" stroke-width="2" points="456.0014,-176.8036 434.0014,-176.8036 434.0014,-153.9964 456.0014,-153.9964 456.0014,-176.8036"/>
<text text-anchor="middle" x="445.0014" y="-161.8" font-family="Helvetica,sans-Serif" font-weight="bold" font-size="12.00" fill="#0000ff">z</text>
</g>
<!-- n16&#45;&gt;n18 -->
<g id="edge18" class="edge">
<title>n16-&gt;n18</title>
<path fill="none" stroke="#000000" stroke-width="2" d="M428.662,-205.3927C431.5439,-198.3388 435.2864,-189.1787 438.4623,-181.4051"/>
<polygon fill="#000000" stroke="#000000" stroke-width="2" points="440.0827,-182.0659 440.3538,-176.7754 436.8427,-180.7421 440.0827,-182.0659"/>
</g>
<!-- n20 -->
<g id="node21" class="node">
<title>n20</title>
<polygon fill="#ffffff" stroke="#000000" stroke-width="2" points="511.1665,-228.2036 486.8363,-228.2036 486.8363,-205.3964 511.1665,-205.3964 511.1665,-228.2036"/>
<text text-anchor="middle" x="499.0014" y="-213.2" font-family="Helvetica,sans-Serif" font-weight="bold" font-size="12.00" fill="#0000ff">C</text>
</g>
<!-- n19&#45;&gt;n20 -->
<g id="edge20" class="edge">
<title>n19-&gt;n20</title>
<path fill="none" stroke="#000000" stroke-width="2" d="M477.9936,-256.7927C481.6989,-249.7388 486.5107,-240.5787 490.594,-232.8051"/>
<polygon fill="#000000" stroke="#000000" stroke-width="2" points="492.25,-233.4157 493.026,-228.1754 489.1515,-231.7881 492.25,-233.4157"/>
</g>
<!-- n21 -->
<g id="node22" class="node">
<title>n21</title>
<polygon fill="#ffffff" stroke="#000000" stroke-width="2" points="551.0014,-228.2036 529.0014,-228.2036 529.0014,-205.3964 551.0014,-205.3964 551.0014,-228.2036"/>
<text text-anchor="middle" x="540.0014" y="-213.2" font-family="Helvetica,sans-Serif" font-weight="bold" font-size="12.00" fill="#0000ff">c</text>
</g>
<!-- n19&#45;&gt;n21 -->
<g id="edge21" class="edge">
<title>n19-&gt;n21</title>
<path fill="none" stroke="#000000" stroke-width="2" d="M487.0928,-256.7927C498.2845,-248.333 513.4842,-236.8439 524.7207,-228.3504"/>
<polygon fill="#000000" stroke="#000000" stroke-width="2" points="526.0339,-229.5516 528.9673,-225.1405 523.9233,-226.7594 526.0339,-229.5516"/>
</g>
<!-- n23 -->
<g id="node24" class="node">
<title>n23</title>
<polygon fill="#ffffff" stroke="#000000" stroke-width="2" points="558.0042,-279.6036 533.9986,-279.6036 533.9986,-256.7964 558.0042,-256.7964 558.0042,-279.6036"/>
<text text-anchor="middle" x="546.0014" y="-264.6" font-family="Helvetica,sans-Serif" font-weight="bold" font-size="12.00" fill="#0000ff">A</text>
</g>
<!-- n22&#45;&gt;n23 -->
<g id="edge23" class="edge">
<title>n22-&gt;n23</title>
<path fill="none" stroke="#000000" stroke-width="2" d="M550.6698,-308.1927C549.8619,-301.2719 548.8174,-292.3236 547.9212,-284.6466"/>
<polygon fill="#000000" stroke="#000000" stroke-width="2" points="549.6473,-284.3388 547.3293,-279.5754 546.1709,-284.7447 549.6473,-284.3388"/>
</g>
<!-- n24 -->
<g id="node25" class="node">
<title>n24</title>
<polygon fill="#ffffff" stroke="#000000" stroke-width="2" points="598.1746,-279.6036 575.8282,-279.6036 575.8282,-256.7964 598.1746,-256.7964 598.1746,-279.6036"/>
<text text-anchor="middle" x="587.0014" y="-264.6" font-family="Helvetica,sans-Serif" font-weight="bold" font-size="12.00" fill="#0000ff">a</text>
</g>
<!-- n22&#45;&gt;n24 -->
<g id="edge24" class="edge">
<title>n22-&gt;n24</title>
<path fill="none" stroke="#000000" stroke-width="2" d="M559.769,-308.1927C564.6629,-301.0057 571.0456,-291.6323 576.4015,-283.7666"/>
<polygon fill="#000000" stroke="#000000" stroke-width="2" points="577.8877,-284.6933 579.2555,-279.5754 574.9947,-282.7233 577.8877,-284.6933"/>
</g>
<!-- n26 -->
<g id="node27" class="node">
<title>n26</title>
<polygon fill="#ffffff" stroke="#000000" stroke-width="2" points="654.0058,-279.6036 615.997,-279.6036 615.997,-256.7964 654.0058,-256.7964 654.0058,-279.6036"/>
<text text-anchor="middle" x="635.0014" y="-264.6" font-family="Helvetica,sans-Serif" font-weight="bold" font-size="12.00" fill="#0000ff">void</text>
</g>
<!-- n25&#45;&gt;n26 -->
<g id="edge26" class="edge">
<title>n25-&gt;n26</title>
<path fill="none" stroke="#000000" stroke-width="2" d="M666.1241,-308.1927C660.5312,-301.0057 653.2366,-291.6323 647.1155,-283.7666"/>
<polygon fill="#000000" stroke="#000000" stroke-width="2" points="648.3058,-282.4466 643.8539,-279.5754 645.5436,-284.5962 648.3058,-282.4466"/>
</g>
<!-- n27 -->
<g id="node28" class="node">
<title>n27</title>
<polygon fill="#ffffff" stroke="#000000" stroke-width="2" points="691.8391,-279.6036 672.1637,-279.6036 672.1637,-256.7964 691.8391,-256.7964 691.8391,-279.6036"/>
<text text-anchor="middle" x="682.0014" y="-264.6" font-family="Helvetica,sans-Serif" font-weight="bold" font-size="12.00" fill="#0000ff">f</text>
</g>
<!-- n25&#45;&gt;n27 -->
<g id="edge27" class="edge">
<title>n25-&gt;n27</title>
<path fill="none" stroke="#000000" stroke-width="2" d="M676.5549,-308.1927C677.4974,-301.2719 678.7161,-292.3236 679.7616,-284.6466"/>
<polygon fill="#000000" stroke="#000000" stroke-width="2" points="681.5114,-284.7659 680.4522,-279.5754 678.0434,-284.2935 681.5114,-284.7659"/>
</g>
<!-- n28 -->
<g id="node29" class="node">
<title>n28</title>
<polygon fill="#ffffff" stroke="#000000" stroke-width="2" points="766.1763,-279.6036 709.8265,-279.6036 709.8265,-256.7964 766.1763,-256.7964 766.1763,-279.6036"/>
<text text-anchor="middle" x="738.0014" y="-264.6" font-family="Helvetica,sans-Serif" font-weight="bold" font-size="12.00" fill="#0000ff">BLOCK</text>
</g>
<!-- n25&#45;&gt;n28 -->
<g id="edge28" class="edge">
<title>n25-&gt;n28</title>
<path fill="none" stroke="#000000" stroke-width="2" d="M688.9831,-308.1927C698.1183,-300.7395 710.1356,-290.9349 719.985,-282.8991"/>
<polygon fill="#000000" stroke="#000000" stroke-width="2" points="721.2909,-284.0923 724.0587,-279.5754 719.0783,-281.3803 721.2909,-284.0923"/>
</g>
<!-- n29 -->
<g id="node30" class="node">
<title>n29</title>
<polygon fill="#ffffff" stroke="#000000" stroke-width="2" points="676.8378,-228.2036 631.165,-228.2036 631.165,-205.3964 676.8378,-205.3964 676.8378,-228.2036"/>
<text text-anchor="middle" x="654.0014" y="-213.2" font-family="Helvetica,sans-Serif" font-weight="bold" font-size="12.00" fill="#0000ff">struct</text>
</g>
<!-- n28&#45;&gt;n29 -->
<g id="edge29" class="edge">
<title>n28-&gt;n29</title>
<path fill="none" stroke="#000000" stroke-width="2" d="M719.3591,-256.7927C706.8526,-249.1399 690.2946,-239.008 676.9743,-230.8572"/>
<polygon fill="#000000" stroke="#000000" stroke-width="2" points="677.7699,-229.2925 672.5916,-228.1754 675.9431,-232.2779 677.7699,-229.2925"/>
</g>
<!-- n34 -->
<g id="node35" class="node">
<title>n34</title>
<polygon fill="#ffffff" stroke="#000000" stroke-width="2" points="777.8405,-228.2036 698.1623,-228.2036 698.1623,-205.3964 777.8405,-205.3964 777.8405,-228.2036"/>
<text text-anchor="middle" x="738.0014" y="-213.2" font-family="Helvetica,sans-Serif" font-weight="bold" font-size="12.00" fill="#0000ff">VAR_DECL</text>
</g>
<!-- n28&#45;&gt;n34 -->
<g id="edge34" class="edge">
<title>n28-&gt;n34</title>
<path fill="none" stroke="#000000" stroke-width="2" d="M738.0014,-256.7927C738.0014,-249.8719 738.0014,-240.9236 738.0014,-233.2466"/>
<polygon fill="#000000" stroke="#000000" stroke-width="2" points="739.7515,-233.1754 738.0014,-228.1754 736.2515,-233.1755 739.7515,-233.1754"/>
</g>
<!-- n37 -->
<g id="node38" class="node">
<title>n37</title>
<polygon fill="#ffffff" stroke="#000000" stroke-width="2" points="821.5082,-228.2036 798.4946,-228.2036 798.4946,-205.3964 821.5082,-205.3964 821.5082,-228.2036"/>
<text text-anchor="middle" x="810.0014" y="-213.2" font-family="Helvetica,sans-Serif" font-weight="bold" font-size="12.00" fill="#0000ff">=</text>
</g>
<!-- n28&#45;&gt;n37 -->
<g id="edge37" class="edge">
<title>n28-&gt;n37</title>
<path fill="none" stroke="#000000" stroke-width="2" d="M753.9805,-256.7927C765.9355,-248.2582 782.2095,-236.6403 794.1367,-228.1256"/>
<polygon fill="#000000" stroke="#000000" stroke-width="2" points="795.2656,-229.4699 798.3183,-225.1405 793.232,-226.6213 795.2656,-229.4699"/>
</g>
<!-- n30 -->
<g id="node31" class="node">
<title>n30</title>
<polygon fill="#ffffff" stroke="#000000" stroke-width="2" points="591.1665,-176.8036 566.8363,-176.8036 566.8363,-153.9964 591.1665,-153.9964 591.1665,-176.8036"/>
<text text-anchor="middle" x="579.0014" y="-161.8" font-family="Helvetica,sans-Serif" font-weight="bold" font-size="12.00" fill="#0000ff">D</text>
</g>
<!-- n29&#45;&gt;n30 -->
<g id="edge30" class="edge">
<title>n29-&gt;n30</title>
<path fill="none" stroke="#000000" stroke-width="2" d="M637.3565,-205.3927C624.9034,-196.8582 607.9513,-185.2403 595.5271,-176.7256"/>
<polygon fill="#000000" stroke="#000000" stroke-width="2" points="596.285,-175.1235 591.1713,-173.7405 594.3064,-178.0106 596.285,-175.1235"/>
</g>
<!-- n31 -->
<g id="node32" class="node">
<title>n31</title>
<polygon fill="#ffffff" stroke="#000000" stroke-width="2" points="698.174,-176.8036 609.8288,-176.8036 609.8288,-153.9964 698.174,-153.9964 698.174,-176.8036"/>
<text text-anchor="middle" x="654.0014" y="-161.8" font-family="Helvetica,sans-Serif" font-weight="bold" font-size="12.00" fill="#0000ff">FIELD_DECL</text>
</g>
<!-- n29&#45;&gt;n31 -->
<g id="edge31" class="edge">
<title>n29-&gt;n31</title>
<path fill="none" stroke="#000000" stroke-width="2" d="M654.0014,-205.3927C654.0014,-198.4719 654.0014,-189.5236 654.0014,-181.8466"/>
<polygon fill="#000000" stroke="#000000" stroke-width="2" points="655.7515,-181.7754 654.0014,-176.7754 652.2515,-181.7755 655.7515,-181.7754"/>
</g>
<!-- n32 -->
<g id="node33" class="node">
<title>n32</title>
<polygon fill="#ffffff" stroke="#000000" stroke-width="2" points="647.1717,-125.4036 618.8311,-125.4036 618.8311,-102.5964 647.1717,-102.5964 647.1717,-125.4036"/>
<text text-anchor="middle" x="633.0014" y="-110.4" font-family="Helvetica,sans-Serif" font-weight="bold" font-size="12.00" fill="#0000ff">int</text>
</g>
<!-- n31&#45;&gt;n32 -->
<g id="edge32" class="edge">
<title>n31-&gt;n32</title>
<path fill="none" stroke="#000000" stroke-width="2" d="M649.3408,-153.9927C646.4589,-146.9388 642.7164,-137.7787 639.5405,-130.0051"/>
<polygon fill="#000000" stroke="#000000" stroke-width="2" points="641.1601,-129.3421 637.649,-125.3754 637.9201,-130.6659 641.1601,-129.3421"/>
</g>
<!-- n33 -->
<g id="node34" class="node">
<title>n33</title>
<polygon fill="#ffffff" stroke="#000000" stroke-width="2" points="684.1672,-125.4036 665.8356,-125.4036 665.8356,-102.5964 684.1672,-102.5964 684.1672,-125.4036"/>
<text text-anchor="middle" x="675.0014" y="-110.4" font-family="Helvetica,sans-Serif" font-weight="bold" font-size="12.00" fill="#0000ff">i</text>
</g>
<!-- n31&#45;&gt;n33 -->
<g id="edge33" class="edge">
<title>n31-&gt;n33</title>
<path fill="none" stroke="#000000" stroke-width="2" d="M658.662,-153.9927C661.5439,-146.9388 665.2864,-137.7787 668.4623,-130.0051"/>
<polygon fill="#000000" stroke="#000000" stroke-width="2" points="670.0827,-130.6659 670.3538,-125.3754 666.8427,-129.3421 670.0827,-130.6659"/>
</g>
<!-- n35 -->
<g id="node36" class="node">
<title>n35</title>
<polygon fill="#ffffff" stroke="#000000" stroke-width="2" points="741.1665,-176.8036 716.8363,-176.8036 716.8363,-153.9964 741.1665,-153.9964 741.1665,-176.8036"/>
<text text-anchor="middle" x="729.0014" y="-161.8" font-family="Helvetica,sans-Serif" font-weight="bold" font-size="12.00" fill="#0000ff">D</text>
</g>
<!-- n34&#45;&gt;n35 -->
<g id="edge35" class="edge">
<title>n34-&gt;n35</title>
<path fill="none" stroke="#000000" stroke-width="2" d="M736.004,-205.3927C734.7922,-198.4719 733.2254,-189.5236 731.8812,-181.8466"/>
<polygon fill="#000000" stroke="#000000" stroke-width="2" points="733.5794,-181.3987 730.9932,-176.7754 730.1319,-182.0024 733.5794,-181.3987"/>
</g>
<!-- n36 -->
<g id="node37" class="node">
<title>n36</title>
<polygon fill="#ffffff" stroke="#000000" stroke-width="2" points="782.1746,-176.8036 759.8282,-176.8036 759.8282,-153.9964 782.1746,-153.9964 782.1746,-176.8036"/>
<text text-anchor="middle" x="771.0014" y="-161.8" font-family="Helvetica,sans-Serif" font-weight="bold" font-size="12.00" fill="#0000ff">d</text>
</g>
<!-- n34&#45;&gt;n36 -->
<g id="edge36" class="edge">
<title>n34-&gt;n36</title>
<path fill="none" stroke="#000000" stroke-width="2" d="M745.3252,-205.3927C749.8539,-198.3388 755.7349,-189.1787 760.7257,-181.4051"/>
<polygon fill="#000000" stroke="#000000" stroke-width="2" points="762.4694,-181.9284 763.6981,-176.7754 759.5241,-180.0375 762.4694,-181.9284"/>
</g>
<!-- n38 -->
<g id="node39" class="node">
<title>n38</title>
<polygon fill="#ffffff" stroke="#000000" stroke-width="2" points="819.8391,-176.8036 800.1637,-176.8036 800.1637,-153.9964 819.8391,-153.9964 819.8391,-176.8036"/>
<text text-anchor="middle" x="810.0014" y="-161.8" font-family="Helvetica,sans-Serif" font-weight="bold" font-size="12.00" fill="#0000ff">.</text>
</g>
<!-- n37&#45;&gt;n38 -->
<g id="edge38" class="edge">
<title>n37-&gt;n38</title>
<path fill="none" stroke="#000000" stroke-width="2" d="M810.0014,-205.3927C810.0014,-198.4719 810.0014,-189.5236 810.0014,-181.8466"/>
<polygon fill="#000000" stroke="#000000" stroke-width="2" points="811.7515,-181.7754 810.0014,-176.7754 808.2515,-181.7755 811.7515,-181.7754"/>
</g>
<!-- n41 -->
<g id="node42" class="node">
<title>n41</title>
<polygon fill="#ffffff" stroke="#000000" stroke-width="2" points="886.1737,-176.8036 837.8291,-176.8036 837.8291,-153.9964 886.1737,-153.9964 886.1737,-176.8036"/>
<text text-anchor="middle" x="862.0014" y="-161.8" font-family="Helvetica,sans-Serif" font-weight="bold" font-size="12.00" fill="#0000ff">EXPR</text>
</g>
<!-- n37&#45;&gt;n41 -->
<g id="edge41" class="edge">
<title>n37-&gt;n41</title>
<path fill="none" stroke="#000000" stroke-width="2" d="M821.5419,-205.3927C828.9474,-198.0726 838.6476,-188.4843 846.6935,-180.5312"/>
<polygon fill="#000000" stroke="#000000" stroke-width="2" points="848.1674,-181.535 850.4932,-176.7754 845.7069,-179.0458 848.1674,-181.535"/>
</g>
<!-- n39 -->
<g id="node40" class="node">
<title>n39</title>
<polygon fill="#ffffff" stroke="#000000" stroke-width="2" points="789.1746,-125.4036 766.8282,-125.4036 766.8282,-102.5964 789.1746,-102.5964 789.1746,-125.4036"/>
<text text-anchor="middle" x="778.0014" y="-110.4" font-family="Helvetica,sans-Serif" font-weight="bold" font-size="12.00" fill="#0000ff">d</text>
</g>
<!-- n38&#45;&gt;n39 -->
<g id="edge39" class="edge">
<title>n38-&gt;n39</title>
<path fill="none" stroke="#000000" stroke-width="2" d="M802.8996,-153.9927C798.5081,-146.9388 792.8052,-137.7787 787.9657,-130.0051"/>
<polygon fill="#000000" stroke="#000000" stroke-width="2" points="789.2116,-128.6952 785.0834,-125.3754 786.2404,-130.545 789.2116,-128.6952"/>
</g>
<!-- n40 -->
<g id="node41" class="node">
<title>n40</title>
<polygon fill="#ffffff" stroke="#000000" stroke-width="2" points="826.1672,-125.4036 807.8356,-125.4036 807.8356,-102.5964 826.1672,-102.5964 826.1672,-125.4036"/>
<text text-anchor="middle" x="817.0014" y="-110.4" font-family="Helvetica,sans-Serif" font-weight="bold" font-size="12.00" fill="#0000ff">i</text>
</g>
<!-- n38&#45;&gt;n40 -->
<g id="edge40" class="edge">
<title>n38-&gt;n40</title>
<path fill="none" stroke="#000000" stroke-width="2" d="M811.5549,-153.9927C812.4974,-147.0719 813.7161,-138.1236 814.7616,-130.4466"/>
<polygon fill="#000000" stroke="#000000" stroke-width="2" points="816.5114,-130.5659 815.4522,-125.3754 813.0434,-130.0935 816.5114,-130.5659"/>
</g>
<!-- n42 -->
<g id="node43" class="node">
<title>n42</title>
<polygon fill="#ffffff" stroke="#000000" stroke-width="2" points="871.8391,-125.4036 852.1637,-125.4036 852.1637,-102.5964 871.8391,-102.5964 871.8391,-125.4036"/>
<text text-anchor="middle" x="862.0014" y="-110.4" font-family="Helvetica,sans-Serif" font-weight="bold" font-size="12.00" fill="#0000ff">.</text>
</g>
<!-- n41&#45;&gt;n42 -->
<g id="edge42" class="edge">
<title>n41-&gt;n42</title>
<path fill="none" stroke="#000000" stroke-width="2" d="M862.0014,-153.9927C862.0014,-147.0719 862.0014,-138.1236 862.0014,-130.4466"/>
<polygon fill="#000000" stroke="#000000" stroke-width="2" points="863.7515,-130.3754 862.0014,-125.3754 860.2515,-130.3755 863.7515,-130.3754"/>
</g>
<!-- n43 -->
<g id="node44" class="node">
<title>n43</title>
<polygon fill="#ffffff" stroke="#000000" stroke-width="2" points="851.8391,-74.0036 832.1637,-74.0036 832.1637,-51.1964 851.8391,-51.1964 851.8391,-74.0036"/>
<text text-anchor="middle" x="842.0014" y="-59" font-family="Helvetica,sans-Serif" font-weight="bold" font-size="12.00" fill="#0000ff">.</text>
</g>
<!-- n42&#45;&gt;n43 -->
<g id="edge43" class="edge">
<title>n42-&gt;n43</title>
<path fill="none" stroke="#000000" stroke-width="2" d="M857.5628,-102.5927C854.8698,-95.6719 851.388,-86.7236 848.4009,-79.0466"/>
<polygon fill="#000000" stroke="#000000" stroke-width="2" points="849.8717,-78.0005 846.4276,-73.9754 846.6099,-79.2697 849.8717,-78.0005"/>
</g>
<!-- n46 -->
<g id="node47" class="node">
<title>n46</title>
<polygon fill="#ffffff" stroke="#000000" stroke-width="2" points="892.0014,-74.0036 870.0014,-74.0036 870.0014,-51.1964 892.0014,-51.1964 892.0014,-74.0036"/>
<text text-anchor="middle" x="881.0014" y="-59" font-family="Helvetica,sans-Serif" font-weight="bold" font-size="12.00" fill="#0000ff">y</text>
</g>
<!-- n42&#45;&gt;n46 -->
<g id="edge46" class="edge">
<title>n42-&gt;n46</title>
<path fill="none" stroke="#000000" stroke-width="2" d="M866.2181,-102.5927C868.7764,-95.6719 872.0841,-86.7236 874.9219,-79.0466"/>
<polygon fill="#000000" stroke="#000000" stroke-width="2" points="876.7043,-79.2721 876.7965,-73.9754 873.4214,-78.0585 876.7043,-79.2721"/>
</g>
<!-- n44 -->
<g id="node45" class="node">
<title>n44</title>
<polygon fill="#ffffff" stroke="#000000" stroke-width="2" points="833.1746,-22.6036 810.8282,-22.6036 810.8282,.2036 833.1746,.2036 833.1746,-22.6036"/>
<text text-anchor="middle" x="822.0014" y="-7.6" font-family="Helvetica,sans-Serif" font-weight="bold" font-size="12.00" fill="#0000ff">a</text>
</g>
<!-- n43&#45;&gt;n44 -->
<g id="edge44" class="edge">
<title>n43-&gt;n44</title>
<path fill="none" stroke="#000000" stroke-width="2" d="M837.5628,-51.1927C834.8698,-44.2719 831.388,-35.3236 828.4009,-27.6466"/>
<polygon fill="#000000" stroke="#000000" stroke-width="2" points="829.8717,-26.6005 826.4276,-22.5754 826.6099,-27.8697 829.8717,-26.6005"/>
</g>
<!-- n45 -->
<g id="node46" class="node">
<title>n45</title>
<polygon fill="#ffffff" stroke="#000000" stroke-width="2" points="874.1746,-22.6036 851.8282,-22.6036 851.8282,.2036 874.1746,.2036 874.1746,-22.6036"/>
<text text-anchor="middle" x="863.0014" y="-7.6" font-family="Helvetica,sans-Serif" font-weight="bold" font-size="12.00" fill="#0000ff">b</text>
</g>
<!-- n43&#45;&gt;n45 -->
<g id="edge45" class="edge">
<title>n43-&gt;n45</title>
<path fill="none" stroke="#000000" stroke-width="2" d="M846.662,-51.1927C849.5439,-44.1388 853.2864,-34.9787 856.4623,-27.2051"/>
<polygon fill="#000000" stroke="#000000" stroke-width="2" points="858.0827,-27.8659 858.3538,-22.5754 854.8427,-26.5421 858.0827,-27.8659"/>
</g>
</g>
</svg>