<?xml version="1.0" encoding="UTF-8" standalone="no"?><!DOCTYPE svg PUBLIC "-//W3C//DTD SVG 1.1//EN" "http://www.w3.org/Graphics/SVG/1.1/DTD/svg11.dtd"><!-- Generated by graphviz version 2.40.1 (20161225.0304)
 --><!-- Title: %0 Pages: 1 --><svg xmlns="http://www.w3.org/2000/svg" xmlns:xlink="http://www.w3.org/1999/xlink" width="458pt" height="283pt" viewBox="0.00 0.00 458.34 283.00">
<g id="graph0" class="graph" transform="scale(1 1) rotate(0) translate(4 279)">
<title>%0</title>
<polygon fill="#d3d3d3" stroke="transparent" points="-4,4 -4,-279 454.337,-279 454.337,4 -4,4"/>
<!-- n0 -->
<g id="node1" class="node">
<title>n0</title>
<polygon fill="#ffffff" stroke="#000000" stroke-width="2" points="212.0014,-275 194.0014,-275 194.0014,-257 212.0014,-257 212.0014,-275"/>
</g>
<!-- n1 -->
<g id="node2" class="node">
<title>n1</title>
<polygon fill="#ffffff" stroke="#000000" stroke-width="2" points="178.8378,-228.2036 133.165,-228.2036 133.165,-205.3964 178.8378,-205.3964 178.8378,-228.2036"/>
<text text-anchor="middle" x="156.0014" y="-213.2" font-family="Helvetica,sans-Serif" font-weight="bold" font-size="12.00" fill="#0000ff">struct</text>
</g>
<!-- n0&#45;&gt;n1 -->
<g id="edge1" class="edge">
<title>n0-&gt;n1</title>
<path fill="none" stroke="#000000" stroke-width="2" d="M194.3809,-256.976C187.7308,-250.0146 178.3801,-240.2263 170.5735,-232.0542"/>
<polygon fill="#000000" stroke="#000000" stroke-width="2" points="171.603,-230.5984 166.8838,-228.1918 169.0722,-233.0161 171.603,-230.5984"/>
</g>
<!-- n9 -->
<g id="node10" class="node">
<title>n9</title>
<polygon fill="#ffffff" stroke="#000000" stroke-width="2" points="350.1607,-228.2036 243.8421,-228.2036 243.8421,-205.3964 350.1607,-205.3964 350.1607,-228.2036"/>
<text text-anchor="middle" x="297.0014" y="-213.2" font-family="Helvetica,sans-Serif" font-weight="bold" font-size="12.00" fill="#0000ff">METHOD_DECL</text>
</g>
<!-- n0&#45;&gt;n9 -->
<g id="edge9" class="edge">
<title>n0-&gt;n9</title>
<path fill="none" stroke="#000000" stroke-width="2" d="M212.0145,-261.2825C225.4009,-254.276 251.0669,-240.8423 270.7055,-230.5634"/>
<polygon fill="#000000" stroke="#000000" stroke-width="2" points="271.939,-231.893 275.5574,-228.0239 270.316,-228.7921 271.939,-231.893"/>
</g>
<!-- n2 -->
<g id="node3" class="node">
<title>n2</title>
<polygon fill="#ffffff" stroke="#000000" stroke-width="2" points="24.0042,-176.8036 -.0014,-176.8036 -.0014,-153.9964 24.0042,-153.9964 24.0042,-176.8036"/>
<text text-anchor="middle" x="12.0014" y="-161.8" font-family="Helvetica,sans-Serif" font-weight="bold" font-size="12.00" fill="#0000ff">A</text>
</g>
<!-- n1&#45;&gt;n2 -->
<g id="edge2" class="edge">
<title>n1-&gt;n2</title>
<path fill="none" stroke="#000000" stroke-width="2" d="M132.8946,-210.5535C107.8415,-203.4817 66.8947,-191.0467 33.0014,-176.6 31.6473,-176.0228 30.2634,-175.3894 28.8842,-174.7265"/>
<polygon fill="#000000" stroke="#000000" stroke-width="2" points="29.516,-173.0854 24.2633,-172.3985 27.9412,-176.2111 29.516,-173.0854"/>
</g>
<!-- n3 -->
<g id="node4" class="node">
<title>n3</title>
<polygon fill="#ffffff" stroke="#000000" stroke-width="2" points="130.174,-176.8036 41.8288,-176.8036 41.8288,-153.9964 130.174,-153.9964 130.174,-176.8036"/>
<text text-anchor="middle" x="86.0014" y="-161.8" font-family="Helvetica,sans-Serif" font-weight="bold" font-size="12.00" fill="#0000ff">FIELD_DECL</text>
</g>
<!-- n1&#45;&gt;n3 -->
<g id="edge3" class="edge">
<title>n1-&gt;n3</title>
<path fill="none" stroke="#000000" stroke-width="2" d="M140.4661,-205.3927C130.2253,-197.873 116.7247,-187.9597 105.727,-179.8843"/>
<polygon fill="#000000" stroke="#000000" stroke-width="2" points="106.5592,-178.3242 101.4932,-176.7754 104.4877,-181.1454 106.5592,-178.3242"/>
</g>
<!-- n6 -->
<g id="node7" class="node">
<title>n6</title>
<polygon fill="#ffffff" stroke="#000000" stroke-width="2" points="237.174,-176.8036 148.8288,-176.8036 148.8288,-153.9964 237.174,-153.9964 237.174,-176.8036"/>
<text text-anchor="middle" x="193.0014" y="-161.8" font-family="Helvetica,sans-Serif" font-weight="bold" font-size="12.00" fill="#0000ff">FIELD_DECL</text>
</g>
<!-- n1&#45;&gt;n6 -->
<g id="edge6" class="edge">
<title>n1-&gt;n6</title>
<path fill="none" stroke="#000000" stroke-width="2" d="M164.2129,-205.3927C169.3864,-198.2057 176.1338,-188.8323 181.7958,-180.9666"/>
<polygon fill="#000000" stroke="#000000" stroke-width="2" points="183.312,-181.8558 184.8129,-176.7754 180.4714,-179.811 183.312,-181.8558"/>
</g>
<!-- n4 -->
<g id="node5" class="node">
<title>n4</title>
<polygon fill="#ffffff" stroke="#000000" stroke-width="2" points="79.1717,-125.4036 50.8311,-125.4036 50.8311,-102.5964 79.1717,-102.5964 79.1717,-125.4036"/>
<text text-anchor="middle" x="65.0014" y="-110.4" font-family="Helvetica,sans-Serif" font-weight="bold" font-size="12.00" fill="#0000ff">int</text>
</g>
<!-- n3&#45;&gt;n4 -->
<g id="edge4" class="edge">
<title>n3-&gt;n4</title>
<path fill="none" stroke="#000000" stroke-width="2" d="M81.3408,-153.9927C78.4589,-146.9388 74.7164,-137.7787 71.5405,-130.0051"/>
<polygon fill="#000000" stroke="#000000" stroke-width="2" points="73.1601,-129.3421 69.649,-125.3754 69.9201,-130.6659 73.1601,-129.3421"/>
</g>
<!-- n5 -->
<g id="node6" class="node">
<title>n5</title>
<polygon fill="#ffffff" stroke="#000000" stroke-width="2" points="119.0014,-125.4036 97.0014,-125.4036 97.0014,-102.5964 119.0014,-102.5964 119.0014,-125.4036"/>
<text text-anchor="middle" x="108.0014" y="-110.4" font-family="Helvetica,sans-Serif" font-weight="bold" font-size="12.00" fill="#0000ff">x</text>
</g>
<!-- n3&#45;&gt;n5 -->
<g id="edge5" class="edge">
<title>n3-&gt;n5</title>
<path fill="none" stroke="#000000" stroke-width="2" d="M90.8839,-153.9927C93.9031,-146.9388 97.8238,-137.7787 101.1509,-130.0051"/>
<polygon fill="#000000" stroke="#000000" stroke-width="2" points="102.7739,-130.6607 103.1325,-125.3754 99.5562,-129.2835 102.7739,-130.6607"/>
</g>
<!-- n7 -->
<g id="node8" class="node">
<title>n7</title>
<polygon fill="#ffffff" stroke="#000000" stroke-width="2" points="207.1768,-125.4036 168.826,-125.4036 168.826,-102.5964 207.1768,-102.5964 207.1768,-125.4036"/>
<text text-anchor="middle" x="188.0014" y="-110.4" font-family="Helvetica,sans-Serif" font-weight="bold" font-size="12.00" fill="#0000ff">float</text>
</g>
<!-- n6&#45;&gt;n7 -->
<g id="edge7" class="edge">
<title>n6-&gt;n7</title>
<path fill="none" stroke="#000000" stroke-width="2" d="M191.8917,-153.9927C191.2185,-147.0719 190.3481,-138.1236 189.6013,-130.4466"/>
<polygon fill="#000000" stroke="#000000" stroke-width="2" points="191.3339,-130.1825 189.108,-125.3754 187.8504,-130.5214 191.3339,-130.1825"/>
</g>
<!-- n8 -->
<g id="node9" class="node">
<title>n8</title>
<polygon fill="#ffffff" stroke="#000000" stroke-width="2" points="247.0014,-125.4036 225.0014,-125.4036 225.0014,-102.5964 247.0014,-102.5964 247.0014,-125.4036"/>
<text text-anchor="middle" x="236.0014" y="-110.4" font-family="Helvetica,sans-Serif" font-weight="bold" font-size="12.00" fill="#0000ff">y</text>
</g>
<!-- n6&#45;&gt;n8 -->
<g id="edge8" class="edge">
<title>n6-&gt;n8</title>
<path fill="none" stroke="#000000" stroke-width="2" d="M202.5445,-153.9927C208.5569,-146.8057 216.3985,-137.4323 222.9787,-129.5666"/>
<polygon fill="#000000" stroke="#000000" stroke-width="2" points="224.6189,-130.3333 226.485,-125.3754 221.9344,-128.0875 224.6189,-130.3333"/>
</g>
<!-- n10 -->
<g id="node11" class="node">
<title>n10</title>
<polygon fill="#ffffff" stroke="#000000" stroke-width="2" points="293.0058,-176.8036 254.997,-176.8036 254.997,-153.9964 293.0058,-153.9964 293.0058,-176.8036"/>
<text text-anchor="middle" x="274.0014" y="-161.8" font-family="Helvetica,sans-Serif" font-weight="bold" font-size="12.00" fill="#0000ff">void</text>
</g>
<!-- n9&#45;&gt;n10 -->
<g id="edge10" class="edge">
<title>n9-&gt;n10</title>
<path fill="none" stroke="#000000" stroke-width="2" d="M291.897,-205.3927C288.7406,-198.3388 284.6417,-189.1787 281.1632,-181.4051"/>
<polygon fill="#000000" stroke="#000000" stroke-width="2" points="282.7312,-180.6246 279.0916,-176.7754 279.5365,-182.0542 282.7312,-180.6246"/>
</g>
<!-- n11 -->
<g id="node12" class="node">
<title>n11</title>
<polygon fill="#ffffff" stroke="#000000" stroke-width="2" points="330.8391,-176.8036 311.1637,-176.8036 311.1637,-153.9964 330.8391,-153.9964 330.8391,-176.8036"/>
<text text-anchor="middle" x="321.0014" y="-161.8" font-family="Helvetica,sans-Serif" font-weight="bold" font-size="12.00" fill="#0000ff">f</text>
</g>
<!-- n9&#45;&gt;n11 -->
<g id="edge11" class="edge">
<title>n9-&gt;n11</title>
<path fill="none" stroke="#000000" stroke-width="2" d="M302.3278,-205.3927C305.6214,-198.3388 309.8985,-189.1787 313.5282,-181.4051"/>
<polygon fill="#000000" stroke="#000000" stroke-width="2" points="315.1601,-182.0463 315.6899,-176.7754 311.9888,-180.5655 315.1601,-182.0463"/>
</g>
<!-- n12 -->
<g id="node13" class="node">
<title>n12</title>
<polygon fill="#ffffff" stroke="#000000" stroke-width="2" points="405.1763,-176.8036 348.8265,-176.8036 348.8265,-153.9964 405.1763,-153.9964 405.1763,-176.8036"/>
<text text-anchor="middle" x="377.0014" y="-161.8" font-family="Helvetica,sans-Serif" font-weight="bold" font-size="12.00" fill="#0000ff">BLOCK</text>
</g>
<!-- n9&#45;&gt;n12 -->
<g id="edge12" class="edge">
<title>n9-&gt;n12</title>
<path fill="none" stroke="#000000" stroke-width="2" d="M314.756,-205.3927C326.5633,-197.8065 342.1625,-187.784 354.7908,-179.6703"/>
<polygon fill="#000000" stroke="#000000" stroke-width="2" points="356.0358,-180.9505 359.2964,-176.7754 354.1439,-178.0059 356.0358,-180.9505"/>
</g>
<!-- n13 -->
<g id="node14" class="node">
<title>n13</title>
<polygon fill="#ffffff" stroke="#000000" stroke-width="2" points="351.8405,-125.4036 272.1623,-125.4036 272.1623,-102.5964 351.8405,-102.5964 351.8405,-125.4036"/>
<text text-anchor="middle" x="312.0014" y="-110.4" font-family="Helvetica,sans-Serif" font-weight="bold" font-size="12.00" fill="#0000ff">VAR_DECL</text>
</g>
<!-- n12&#45;&gt;n13 -->
<g id="edge13" class="edge">
<title>n12-&gt;n13</title>
<path fill="none" stroke="#000000" stroke-width="2" d="M362.5758,-153.9927C353.0665,-146.473 340.5301,-136.5597 330.3181,-128.4843"/>
<polygon fill="#000000" stroke="#000000" stroke-width="2" points="331.3941,-127.1041 326.3867,-125.3754 329.2232,-129.8495 331.3941,-127.1041"/>
</g>
<!-- n16 -->
<g id="node17" class="node">
<title>n16</title>
<polygon fill="#ffffff" stroke="#000000" stroke-width="2" points="392.5082,-125.4036 369.4946,-125.4036 369.4946,-102.5964 392.5082,-102.5964 392.5082,-125.4036"/>
<text text-anchor="middle" x="381.0014" y="-110.4" font-family="Helvetica,sans-Serif" font-weight="bold" font-size="12.00" fill="#0000ff">=</text>
</g>
<!-- n12&#45;&gt;n16 -->
<g id="edge16" class="edge">
<title>n12-&gt;n16</title>
<path fill="none" stroke="#000000" stroke-width="2" d="M377.8891,-153.9927C378.4277,-147.0719 379.1241,-138.1236 379.7215,-130.4466"/>
<polygon fill="#000000" stroke="#000000" stroke-width="2" points="381.4729,-130.4962 380.1162,-125.3754 377.9834,-130.2246 381.4729,-130.4962"/>
</g>
<!-- n14 -->
<g id="node15" class="node">
<title>n14</title>
<polygon fill="#ffffff" stroke="#000000" stroke-width="2" points="291.0042,-74.0036 266.9986,-74.0036 266.9986,-51.1964 291.0042,-51.1964 291.0042,-74.0036"/>
<text text-anchor="middle" x="279.0014" y="-59" font-family="Helvetica,sans-Serif" font-weight="bold" font-size="12.00" fill="#0000ff">A</text>
</g>
<!-- n13&#45;&gt;n14 -->
<g id="edge14" class="edge">
<title>n13-&gt;n14</title>
<path fill="none" stroke="#000000" stroke-width="2" d="M304.6776,-102.5927C300.1489,-95.5388 294.2679,-86.3787 289.2771,-78.6051"/>
<polygon fill="#000000" stroke="#000000" stroke-width="2" points="290.4787,-77.2375 286.3047,-73.9754 287.5334,-79.1284 290.4787,-77.2375"/>
</g>
<!-- n15 -->
<g id="node16" class="node">
<title>n15</title>
<polygon fill="#ffffff" stroke="#000000" stroke-width="2" points="331.1746,-74.0036 308.8282,-74.0036 308.8282,-51.1964 331.1746,-51.1964 331.1746,-74.0036"/>
<text text-anchor="middle" x="320.0014" y="-59" font-family="Helvetica,sans-Serif" font-weight="bold" font-size="12.00" fill="#0000ff">a</text>
</g>
<!-- n13&#45;&gt;n15 -->
<g id="edge15" class="edge">
<title>n13-&gt;n15</title>
<path fill="none" stroke="#000000" stroke-width="2" d="M313.7769,-102.5927C314.854,-95.6719 316.2468,-86.7236 317.4416,-79.0466"/>
<polygon fill="#000000" stroke="#000000" stroke-width="2" points="319.1911,-79.1851 318.2309,-73.9754 315.7327,-78.6468 319.1911,-79.1851"/>
</g>
<!-- n17 -->
<g id="node18" class="node">
<title>n17</title>
<polygon fill="#ffffff" stroke="#000000" stroke-width="2" points="383.8391,-74.0036 364.1637,-74.0036 364.1637,-51.1964 383.8391,-51.1964 383.8391,-74.0036"/>
<text text-anchor="middle" x="374.0014" y="-59" font-family="Helvetica,sans-Serif" font-weight="bold" font-size="12.00" fill="#0000ff">.</text>
</g>
<!-- n16&#45;&gt;n17 -->
<g id="edge17" class="edge">
<title>n16-&gt;n17</title>
<path fill="none" stroke="#000000" stroke-width="2" d="M379.4479,-102.5927C378.5054,-95.6719 377.2867,-86.7236 376.2412,-79.0466"/>
<polygon fill="#000000" stroke="#000000" stroke-width="2" points="377.9594,-78.6935 375.5506,-73.9754 374.4914,-79.1659 377.9594,-78.6935"/>
</g>
<!-- n20 -->
<g id="node21" class="node">
<title>n20</title>
<polygon fill="#ffffff" stroke="#000000" stroke-width="2" points="450.1737,-74.0036 401.8291,-74.0036 401.8291,-51.1964 450.1737,-51.1964 450.1737,-74.0036"/>
<text text-anchor="middle" x="426.0014" y="-59" font-family="Helvetica,sans-Serif" font-weight="bold" font-size="12.00" fill="#0000ff">EXPR</text>
</g>
<!-- n16&#45;&gt;n20 -->
<g id="edge20" class="edge">
<title>n16-&gt;n20</title>
<path fill="none" stroke="#000000" stroke-width="2" d="M390.9884,-102.5927C397.2804,-95.4057 405.4868,-86.0323 412.373,-78.1666"/>
<polygon fill="#000000" stroke="#000000" stroke-width="2" points="414.0655,-78.8902 416.0424,-73.9754 411.4321,-76.5847 414.0655,-78.8902"/>
</g>
<!-- n18 -->
<g id="node19" class="node">
<title>n18</title>
<polygon fill="#ffffff" stroke="#000000" stroke-width="2" points="351.1746,-22.6036 328.8282,-22.6036 328.8282,.2036 351.1746,.2036 351.1746,-22.6036"/>
<text text-anchor="middle" x="340.0014" y="-7.6" font-family="Helvetica,sans-Serif" font-weight="bold" font-size="12.00" fill="#0000ff">a</text>
</g>
<!-- n17&#45;&gt;n18 -->
<g id="edge18" class="edge">
<title>n17-&gt;n18</title>
<path fill="none" stroke="#000000" stroke-width="2" d="M366.4557,-51.1927C361.7017,-44.0057 355.5013,-34.6323 350.2984,-26.7666"/>
<polygon fill="#000000" stroke="#000000" stroke-width="2" points="351.7441,-25.7802 347.526,-22.5754 348.825,-27.7112 351.7441,-25.7802"/>
</g>
<!-- n19 -->
<g id="node20" class="node">
<title>n19</title>
<polygon fill="#ffffff" stroke="#000000" stroke-width="2" points="391.0014,-22.6036 369.0014,-22.6036 369.0014,.2036 391.0014,.2036 391.0014,-22.6036"/>
<text text-anchor="middle" x="380.0014" y="-7.6" font-family="Helvetica,sans-Serif" font-weight="bold" font-size="12.00" fill="#0000ff">x</text>
</g>
<!-- n17&#45;&gt;n19 -->
<g id="edge19" class="edge">
<title>n17-&gt;n19</title>
<path fill="none" stroke="#000000" stroke-width="2" d="M375.333,-51.1927C376.1409,-44.2719 377.1854,-35.3236 378.0816,-27.6466"/>
<polygon fill="#000000" stroke="#000000" stroke-width="2" points="379.8319,-27.7447 378.6735,-22.5754 376.3555,-27.3388 379.8319,-27.7447"/>
</g>
<!-- n21 -->
<g id="node22" class="node">
<title>n21</title>
<polygon fill="#ffffff" stroke="#000000" stroke-width="2" points="437.1746,-22.6036 414.8282,-22.6036 414.8282,.2036 437.1746,.2036 437.1746,-22.6036"/>
<text text-anchor="middle" x="426.0014" y="-7.6" font-family="Helvetica,sans-Serif" font-weight="bold" font-size="12.00" fill="#0000ff">1</text>
</g>
<!-- n20&#45;&gt;n21 -->
<g id="edge21" class="edge">
<title>n20-&gt;n21</title>
<path fill="none" stroke="#000000" stroke-width="2" d="M426.0014,-51.1927C426.0014,-44.2719 426.0014,-35.3236 426.0014,-27.6466"/>
<polygon fill="#000000" stroke="#000000" stroke-width="2" points="427.7515,-27.5754 426.0014,-22.5754 424.2515,-27.5755 427.7515,-27.5754"/>
</g>
</g>
</svg>