<?xml version="1.0" encoding="UTF-8" standalone="no"?><!DOCTYPE svg PUBLIC "-//W3C//DTD SVG 1.1//EN" "http://www.w3.org/Graphics/SVG/1.1/DTD/svg11.dtd"><!-- Generated by graphviz version 2.40.1 (20161225.0304)
 --><!-- Title: %0 Pages: 1 --><svg xmlns="http://www.w3.org/2000/svg" xmlns:xlink="http://www.w3.org/1999/xlink" width="1010pt" height="386pt" viewBox="0.00 0.00 1009.67 385.80">
<g id="graph0" class="graph" transform="scale(1 1) rotate(0) translate(4 381.8)">
<title>%0</title>
<polygon fill="#d3d3d3" stroke="transparent" points="-4,4 -4,-381.8 1005.6724,-381.8 1005.6724,4 -4,4"/>
<!-- n0 -->
<g id="node1" class="node">
<title>n0</title>
<polygon fill="#ffffff" stroke="#000000" stroke-width="2" points="206.0014,-377.8 188.0014,-377.8 188.0014,-359.8 206.0014,-359.8 206.0014,-377.8"/>
</g>
<!-- n1 -->
<g id="node2" class="node">
<title>n1</title>
<polygon fill="#ffffff" stroke="#000000" stroke-width="2" points="108.8378,-331.0036 63.165,-331.0036 63.165,-308.1964 108.8378,-308.1964 108.8378,-331.0036"/>
<text text-anchor="middle" x="86.0014" y="-316" font-family="Helvetica,sans-Serif" font-weight="bold" font-size="12.00" fill="#0000ff">struct</text>
</g>
<!-- n0&#45;&gt;n1 -->
<g id="edge1" class="edge">
<title>n0-&gt;n1</title>
<path fill="none" stroke="#000000" stroke-width="2" d="M187.9178,-364.7738C171.8992,-357.6736 138.0277,-342.6603 113.7272,-331.8893"/>
<polygon fill="#000000" stroke="#000000" stroke-width="2" points="114.283,-330.2215 109.0028,-329.7952 112.8647,-333.4213 114.283,-330.2215"/>
</g>
<!-- n6 -->
<g id="node7" class="node">
<title>n6</title>
<polygon fill="#ffffff" stroke="#000000" stroke-width="2" points="219.8378,-331.0036 174.165,-331.0036 174.165,-308.1964 219.8378,-308.1964 219.8378,-331.0036"/>
<text text-anchor="middle" x="197.0014" y="-316" font-family="Helvetica,sans-Serif" font-weight="bold" font-size="12.00" fill="#0000ff">struct</text>
</g>
<!-- n0&#45;&gt;n6 -->
<g id="edge6" class="edge">
<title>n0-&gt;n6</title>
<path fill="none" stroke="#000000" stroke-width="2" d="M197.0014,-359.776C197.0014,-353.1943 197.0014,-344.0857 197.0014,-336.2052"/>
<polygon fill="#000000" stroke="#000000" stroke-width="2" points="198.7515,-335.9917 197.0014,-330.9918 195.2515,-335.9918 198.7515,-335.9917"/>
</g>
<!-- n11 -->
<g id="node12" class="node">
<title>n11</title>
<polygon fill="#ffffff" stroke="#000000" stroke-width="2" points="429.1607,-331.0036 322.8421,-331.0036 322.8421,-308.1964 429.1607,-308.1964 429.1607,-331.0036"/>
<text text-anchor="middle" x="376.0014" y="-316" font-family="Helvetica,sans-Serif" font-weight="bold" font-size="12.00" fill="#0000ff">METHOD_DECL</text>
</g>
<!-- n0&#45;&gt;n11 -->
<g id="edge11" class="edge">
<title>n0-&gt;n11</title>
<path fill="none" stroke="#000000" stroke-width="2" d="M206.1241,-366.2925C228.5792,-360.1205 287.765,-343.8527 329.9489,-332.258"/>
<polygon fill="#000000" stroke="#000000" stroke-width="2" points="330.648,-333.8808 335.0053,-330.8682 329.7203,-330.506 330.648,-333.8808"/>
</g>
<!-- n2 -->
<g id="node3" class="node">
<title>n2</title>
<polygon fill="#ffffff" stroke="#000000" stroke-width="2" points="24.0042,-279.6036 -.0014,-279.6036 -.0014,-256.7964 24.0042,-256.7964 24.0042,-279.6036"/>
<text text-anchor="middle" x="12.0014" y="-264.6" font-family="Helvetica,sans-Serif" font-weight="bold" font-size="12.00" fill="#0000ff">A</text>
</g>
<!-- n1&#45;&gt;n2 -->
<g id="edge2" class="edge">
<title>n1-&gt;n2</title>
<path fill="none" stroke="#000000" stroke-width="2" d="M69.5784,-308.1927C57.2914,-299.6582 40.5653,-288.0403 28.3068,-279.5256"/>
<polygon fill="#000000" stroke="#000000" stroke-width="2" points="29.114,-277.9556 24.0091,-276.5405 27.1173,-280.8302 29.114,-277.9556"/>
</g>
<!-- n3 -->
<g id="node4" class="node">
<title>n3</title>
<polygon fill="#ffffff" stroke="#000000" stroke-width="2" points="130.174,-279.6036 41.8288,-279.6036 41.8288,-256.7964 130.174,-256.7964 130.174,-279.6036"/>
<text text-anchor="middle" x="86.0014" y="-264.6" font-family="Helvetica,sans-Serif" font-weight="bold" font-size="12.00" fill="#0000ff">FIELD_DECL</text>
</g>
<!-- n1&#45;&gt;n3 -->
<g id="edge3" class="edge">
<title>n1-&gt;n3</title>
<path fill="none" stroke="#000000" stroke-width="2" d="M86.0014,-308.1927C86.0014,-301.2719 86.0014,-292.3236 86.0014,-284.6466"/>
<polygon fill="#000000" stroke="#000000" stroke-width="2" points="87.7515,-284.5754 86.0014,-279.5754 84.2515,-284.5755 87.7515,-284.5754"/>
</g>
<!-- n4 -->
<g id="node5" class="node">
<title>n4</title>
<polygon fill="#ffffff" stroke="#000000" stroke-width="2" points="79.1717,-228.2036 50.8311,-228.2036 50.8311,-205.3964 79.1717,-205.3964 79.1717,-228.2036"/>
<text text-anchor="middle" x="65.0014" y="-213.2" font-family="Helvetica,sans-Serif" font-weight="bold" font-size="12.00" fill="#0000ff">int</text>
</g>
<!-- n3&#45;&gt;n4 -->
<g id="edge4" class="edge">
<title>n3-&gt;n4</title>
<path fill="none" stroke="#000000" stroke-width="2" d="M81.3408,-256.7927C78.4589,-249.7388 74.7164,-240.5787 71.5405,-232.8051"/>
<polygon fill="#000000" stroke="#000000" stroke-width="2" points="73.1601,-232.1421 69.649,-228.1754 69.9201,-233.4659 73.1601,-232.1421"/>
</g>
<!-- n5 -->
<g id="node6" class="node">
<title>n5</title>
<polygon fill="#ffffff" stroke="#000000" stroke-width="2" points="119.0014,-228.2036 97.0014,-228.2036 97.0014,-205.3964 119.0014,-205.3964 119.0014,-228.2036"/>
<text text-anchor="middle" x="108.0014" y="-213.2" font-family="Helvetica,sans-Serif" font-weight="bold" font-size="12.00" fill="#0000ff">x</text>
</g>
<!-- n3&#45;&gt;n5 -->
<g id="edge5" class="edge">
<title>n3-&gt;n5</title>
<path fill="none" stroke="#000000" stroke-width="2" d="M90.8839,-256.7927C93.9031,-249.7388 97.8238,-240.5787 101.1509,-232.8051"/>
<polygon fill="#000000" stroke="#000000" stroke-width="2" points="102.7739,-233.4607 103.1325,-228.1754 99.5562,-232.0835 102.7739,-233.4607"/>
</g>
<!-- n7 -->
<g id="node8" class="node">
<title>n7</title>
<polygon fill="#ffffff" stroke="#000000" stroke-width="2" points="172.0042,-279.6036 147.9986,-279.6036 147.9986,-256.7964 172.0042,-256.7964 172.0042,-279.6036"/>
<text text-anchor="middle" x="160.0014" y="-264.6" font-family="Helvetica,sans-Serif" font-weight="bold" font-size="12.00" fill="#0000ff">B</text>
</g>
<!-- n6&#45;&gt;n7 -->
<g id="edge7" class="edge">
<title>n6-&gt;n7</title>
<path fill="none" stroke="#000000" stroke-width="2" d="M188.7899,-308.1927C183.6164,-301.0057 176.869,-291.6323 171.207,-283.7666"/>
<polygon fill="#000000" stroke="#000000" stroke-width="2" points="172.5314,-282.611 168.1899,-279.5754 169.6908,-284.6558 172.5314,-282.611"/>
</g>
<!-- n8 -->
<g id="node9" class="node">
<title>n8</title>
<polygon fill="#ffffff" stroke="#000000" stroke-width="2" points="278.174,-279.6036 189.8288,-279.6036 189.8288,-256.7964 278.174,-256.7964 278.174,-279.6036"/>
<text text-anchor="middle" x="234.0014" y="-264.6" font-family="Helvetica,sans-Serif" font-weight="bold" font-size="12.00" fill="#0000ff">FIELD_DECL</text>
</g>
<!-- n6&#45;&gt;n8 -->
<g id="edge8" class="edge">
<title>n6-&gt;n8</title>
<path fill="none" stroke="#000000" stroke-width="2" d="M205.2129,-308.1927C210.3864,-301.0057 217.1338,-291.6323 222.7958,-283.7666"/>
<polygon fill="#000000" stroke="#000000" stroke-width="2" points="224.312,-284.6558 225.8129,-279.5754 221.4714,-282.611 224.312,-284.6558"/>
</g>
<!-- n9 -->
<g id="node10" class="node">
<title>n9</title>
<polygon fill="#ffffff" stroke="#000000" stroke-width="2" points="205.1717,-228.2036 176.8311,-228.2036 176.8311,-205.3964 205.1717,-205.3964 205.1717,-228.2036"/>
<text text-anchor="middle" x="191.0014" y="-213.2" font-family="Helvetica,sans-Serif" font-weight="bold" font-size="12.00" fill="#0000ff">int</text>
</g>
<!-- n8&#45;&gt;n9 -->
<g id="edge9" class="edge">
<title>n8-&gt;n9</title>
<path fill="none" stroke="#000000" stroke-width="2" d="M224.4583,-256.7927C218.4459,-249.6057 210.6043,-240.2323 204.0241,-232.3666"/>
<polygon fill="#000000" stroke="#000000" stroke-width="2" points="205.0684,-230.8875 200.5178,-228.1754 202.3839,-233.1333 205.0684,-230.8875"/>
</g>
<!-- n10 -->
<g id="node11" class="node">
<title>n10</title>
<polygon fill="#ffffff" stroke="#000000" stroke-width="2" points="245.0014,-228.2036 223.0014,-228.2036 223.0014,-205.3964 245.0014,-205.3964 245.0014,-228.2036"/>
<text text-anchor="middle" x="234.0014" y="-213.2" font-family="Helvetica,sans-Serif" font-weight="bold" font-size="12.00" fill="#0000ff">y</text>
</g>
<!-- n8&#45;&gt;n10 -->
<g id="edge10" class="edge">
<title>n8-&gt;n10</title>
<path fill="none" stroke="#000000" stroke-width="2" d="M234.0014,-256.7927C234.0014,-249.8719 234.0014,-240.9236 234.0014,-233.2466"/>
<polygon fill="#000000" stroke="#000000" stroke-width="2" points="235.7515,-233.1754 234.0014,-228.1754 232.2515,-233.1755 235.7515,-233.1754"/>
</g>
<!-- n12 -->
<g id="node13" class="node">
<title>n12</title>
<polygon fill="#ffffff" stroke="#000000" stroke-width="2" points="372.0058,-279.6036 333.997,-279.6036 333.997,-256.7964 372.0058,-256.7964 372.0058,-279.6036"/>
<text text-anchor="middle" x="353.0014" y="-264.6" font-family="Helvetica,sans-Serif" font-weight="bold" font-size="12.00" fill="#0000ff">void</text>
</g>
<!-- n11&#45;&gt;n12 -->
<g id="edge12" class="edge">
<title>n11-&gt;n12</title>
<path fill="none" stroke="#000000" stroke-width="2" d="M370.897,-308.1927C367.7406,-301.1388 363.6417,-291.9787 360.1632,-284.2051"/>
<polygon fill="#000000" stroke="#000000" stroke-width="2" points="361.7312,-283.4246 358.0916,-279.5754 358.5365,-284.8542 361.7312,-283.4246"/>
</g>
<!-- n13 -->
<g id="node14" class="node">
<title>n13</title>
<polygon fill="#ffffff" stroke="#000000" stroke-width="2" points="409.8391,-279.6036 390.1637,-279.6036 390.1637,-256.7964 409.8391,-256.7964 409.8391,-279.6036"/>
<text text-anchor="middle" x="400.0014" y="-264.6" font-family="Helvetica,sans-Serif" font-weight="bold" font-size="12.00" fill="#0000ff">f</text>
</g>
<!-- n11&#45;&gt;n13 -->
<g id="edge13" class="edge">
<title>n11-&gt;n13</title>
<path fill="none" stroke="#000000" stroke-width="2" d="M381.3278,-308.1927C384.6214,-301.1388 388.8985,-291.9787 392.5282,-284.2051"/>
<polygon fill="#000000" stroke="#000000" stroke-width="2" points="394.1601,-284.8463 394.6899,-279.5754 390.9888,-283.3655 394.1601,-284.8463"/>
</g>
<!-- n14 -->
<g id="node15" class="node">
<title>n14</title>
<polygon fill="#ffffff" stroke="#000000" stroke-width="2" points="562.1763,-279.6036 505.8265,-279.6036 505.8265,-256.7964 562.1763,-256.7964 562.1763,-279.6036"/>
<text text-anchor="middle" x="534.0014" y="-264.6" font-family="Helvetica,sans-Serif" font-weight="bold" font-size="12.00" fill="#0000ff">BLOCK</text>
</g>
<!-- n11&#45;&gt;n14 -->
<g id="edge14" class="edge">
<title>n11-&gt;n14</title>
<path fill="none" stroke="#000000" stroke-width="2" d="M410.6752,-308.3201C437.5275,-299.5845 474.4819,-287.5627 500.9228,-278.961"/>
<polygon fill="#000000" stroke="#000000" stroke-width="2" points="501.5195,-280.6073 505.7328,-277.3962 500.4367,-277.2789 501.5195,-280.6073"/>
</g>
<!-- n15 -->
<g id="node16" class="node">
<title>n15</title>
<polygon fill="#ffffff" stroke="#000000" stroke-width="2" points="342.8405,-228.2036 263.1623,-228.2036 263.1623,-205.3964 342.8405,-205.3964 342.8405,-228.2036"/>
<text text-anchor="middle" x="303.0014" y="-213.2" font-family="Helvetica,sans-Serif" font-weight="bold" font-size="12.00" fill="#0000ff">VAR_DECL</text>
</g>
<!-- n14&#45;&gt;n15 -->
<g id="edge15" class="edge">
<title>n14-&gt;n15</title>
<path fill="none" stroke="#000000" stroke-width="2" d="M505.7612,-262.1155C469.7912,-254.3383 405.7267,-240.3949 351.0014,-228 349.9164,-227.7543 348.8179,-227.5046 347.71,-227.2521"/>
<polygon fill="#000000" stroke="#000000" stroke-width="2" points="348.0692,-225.5391 342.8047,-226.1294 347.2883,-228.9509 348.0692,-225.5391"/>
</g>
<!-- n18 -->
<g id="node19" class="node">
<title>n18</title>
<polygon fill="#ffffff" stroke="#000000" stroke-width="2" points="439.8405,-228.2036 360.1623,-228.2036 360.1623,-205.3964 439.8405,-205.3964 439.8405,-228.2036"/>
<text text-anchor="middle" x="400.0014" y="-213.2" font-family="Helvetica,sans-Serif" font-weight="bold" font-size="12.00" fill="#0000ff">VAR_DECL</text>
</g>
<!-- n14&#45;&gt;n18 -->
<g id="edge18" class="edge">
<title>n14-&gt;n18</title>
<path fill="none" stroke="#000000" stroke-width="2" d="M505.5834,-257.2994C484.7278,-249.2995 456.3062,-238.3975 434.2049,-229.9198"/>
<polygon fill="#000000" stroke="#000000" stroke-width="2" points="434.5999,-228.1971 429.3047,-228.0402 433.3463,-231.4649 434.5999,-228.1971"/>
</g>
<!-- n21 -->
<g id="node22" class="node">
<title>n21</title>
<polygon fill="#ffffff" stroke="#000000" stroke-width="2" points="511.5082,-228.2036 488.4946,-228.2036 488.4946,-205.3964 511.5082,-205.3964 511.5082,-228.2036"/>
<text text-anchor="middle" x="500.0014" y="-213.2" font-family="Helvetica,sans-Serif" font-weight="bold" font-size="12.00" fill="#0000ff">=</text>
</g>
<!-- n14&#45;&gt;n21 -->
<g id="edge21" class="edge">
<title>n14-&gt;n21</title>
<path fill="none" stroke="#000000" stroke-width="2" d="M526.4557,-256.7927C521.7017,-249.6057 515.5013,-240.2323 510.2984,-232.3666"/>
<polygon fill="#000000" stroke="#000000" stroke-width="2" points="511.7441,-231.3802 507.526,-228.1754 508.825,-233.3112 511.7441,-231.3802"/>
</g>
<!-- n26 -->
<g id="node27" class="node">
<title>n26</title>
<polygon fill="#ffffff" stroke="#000000" stroke-width="2" points="608.8405,-228.2036 529.1623,-228.2036 529.1623,-205.3964 608.8405,-205.3964 608.8405,-228.2036"/>
<text text-anchor="middle" x="569.0014" y="-213.2" font-family="Helvetica,sans-Serif" font-weight="bold" font-size="12.00" fill="#0000ff">VAR_DECL</text>
</g>
<!-- n14&#45;&gt;n26 -->
<g id="edge26" class="edge">
<title>n14-&gt;n26</title>
<path fill="none" stroke="#000000" stroke-width="2" d="M541.769,-256.7927C546.6629,-249.6057 553.0456,-240.2323 558.4015,-232.3666"/>
<polygon fill="#000000" stroke="#000000" stroke-width="2" points="559.8877,-233.2933 561.2555,-228.1754 556.9947,-231.3233 559.8877,-233.2933"/>
</g>
<!-- n29 -->
<g id="node30" class="node">
<title>n29</title>
<polygon fill="#ffffff" stroke="#000000" stroke-width="2" points="714.8405,-228.2036 635.1623,-228.2036 635.1623,-205.3964 714.8405,-205.3964 714.8405,-228.2036"/>
<text text-anchor="middle" x="675.0014" y="-213.2" font-family="Helvetica,sans-Serif" font-weight="bold" font-size="12.00" fill="#0000ff">VAR_DECL</text>
</g>
<!-- n14&#45;&gt;n29 -->
<g id="edge29" class="edge">
<title>n14-&gt;n29</title>
<path fill="none" stroke="#000000" stroke-width="2" d="M562.196,-257.922C584.2546,-249.8808 615.0816,-238.6431 638.9363,-229.9471"/>
<polygon fill="#000000" stroke="#000000" stroke-width="2" points="639.817,-231.4888 643.9152,-228.1321 638.6182,-228.2005 639.817,-231.4888"/>
</g>
<!-- n36 -->
<g id="node37" class="node">
<title>n36</title>
<polygon fill="#ffffff" stroke="#000000" stroke-width="2" points="821.5082,-228.2036 798.4946,-228.2036 798.4946,-205.3964 821.5082,-205.3964 821.5082,-228.2036"/>
<text text-anchor="middle" x="810.0014" y="-213.2" font-family="Helvetica,sans-Serif" font-weight="bold" font-size="12.00" fill="#0000ff">=</text>
</g>
<!-- n14&#45;&gt;n36 -->
<g id="edge36" class="edge">
<title>n14-&gt;n36</title>
<path fill="none" stroke="#000000" stroke-width="2" d="M562.2412,-262.9409C619.4068,-252.2948 747.2871,-228.4794 793.1932,-219.9302"/>
<polygon fill="#000000" stroke="#000000" stroke-width="2" points="793.7798,-221.6011 798.3749,-218.9652 793.139,-218.1603 793.7798,-221.6011"/>
</g>
<!-- n47 -->
<g id="node48" class="node">
<title>n47</title>
<polygon fill="#ffffff" stroke="#000000" stroke-width="2" points="920.1737,-228.2036 871.8291,-228.2036 871.8291,-205.3964 920.1737,-205.3964 920.1737,-228.2036"/>
<text text-anchor="middle" x="896.0014" y="-213.2" font-family="Helvetica,sans-Serif" font-weight="bold" font-size="12.00" fill="#0000ff">EXPR</text>
</g>
<!-- n14&#45;&gt;n47 -->
<g id="edge47" class="edge">
<title>n14-&gt;n47</title>
<path fill="none" stroke="#000000" stroke-width="2" d="M562.3064,-264.7144C615.1807,-258.1265 732.5165,-243.1449 831.0014,-228 842.681,-226.2039 855.5066,-224.0359 866.6563,-222.0877"/>
<polygon fill="#000000" stroke="#000000" stroke-width="2" points="867.0293,-223.799 871.651,-221.2102 866.4236,-220.3518 867.0293,-223.799"/>
</g>
<!-- n16 -->
<g id="node17" class="node">
<title>n16</title>
<polygon fill="#ffffff" stroke="#000000" stroke-width="2" points="274.0042,-176.8036 249.9986,-176.8036 249.9986,-153.9964 274.0042,-153.9964 274.0042,-176.8036"/>
<text text-anchor="middle" x="262.0014" y="-161.8" font-family="Helvetica,sans-Serif" font-weight="bold" font-size="12.00" fill="#0000ff">A</text>
</g>
<!-- n15&#45;&gt;n16 -->
<g id="edge16" class="edge">
<title>n15-&gt;n16</title>
<path fill="none" stroke="#000000" stroke-width="2" d="M293.9022,-205.3927C288.1694,-198.2057 280.6925,-188.8323 274.4184,-180.9666"/>
<polygon fill="#000000" stroke="#000000" stroke-width="2" points="275.5612,-179.593 271.0752,-176.7754 272.8251,-181.7755 275.5612,-179.593"/>
</g>
<!-- n17 -->
<g id="node18" class="node">
<title>n17</title>
<polygon fill="#ffffff" stroke="#000000" stroke-width="2" points="314.1746,-176.8036 291.8282,-176.8036 291.8282,-153.9964 314.1746,-153.9964 314.1746,-176.8036"/>
<text text-anchor="middle" x="303.0014" y="-161.8" font-family="Helvetica,sans-Serif" font-weight="bold" font-size="12.00" fill="#0000ff">a</text>
</g>
<!-- n15&#45;&gt;n17 -->
<g id="edge17" class="edge">
<title>n15-&gt;n17</title>
<path fill="none" stroke="#000000" stroke-width="2" d="M303.0014,-205.3927C303.0014,-198.4719 303.0014,-189.5236 303.0014,-181.8466"/>
<polygon fill="#000000" stroke="#000000" stroke-width="2" points="304.7515,-181.7754 303.0014,-176.7754 301.2515,-181.7755 304.7515,-181.7754"/>
</g>
<!-- n19 -->
<g id="node20" class="node">
<title>n19</title>
<polygon fill="#ffffff" stroke="#000000" stroke-width="2" points="356.0042,-176.8036 331.9986,-176.8036 331.9986,-153.9964 356.0042,-153.9964 356.0042,-176.8036"/>
<text text-anchor="middle" x="344.0014" y="-161.8" font-family="Helvetica,sans-Serif" font-weight="bold" font-size="12.00" fill="#0000ff">B</text>
</g>
<!-- n18&#45;&gt;n19 -->
<g id="edge19" class="edge">
<title>n18-&gt;n19</title>
<path fill="none" stroke="#000000" stroke-width="2" d="M387.5732,-205.3927C379.4873,-197.971 368.861,-188.2176 360.1268,-180.2008"/>
<polygon fill="#000000" stroke="#000000" stroke-width="2" points="360.8775,-178.5144 356.0105,-176.4226 358.5108,-181.0929 360.8775,-178.5144"/>
</g>
<!-- n20 -->
<g id="node21" class="node">
<title>n20</title>
<polygon fill="#ffffff" stroke="#000000" stroke-width="2" points="396.1746,-176.8036 373.8282,-176.8036 373.8282,-153.9964 396.1746,-153.9964 396.1746,-176.8036"/>
<text text-anchor="middle" x="385.0014" y="-161.8" font-family="Helvetica,sans-Serif" font-weight="bold" font-size="12.00" fill="#0000ff">b</text>
</g>
<!-- n18&#45;&gt;n20 -->
<g id="edge20" class="edge">
<title>n18-&gt;n20</title>
<path fill="none" stroke="#000000" stroke-width="2" d="M396.6724,-205.3927C394.6527,-198.4719 392.0414,-189.5236 389.801,-181.8466"/>
<polygon fill="#000000" stroke="#000000" stroke-width="2" points="391.4018,-181.085 388.3211,-176.7754 388.0419,-182.0655 391.4018,-181.085"/>
</g>
<!-- n22 -->
<g id="node23" class="node">
<title>n22</title>
<polygon fill="#ffffff" stroke="#000000" stroke-width="2" points="463.1737,-176.8036 414.8291,-176.8036 414.8291,-153.9964 463.1737,-153.9964 463.1737,-176.8036"/>
<text text-anchor="middle" x="439.0014" y="-161.8" font-family="Helvetica,sans-Serif" font-weight="bold" font-size="12.00" fill="#0000ff">EXPR</text>
</g>
<!-- n21&#45;&gt;n22 -->
<g id="edge22" class="edge">
<title>n21-&gt;n22</title>
<path fill="none" stroke="#000000" stroke-width="2" d="M488.24,-206.8896C479.1931,-199.2665 466.555,-188.6173 456.348,-180.0166"/>
<polygon fill="#000000" stroke="#000000" stroke-width="2" points="457.3771,-178.5954 452.4258,-176.7117 455.1218,-181.2719 457.3771,-178.5954"/>
</g>
<!-- n24 -->
<g id="node25" class="node">
<title>n24</title>
<polygon fill="#ffffff" stroke="#000000" stroke-width="2" points="530.1737,-176.8036 481.8291,-176.8036 481.8291,-153.9964 530.1737,-153.9964 530.1737,-176.8036"/>
<text text-anchor="middle" x="506.0014" y="-161.8" font-family="Helvetica,sans-Serif" font-weight="bold" font-size="12.00" fill="#0000ff">EXPR</text>
</g>
<!-- n21&#45;&gt;n24 -->
<g id="edge24" class="edge">
<title>n21-&gt;n24</title>
<path fill="none" stroke="#000000" stroke-width="2" d="M501.333,-205.3927C502.1409,-198.4719 503.1854,-189.5236 504.0816,-181.8466"/>
<polygon fill="#000000" stroke="#000000" stroke-width="2" points="505.8319,-181.9447 504.6735,-176.7754 502.3555,-181.5388 505.8319,-181.9447"/>
</g>
<!-- n23 -->
<g id="node24" class="node">
<title>n23</title>
<polygon fill="#ffffff" stroke="#000000" stroke-width="2" points="450.1746,-125.4036 427.8282,-125.4036 427.8282,-102.5964 450.1746,-102.5964 450.1746,-125.4036"/>
<text text-anchor="middle" x="439.0014" y="-110.4" font-family="Helvetica,sans-Serif" font-weight="bold" font-size="12.00" fill="#0000ff">a</text>
</g>
<!-- n22&#45;&gt;n23 -->
<g id="edge23" class="edge">
<title>n22-&gt;n23</title>
<path fill="none" stroke="#000000" stroke-width="2" d="M439.0014,-153.9927C439.0014,-147.0719 439.0014,-138.1236 439.0014,-130.4466"/>
<polygon fill="#000000" stroke="#000000" stroke-width="2" points="440.7515,-130.3754 439.0014,-125.3754 437.2515,-130.3755 440.7515,-130.3754"/>
</g>
<!-- n25 -->
<g id="node26" class="node">
<title>n25</title>
<polygon fill="#ffffff" stroke="#000000" stroke-width="2" points="517.1746,-125.4036 494.8282,-125.4036 494.8282,-102.5964 517.1746,-102.5964 517.1746,-125.4036"/>
<text text-anchor="middle" x="506.0014" y="-110.4" font-family="Helvetica,sans-Serif" font-weight="bold" font-size="12.00" fill="#0000ff">b</text>
</g>
<!-- n24&#45;&gt;n25 -->
<g id="edge25" class="edge">
<title>n24-&gt;n25</title>
<path fill="none" stroke="#000000" stroke-width="2" d="M506.0014,-153.9927C506.0014,-147.0719 506.0014,-138.1236 506.0014,-130.4466"/>
<polygon fill="#000000" stroke="#000000" stroke-width="2" points="507.7515,-130.3754 506.0014,-125.3754 504.2515,-130.3755 507.7515,-130.3754"/>
</g>
<!-- n27 -->
<g id="node28" class="node">
<title>n27</title>
<polygon fill="#ffffff" stroke="#000000" stroke-width="2" points="577.1717,-176.8036 548.8311,-176.8036 548.8311,-153.9964 577.1717,-153.9964 577.1717,-176.8036"/>
<text text-anchor="middle" x="563.0014" y="-161.8" font-family="Helvetica,sans-Serif" font-weight="bold" font-size="12.00" fill="#0000ff">int</text>
</g>
<!-- n26&#45;&gt;n27 -->
<g id="edge27" class="edge">
<title>n26-&gt;n27</title>
<path fill="none" stroke="#000000" stroke-width="2" d="M567.6698,-205.3927C566.8619,-198.4719 565.8174,-189.5236 564.9212,-181.8466"/>
<polygon fill="#000000" stroke="#000000" stroke-width="2" points="566.6473,-181.5388 564.3293,-176.7754 563.1709,-181.9447 566.6473,-181.5388"/>
</g>
<!-- n28 -->
<g id="node29" class="node">
<title>n28</title>
<polygon fill="#ffffff" stroke="#000000" stroke-width="2" points="614.1672,-176.8036 595.8356,-176.8036 595.8356,-153.9964 614.1672,-153.9964 614.1672,-176.8036"/>
<text text-anchor="middle" x="605.0014" y="-161.8" font-family="Helvetica,sans-Serif" font-weight="bold" font-size="12.00" fill="#0000ff">i</text>
</g>
<!-- n26&#45;&gt;n28 -->
<g id="edge28" class="edge">
<title>n26-&gt;n28</title>
<path fill="none" stroke="#000000" stroke-width="2" d="M576.991,-205.3927C582.0246,-198.2057 588.5897,-188.8323 594.0987,-180.9666"/>
<polygon fill="#000000" stroke="#000000" stroke-width="2" points="595.5991,-181.8748 597.0342,-176.7754 592.7323,-179.8669 595.5991,-181.8748"/>
</g>
<!-- n30 -->
<g id="node31" class="node">
<title>n30</title>
<polygon fill="#ffffff" stroke="#000000" stroke-width="2" points="661.1717,-176.8036 632.8311,-176.8036 632.8311,-153.9964 661.1717,-153.9964 661.1717,-176.8036"/>
<text text-anchor="middle" x="647.0014" y="-161.8" font-family="Helvetica,sans-Serif" font-weight="bold" font-size="12.00" fill="#0000ff">int</text>
</g>
<!-- n29&#45;&gt;n30 -->
<g id="edge30" class="edge">
<title>n29-&gt;n30</title>
<path fill="none" stroke="#000000" stroke-width="2" d="M668.7873,-205.3927C664.9447,-198.3388 659.9548,-189.1787 655.7202,-181.4051"/>
<polygon fill="#000000" stroke="#000000" stroke-width="2" points="657.1268,-180.3291 653.1981,-176.7754 654.0533,-182.0034 657.1268,-180.3291"/>
</g>
<!-- n31 -->
<g id="node32" class="node">
<title>n31</title>
<polygon fill="#ffffff" stroke="#000000" stroke-width="2" points="701.0014,-176.8036 679.0014,-176.8036 679.0014,-153.9964 701.0014,-153.9964 701.0014,-176.8036"/>
<text text-anchor="middle" x="690.0014" y="-161.8" font-family="Helvetica,sans-Serif" font-weight="bold" font-size="12.00" fill="#0000ff">c</text>
</g>
<!-- n29&#45;&gt;n31 -->
<g id="edge31" class="edge">
<title>n29-&gt;n31</title>
<path fill="none" stroke="#000000" stroke-width="2" d="M678.3304,-205.3927C680.3501,-198.4719 682.9614,-189.5236 685.2018,-181.8466"/>
<polygon fill="#000000" stroke="#000000" stroke-width="2" points="686.9609,-182.0655 686.6817,-176.7754 683.601,-181.085 686.9609,-182.0655"/>
</g>
<!-- n32 -->
<g id="node33" class="node">
<title>n32</title>
<polygon fill="#ffffff" stroke="#000000" stroke-width="2" points="767.1737,-176.8036 718.8291,-176.8036 718.8291,-153.9964 767.1737,-153.9964 767.1737,-176.8036"/>
<text text-anchor="middle" x="743.0014" y="-161.8" font-family="Helvetica,sans-Serif" font-weight="bold" font-size="12.00" fill="#0000ff">EXPR</text>
</g>
<!-- n29&#45;&gt;n32 -->
<g id="edge32" class="edge">
<title>n29-&gt;n32</title>
<path fill="none" stroke="#000000" stroke-width="2" d="M690.0928,-205.3927C700.041,-197.873 713.1559,-187.9597 723.8394,-179.8843"/>
<polygon fill="#000000" stroke="#000000" stroke-width="2" points="725.0187,-181.1865 727.9522,-176.7754 722.9082,-178.3944 725.0187,-181.1865"/>
</g>
<!-- n33 -->
<g id="node34" class="node">
<title>n33</title>
<polygon fill="#ffffff" stroke="#000000" stroke-width="2" points="752.8391,-125.4036 733.1637,-125.4036 733.1637,-102.5964 752.8391,-102.5964 752.8391,-125.4036"/>
<text text-anchor="middle" x="743.0014" y="-110.4" font-family="Helvetica,sans-Serif" font-weight="bold" font-size="12.00" fill="#0000ff">.</text>
</g>
<!-- n32&#45;&gt;n33 -->
<g id="edge33" class="edge">
<title>n32-&gt;n33</title>
<path fill="none" stroke="#000000" stroke-width="2" d="M743.0014,-153.9927C743.0014,-147.0719 743.0014,-138.1236 743.0014,-130.4466"/>
<polygon fill="#000000" stroke="#000000" stroke-width="2" points="744.7515,-130.3754 743.0014,-125.3754 741.2515,-130.3755 744.7515,-130.3754"/>
</g>
<!-- n34 -->
<g id="node35" class="node">
<title>n34</title>
<polygon fill="#ffffff" stroke="#000000" stroke-width="2" points="733.1672,-74.0036 714.8356,-74.0036 714.8356,-51.1964 733.1672,-51.1964 733.1672,-74.0036"/>
<text text-anchor="middle" x="724.0014" y="-59" font-family="Helvetica,sans-Serif" font-weight="bold" font-size="12.00" fill="#0000ff">i</text>
</g>
<!-- n33&#45;&gt;n34 -->
<g id="edge34" class="edge">
<title>n33-&gt;n34</title>
<path fill="none" stroke="#000000" stroke-width="2" d="M738.7847,-102.5927C736.2264,-95.6719 732.9187,-86.7236 730.0809,-79.0466"/>
<polygon fill="#000000" stroke="#000000" stroke-width="2" points="731.5814,-78.0585 728.2063,-73.9754 728.2985,-79.2721 731.5814,-78.0585"/>
</g>
<!-- n35 -->
<g id="node36" class="node">
<title>n35</title>
<polygon fill="#ffffff" stroke="#000000" stroke-width="2" points="773.0014,-74.0036 751.0014,-74.0036 751.0014,-51.1964 773.0014,-51.1964 773.0014,-74.0036"/>
<text text-anchor="middle" x="762.0014" y="-59" font-family="Helvetica,sans-Serif" font-weight="bold" font-size="12.00" fill="#0000ff">x</text>
</g>
<!-- n33&#45;&gt;n35 -->
<g id="edge35" class="edge">
<title>n33-&gt;n35</title>
<path fill="none" stroke="#000000" stroke-width="2" d="M747.2181,-102.5927C749.7764,-95.6719 753.0841,-86.7236 755.9219,-79.0466"/>
<polygon fill="#000000" stroke="#000000" stroke-width="2" points="757.7043,-79.2721 757.7965,-73.9754 754.4214,-78.0585 757.7043,-79.2721"/>
</g>
<!-- n37 -->
<g id="node38" class="node">
<title>n37</title>
<polygon fill="#ffffff" stroke="#000000" stroke-width="2" points="834.1737,-176.8036 785.8291,-176.8036 785.8291,-153.9964 834.1737,-153.9964 834.1737,-176.8036"/>
<text text-anchor="middle" x="810.0014" y="-161.8" font-family="Helvetica,sans-Serif" font-weight="bold" font-size="12.00" fill="#0000ff">EXPR</text>
</g>
<!-- n36&#45;&gt;n37 -->
<g id="edge37" class="edge">
<title>n36-&gt;n37</title>
<path fill="none" stroke="#000000" stroke-width="2" d="M810.0014,-205.3927C810.0014,-198.4719 810.0014,-189.5236 810.0014,-181.8466"/>
<polygon fill="#000000" stroke="#000000" stroke-width="2" points="811.7515,-181.7754 810.0014,-176.7754 808.2515,-181.7755 811.7515,-181.7754"/>
</g>
<!-- n39 -->
<g id="node40" class="node">
<title>n39</title>
<polygon fill="#ffffff" stroke="#000000" stroke-width="2" points="901.1737,-176.8036 852.8291,-176.8036 852.8291,-153.9964 901.1737,-153.9964 901.1737,-176.8036"/>
<text text-anchor="middle" x="877.0014" y="-161.8" font-family="Helvetica,sans-Serif" font-weight="bold" font-size="12.00" fill="#0000ff">EXPR</text>
</g>
<!-- n36&#45;&gt;n39 -->
<g id="edge39" class="edge">
<title>n36-&gt;n39</title>
<path fill="none" stroke="#000000" stroke-width="2" d="M821.6719,-207.8468C831.6893,-200.1618 846.3193,-188.9382 858.0197,-179.9621"/>
<polygon fill="#000000" stroke="#000000" stroke-width="2" points="859.282,-181.1994 862.1839,-176.7675 857.1516,-178.4224 859.282,-181.1994"/>
</g>
<!-- n38 -->
<g id="node39" class="node">
<title>n38</title>
<polygon fill="#ffffff" stroke="#000000" stroke-width="2" points="821.0014,-125.4036 799.0014,-125.4036 799.0014,-102.5964 821.0014,-102.5964 821.0014,-125.4036"/>
<text text-anchor="middle" x="810.0014" y="-110.4" font-family="Helvetica,sans-Serif" font-weight="bold" font-size="12.00" fill="#0000ff">c</text>
</g>
<!-- n37&#45;&gt;n38 -->
<g id="edge38" class="edge">
<title>n37-&gt;n38</title>
<path fill="none" stroke="#000000" stroke-width="2" d="M810.0014,-153.9927C810.0014,-147.0719 810.0014,-138.1236 810.0014,-130.4466"/>
<polygon fill="#000000" stroke="#000000" stroke-width="2" points="811.7515,-130.3754 810.0014,-125.3754 808.2515,-130.3755 811.7515,-130.3754"/>
</g>
<!-- n40 -->
<g id="node41" class="node">
<title>n40</title>
<polygon fill="#ffffff" stroke="#000000" stroke-width="2" points="888.5082,-125.4036 865.4946,-125.4036 865.4946,-102.5964 888.5082,-102.5964 888.5082,-125.4036"/>
<text text-anchor="middle" x="877.0014" y="-110.4" font-family="Helvetica,sans-Serif" font-weight="bold" font-size="12.00" fill="#0000ff">+</text>
</g>
<!-- n39&#45;&gt;n40 -->
<g id="edge40" class="edge">
<title>n39-&gt;n40</title>
<path fill="none" stroke="#000000" stroke-width="2" d="M877.0014,-153.9927C877.0014,-147.0719 877.0014,-138.1236 877.0014,-130.4466"/>
<polygon fill="#000000" stroke="#000000" stroke-width="2" points="878.7515,-130.3754 877.0014,-125.3754 875.2515,-130.3755 878.7515,-130.3754"/>
</g>
<!-- n41 -->
<g id="node42" class="node">
<title>n41</title>
<polygon fill="#ffffff" stroke="#000000" stroke-width="2" points="867.5082,-74.0036 844.4946,-74.0036 844.4946,-51.1964 867.5082,-51.1964 867.5082,-74.0036"/>
<text text-anchor="middle" x="856.0014" y="-59" font-family="Helvetica,sans-Serif" font-weight="bold" font-size="12.00" fill="#0000ff">+</text>
</g>
<!-- n40&#45;&gt;n41 -->
<g id="edge41" class="edge">
<title>n40-&gt;n41</title>
<path fill="none" stroke="#000000" stroke-width="2" d="M872.3408,-102.5927C869.4589,-95.5388 865.7164,-86.3787 862.5405,-78.6051"/>
<polygon fill="#000000" stroke="#000000" stroke-width="2" points="864.1601,-77.9421 860.649,-73.9754 860.9201,-79.2659 864.1601,-77.9421"/>
</g>
<!-- n44 -->
<g id="node45" class="node">
<title>n44</title>
<polygon fill="#ffffff" stroke="#000000" stroke-width="2" points="906.8391,-74.0036 887.1637,-74.0036 887.1637,-51.1964 906.8391,-51.1964 906.8391,-74.0036"/>
<text text-anchor="middle" x="897.0014" y="-59" font-family="Helvetica,sans-Serif" font-weight="bold" font-size="12.00" fill="#0000ff">[</text>
</g>
<!-- n40&#45;&gt;n44 -->
<g id="edge44" class="edge">
<title>n40-&gt;n44</title>
<path fill="none" stroke="#000000" stroke-width="2" d="M881.44,-102.5927C884.133,-95.6719 887.6148,-86.7236 890.6019,-79.0466"/>
<polygon fill="#000000" stroke="#000000" stroke-width="2" points="892.3929,-79.2697 892.5752,-73.9754 889.1311,-78.0005 892.3929,-79.2697"/>
</g>
<!-- n42 -->
<g id="node43" class="node">
<title>n42</title>
<polygon fill="#ffffff" stroke="#000000" stroke-width="2" points="826.1746,-22.6036 803.8282,-22.6036 803.8282,.2036 826.1746,.2036 826.1746,-22.6036"/>
<text text-anchor="middle" x="815.0014" y="-7.6" font-family="Helvetica,sans-Serif" font-weight="bold" font-size="12.00" fill="#0000ff">a</text>
</g>
<!-- n41&#45;&gt;n42 -->
<g id="edge42" class="edge">
<title>n41-&gt;n42</title>
<path fill="none" stroke="#000000" stroke-width="2" d="M846.9022,-51.1927C841.1694,-44.0057 833.6925,-34.6323 827.4184,-26.7666"/>
<polygon fill="#000000" stroke="#000000" stroke-width="2" points="828.5612,-25.393 824.0752,-22.5754 825.8251,-27.5755 828.5612,-25.393"/>
</g>
<!-- n43 -->
<g id="node44" class="node">
<title>n43</title>
<polygon fill="#ffffff" stroke="#000000" stroke-width="2" points="867.1746,-22.6036 844.8282,-22.6036 844.8282,.2036 867.1746,.2036 867.1746,-22.6036"/>
<text text-anchor="middle" x="856.0014" y="-7.6" font-family="Helvetica,sans-Serif" font-weight="bold" font-size="12.00" fill="#0000ff">3</text>
</g>
<!-- n41&#45;&gt;n43 -->
<g id="edge43" class="edge">
<title>n41-&gt;n43</title>
<path fill="none" stroke="#000000" stroke-width="2" d="M856.0014,-51.1927C856.0014,-44.2719 856.0014,-35.3236 856.0014,-27.6466"/>
<polygon fill="#000000" stroke="#000000" stroke-width="2" points="857.7515,-27.5754 856.0014,-22.5754 854.2515,-27.5755 857.7515,-27.5754"/>
</g>
<!-- n45 -->
<g id="node46" class="node">
<title>n45</title>
<polygon fill="#ffffff" stroke="#000000" stroke-width="2" points="908.1746,-22.6036 885.8282,-22.6036 885.8282,.2036 908.1746,.2036 908.1746,-22.6036"/>
<text text-anchor="middle" x="897.0014" y="-7.6" font-family="Helvetica,sans-Serif" font-weight="bold" font-size="12.00" fill="#0000ff">a</text>
</g>
<!-- n44&#45;&gt;n45 -->
<g id="edge45" class="edge">
<title>n44-&gt;n45</title>
<path fill="none" stroke="#000000" stroke-width="2" d="M897.0014,-51.1927C897.0014,-44.2719 897.0014,-35.3236 897.0014,-27.6466"/>
<polygon fill="#000000" stroke="#000000" stroke-width="2" points="898.7515,-27.5754 897.0014,-22.5754 895.2515,-27.5755 898.7515,-27.5754"/>
</g>
<!-- n46 -->
<g id="node47" class="node">
<title>n46</title>
<polygon fill="#ffffff" stroke="#000000" stroke-width="2" points="949.1746,-22.6036 926.8282,-22.6036 926.8282,.2036 949.1746,.2036 949.1746,-22.6036"/>
<text text-anchor="middle" x="938.0014" y="-7.6" font-family="Helvetica,sans-Serif" font-weight="bold" font-size="12.00" fill="#0000ff">3</text>
</g>
<!-- n44&#45;&gt;n46 -->
<g id="edge46" class="edge">
<title>n44-&gt;n46</title>
<path fill="none" stroke="#000000" stroke-width="2" d="M906.1006,-51.1927C911.8334,-44.0057 919.3103,-34.6323 925.5844,-26.7666"/>
<polygon fill="#000000" stroke="#000000" stroke-width="2" points="927.1777,-27.5755 928.9276,-22.5754 924.4416,-25.393 927.1777,-27.5755"/>
</g>
<!-- n48 -->
<g id="node49" class="node">
<title>n48</title>
<polygon fill="#ffffff" stroke="#000000" stroke-width="2" points="938.9962,-176.8036 919.0066,-176.8036 919.0066,-153.9964 938.9962,-153.9964 938.9962,-176.8036"/>
<text text-anchor="middle" x="929.0014" y="-161.8" font-family="Helvetica,sans-Serif" font-weight="bold" font-size="12.00" fill="#0000ff">(</text>
</g>
<!-- n47&#45;&gt;n48 -->
<g id="edge48" class="edge">
<title>n47-&gt;n48</title>
<path fill="none" stroke="#000000" stroke-width="2" d="M903.3252,-205.3927C907.8539,-198.3388 913.7349,-189.1787 918.7257,-181.4051"/>
<polygon fill="#000000" stroke="#000000" stroke-width="2" points="920.4694,-181.9284 921.6981,-176.7754 917.5241,-180.0375 920.4694,-181.9284"/>
</g>
<!-- n49 -->
<g id="node50" class="node">
<title>n49</title>
<polygon fill="#ffffff" stroke="#000000" stroke-width="2" points="934.0014,-125.4036 912.0014,-125.4036 912.0014,-102.5964 934.0014,-102.5964 934.0014,-125.4036"/>
<text text-anchor="middle" x="923.0014" y="-110.4" font-family="Helvetica,sans-Serif" font-weight="bold" font-size="12.00" fill="#0000ff">c</text>
</g>
<!-- n48&#45;&gt;n49 -->
<g id="edge49" class="edge">
<title>n48-&gt;n49</title>
<path fill="none" stroke="#000000" stroke-width="2" d="M927.6698,-153.9927C926.8619,-147.0719 925.8174,-138.1236 924.9212,-130.4466"/>
<polygon fill="#000000" stroke="#000000" stroke-width="2" points="926.6473,-130.1388 924.3293,-125.3754 923.1709,-130.5447 926.6473,-130.1388"/>
</g>
<!-- n50 -->
<g id="node51" class="node">
<title>n50</title>
<polygon fill="#ffffff" stroke="#000000" stroke-width="2" points="1001.8446,-125.4036 952.1582,-125.4036 952.1582,-102.5964 1001.8446,-102.5964 1001.8446,-125.4036"/>
<text text-anchor="middle" x="977.0014" y="-110.4" font-family="Helvetica,sans-Serif" font-weight="bold" font-size="12.00" fill="#0000ff">ELIST</text>
</g>
<!-- n48&#45;&gt;n50 -->
<g id="edge50" class="edge">
<title>n48-&gt;n50</title>
<path fill="none" stroke="#000000" stroke-width="2" d="M939.181,-154.4994C946.0866,-147.1046 955.308,-137.23 962.9164,-129.0826"/>
<polygon fill="#000000" stroke="#000000" stroke-width="2" points="964.3711,-130.089 966.5047,-125.2402 961.813,-127.7002 964.3711,-130.089"/>
</g>
</g>
</svg>